%TF.GenerationSoftware,KiCad,Pcbnew,9.0.5*%
%TF.CreationDate,2026-08-13T09:55:37-04:00*%
%TF.ProjectId,esp32s3-can-sd-logger,65737033-3273-4332-9d63-616e2d73642d,rev?*%
%TF.SameCoordinates,Original*%
%TF.FileFunction,Copper,L1,Top*%
%TF.FilePolarity,Positive*%
%FSLAX46Y46*%
G04 Gerber Fmt 4.6, Leading zero omitted, Abs format (unit mm)*
G04 Created by KiCad (PCBNEW 9.0.5) date 2026-08-13 09:55:37*
%MOMM*%
%LPD*%
G01*
G04 APERTURE LIST*
G04 Aperture macros list*
%AMRoundRect*
0 Rectangle with rounded corners*
0 $1 Rounding radius*
0 $2 $3 $4 $5 $6 $7 $8 $9 X,Y pos of 4 corners*
0 Add a 4 corners polygon primitive as box body*
4,1,4,$2,$3,$4,$5,$6,$7,$8,$9,$2,$3,0*
0 Add four circle primitives for the rounded corners*
1,1,$1+$1,$2,$3*
1,1,$1+$1,$4,$5*
1,1,$1+$1,$6,$7*
1,1,$1+$1,$8,$9*
0 Add four rect primitives between the rounded corners*
20,1,$1+$1,$2,$3,$4,$5,0*
20,1,$1+$1,$4,$5,$6,$7,0*
20,1,$1+$1,$6,$7,$8,$9,0*
20,1,$1+$1,$8,$9,$2,$3,0*%
G04 Aperture macros list end*
%TA.AperFunction,EtchedComponent*%
%ADD10C,0.000000*%
%TD*%
%TA.AperFunction,SMDPad,CuDef*%
%ADD11RoundRect,0.250000X-0.262500X-0.450000X0.262500X-0.450000X0.262500X0.450000X-0.262500X0.450000X0*%
%TD*%
%TA.AperFunction,SMDPad,CuDef*%
%ADD12RoundRect,0.150000X-0.587500X-0.150000X0.587500X-0.150000X0.587500X0.150000X-0.587500X0.150000X0*%
%TD*%
%TA.AperFunction,SMDPad,CuDef*%
%ADD13R,1.000000X1.500000*%
%TD*%
%TA.AperFunction,SMDPad,CuDef*%
%ADD14RoundRect,0.250000X-0.250000X-0.475000X0.250000X-0.475000X0.250000X0.475000X-0.250000X0.475000X0*%
%TD*%
%TA.AperFunction,SMDPad,CuDef*%
%ADD15RoundRect,0.250000X-0.312500X-1.450000X0.312500X-1.450000X0.312500X1.450000X-0.312500X1.450000X0*%
%TD*%
%TA.AperFunction,SMDPad,CuDef*%
%ADD16C,1.500000*%
%TD*%
%TA.AperFunction,SMDPad,CuDef*%
%ADD17R,1.350000X0.900000*%
%TD*%
%TA.AperFunction,SMDPad,CuDef*%
%ADD18RoundRect,0.250000X-0.325000X-0.650000X0.325000X-0.650000X0.325000X0.650000X-0.325000X0.650000X0*%
%TD*%
%TA.AperFunction,SMDPad,CuDef*%
%ADD19RoundRect,0.150000X-0.825000X-0.150000X0.825000X-0.150000X0.825000X0.150000X-0.825000X0.150000X0*%
%TD*%
%TA.AperFunction,SMDPad,CuDef*%
%ADD20RoundRect,0.250000X-0.312500X-0.625000X0.312500X-0.625000X0.312500X0.625000X-0.312500X0.625000X0*%
%TD*%
%TA.AperFunction,ComponentPad*%
%ADD21R,1.700000X1.700000*%
%TD*%
%TA.AperFunction,ComponentPad*%
%ADD22C,1.700000*%
%TD*%
%TA.AperFunction,SMDPad,CuDef*%
%ADD23RoundRect,0.250000X-1.000000X-0.650000X1.000000X-0.650000X1.000000X0.650000X-1.000000X0.650000X0*%
%TD*%
%TA.AperFunction,SMDPad,CuDef*%
%ADD24RoundRect,0.243750X-0.243750X-0.456250X0.243750X-0.456250X0.243750X0.456250X-0.243750X0.456250X0*%
%TD*%
%TA.AperFunction,SMDPad,CuDef*%
%ADD25RoundRect,0.075000X-0.650000X-0.075000X0.650000X-0.075000X0.650000X0.075000X-0.650000X0.075000X0*%
%TD*%
%TA.AperFunction,SMDPad,CuDef*%
%ADD26RoundRect,0.150000X-0.512500X-0.150000X0.512500X-0.150000X0.512500X0.150000X-0.512500X0.150000X0*%
%TD*%
%TA.AperFunction,ComponentPad*%
%ADD27RoundRect,0.250000X-0.550000X-0.550000X0.550000X-0.550000X0.550000X0.550000X-0.550000X0.550000X0*%
%TD*%
%TA.AperFunction,ComponentPad*%
%ADD28C,1.600000*%
%TD*%
%TA.AperFunction,SMDPad,CuDef*%
%ADD29R,0.700000X1.750000*%
%TD*%
%TA.AperFunction,SMDPad,CuDef*%
%ADD30R,1.450000X1.000000*%
%TD*%
%TA.AperFunction,SMDPad,CuDef*%
%ADD31R,1.000000X1.550000*%
%TD*%
%TA.AperFunction,SMDPad,CuDef*%
%ADD32R,0.800000X1.500000*%
%TD*%
%TA.AperFunction,SMDPad,CuDef*%
%ADD33R,1.300000X1.500000*%
%TD*%
%TA.AperFunction,SMDPad,CuDef*%
%ADD34R,1.500000X1.500000*%
%TD*%
%TA.AperFunction,SMDPad,CuDef*%
%ADD35R,0.800000X1.400000*%
%TD*%
%TA.AperFunction,ComponentPad*%
%ADD36RoundRect,0.250000X-0.350000X-0.625000X0.350000X-0.625000X0.350000X0.625000X-0.350000X0.625000X0*%
%TD*%
%TA.AperFunction,ComponentPad*%
%ADD37O,1.200000X1.750000*%
%TD*%
%TA.AperFunction,SMDPad,CuDef*%
%ADD38RoundRect,0.250000X-0.450000X-0.350000X0.450000X-0.350000X0.450000X0.350000X-0.450000X0.350000X0*%
%TD*%
%TA.AperFunction,ComponentPad*%
%ADD39RoundRect,0.250000X0.625000X-0.350000X0.625000X0.350000X-0.625000X0.350000X-0.625000X-0.350000X0*%
%TD*%
%TA.AperFunction,ComponentPad*%
%ADD40O,1.750000X1.200000*%
%TD*%
%TA.AperFunction,SMDPad,CuDef*%
%ADD41RoundRect,0.218750X-0.218750X-0.381250X0.218750X-0.381250X0.218750X0.381250X-0.218750X0.381250X0*%
%TD*%
%TA.AperFunction,ViaPad*%
%ADD42C,0.600000*%
%TD*%
%TA.AperFunction,ViaPad*%
%ADD43C,0.800000*%
%TD*%
%TA.AperFunction,ViaPad*%
%ADD44C,0.500000*%
%TD*%
%TA.AperFunction,Conductor*%
%ADD45C,0.300000*%
%TD*%
%TA.AperFunction,Conductor*%
%ADD46C,0.550000*%
%TD*%
%TA.AperFunction,Conductor*%
%ADD47C,0.250000*%
%TD*%
G04 APERTURE END LIST*
D10*
%TA.AperFunction,EtchedComponent*%
%TO.C,JP4*%
G36*
X67925000Y-35985000D02*
G01*
X67425000Y-35985000D01*
X67425000Y-35385000D01*
X67925000Y-35385000D01*
X67925000Y-35985000D01*
G37*
%TD.AperFunction*%
%TD*%
D11*
%TO.P,R16,1*%
%TO.N,SD_CLK*%
X23852500Y-74275000D03*
%TO.P,R16,2*%
%TO.N,SD_CLK_C*%
X25677500Y-74275000D03*
%TD*%
D12*
%TO.P,D17,1*%
%TO.N,GND*%
X33567500Y-23675000D03*
%TO.P,D17,2*%
%TO.N,+3V3*%
X33567500Y-25575000D03*
%TO.P,D17,3*%
%TO.N,AIN4*%
X35442500Y-24625000D03*
%TD*%
D13*
%TO.P,JP5,1*%
%TO.N,AUX_B*%
X75825000Y-35685000D03*
%TO.P,JP5,2*%
%TO.N,CAN2_L_C*%
X77125000Y-35685000D03*
%TD*%
D11*
%TO.P,R45,1*%
%TO.N,AIN3_IN*%
X24442500Y-23775000D03*
%TO.P,R45,2*%
%TO.N,AIN3_A*%
X26267500Y-23775000D03*
%TD*%
D14*
%TO.P,C29,1*%
%TO.N,AGND_SENSE*%
X14535000Y-45005000D03*
%TO.P,C29,2*%
%TO.N,GND*%
X16435000Y-45005000D03*
%TD*%
%TO.P,C27,1*%
%TO.N,AIN3*%
X20575000Y-23805000D03*
%TO.P,C27,2*%
%TO.N,GND*%
X22475000Y-23805000D03*
%TD*%
D11*
%TO.P,R29,1*%
%TO.N,K_TX_G*%
X70602500Y-48825000D03*
%TO.P,R29,2*%
%TO.N,GND*%
X72427500Y-48825000D03*
%TD*%
D15*
%TO.P,PF1,1*%
%TO.N,OBD_VBAT*%
X43337500Y-39975000D03*
%TO.P,PF1,2*%
%TO.N,OBD_VBAT_F*%
X47612500Y-39975000D03*
%TD*%
D11*
%TO.P,R1,1*%
%TO.N,SCAP_TOP*%
X79252500Y-78425000D03*
%TO.P,R1,2*%
%TO.N,SCAP_MID*%
X81077500Y-78425000D03*
%TD*%
D13*
%TO.P,JP8,1*%
%TO.N,+5VS*%
X25135000Y-19225000D03*
%TO.P,JP8,2*%
%TO.N,AIN3_PU*%
X26435000Y-19225000D03*
%TD*%
D11*
%TO.P,R40,1*%
%TO.N,AIN1*%
X6602500Y-36025000D03*
%TO.P,R40,2*%
%TO.N,GND*%
X8427500Y-36025000D03*
%TD*%
%TO.P,R51,1*%
%TO.N,AIN4_A*%
X29492500Y-36025000D03*
%TO.P,R51,2*%
%TO.N,AIN4*%
X31317500Y-36025000D03*
%TD*%
D16*
%TO.P,TP5,1*%
%TO.N,GND*%
X41075000Y-84275000D03*
%TD*%
D14*
%TO.P,C15,1*%
%TO.N,+5V*%
X22625000Y-55005000D03*
%TO.P,C15,2*%
%TO.N,GND*%
X24525000Y-55005000D03*
%TD*%
D16*
%TO.P,TP6,1*%
%TO.N,SD_CLK_C*%
X44025000Y-84275000D03*
%TD*%
D13*
%TO.P,JP1,1*%
%TO.N,CAN_H*%
X29925000Y-61750000D03*
%TO.P,JP1,2*%
%TO.N,TERM_A*%
X31225000Y-61750000D03*
%TD*%
D14*
%TO.P,C22,1*%
%TO.N,+5V*%
X74625000Y-23615000D03*
%TO.P,C22,2*%
%TO.N,GND*%
X76525000Y-23615000D03*
%TD*%
D12*
%TO.P,D7,1*%
%TO.N,GND*%
X71327500Y-43775000D03*
%TO.P,D7,2*%
%TO.N,+3V3*%
X71327500Y-45675000D03*
%TO.P,D7,3*%
%TO.N,K_RX*%
X73202500Y-44725000D03*
%TD*%
D13*
%TO.P,JP3,1*%
%TO.N,CAN2_H_C*%
X72075000Y-35685000D03*
%TO.P,JP3,2*%
%TO.N,TERM2_A*%
X73375000Y-35685000D03*
%TD*%
D11*
%TO.P,R50,1*%
%TO.N,AIN4_PU*%
X33302500Y-32675000D03*
%TO.P,R50,2*%
%TO.N,AIN4_A*%
X35127500Y-32675000D03*
%TD*%
D14*
%TO.P,C30,1*%
%TO.N,+3V3*%
X2775000Y-23905000D03*
%TO.P,C30,2*%
%TO.N,GND*%
X4675000Y-23905000D03*
%TD*%
D17*
%TO.P,L1,1*%
%TO.N,CANH_T*%
X30500000Y-54725000D03*
%TO.P,L1,2*%
%TO.N,CAN_H*%
X35050000Y-54725000D03*
%TO.P,L1,3*%
%TO.N,CANL_T*%
X30500000Y-57225000D03*
%TO.P,L1,4*%
%TO.N,CAN_L*%
X35050000Y-57225000D03*
%TD*%
D14*
%TO.P,C26,1*%
%TO.N,AIN2*%
X11675000Y-23805000D03*
%TO.P,C26,2*%
%TO.N,GND*%
X13575000Y-23805000D03*
%TD*%
%TO.P,C18,1*%
%TO.N,+3V3*%
X74625000Y-13005000D03*
%TO.P,C18,2*%
%TO.N,GND*%
X76525000Y-13005000D03*
%TD*%
D11*
%TO.P,R10,1*%
%TO.N,+3V3*%
X50912500Y-51825000D03*
%TO.P,R10,2*%
%TO.N,I2C_SCL*%
X52737500Y-51825000D03*
%TD*%
D12*
%TO.P,D20,1*%
%TO.N,GND*%
X43517500Y-66775000D03*
%TO.P,D20,2*%
%TO.N,+3V3*%
X43517500Y-68675000D03*
%TO.P,D20,3*%
%TO.N,VBAT_SNS*%
X45392500Y-67725000D03*
%TD*%
D11*
%TO.P,R39,1*%
%TO.N,AIN1_A*%
X2792500Y-36025000D03*
%TO.P,R39,2*%
%TO.N,AIN1*%
X4617500Y-36025000D03*
%TD*%
%TO.P,R35,1*%
%TO.N,TERM2_A*%
X70602500Y-39335000D03*
%TO.P,R35,2*%
%TO.N,CAN2_SPLIT*%
X72427500Y-39335000D03*
%TD*%
D18*
%TO.P,C13,1*%
%TO.N,SD_VDD*%
X14110000Y-74475000D03*
%TO.P,C13,2*%
%TO.N,GND*%
X17060000Y-74475000D03*
%TD*%
D19*
%TO.P,U7,1*%
%TO.N,CAN2_TXD*%
X67250000Y-23430000D03*
%TO.P,U7,2*%
%TO.N,GND*%
X67250000Y-24700000D03*
%TO.P,U7,3*%
%TO.N,+5V*%
X67250000Y-25970000D03*
%TO.P,U7,4*%
%TO.N,CAN2_RXD*%
X67250000Y-27240000D03*
%TO.P,U7,5*%
%TO.N,+3V3*%
X72200000Y-27240000D03*
%TO.P,U7,6*%
%TO.N,CAN2L_T*%
X72200000Y-25970000D03*
%TO.P,U7,7*%
%TO.N,CAN2H_T*%
X72200000Y-24700000D03*
%TO.P,U7,8*%
%TO.N,CAN2_S*%
X72200000Y-23430000D03*
%TD*%
D20*
%TO.P,R3,1*%
%TO.N,+5V*%
X74292500Y-78605000D03*
%TO.P,R3,2*%
%TO.N,SCAP_TOP*%
X77217500Y-78605000D03*
%TD*%
D11*
%TO.P,R24,1*%
%TO.N,+3V3*%
X31092500Y-78475000D03*
%TO.P,R24,2*%
%TO.N,SD_CD*%
X32917500Y-78475000D03*
%TD*%
D21*
%TO.P,J7,1*%
%TO.N,+5V*%
X93000000Y-33000000D03*
D22*
%TO.P,J7,2*%
%TO.N,+3V3*%
X93000000Y-35540000D03*
%TO.P,J7,3*%
%TO.N,GND*%
X93000000Y-38080000D03*
%TO.P,J7,4*%
X93000000Y-40620000D03*
%TD*%
D16*
%TO.P,TP7,1*%
%TO.N,SD_CMD_C*%
X46975000Y-84275000D03*
%TD*%
D13*
%TO.P,JP9,1*%
%TO.N,+5VS*%
X29725000Y-29025000D03*
%TO.P,JP9,2*%
%TO.N,AIN4_PU*%
X31025000Y-29025000D03*
%TD*%
D11*
%TO.P,R21,1*%
%TO.N,SD_VDD*%
X18312500Y-78475000D03*
%TO.P,R21,2*%
%TO.N,SD_D1_C*%
X20137500Y-78475000D03*
%TD*%
D14*
%TO.P,C20,1*%
%TO.N,XTAL1*%
X79325000Y-35415000D03*
%TO.P,C20,2*%
%TO.N,GND*%
X81225000Y-35415000D03*
%TD*%
D11*
%TO.P,R57,1*%
%TO.N,AIN_SP2*%
X23102500Y-44975000D03*
%TO.P,R57,2*%
%TO.N,GND*%
X24927500Y-44975000D03*
%TD*%
D23*
%TO.P,D9,1*%
%TO.N,AUX_B*%
X74975000Y-31235000D03*
%TO.P,D9,2*%
%TO.N,GND*%
X78975000Y-31235000D03*
%TD*%
D11*
%TO.P,R42,1*%
%TO.N,AIN2_PU*%
X11692500Y-27185000D03*
%TO.P,R42,2*%
%TO.N,AIN2_A*%
X13517500Y-27185000D03*
%TD*%
D19*
%TO.P,U5,1*%
%TO.N,CAN_TX*%
X15250000Y-54820000D03*
%TO.P,U5,2*%
%TO.N,GND*%
X15250000Y-56090000D03*
%TO.P,U5,3*%
%TO.N,+5V*%
X15250000Y-57360000D03*
%TO.P,U5,4*%
%TO.N,CAN_RX*%
X15250000Y-58630000D03*
%TO.P,U5,5*%
%TO.N,+3V3*%
X20200000Y-58630000D03*
%TO.P,U5,6*%
%TO.N,CANL_T*%
X20200000Y-57360000D03*
%TO.P,U5,7*%
%TO.N,CANH_T*%
X20200000Y-56090000D03*
%TO.P,U5,8*%
%TO.N,CAN_S*%
X20200000Y-54820000D03*
%TD*%
D14*
%TO.P,C11,1*%
%TO.N,+3V3*%
X48325000Y-44355000D03*
%TO.P,C11,2*%
%TO.N,GND*%
X50225000Y-44355000D03*
%TD*%
%TO.P,C8,1*%
%TO.N,PFD_SENSE*%
X47585000Y-15005000D03*
%TO.P,C8,2*%
%TO.N,GND*%
X49485000Y-15005000D03*
%TD*%
D23*
%TO.P,D12,1*%
%TO.N,AIN2_IN*%
X12425000Y-14775000D03*
%TO.P,D12,2*%
%TO.N,GND*%
X16425000Y-14775000D03*
%TD*%
D24*
%TO.P,D4,1*%
%TO.N,PWR_LED_K*%
X56017500Y-48075000D03*
%TO.P,D4,2*%
%TO.N,+3V3*%
X57892500Y-48075000D03*
%TD*%
D16*
%TO.P,TP2,1*%
%TO.N,+3V3*%
X32225000Y-84275000D03*
%TD*%
D13*
%TO.P,JP4,1*%
%TO.N,K_LINE*%
X67025000Y-35685000D03*
%TO.P,JP4,2*%
%TO.N,AUX_A*%
X68325000Y-35685000D03*
%TO.P,JP4,3*%
%TO.N,CAN2_H_C*%
X69625000Y-35685000D03*
%TD*%
D14*
%TO.P,C5,1*%
%TO.N,+3V3*%
X52175000Y-48105000D03*
%TO.P,C5,2*%
%TO.N,GND*%
X54075000Y-48105000D03*
%TD*%
D18*
%TO.P,C4,1*%
%TO.N,+3V3*%
X43350000Y-48275000D03*
%TO.P,C4,2*%
%TO.N,GND*%
X46300000Y-48275000D03*
%TD*%
D11*
%TO.P,R22,1*%
%TO.N,SD_VDD*%
X22572500Y-78475000D03*
%TO.P,R22,2*%
%TO.N,SD_D2_C*%
X24397500Y-78475000D03*
%TD*%
%TO.P,R32,1*%
%TO.N,K_RX*%
X78222500Y-48825000D03*
%TO.P,R32,2*%
%TO.N,GND*%
X80047500Y-48825000D03*
%TD*%
%TO.P,R53,1*%
%TO.N,SENS_RTN*%
X2792500Y-49925000D03*
%TO.P,R53,2*%
%TO.N,AGND_A*%
X4617500Y-49925000D03*
%TD*%
%TO.P,R54,1*%
%TO.N,AGND_A*%
X6602500Y-49925000D03*
%TO.P,R54,2*%
%TO.N,AGND_SENSE*%
X8427500Y-49925000D03*
%TD*%
D25*
%TO.P,U8,1*%
%TO.N,GND*%
X3005000Y-18725000D03*
%TO.P,U8,2*%
%TO.N,N/C*%
X3005000Y-19225000D03*
%TO.P,U8,3*%
%TO.N,GND*%
X3005000Y-19725000D03*
%TO.P,U8,4*%
%TO.N,AIN1*%
X3005000Y-20225000D03*
%TO.P,U8,5*%
%TO.N,AIN2*%
X3005000Y-20725000D03*
%TO.P,U8,6*%
%TO.N,AIN3*%
X7405000Y-20725000D03*
%TO.P,U8,7*%
%TO.N,AGND_SENSE*%
X7405000Y-20225000D03*
%TO.P,U8,8*%
%TO.N,+3V3*%
X7405000Y-19725000D03*
%TO.P,U8,9*%
%TO.N,I2C_SDA*%
X7405000Y-19225000D03*
%TO.P,U8,10*%
%TO.N,I2C_SCL*%
X7405000Y-18725000D03*
%TD*%
D11*
%TO.P,R55,1*%
%TO.N,AGND_SENSE*%
X10412500Y-49925000D03*
%TO.P,R55,2*%
%TO.N,GND*%
X12237500Y-49925000D03*
%TD*%
D17*
%TO.P,L2,1*%
%TO.N,CAN2H_T*%
X82500000Y-23335000D03*
%TO.P,L2,2*%
%TO.N,CAN2_H_C*%
X87050000Y-23335000D03*
%TO.P,L2,3*%
%TO.N,CAN2L_T*%
X82500000Y-25835000D03*
%TO.P,L2,4*%
%TO.N,CAN2_L_C*%
X87050000Y-25835000D03*
%TD*%
D11*
%TO.P,R8,1*%
%TO.N,PWR_LED_K*%
X43292500Y-51825000D03*
%TO.P,R8,2*%
%TO.N,GND*%
X45117500Y-51825000D03*
%TD*%
D26*
%TO.P,U3,1*%
%TO.N,SD_CLK_C*%
X9937500Y-68775000D03*
%TO.P,U3,2*%
%TO.N,GND*%
X9937500Y-69725000D03*
%TO.P,U3,3*%
%TO.N,SD_CMD_C*%
X9937500Y-70675000D03*
%TO.P,U3,4*%
%TO.N,SD_D0_C*%
X12212500Y-70675000D03*
%TO.P,U3,5*%
%TO.N,+3V3*%
X12212500Y-69725000D03*
%TO.P,U3,6*%
%TO.N,SD_D1_C*%
X12212500Y-68775000D03*
%TD*%
D11*
%TO.P,R5,1*%
%TO.N,PFD_SENSE*%
X55262500Y-14975000D03*
%TO.P,R5,2*%
%TO.N,GND*%
X57087500Y-14975000D03*
%TD*%
D14*
%TO.P,C19,1*%
%TO.N,+3V3*%
X78475000Y-13005000D03*
%TO.P,C19,2*%
%TO.N,GND*%
X80375000Y-13005000D03*
%TD*%
D23*
%TO.P,D14,1*%
%TO.N,AIN3_IN*%
X21325000Y-14775000D03*
%TO.P,D14,2*%
%TO.N,GND*%
X25325000Y-14775000D03*
%TD*%
D27*
%TO.P,C7,1*%
%TO.N,SCAP_MID*%
X77475000Y-72275000D03*
D28*
%TO.P,C7,2*%
%TO.N,GND*%
X80975000Y-72275000D03*
%TD*%
D11*
%TO.P,R43,1*%
%TO.N,AIN2_A*%
X15502500Y-27185000D03*
%TO.P,R43,2*%
%TO.N,AIN2*%
X17327500Y-27185000D03*
%TD*%
%TO.P,R58,1*%
%TO.N,OBD_VBAT*%
X51452500Y-66975000D03*
%TO.P,R58,2*%
%TO.N,VBAT_SNS*%
X53277500Y-66975000D03*
%TD*%
D23*
%TO.P,D8,1*%
%TO.N,AUX_A*%
X67525000Y-31235000D03*
%TO.P,D8,2*%
%TO.N,GND*%
X71525000Y-31235000D03*
%TD*%
D11*
%TO.P,R34,1*%
%TO.N,CAN2_S*%
X66792500Y-39335000D03*
%TO.P,R34,2*%
%TO.N,GND*%
X68617500Y-39335000D03*
%TD*%
%TO.P,R49,1*%
%TO.N,AIN4_IN*%
X29492500Y-32675000D03*
%TO.P,R49,2*%
%TO.N,AIN4_A*%
X31317500Y-32675000D03*
%TD*%
D12*
%TO.P,Q3,1*%
%TO.N,K_TX_G*%
X67017500Y-43775000D03*
%TO.P,Q3,2*%
%TO.N,GND*%
X67017500Y-45675000D03*
%TO.P,Q3,3*%
%TO.N,K_TX_D*%
X68892500Y-44725000D03*
%TD*%
D11*
%TO.P,R26,1*%
%TO.N,TERM_A*%
X18602500Y-66025000D03*
%TO.P,R26,2*%
%TO.N,CAN_SPLIT*%
X20427500Y-66025000D03*
%TD*%
D21*
%TO.P,J6,1*%
%TO.N,LED_5V*%
X93000000Y-20000000D03*
D22*
%TO.P,J6,2*%
%TO.N,LED_DIN_J*%
X93000000Y-22540000D03*
%TO.P,J6,3*%
%TO.N,GND*%
X93000000Y-25080000D03*
%TD*%
D11*
%TO.P,R11,1*%
%TO.N,LED_DIN_MCU*%
X81542500Y-59975000D03*
%TO.P,R11,2*%
%TO.N,LED_DIN_A*%
X83367500Y-59975000D03*
%TD*%
D13*
%TO.P,JP2,1*%
%TO.N,OBD_VBAT_F*%
X75645000Y-44275000D03*
%TO.P,JP2,2*%
%TO.N,K_PU*%
X76945000Y-44275000D03*
%TD*%
D21*
%TO.P,J3,1*%
%TO.N,+3V3*%
X40000000Y-14000000D03*
D22*
%TO.P,J3,2*%
X40000000Y-16540000D03*
%TO.P,J3,3*%
%TO.N,N/C*%
X40000000Y-19080000D03*
%TO.P,J3,4*%
%TO.N,AIN1*%
X40000000Y-21620000D03*
%TO.P,J3,5*%
%TO.N,AIN2*%
X40000000Y-24160000D03*
%TO.P,J3,6*%
%TO.N,AIN3*%
X40000000Y-26700000D03*
%TO.P,J3,7*%
%TO.N,AIN4*%
X40000000Y-29240000D03*
%TO.P,J3,8*%
%TO.N,PWR_FAIL*%
X40000000Y-31780000D03*
%TO.P,J3,9*%
%TO.N,CAN_S*%
X40000000Y-34320000D03*
%TO.P,J3,10*%
%TO.N,CAN_TX*%
X40000000Y-36860000D03*
%TO.P,J3,11*%
%TO.N,CAN_RX*%
X40000000Y-39400000D03*
%TO.P,J3,12*%
%TO.N,VBAT_SNS*%
X40000000Y-41940000D03*
%TO.P,J3,13*%
%TO.N,N/C*%
X40000000Y-44480000D03*
%TO.P,J3,14*%
X40000000Y-47020000D03*
%TO.P,J3,15*%
%TO.N,I2C_SCL*%
X40000000Y-49560000D03*
%TO.P,J3,16*%
%TO.N,I2C_SDA*%
X40000000Y-52100000D03*
%TO.P,J3,17*%
%TO.N,SD_CD*%
X40000000Y-54640000D03*
%TO.P,J3,18*%
%TO.N,SD_D0*%
X40000000Y-57180000D03*
%TO.P,J3,19*%
%TO.N,SD_CMD*%
X40000000Y-59720000D03*
%TO.P,J3,20*%
%TO.N,SD_CLK*%
X40000000Y-62260000D03*
%TO.P,J3,21*%
%TO.N,+5V*%
X40000000Y-64800000D03*
%TO.P,J3,22*%
%TO.N,GND*%
X40000000Y-67340000D03*
%TD*%
D11*
%TO.P,R27,1*%
%TO.N,CAN_SPLIT*%
X22412500Y-66025000D03*
%TO.P,R27,2*%
%TO.N,CAN_L*%
X24237500Y-66025000D03*
%TD*%
D12*
%TO.P,D19,1*%
%TO.N,GND*%
X10467500Y-44775000D03*
%TO.P,D19,2*%
%TO.N,+3V3*%
X10467500Y-46675000D03*
%TO.P,D19,3*%
%TO.N,AGND_SENSE*%
X12342500Y-45725000D03*
%TD*%
D16*
%TO.P,TP4,1*%
%TO.N,OBD_VBAT*%
X38125000Y-84275000D03*
%TD*%
D11*
%TO.P,R4,1*%
%TO.N,+5V*%
X51452500Y-14975000D03*
%TO.P,R4,2*%
%TO.N,PFD_SENSE*%
X53277500Y-14975000D03*
%TD*%
%TO.P,R19,1*%
%TO.N,SD_VDD*%
X9792500Y-78475000D03*
%TO.P,R19,2*%
%TO.N,SD_CMD_C*%
X11617500Y-78475000D03*
%TD*%
D18*
%TO.P,C9,1*%
%TO.N,+5VS*%
X47300000Y-33525000D03*
%TO.P,C9,2*%
%TO.N,GND*%
X50250000Y-33525000D03*
%TD*%
D23*
%TO.P,D18,1*%
%TO.N,SENS_RTN*%
X3525000Y-45775000D03*
%TO.P,D18,2*%
%TO.N,GND*%
X7525000Y-45775000D03*
%TD*%
D11*
%TO.P,R23,1*%
%TO.N,SD_VDD*%
X26832500Y-78475000D03*
%TO.P,R23,2*%
%TO.N,SD_D3_C*%
X28657500Y-78475000D03*
%TD*%
%TO.P,R46,1*%
%TO.N,AIN3_PU*%
X20592500Y-27185000D03*
%TO.P,R46,2*%
%TO.N,AIN3_A*%
X22417500Y-27185000D03*
%TD*%
D12*
%TO.P,U1,1*%
%TO.N,PWR_FAIL*%
X43517500Y-14775000D03*
%TO.P,U1,2*%
%TO.N,PFD_SENSE*%
X43517500Y-16675000D03*
%TO.P,U1,3*%
%TO.N,GND*%
X45392500Y-15725000D03*
%TD*%
D23*
%TO.P,D5,1*%
%TO.N,CAN_H*%
X15525000Y-62250000D03*
%TO.P,D5,2*%
%TO.N,GND*%
X19525000Y-62250000D03*
%TD*%
D11*
%TO.P,R28,1*%
%TO.N,K_TX*%
X66792500Y-48825000D03*
%TO.P,R28,2*%
%TO.N,K_TX_G*%
X68617500Y-48825000D03*
%TD*%
%TO.P,R47,1*%
%TO.N,AIN3_A*%
X24402500Y-27185000D03*
%TO.P,R47,2*%
%TO.N,AIN3*%
X26227500Y-27185000D03*
%TD*%
D27*
%TO.P,C6,1*%
%TO.N,SCAP_TOP*%
X68525000Y-72275000D03*
D28*
%TO.P,C6,2*%
%TO.N,SCAP_MID*%
X72025000Y-72275000D03*
%TD*%
D14*
%TO.P,C17,1*%
%TO.N,CAN_SPLIT*%
X33425000Y-61480000D03*
%TO.P,C17,2*%
%TO.N,GND*%
X35325000Y-61480000D03*
%TD*%
D20*
%TO.P,R33,1*%
%TO.N,K_PU*%
X84222500Y-44155000D03*
%TO.P,R33,2*%
%TO.N,K_LINE*%
X87147500Y-44155000D03*
%TD*%
D14*
%TO.P,C3,1*%
%TO.N,+5V*%
X48325000Y-48105000D03*
%TO.P,C3,2*%
%TO.N,GND*%
X50225000Y-48105000D03*
%TD*%
D11*
%TO.P,R31,1*%
%TO.N,K_LINE*%
X74412500Y-48825000D03*
%TO.P,R31,2*%
%TO.N,K_RX*%
X76237500Y-48825000D03*
%TD*%
D23*
%TO.P,D3,1*%
%TO.N,+5VS*%
X50375000Y-28775000D03*
%TO.P,D3,2*%
%TO.N,GND*%
X54375000Y-28775000D03*
%TD*%
D11*
%TO.P,R37,1*%
%TO.N,AIN1_IN*%
X2792500Y-32675000D03*
%TO.P,R37,2*%
%TO.N,AIN1_A*%
X4617500Y-32675000D03*
%TD*%
%TO.P,R44,1*%
%TO.N,AIN2*%
X11692500Y-30535000D03*
%TO.P,R44,2*%
%TO.N,GND*%
X13517500Y-30535000D03*
%TD*%
D23*
%TO.P,D2,1*%
%TO.N,+5V*%
X67525000Y-79225000D03*
%TO.P,D2,2*%
%TO.N,SCAP_TOP*%
X71525000Y-79225000D03*
%TD*%
D19*
%TO.P,U6,1*%
%TO.N,CAN2_TXD*%
X67250000Y-12795000D03*
%TO.P,U6,2*%
%TO.N,CAN2_RXD*%
X67250000Y-14065000D03*
%TO.P,U6,3*%
%TO.N,N/C*%
X67250000Y-15335000D03*
%TO.P,U6,4*%
%TO.N,CAN2_INT*%
X67250000Y-16605000D03*
%TO.P,U6,5*%
%TO.N,XTAL2*%
X67250000Y-17875000D03*
%TO.P,U6,6*%
%TO.N,XTAL1*%
X67250000Y-19145000D03*
%TO.P,U6,7*%
%TO.N,GND*%
X67250000Y-20415000D03*
%TO.P,U6,8*%
%TO.N,N/C*%
X72200000Y-20415000D03*
%TO.P,U6,9*%
X72200000Y-19145000D03*
%TO.P,U6,10*%
%TO.N,CAN2_SCK*%
X72200000Y-17875000D03*
%TO.P,U6,11*%
%TO.N,CAN2_MOSI*%
X72200000Y-16605000D03*
%TO.P,U6,12*%
%TO.N,CAN2_MISO*%
X72200000Y-15335000D03*
%TO.P,U6,13*%
%TO.N,CAN2_CS*%
X72200000Y-14065000D03*
%TO.P,U6,14*%
%TO.N,+3V3*%
X72200000Y-12795000D03*
%TD*%
D14*
%TO.P,C21,1*%
%TO.N,XTAL2*%
X83175000Y-35415000D03*
%TO.P,C21,2*%
%TO.N,GND*%
X85075000Y-35415000D03*
%TD*%
D11*
%TO.P,R25,1*%
%TO.N,CAN_S*%
X14792500Y-66025000D03*
%TO.P,R25,2*%
%TO.N,GND*%
X16617500Y-66025000D03*
%TD*%
D12*
%TO.P,D11,1*%
%TO.N,GND*%
X6867500Y-23675000D03*
%TO.P,D11,2*%
%TO.N,+3V3*%
X6867500Y-25575000D03*
%TO.P,D11,3*%
%TO.N,AIN1*%
X8742500Y-24625000D03*
%TD*%
D11*
%TO.P,R18,1*%
%TO.N,SD_D0*%
X32372500Y-74275000D03*
%TO.P,R18,2*%
%TO.N,SD_D0_C*%
X34197500Y-74275000D03*
%TD*%
%TO.P,R38,1*%
%TO.N,AIN1_PU*%
X6602500Y-32675000D03*
%TO.P,R38,2*%
%TO.N,AIN1_A*%
X8427500Y-32675000D03*
%TD*%
D16*
%TO.P,TP3,1*%
%TO.N,+5VS*%
X35175000Y-84275000D03*
%TD*%
D23*
%TO.P,D1,1*%
%TO.N,OBD_VBAT_F*%
X50375000Y-39775000D03*
%TO.P,D1,2*%
%TO.N,GND*%
X54375000Y-39775000D03*
%TD*%
D29*
%TO.P,J8,1*%
%TO.N,SD_D2_C*%
X13825000Y-86150000D03*
%TO.P,J8,2*%
%TO.N,SD_D3_C*%
X14925000Y-86150000D03*
%TO.P,J8,3*%
%TO.N,SD_CMD_C*%
X16025000Y-86150000D03*
%TO.P,J8,4*%
%TO.N,SD_VDD*%
X17125000Y-86150000D03*
%TO.P,J8,5*%
%TO.N,SD_CLK_C*%
X18225000Y-86150000D03*
%TO.P,J8,6*%
%TO.N,GND*%
X19325000Y-86150000D03*
%TO.P,J8,7*%
%TO.N,SD_D0_C*%
X20425000Y-86150000D03*
%TO.P,J8,8*%
%TO.N,SD_D1_C*%
X21525000Y-86150000D03*
D30*
%TO.P,J8,9*%
%TO.N,SD_CD*%
X22650000Y-95375000D03*
D31*
%TO.P,J8,10*%
%TO.N,GND*%
X11425000Y-96950000D03*
D32*
%TO.P,J8,11*%
%TO.N,N/C*%
X22975000Y-93875000D03*
D33*
X22725000Y-86275000D03*
D34*
X11375000Y-86275000D03*
D35*
X11025000Y-94525000D03*
%TD*%
D12*
%TO.P,Q1,1*%
%TO.N,SD_PG*%
X20017500Y-68775000D03*
%TO.P,Q1,2*%
%TO.N,+3V3*%
X20017500Y-70675000D03*
%TO.P,Q1,3*%
%TO.N,SD_VDD*%
X21892500Y-69725000D03*
%TD*%
D11*
%TO.P,R2,1*%
%TO.N,SCAP_MID*%
X83062500Y-78425000D03*
%TO.P,R2,2*%
%TO.N,GND*%
X84887500Y-78425000D03*
%TD*%
D23*
%TO.P,D10,1*%
%TO.N,AIN1_IN*%
X3525000Y-14775000D03*
%TO.P,D10,2*%
%TO.N,GND*%
X7525000Y-14775000D03*
%TD*%
D13*
%TO.P,JP6,1*%
%TO.N,+5VS*%
X3025000Y-29025000D03*
%TO.P,JP6,2*%
%TO.N,AIN1_PU*%
X4325000Y-29025000D03*
%TD*%
D36*
%TO.P,J9,1*%
%TO.N,+5VS*%
X12000000Y-6500000D03*
D37*
%TO.P,J9,2*%
X14000000Y-6500000D03*
%TO.P,J9,3*%
%TO.N,AIN1_IN*%
X16000000Y-6500000D03*
%TO.P,J9,4*%
%TO.N,AIN2_IN*%
X18000000Y-6500000D03*
%TO.P,J9,5*%
%TO.N,SENS_RTN*%
X20000000Y-6500000D03*
%TO.P,J9,6*%
X22000000Y-6500000D03*
%TO.P,J9,7*%
%TO.N,AIN3_IN*%
X24000000Y-6500000D03*
%TO.P,J9,8*%
%TO.N,AIN4_IN*%
X26000000Y-6500000D03*
%TO.P,J9,9*%
%TO.N,GND*%
X28000000Y-6500000D03*
%TO.P,J9,10*%
X30000000Y-6500000D03*
%TD*%
D11*
%TO.P,R36,1*%
%TO.N,CAN2_SPLIT*%
X74412500Y-39335000D03*
%TO.P,R36,2*%
%TO.N,CAN2_L_C*%
X76237500Y-39335000D03*
%TD*%
%TO.P,R13,1*%
%TO.N,+3V3*%
X29312500Y-68975000D03*
%TO.P,R13,2*%
%TO.N,SD_PG*%
X31137500Y-68975000D03*
%TD*%
%TO.P,R9,1*%
%TO.N,+3V3*%
X47102500Y-51825000D03*
%TO.P,R9,2*%
%TO.N,I2C_SDA*%
X48927500Y-51825000D03*
%TD*%
D23*
%TO.P,D16,1*%
%TO.N,AIN4_IN*%
X30225000Y-14775000D03*
%TO.P,D16,2*%
%TO.N,GND*%
X34225000Y-14775000D03*
%TD*%
D11*
%TO.P,R52,1*%
%TO.N,AIN4*%
X33302500Y-36025000D03*
%TO.P,R52,2*%
%TO.N,GND*%
X35127500Y-36025000D03*
%TD*%
D14*
%TO.P,C32,1*%
%TO.N,VBAT_SNS*%
X47585000Y-67005000D03*
%TO.P,C32,2*%
%TO.N,GND*%
X49485000Y-67005000D03*
%TD*%
%TO.P,C12,1*%
%TO.N,+5V*%
X77675000Y-60005000D03*
%TO.P,C12,2*%
%TO.N,GND*%
X79575000Y-60005000D03*
%TD*%
D20*
%TO.P,R30,1*%
%TO.N,K_TX_D*%
X79212500Y-44155000D03*
%TO.P,R30,2*%
%TO.N,K_LINE*%
X82137500Y-44155000D03*
%TD*%
D16*
%TO.P,TP10,1*%
%TO.N,K_LINE*%
X55825000Y-84275000D03*
%TD*%
D14*
%TO.P,C16,1*%
%TO.N,+3V3*%
X26475000Y-55005000D03*
%TO.P,C16,2*%
%TO.N,GND*%
X28375000Y-55005000D03*
%TD*%
D16*
%TO.P,TP9,1*%
%TO.N,CAN_L*%
X52875000Y-84275000D03*
%TD*%
D14*
%TO.P,C14,1*%
%TO.N,SD_VDD*%
X19535000Y-74305000D03*
%TO.P,C14,2*%
%TO.N,GND*%
X21435000Y-74305000D03*
%TD*%
D23*
%TO.P,D6,1*%
%TO.N,CAN_L*%
X22975000Y-62250000D03*
%TO.P,D6,2*%
%TO.N,GND*%
X26975000Y-62250000D03*
%TD*%
D18*
%TO.P,C2,1*%
%TO.N,+5V*%
X56100000Y-44525000D03*
%TO.P,C2,2*%
%TO.N,GND*%
X59050000Y-44525000D03*
%TD*%
D26*
%TO.P,U4,1*%
%TO.N,SD_D2_C*%
X14937500Y-68775000D03*
%TO.P,U4,2*%
%TO.N,GND*%
X14937500Y-69725000D03*
%TO.P,U4,3*%
%TO.N,SD_D3_C*%
X14937500Y-70675000D03*
%TO.P,U4,4*%
%TO.N,SD_CD*%
X17212500Y-70675000D03*
%TO.P,U4,5*%
%TO.N,+3V3*%
X17212500Y-69725000D03*
%TO.P,U4,6*%
%TO.N,N/C*%
X17212500Y-68775000D03*
%TD*%
D12*
%TO.P,D13,1*%
%TO.N,GND*%
X11917500Y-18725000D03*
%TO.P,D13,2*%
%TO.N,+3V3*%
X11917500Y-20625000D03*
%TO.P,D13,3*%
%TO.N,AIN2*%
X13792500Y-19675000D03*
%TD*%
D21*
%TO.P,J4,1*%
%TO.N,GND*%
X62860000Y-14000000D03*
D22*
%TO.P,J4,2*%
%TO.N,N/C*%
X62860000Y-16540000D03*
%TO.P,J4,3*%
X62860000Y-19080000D03*
%TO.P,J4,4*%
%TO.N,K_RX*%
X62860000Y-21620000D03*
%TO.P,J4,5*%
%TO.N,K_TX*%
X62860000Y-24160000D03*
%TO.P,J4,6*%
%TO.N,CAN2_CS*%
X62860000Y-26700000D03*
%TO.P,J4,7*%
%TO.N,CAN2_MISO*%
X62860000Y-29240000D03*
%TO.P,J4,8*%
%TO.N,CAN2_MOSI*%
X62860000Y-31780000D03*
%TO.P,J4,9*%
%TO.N,CAN2_SCK*%
X62860000Y-34320000D03*
%TO.P,J4,10*%
%TO.N,N/C*%
X62860000Y-36860000D03*
%TO.P,J4,11*%
X62860000Y-39400000D03*
%TO.P,J4,12*%
X62860000Y-41940000D03*
%TO.P,J4,13*%
X62860000Y-44480000D03*
%TO.P,J4,14*%
X62860000Y-47020000D03*
%TO.P,J4,15*%
X62860000Y-49560000D03*
%TO.P,J4,16*%
%TO.N,LED_DIN_MCU*%
X62860000Y-52100000D03*
%TO.P,J4,17*%
%TO.N,SD_PWR_EN*%
X62860000Y-54640000D03*
%TO.P,J4,18*%
%TO.N,CAN2_INT*%
X62860000Y-57180000D03*
%TO.P,J4,19*%
%TO.N,N/C*%
X62860000Y-59720000D03*
%TO.P,J4,20*%
X62860000Y-62260000D03*
%TO.P,J4,21*%
%TO.N,GND*%
X62860000Y-64800000D03*
%TO.P,J4,22*%
X62860000Y-67340000D03*
%TD*%
D16*
%TO.P,TP8,1*%
%TO.N,CAN_H*%
X49925000Y-84275000D03*
%TD*%
D13*
%TO.P,JP7,1*%
%TO.N,+5VS*%
X16235000Y-19225000D03*
%TO.P,JP7,2*%
%TO.N,AIN2_PU*%
X17535000Y-19225000D03*
%TD*%
D26*
%TO.P,U2,1*%
%TO.N,GND*%
X73287500Y-59775000D03*
%TO.P,U2,2*%
%TO.N,LED_DIN_A*%
X73287500Y-60725000D03*
%TO.P,U2,3*%
%TO.N,GND*%
X73287500Y-61675000D03*
%TO.P,U2,4*%
%TO.N,LED_DIN*%
X75562500Y-61675000D03*
%TO.P,U2,5*%
%TO.N,+5V*%
X75562500Y-59775000D03*
%TD*%
D38*
%TO.P,Y1,1*%
%TO.N,XTAL1*%
X81925000Y-32085000D03*
%TO.P,Y1,2*%
%TO.N,GND*%
X84125000Y-32085000D03*
%TO.P,Y1,3*%
%TO.N,XTAL2*%
X84125000Y-30385000D03*
%TO.P,Y1,4*%
%TO.N,GND*%
X81925000Y-30385000D03*
%TD*%
D15*
%TO.P,PF2,1*%
%TO.N,+5V*%
X43337500Y-28975000D03*
%TO.P,PF2,2*%
%TO.N,VSENS_F*%
X47612500Y-28975000D03*
%TD*%
D14*
%TO.P,C25,1*%
%TO.N,AIN1*%
X6525000Y-28755000D03*
%TO.P,C25,2*%
%TO.N,GND*%
X8425000Y-28755000D03*
%TD*%
%TO.P,C24,1*%
%TO.N,CAN2_SPLIT*%
X87025000Y-35415000D03*
%TO.P,C24,2*%
%TO.N,GND*%
X88925000Y-35415000D03*
%TD*%
D36*
%TO.P,J2,1*%
%TO.N,AUX_A*%
X68000000Y-6500000D03*
D37*
%TO.P,J2,2*%
%TO.N,AUX_B*%
X70000000Y-6500000D03*
%TO.P,J2,3*%
%TO.N,GND*%
X72000000Y-6500000D03*
%TO.P,J2,4*%
X74000000Y-6500000D03*
%TD*%
D39*
%TO.P,J1,1*%
%TO.N,OBD_VBAT*%
X4000000Y-66000000D03*
D40*
%TO.P,J1,2*%
%TO.N,GND*%
X4000000Y-64000000D03*
%TO.P,J1,3*%
%TO.N,CAN_H*%
X4000000Y-62000000D03*
%TO.P,J1,4*%
%TO.N,CAN_L*%
X4000000Y-60000000D03*
%TD*%
D12*
%TO.P,Q2,1*%
%TO.N,SD_EN_G*%
X24777500Y-68775000D03*
%TO.P,Q2,2*%
%TO.N,GND*%
X24777500Y-70675000D03*
%TO.P,Q2,3*%
%TO.N,SD_PG*%
X26652500Y-69725000D03*
%TD*%
D16*
%TO.P,TP1,1*%
%TO.N,+5V*%
X29275000Y-84275000D03*
%TD*%
D11*
%TO.P,R56,1*%
%TO.N,AIN_SP1*%
X19292500Y-44975000D03*
%TO.P,R56,2*%
%TO.N,GND*%
X21117500Y-44975000D03*
%TD*%
%TO.P,R48,1*%
%TO.N,AIN3*%
X20592500Y-30535000D03*
%TO.P,R48,2*%
%TO.N,GND*%
X22417500Y-30535000D03*
%TD*%
D21*
%TO.P,J5,1*%
%TO.N,GND*%
X93000000Y-46000000D03*
D22*
%TO.P,J5,2*%
%TO.N,+3V3*%
X93000000Y-48540000D03*
%TO.P,J5,3*%
%TO.N,I2C_SDA*%
X93000000Y-51080000D03*
%TO.P,J5,4*%
%TO.N,I2C_SCL*%
X93000000Y-53620000D03*
%TD*%
D11*
%TO.P,R6,1*%
%TO.N,+3V3*%
X43292500Y-19825000D03*
%TO.P,R6,2*%
%TO.N,PWR_FAIL*%
X45117500Y-19825000D03*
%TD*%
D12*
%TO.P,D15,1*%
%TO.N,GND*%
X20817500Y-18725000D03*
%TO.P,D15,2*%
%TO.N,+3V3*%
X20817500Y-20625000D03*
%TO.P,D15,3*%
%TO.N,AIN3*%
X22692500Y-19675000D03*
%TD*%
D11*
%TO.P,R41,1*%
%TO.N,AIN2_IN*%
X15542500Y-23775000D03*
%TO.P,R41,2*%
%TO.N,AIN2_A*%
X17367500Y-23775000D03*
%TD*%
%TO.P,R12,1*%
%TO.N,LED_DIN*%
X85352500Y-59975000D03*
%TO.P,R12,2*%
%TO.N,LED_DIN_J*%
X87177500Y-59975000D03*
%TD*%
%TO.P,R7,1*%
%TO.N,PWR_FAIL*%
X47102500Y-19825000D03*
%TO.P,R7,2*%
%TO.N,PFD_SENSE*%
X48927500Y-19825000D03*
%TD*%
D21*
%TO.P,J10,1*%
%TO.N,AIN_SP1*%
X93000000Y-59000000D03*
D22*
%TO.P,J10,2*%
%TO.N,AIN_SP2*%
X93000000Y-61540000D03*
%TO.P,J10,3*%
%TO.N,AGND_SENSE*%
X93000000Y-64080000D03*
%TO.P,J10,4*%
%TO.N,GND*%
X93000000Y-66620000D03*
%TD*%
D18*
%TO.P,C10,1*%
%TO.N,+3V3*%
X43350000Y-44525000D03*
%TO.P,C10,2*%
%TO.N,GND*%
X46300000Y-44525000D03*
%TD*%
D16*
%TO.P,TP11,1*%
%TO.N,AUX_A*%
X58775000Y-84275000D03*
%TD*%
D14*
%TO.P,C23,1*%
%TO.N,+3V3*%
X78475000Y-23615000D03*
%TO.P,C23,2*%
%TO.N,GND*%
X80375000Y-23615000D03*
%TD*%
D11*
%TO.P,R59,1*%
%TO.N,VBAT_SNS*%
X55262500Y-66975000D03*
%TO.P,R59,2*%
%TO.N,GND*%
X57087500Y-66975000D03*
%TD*%
D14*
%TO.P,C28,1*%
%TO.N,AIN4*%
X33225000Y-28755000D03*
%TO.P,C28,2*%
%TO.N,GND*%
X35125000Y-28755000D03*
%TD*%
%TO.P,C1,1*%
%TO.N,OBD_VBAT_F*%
X52175000Y-44355000D03*
%TO.P,C1,2*%
%TO.N,GND*%
X54075000Y-44355000D03*
%TD*%
D11*
%TO.P,R14,1*%
%TO.N,SD_PWR_EN*%
X33572500Y-68975000D03*
%TO.P,R14,2*%
%TO.N,SD_EN_G*%
X35397500Y-68975000D03*
%TD*%
D15*
%TO.P,PF3,1*%
%TO.N,+5V*%
X66837500Y-60975000D03*
%TO.P,PF3,2*%
%TO.N,LED_5V*%
X71112500Y-60975000D03*
%TD*%
D41*
%TO.P,FB1,1*%
%TO.N,VSENS_F*%
X43212500Y-33225000D03*
%TO.P,FB1,2*%
%TO.N,+5VS*%
X45337500Y-33225000D03*
%TD*%
D11*
%TO.P,R17,1*%
%TO.N,SD_CMD*%
X28112500Y-74275000D03*
%TO.P,R17,2*%
%TO.N,SD_CMD_C*%
X29937500Y-74275000D03*
%TD*%
D25*
%TO.P,U9,1*%
%TO.N,+3V3*%
X29705000Y-18725000D03*
%TO.P,U9,2*%
%TO.N,N/C*%
X29705000Y-19225000D03*
%TO.P,U9,3*%
%TO.N,GND*%
X29705000Y-19725000D03*
%TO.P,U9,4*%
%TO.N,AIN4*%
X29705000Y-20225000D03*
%TO.P,U9,5*%
%TO.N,AIN_SP1*%
X29705000Y-20725000D03*
%TO.P,U9,6*%
%TO.N,AIN_SP2*%
X34105000Y-20725000D03*
%TO.P,U9,7*%
%TO.N,AGND_SENSE*%
X34105000Y-20225000D03*
%TO.P,U9,8*%
%TO.N,+3V3*%
X34105000Y-19725000D03*
%TO.P,U9,9*%
%TO.N,I2C_SDA*%
X34105000Y-19225000D03*
%TO.P,U9,10*%
%TO.N,I2C_SCL*%
X34105000Y-18725000D03*
%TD*%
D11*
%TO.P,R15,1*%
%TO.N,SD_EN_G*%
X9792500Y-74275000D03*
%TO.P,R15,2*%
%TO.N,GND*%
X11617500Y-74275000D03*
%TD*%
%TO.P,R20,1*%
%TO.N,SD_VDD*%
X14052500Y-78475000D03*
%TO.P,R20,2*%
%TO.N,SD_D0_C*%
X15877500Y-78475000D03*
%TD*%
D14*
%TO.P,C31,1*%
%TO.N,+3V3*%
X29475000Y-23905000D03*
%TO.P,C31,2*%
%TO.N,GND*%
X31375000Y-23905000D03*
%TD*%
D42*
%TO.N,+3V3*%
X44755000Y-68675000D03*
X73675000Y-27240000D03*
X8105000Y-25575000D03*
X21255000Y-70675000D03*
X72565000Y-45675000D03*
X58880000Y-48075000D03*
X49191000Y-44967500D03*
X79341000Y-13617500D03*
X30341000Y-24517500D03*
X8630000Y-19725000D03*
X44425000Y-48275000D03*
X27341000Y-55617500D03*
X47608800Y-52864200D03*
X34805000Y-25575000D03*
X18375000Y-69725000D03*
X51418800Y-52864200D03*
X21675000Y-58630000D03*
X73675000Y-12795000D03*
X31598700Y-79514200D03*
X29818700Y-70014200D03*
X13375000Y-69725000D03*
X30930000Y-18725000D03*
X11705000Y-46675000D03*
X79341000Y-24227500D03*
X33475000Y-84275000D03*
X53041000Y-48717500D03*
X75491000Y-13617500D03*
X3641000Y-24517500D03*
X22055000Y-20625000D03*
X43798800Y-20864200D03*
X44425000Y-44525000D03*
X13155000Y-20625000D03*
X35330000Y-19725000D03*
D43*
%TO.N,+5V*%
X22585700Y-58815000D03*
X32400400Y-81093800D03*
X67412500Y-67992000D03*
X75510300Y-22445700D03*
X50370500Y-59358400D03*
%TO.N,+5VS*%
X35497500Y-79059200D03*
X12000000Y-7875000D03*
X14000000Y-7875000D03*
X29725000Y-27662900D03*
X50375000Y-23279700D03*
X3582500Y-27527500D03*
D42*
%TO.N,AGND_SENSE*%
X32871700Y-20187800D03*
X8980500Y-22352600D03*
X25870400Y-47523400D03*
%TO.N,AIN1*%
X8998400Y-23395500D03*
%TO.N,AIN2*%
X18421800Y-23040700D03*
%TO.N,AIN2_IN*%
X10829100Y-6531800D03*
%TO.N,AIN3*%
X20470000Y-25365800D03*
X10791900Y-22488200D03*
%TO.N,AIN4*%
X35462400Y-30574500D03*
%TO.N,AIN_SP1*%
X27275800Y-47049600D03*
%TO.N,AIN_SP2*%
X37995000Y-37055800D03*
%TO.N,AUX_A*%
X60419900Y-45574800D03*
X67412500Y-33986300D03*
%TO.N,AUX_B*%
X74975000Y-28561000D03*
%TO.N,CAN2_INT*%
X60155600Y-52225500D03*
X65858700Y-16093300D03*
X61331400Y-29927100D03*
%TO.N,CAN2_MISO*%
X69364200Y-17217400D03*
%TO.N,CAN2_MOSI*%
X70238700Y-18376300D03*
%TO.N,CAN2_SCK*%
X70270500Y-20922500D03*
%TO.N,CANH_T*%
X30226800Y-55800600D03*
X21601800Y-56660700D03*
%TO.N,CANL_T*%
X29154700Y-57568600D03*
X21708800Y-57568600D03*
%TO.N,CAN_H*%
X29387500Y-63567400D03*
X43080900Y-79254400D03*
%TO.N,CAN_L*%
X23075500Y-60667900D03*
X45420900Y-76985400D03*
%TO.N,GND*%
X36140000Y-36025000D03*
X72565000Y-43775000D03*
X85900000Y-78425000D03*
X80441000Y-60617500D03*
X13155000Y-18725000D03*
X8105000Y-23675000D03*
X80725000Y-31235000D03*
X27075000Y-14775000D03*
X47231000Y-48975000D03*
X89925000Y-35415000D03*
X45994300Y-52425000D03*
X19325000Y-87525000D03*
X34805000Y-23675000D03*
X21040500Y-62950000D03*
X56125000Y-28775000D03*
D44*
X16050000Y-69725000D03*
D42*
X9275000Y-45775000D03*
X46464200Y-16125000D03*
X5675000Y-23905000D03*
X68725000Y-24700000D03*
X17435000Y-45005000D03*
X23430000Y-30535000D03*
X68255000Y-45675000D03*
X26015000Y-70675000D03*
X14530000Y-30535000D03*
X18135000Y-74475000D03*
X12630000Y-74275000D03*
X8775000Y-69725000D03*
X85325000Y-32085000D03*
X80725000Y-30385000D03*
X77391000Y-13617500D03*
X4230000Y-18725000D03*
X51091000Y-44967500D03*
X50351000Y-67617500D03*
X28725000Y-62250000D03*
X22435000Y-74305000D03*
X82091000Y-36027500D03*
X44755000Y-66775000D03*
X30930000Y-19725000D03*
X13250000Y-49925000D03*
X56125000Y-39775000D03*
X16725000Y-56090000D03*
X85941000Y-36027500D03*
X22055000Y-18725000D03*
X25940000Y-44975000D03*
X74294300Y-62075000D03*
X9425000Y-28755000D03*
X77391000Y-24227500D03*
X17494300Y-66625000D03*
X36325000Y-61480000D03*
X54941000Y-48717500D03*
X68725000Y-20415000D03*
X81375000Y-13005000D03*
X60125000Y-44525000D03*
X12425000Y-96950000D03*
X9275000Y-14775000D03*
X81241000Y-24227500D03*
X54941000Y-44967500D03*
X81060000Y-48825000D03*
X58100000Y-66975000D03*
X35975000Y-14775000D03*
X32375000Y-23905000D03*
X72280700Y-59375000D03*
X42325000Y-84275000D03*
X36125000Y-28755000D03*
X23341000Y-24417500D03*
X73040500Y-31935000D03*
X9440000Y-36025000D03*
X11705000Y-44775000D03*
X29241000Y-55617500D03*
X25391000Y-55617500D03*
X58100000Y-14975000D03*
X14441000Y-24417500D03*
X73304400Y-49425000D03*
X4230000Y-19725000D03*
X47231000Y-45225000D03*
X50351000Y-15617500D03*
X69494400Y-39935000D03*
X18175000Y-14775000D03*
X51091000Y-48717500D03*
X51325000Y-33525000D03*
X21994300Y-45575000D03*
%TO.N,I2C_SCL*%
X52737500Y-50426600D03*
X7648300Y-18030700D03*
X33205400Y-17712500D03*
%TO.N,I2C_SDA*%
X9548400Y-19939400D03*
X48015000Y-50885900D03*
X32852100Y-19001400D03*
%TO.N,K_TX_D*%
X69777600Y-45513000D03*
X78090000Y-45015200D03*
D43*
%TO.N,OBD_VBAT_F*%
X80487900Y-43747600D03*
X70741700Y-11464700D03*
D42*
%TO.N,PWR_FAIL*%
X42094600Y-29859200D03*
%TO.N,PWR_LED_K*%
X48344800Y-49419900D03*
X52098000Y-49478800D03*
%TO.N,SD_CLK_C*%
X40642700Y-81919700D03*
X18203300Y-80956300D03*
X13249200Y-72641400D03*
X24862200Y-75262800D03*
%TO.N,SD_CMD_C*%
X45500000Y-84214000D03*
X29937500Y-81770000D03*
X16123200Y-82561200D03*
%TO.N,SD_D0_C*%
X16912800Y-78753600D03*
X18622300Y-79939100D03*
%TO.N,SD_D1_C*%
X20727600Y-77238300D03*
X12212500Y-67951200D03*
%TO.N,SD_D2_C*%
X23485000Y-77289500D03*
X13375000Y-84133500D03*
%TO.N,SD_D3_C*%
X14849600Y-82030300D03*
X16350500Y-76717000D03*
%TO.N,SD_EN_G*%
X11796700Y-72329500D03*
X23500900Y-68854400D03*
%TO.N,SD_PWR_EN*%
X34697800Y-70100300D03*
X56816700Y-60305800D03*
%TO.N,SENS_RTN*%
X20000000Y-7875000D03*
X22000000Y-7875000D03*
%TO.N,VBAT_SNS*%
X50088800Y-64662000D03*
X53497400Y-65531000D03*
%TD*%
D45*
%TO.N,+3V3*%
X32225000Y-84275000D02*
X33475000Y-84275000D01*
X72200000Y-27240000D02*
X73675000Y-27240000D01*
X26475000Y-55005000D02*
X27341000Y-55617500D01*
X31092500Y-78475000D02*
X31598700Y-79514200D01*
X43350000Y-48275000D02*
X44425000Y-48275000D01*
X29705000Y-18725000D02*
X30930000Y-18725000D01*
X43292500Y-19825000D02*
X43798800Y-20864200D01*
X50912500Y-51825000D02*
X51418800Y-52864200D01*
X78475000Y-23615000D02*
X79341000Y-24227500D01*
X52175000Y-48105000D02*
X53041000Y-48717500D01*
X71327500Y-45675000D02*
X72565000Y-45675000D01*
X34105000Y-19725000D02*
X35330000Y-19725000D01*
X6867500Y-25575000D02*
X8105000Y-25575000D01*
X43517500Y-68675000D02*
X44755000Y-68675000D01*
X11917500Y-20625000D02*
X13155000Y-20625000D01*
X7405000Y-19725000D02*
X8630000Y-19725000D01*
X48325000Y-44355000D02*
X49191000Y-44967500D01*
X29312500Y-68975000D02*
X29818700Y-70014200D01*
X29475000Y-23905000D02*
X30341000Y-24517500D01*
X57892500Y-48075000D02*
X58880000Y-48075000D01*
X78475000Y-13005000D02*
X79341000Y-13617500D01*
X72200000Y-12795000D02*
X73675000Y-12795000D01*
X20017500Y-70675000D02*
X21255000Y-70675000D01*
X12212500Y-69725000D02*
X13375000Y-69725000D01*
X17212500Y-69725000D02*
X18375000Y-69725000D01*
X10467500Y-46675000D02*
X11705000Y-46675000D01*
X2775000Y-23905000D02*
X3641000Y-24517500D01*
X20817500Y-20625000D02*
X22055000Y-20625000D01*
X43350000Y-44525000D02*
X44425000Y-44525000D01*
X74625000Y-13005000D02*
X75491000Y-13617500D01*
X20200000Y-58630000D02*
X21675000Y-58630000D01*
X47102500Y-51825000D02*
X47608800Y-52864200D01*
X33567500Y-25575000D02*
X34805000Y-25575000D01*
D46*
%TO.N,+5V*%
X29275000Y-84219200D02*
X32400400Y-81093800D01*
X66837500Y-60975000D02*
X67161100Y-60975000D01*
X43337500Y-28975000D02*
X51452500Y-20860000D01*
X49920100Y-58908000D02*
X50370500Y-59358400D01*
X67236300Y-71142300D02*
X67412500Y-70966100D01*
X71070900Y-22635800D02*
X73929800Y-22635800D01*
X75510300Y-22445700D02*
X74625000Y-23331000D01*
X77445000Y-59775000D02*
X77675000Y-60005000D01*
X67161100Y-60975000D02*
X67161100Y-67740600D01*
X67250000Y-25970000D02*
X68608200Y-25970000D01*
X42297400Y-30825200D02*
X43337500Y-29785100D01*
X74625000Y-23615000D02*
X74625000Y-23331000D01*
X29275000Y-84275000D02*
X29275000Y-84219200D01*
X54664700Y-46375700D02*
X48325000Y-46375700D01*
X22585700Y-58815000D02*
X22625000Y-58775700D01*
X48325000Y-46375700D02*
X43196700Y-46375700D01*
X18001700Y-59464100D02*
X21942000Y-59464100D01*
X43196700Y-46375700D02*
X42297300Y-45476300D01*
X22625000Y-58775700D02*
X22625000Y-55005000D01*
X74364100Y-58576600D02*
X75562500Y-59775000D01*
X43148200Y-42722800D02*
X43439200Y-42722800D01*
X69559500Y-58576600D02*
X74364100Y-58576600D01*
X43337500Y-29785100D02*
X43337500Y-28975000D01*
X56100000Y-44940400D02*
X54664700Y-46375700D01*
X67161100Y-67740600D02*
X67412500Y-67992000D01*
X22585700Y-58820400D02*
X22585700Y-58815000D01*
X67412500Y-70966100D02*
X69359800Y-70966100D01*
X42297300Y-43573700D02*
X43148200Y-42722800D01*
X73929800Y-22635800D02*
X74625000Y-23331000D01*
X42297300Y-45476300D02*
X42297300Y-43573700D01*
X67161100Y-60975000D02*
X69559500Y-58576600D01*
X69359800Y-70966100D02*
X69954400Y-71560700D01*
X21942000Y-59464100D02*
X22585700Y-58820400D01*
X48325000Y-48105000D02*
X49920100Y-49700100D01*
X56100000Y-44525000D02*
X56100000Y-44940400D01*
X68608200Y-25970000D02*
X69613400Y-24964800D01*
X48325000Y-46375700D02*
X48325000Y-48105000D01*
X67525000Y-79225000D02*
X67236300Y-78936300D01*
X69613400Y-24964800D02*
X69613400Y-24093300D01*
X43439200Y-42722800D02*
X44393500Y-41768500D01*
X51452500Y-20860000D02*
X51452500Y-14975000D01*
X15897600Y-57360000D02*
X18001700Y-59464100D01*
X42297400Y-33924700D02*
X42297400Y-30825200D01*
X69954400Y-71560700D02*
X69954400Y-74266900D01*
X49920100Y-49700100D02*
X49920100Y-58908000D01*
X15250000Y-57360000D02*
X15897600Y-57360000D01*
X44393500Y-41768500D02*
X44393500Y-36020800D01*
X69613400Y-24093300D02*
X71070900Y-22635800D01*
X67412500Y-70966100D02*
X67412500Y-67992000D01*
X67236300Y-78936300D02*
X67236300Y-71142300D01*
X44393500Y-36020800D02*
X42297400Y-33924700D01*
X69954400Y-74266900D02*
X74292500Y-78605000D01*
X75562500Y-59775000D02*
X77445000Y-59775000D01*
%TO.N,+5VS*%
X16235000Y-17902800D02*
X22836100Y-17902800D01*
X35175000Y-84275000D02*
X35175000Y-79381700D01*
X35175000Y-79381700D02*
X35497500Y-79059200D01*
X16235000Y-19225000D02*
X16235000Y-17998300D01*
X50375000Y-28775000D02*
X50375000Y-23279700D01*
X22836100Y-17902800D02*
X24158300Y-19225000D01*
X29725000Y-29025000D02*
X29725000Y-27798300D01*
X3025000Y-29025000D02*
X3025000Y-27798300D01*
X45337500Y-33225000D02*
X47000000Y-33225000D01*
X16235000Y-17998300D02*
X16235000Y-17902800D01*
X3582500Y-27527500D02*
X3311700Y-27798300D01*
X50375000Y-28775000D02*
X50375000Y-29850000D01*
X14000000Y-6500000D02*
X14000000Y-7875000D01*
X3311700Y-27798300D02*
X3025000Y-27798300D01*
X14000000Y-7875000D02*
X14425000Y-8300000D01*
X47000000Y-33225000D02*
X47300000Y-33525000D01*
X50375000Y-29850000D02*
X47000000Y-33225000D01*
X25135000Y-19225000D02*
X24158300Y-19225000D01*
X29725000Y-27798300D02*
X29725000Y-27662900D01*
X14425000Y-16092800D02*
X16235000Y-17902800D01*
X14425000Y-8300000D02*
X14425000Y-16092800D01*
X12000000Y-6500000D02*
X12000000Y-7875000D01*
D47*
%TO.N,AGND_A*%
X6602500Y-49925000D02*
X4617500Y-49925000D01*
%TO.N,AGND_SENSE*%
X34105000Y-20225000D02*
X32908900Y-20225000D01*
X17053400Y-47523400D02*
X25870400Y-47523400D01*
X12342500Y-45725000D02*
X12342500Y-47995000D01*
X10412500Y-49925000D02*
X8427500Y-49925000D01*
X8980500Y-22352600D02*
X7655100Y-22352600D01*
X12342500Y-45005000D02*
X14535000Y-45005000D01*
X12342500Y-47995000D02*
X10412500Y-49925000D01*
X6310300Y-20494000D02*
X6579300Y-20225000D01*
X6310300Y-21007800D02*
X6310300Y-20494000D01*
X10066700Y-40060100D02*
X12342500Y-42335900D01*
X14535000Y-45005000D02*
X17053400Y-47523400D01*
X7655100Y-22352600D02*
X6310300Y-21007800D01*
X6579300Y-20225000D02*
X7405000Y-20225000D01*
X10066700Y-23438800D02*
X10066700Y-40060100D01*
X32908900Y-20225000D02*
X32871700Y-20187800D01*
X12342500Y-45005000D02*
X12342500Y-45725000D01*
X8980500Y-22352600D02*
X10066700Y-23438800D01*
X12342500Y-42335900D02*
X12342500Y-45005000D01*
%TO.N,AIN1*%
X8887000Y-23598200D02*
X8887000Y-23507000D01*
X1949500Y-21010700D02*
X1949500Y-20436000D01*
X8742500Y-26537500D02*
X6525000Y-28755000D01*
X6677900Y-36025000D02*
X6602500Y-36025000D01*
X8742500Y-23742700D02*
X8887000Y-23598200D01*
X8887000Y-23507000D02*
X8887000Y-23506900D01*
X2171300Y-21232500D02*
X1949500Y-21010700D01*
X9318200Y-33384700D02*
X6677900Y-36025000D01*
X3544400Y-21232500D02*
X2171300Y-21232500D01*
X8742500Y-24625000D02*
X8742500Y-26537500D01*
X9318200Y-31548200D02*
X9318200Y-33384700D01*
X5325500Y-23013600D02*
X3544400Y-21232500D01*
X6525000Y-28755000D02*
X9318200Y-31548200D01*
X4617500Y-36025000D02*
X6602500Y-36025000D01*
X8742500Y-24625000D02*
X8742500Y-23742700D01*
X8887000Y-23506900D02*
X8393600Y-23013600D01*
X8887000Y-23506900D02*
X8998400Y-23395500D01*
X2160500Y-20225000D02*
X3005000Y-20225000D01*
X1949500Y-20436000D02*
X2160500Y-20225000D01*
X8393600Y-23013600D02*
X5325500Y-23013600D01*
%TO.N,AIN1_A*%
X7397300Y-33705200D02*
X5647700Y-33705200D01*
X5380000Y-33437500D02*
X4617500Y-32675000D01*
X5647700Y-33705200D02*
X5380000Y-33437500D01*
X5380000Y-33437500D02*
X2792500Y-36025000D01*
X8427500Y-32675000D02*
X7397300Y-33705200D01*
%TO.N,AIN1_IN*%
X14394300Y-5241800D02*
X11205000Y-5241800D01*
X15073300Y-6500000D02*
X15073300Y-5920800D01*
X15073300Y-5920800D02*
X14394300Y-5241800D01*
X3525000Y-12921800D02*
X3525000Y-14775000D01*
X1493300Y-31375800D02*
X2792500Y-32675000D01*
X3525000Y-14775000D02*
X1493300Y-16806700D01*
X16000000Y-6500000D02*
X15073300Y-6500000D01*
X1493300Y-16806700D02*
X1493300Y-31375800D01*
X11205000Y-5241800D02*
X3525000Y-12921800D01*
%TO.N,AIN1_PU*%
X5151700Y-31224200D02*
X6602500Y-32675000D01*
X4325000Y-29025000D02*
X5151700Y-29025000D01*
X5151700Y-29025000D02*
X5151700Y-31224200D01*
%TO.N,AIN2*%
X3005000Y-20725000D02*
X4194600Y-20725000D01*
X17327500Y-27185000D02*
X18231400Y-26281100D01*
X18231400Y-23040700D02*
X14865700Y-19675000D01*
X4194600Y-20725000D02*
X5096300Y-19823300D01*
X10176600Y-19661800D02*
X10176600Y-20986300D01*
X7312100Y-17371000D02*
X7885800Y-17371000D01*
X18231400Y-26281100D02*
X18231400Y-23040700D01*
X5096300Y-19823300D02*
X5096300Y-19586800D01*
X11675000Y-22484700D02*
X11675000Y-23805000D01*
X12605000Y-29622500D02*
X12605000Y-28239400D01*
X5096300Y-19586800D02*
X7312100Y-17371000D01*
X18231400Y-23040700D02*
X18421800Y-23040700D01*
X12605000Y-28239400D02*
X16273100Y-28239400D01*
X10176600Y-20986300D02*
X11675000Y-22484700D01*
X16273100Y-28239400D02*
X17327500Y-27185000D01*
X7885800Y-17371000D02*
X10176600Y-19661800D01*
X12605000Y-28239400D02*
X12605000Y-24735000D01*
X12605000Y-24735000D02*
X11675000Y-23805000D01*
X11692500Y-30535000D02*
X12605000Y-29622500D01*
X14865700Y-19675000D02*
X13792500Y-19675000D01*
%TO.N,AIN2_A*%
X17367500Y-23775000D02*
X15502500Y-25640000D01*
X15502500Y-25640000D02*
X15502500Y-27185000D01*
X15502500Y-27185000D02*
X13517500Y-27185000D01*
%TO.N,AIN2_IN*%
X11709100Y-21829200D02*
X10847600Y-20967700D01*
X15542500Y-23775000D02*
X13596700Y-21829200D01*
X13596700Y-21829200D02*
X11709100Y-21829200D01*
X12425000Y-14775000D02*
X10829100Y-13179100D01*
X10847600Y-20967700D02*
X10847600Y-16352400D01*
X10829100Y-13179100D02*
X10829100Y-6531800D01*
X10847600Y-16352400D02*
X12425000Y-14775000D01*
%TO.N,AIN2_PU*%
X14496400Y-31616700D02*
X11235200Y-31616700D01*
X11235200Y-31616700D02*
X10847500Y-31229000D01*
X10847500Y-31229000D02*
X10847500Y-28030000D01*
X19070200Y-19933500D02*
X19070200Y-27042900D01*
X18361700Y-19225000D02*
X19070200Y-19933500D01*
X19070200Y-27042900D02*
X14496400Y-31616700D01*
X10847500Y-28030000D02*
X11692500Y-27185000D01*
X17535000Y-19225000D02*
X18361700Y-19225000D01*
%TO.N,AIN3*%
X20470000Y-23910000D02*
X20575000Y-23805000D01*
X20575000Y-23479900D02*
X22692500Y-21362400D01*
X20575000Y-23805000D02*
X20575000Y-23479900D01*
X19729000Y-26106800D02*
X20470000Y-25365800D01*
X22692500Y-21362400D02*
X22692500Y-19675000D01*
X19729000Y-27996500D02*
X19729000Y-26106800D01*
X20592500Y-30535000D02*
X20592500Y-28860000D01*
X26227500Y-27185000D02*
X24552500Y-28860000D01*
X24552500Y-28860000D02*
X20592500Y-28860000D01*
X20470000Y-25365800D02*
X20470000Y-23910000D01*
X7405000Y-20725000D02*
X9028700Y-20725000D01*
X9028700Y-20725000D02*
X10791900Y-22488200D01*
X20592500Y-28860000D02*
X19729000Y-27996500D01*
%TO.N,AIN3_A*%
X24402500Y-25640000D02*
X26267500Y-23775000D01*
X24402500Y-27185000D02*
X24402500Y-25640000D01*
X24402500Y-27185000D02*
X22417500Y-27185000D01*
%TO.N,AIN3_IN*%
X27261700Y-20955800D02*
X27261700Y-18337100D01*
X23073300Y-14742500D02*
X23040800Y-14775000D01*
X23040800Y-15005500D02*
X23040800Y-14775000D01*
X24653600Y-16618300D02*
X23040800Y-15005500D01*
X23040800Y-14775000D02*
X21325000Y-14775000D01*
X27261700Y-18337100D02*
X25542900Y-16618300D01*
X23073300Y-6500000D02*
X23073300Y-14742500D01*
X24000000Y-6500000D02*
X23073300Y-6500000D01*
X25542900Y-16618300D02*
X24653600Y-16618300D01*
X24442500Y-23775000D02*
X27261700Y-20955800D01*
%TO.N,AIN3_PU*%
X21525000Y-26252500D02*
X20592500Y-27185000D01*
X24430000Y-20301700D02*
X21525000Y-23206700D01*
X26435000Y-20301700D02*
X24430000Y-20301700D01*
X21525000Y-23206700D02*
X21525000Y-26252500D01*
X26435000Y-19225000D02*
X26435000Y-20301700D01*
%TO.N,AIN4*%
X35462400Y-30574500D02*
X35343500Y-30574500D01*
X33405200Y-28755000D02*
X33464600Y-28695600D01*
X35442500Y-26717700D02*
X35442500Y-24625000D01*
X33225000Y-28755000D02*
X33405200Y-28755000D01*
X29705000Y-20225000D02*
X30538900Y-20225000D01*
X36019800Y-31131900D02*
X36019800Y-33383100D01*
X33302500Y-36025000D02*
X31317500Y-36025000D01*
X33377900Y-36025000D02*
X33302500Y-36025000D01*
X36019800Y-33383100D02*
X33377900Y-36025000D01*
X35343500Y-30574500D02*
X33464600Y-28695600D01*
X30538900Y-20225000D02*
X33138000Y-22824100D01*
X35462400Y-30574500D02*
X36019800Y-31131900D01*
X33464600Y-28695600D02*
X35442500Y-26717700D01*
X33138000Y-22824100D02*
X34840500Y-22824100D01*
X34840500Y-22824100D02*
X35442500Y-23426100D01*
X35442500Y-23426100D02*
X35442500Y-24625000D01*
%TO.N,AIN4_A*%
X29492500Y-36025000D02*
X31317500Y-34200000D01*
X34035100Y-33767400D02*
X31317500Y-33767400D01*
X31317500Y-33767400D02*
X31317500Y-32675000D01*
X35127500Y-32675000D02*
X34035100Y-33767400D01*
X31317500Y-34200000D02*
X31317500Y-33767400D01*
%TO.N,AIN4_IN*%
X30225000Y-14775000D02*
X28173500Y-16826500D01*
X28173500Y-31356000D02*
X29492500Y-32675000D01*
X26000000Y-6500000D02*
X26000000Y-10550000D01*
X26000000Y-10550000D02*
X30225000Y-14775000D01*
X28173500Y-16826500D02*
X28173500Y-31356000D01*
%TO.N,AIN4_PU*%
X31851700Y-31224200D02*
X33302500Y-32675000D01*
X31025000Y-29025000D02*
X31851700Y-29025000D01*
X31851700Y-29025000D02*
X31851700Y-31224200D01*
%TO.N,AIN_SP1*%
X28647300Y-30190100D02*
X30350100Y-31892900D01*
X28647300Y-21782700D02*
X28647300Y-30190100D01*
X27275800Y-47049600D02*
X27122900Y-46896700D01*
X21214200Y-46896700D02*
X19292500Y-44975000D01*
X27122900Y-46896700D02*
X21214200Y-46896700D01*
X30350100Y-31892900D02*
X30350100Y-33393000D01*
X29705000Y-20725000D02*
X28647300Y-21782700D01*
X19292500Y-44450600D02*
X19292500Y-44975000D01*
X30350100Y-33393000D02*
X19292500Y-44450600D01*
%TO.N,AIN_SP2*%
X37995000Y-37055800D02*
X37946600Y-37007400D01*
X34105000Y-20725000D02*
X36794900Y-23414900D01*
X29307100Y-43746900D02*
X24330600Y-43746900D01*
X36794900Y-36259100D02*
X29307100Y-43746900D01*
X36794900Y-23414900D02*
X36794900Y-36259100D01*
X37946600Y-37007400D02*
X37946600Y-37007300D01*
X37543100Y-37007300D02*
X36794900Y-36259100D01*
X37946600Y-37007300D02*
X37543100Y-37007300D01*
X24330600Y-43746900D02*
X23102500Y-44975000D01*
%TO.N,AUX_A*%
X52433800Y-58831700D02*
X52433800Y-67735400D01*
X54350000Y-69651600D02*
X54350000Y-84326500D01*
X52433800Y-67735400D02*
X54350000Y-69651600D01*
X60419900Y-50845600D02*
X52433800Y-58831700D01*
X67412500Y-31347500D02*
X67412500Y-33986300D01*
X57677100Y-85372900D02*
X58775000Y-84275000D01*
X54350000Y-84326500D02*
X55396400Y-85372900D01*
X68325000Y-35685000D02*
X68325000Y-34608300D01*
X68325000Y-34608300D02*
X68034500Y-34608300D01*
X68034500Y-34608300D02*
X67412500Y-33986300D01*
X60419900Y-45574800D02*
X60419900Y-50845600D01*
X55396400Y-85372900D02*
X57677100Y-85372900D01*
X67525000Y-31235000D02*
X67412500Y-31347500D01*
%TO.N,AUX_B*%
X75825000Y-35685000D02*
X75825000Y-32085000D01*
X74975000Y-31235000D02*
X74975000Y-28561000D01*
X75825000Y-32085000D02*
X74975000Y-31235000D01*
%TO.N,CAN2H_T*%
X72378700Y-24878700D02*
X81506800Y-24878700D01*
X82500000Y-23885500D02*
X82500000Y-23335000D01*
X81506800Y-24878700D02*
X82500000Y-23885500D01*
X72200000Y-24700000D02*
X72378700Y-24878700D01*
%TO.N,CAN2L_T*%
X81498300Y-25835000D02*
X72335000Y-25835000D01*
X72335000Y-25835000D02*
X72200000Y-25970000D01*
X82500000Y-25835000D02*
X81498300Y-25835000D01*
%TO.N,CAN2_CS*%
X64124800Y-19480000D02*
X63254800Y-20350000D01*
X61659500Y-25499500D02*
X62860000Y-26700000D01*
X62371700Y-20350000D02*
X61659500Y-21062200D01*
X68540000Y-12154300D02*
X66210600Y-12154300D01*
X64124800Y-14240100D02*
X64124800Y-19480000D01*
X61659500Y-21062200D02*
X61659500Y-25499500D01*
X72200000Y-14065000D02*
X70450700Y-14065000D01*
X63254800Y-20350000D02*
X62371700Y-20350000D01*
X70450700Y-14065000D02*
X68540000Y-12154300D01*
X66210600Y-12154300D02*
X64124800Y-14240100D01*
%TO.N,CAN2_H_C*%
X69625000Y-35685000D02*
X69625000Y-34608300D01*
X69625000Y-34608300D02*
X69938700Y-34608300D01*
X72383200Y-27894200D02*
X69945500Y-30331900D01*
X82390000Y-27573700D02*
X81753400Y-27573700D01*
X72075000Y-35685000D02*
X71248300Y-35685000D01*
X69945500Y-30331900D02*
X69945500Y-34601500D01*
X86048300Y-23915400D02*
X82390000Y-27573700D01*
X69938700Y-34608300D02*
X69945500Y-34601500D01*
X69945500Y-34601500D02*
X70266000Y-34601500D01*
X87050000Y-23335000D02*
X86048300Y-23335000D01*
X81432900Y-27894200D02*
X72383200Y-27894200D01*
X71248300Y-35583800D02*
X71248300Y-35685000D01*
X81753400Y-27573700D02*
X81432900Y-27894200D01*
X70266000Y-34601500D02*
X71248300Y-35583800D01*
X86048300Y-23335000D02*
X86048300Y-23915400D01*
%TO.N,CAN2_INT*%
X61331400Y-51049700D02*
X61331400Y-29927100D01*
X60155600Y-52225500D02*
X61331400Y-51049700D01*
X67250000Y-16605000D02*
X66738400Y-16093400D01*
X66738400Y-16093300D02*
X65858700Y-16093300D01*
X66738400Y-16093400D02*
X66738400Y-16093300D01*
%TO.N,CAN2_L_C*%
X77125000Y-35685000D02*
X77951700Y-35685000D01*
X78924300Y-36657600D02*
X78919600Y-36652900D01*
X84125000Y-34191300D02*
X84125000Y-36070600D01*
X78919600Y-36652900D02*
X76237500Y-39335000D01*
X78919600Y-36652900D02*
X77951700Y-35685000D01*
X86048300Y-32268000D02*
X84125000Y-34191300D01*
X84125000Y-36070600D02*
X83538000Y-36657600D01*
X87050000Y-25835000D02*
X86048300Y-25835000D01*
X86048300Y-25835000D02*
X86048300Y-32268000D01*
X83538000Y-36657600D02*
X78924300Y-36657600D01*
%TO.N,CAN2_MISO*%
X71154300Y-15335000D02*
X69364200Y-17125100D01*
X69364200Y-17125100D02*
X69364200Y-17217400D01*
X72200000Y-15335000D02*
X71154300Y-15335000D01*
%TO.N,CAN2_MOSI*%
X70238700Y-18121100D02*
X70238700Y-18376300D01*
X72200000Y-16605000D02*
X71754800Y-16605000D01*
X71754800Y-16605000D02*
X70238700Y-18121100D01*
%TO.N,CAN2_RXD*%
X65023200Y-15869700D02*
X65023200Y-23462900D01*
X66869800Y-27240000D02*
X67250000Y-27240000D01*
X65023200Y-23462900D02*
X65782800Y-24222500D01*
X65782800Y-24222500D02*
X65782800Y-26153000D01*
X67250000Y-14065000D02*
X66827900Y-14065000D01*
X66827900Y-14065000D02*
X65023200Y-15869700D01*
X65782800Y-26153000D02*
X66869800Y-27240000D01*
%TO.N,CAN2_S*%
X65935700Y-30250400D02*
X70852600Y-25333500D01*
X70852600Y-25333500D02*
X70852600Y-24373000D01*
X70852600Y-24373000D02*
X71795600Y-23430000D01*
X71795600Y-23430000D02*
X72200000Y-23430000D01*
X66792500Y-39335000D02*
X65935700Y-38478200D01*
X65935700Y-38478200D02*
X65935700Y-30250400D01*
%TO.N,CAN2_SCK*%
X70270500Y-19418700D02*
X70270500Y-20922500D01*
X71814200Y-17875000D02*
X70270500Y-19418700D01*
X72200000Y-17875000D02*
X71814200Y-17875000D01*
%TO.N,CAN2_SPLIT*%
X74412500Y-39335000D02*
X72427500Y-39335000D01*
X75457300Y-40379800D02*
X74412500Y-39335000D01*
X87025000Y-35872600D02*
X82517800Y-40379800D01*
X82517800Y-40379800D02*
X75457300Y-40379800D01*
X87025000Y-35415000D02*
X87025000Y-35872600D01*
%TO.N,CAN2_TXD*%
X66228400Y-17240000D02*
X65483300Y-17985100D01*
X65483300Y-17985100D02*
X65483300Y-21663300D01*
X68568100Y-16966500D02*
X68294600Y-17240000D01*
X68568100Y-13733000D02*
X68568100Y-16966500D01*
X67250000Y-12795000D02*
X67630100Y-12795000D01*
X67630100Y-12795000D02*
X68568100Y-13733000D01*
X68294600Y-17240000D02*
X66228400Y-17240000D01*
X65483300Y-21663300D02*
X67250000Y-23430000D01*
%TO.N,CANH_T*%
X20200000Y-56090000D02*
X21031100Y-56090000D01*
X21031100Y-56090000D02*
X21601800Y-56660700D01*
X30226800Y-54998200D02*
X30500000Y-54725000D01*
X30226800Y-55800600D02*
X30226800Y-54998200D01*
%TO.N,CANL_T*%
X29498300Y-57225000D02*
X29154700Y-57568600D01*
X21500200Y-57360000D02*
X21708800Y-57568600D01*
X20200000Y-57360000D02*
X21500200Y-57360000D01*
X30500000Y-57225000D02*
X29498300Y-57225000D01*
%TO.N,CAN_H*%
X34048300Y-54725000D02*
X34048300Y-55726700D01*
X44904400Y-79254400D02*
X49925000Y-84275000D01*
X43080900Y-79254400D02*
X44904400Y-79254400D01*
X4000000Y-62000000D02*
X15275000Y-62000000D01*
X29387500Y-63364200D02*
X29387500Y-63567400D01*
X29925000Y-61750000D02*
X29925000Y-62826700D01*
X34048300Y-55726700D02*
X29925000Y-59850000D01*
X29925000Y-62826700D02*
X29387500Y-63364200D01*
X29925000Y-59850000D02*
X29925000Y-61750000D01*
X15275000Y-62000000D02*
X15525000Y-62250000D01*
X35050000Y-54725000D02*
X34048300Y-54725000D01*
%TO.N,CAN_L*%
X34375000Y-58715100D02*
X34375000Y-62127300D01*
X32972900Y-53940800D02*
X35875200Y-53940800D01*
X35050000Y-57225000D02*
X35865100Y-57225000D01*
X22975000Y-60768400D02*
X23075500Y-60667900D01*
X22975000Y-62250000D02*
X22975000Y-60768400D01*
X23075500Y-60667900D02*
X27316100Y-56427300D01*
X30486400Y-56427300D02*
X32972900Y-53940800D01*
X27316100Y-56427300D02*
X30486400Y-56427300D01*
X35875200Y-53940800D02*
X36051700Y-54117300D01*
X45585400Y-76985400D02*
X45420900Y-76985400D01*
X35865100Y-57225000D02*
X34375000Y-58715100D01*
X30477300Y-66025000D02*
X24237500Y-66025000D01*
X34375000Y-62127300D02*
X30477300Y-66025000D01*
X36051700Y-54117300D02*
X36051700Y-57225000D01*
X52875000Y-84275000D02*
X45585400Y-76985400D01*
X35865100Y-57225000D02*
X36051700Y-57225000D01*
%TO.N,CAN_RX*%
X18080000Y-55694200D02*
X18080000Y-55232600D01*
X27629600Y-48601800D02*
X36831400Y-39400000D01*
X14808600Y-58630000D02*
X13899600Y-57721000D01*
X18080000Y-55232600D02*
X24710800Y-48601800D01*
X14213600Y-56725000D02*
X17049200Y-56725000D01*
X15250000Y-58630000D02*
X14808600Y-58630000D01*
X24710800Y-48601800D02*
X27629600Y-48601800D01*
X17049200Y-56725000D02*
X18080000Y-55694200D01*
X13899600Y-57039000D02*
X14213600Y-56725000D01*
X36831400Y-39400000D02*
X40000000Y-39400000D01*
X13899600Y-57721000D02*
X13899600Y-57039000D01*
%TO.N,CAN_S*%
X41191100Y-39878300D02*
X40399400Y-40670000D01*
X36860800Y-40670000D02*
X23550900Y-53979900D01*
X23550900Y-58930100D02*
X23550900Y-53979900D01*
X21112800Y-53907200D02*
X20200000Y-54820000D01*
X40399400Y-40670000D02*
X36860800Y-40670000D01*
X14792500Y-66025000D02*
X17525100Y-63292400D01*
X17525100Y-63292400D02*
X17525100Y-61761500D01*
X23550900Y-53979900D02*
X23478200Y-53907200D01*
X18478100Y-60808500D02*
X21672500Y-60808500D01*
X17525100Y-61761500D02*
X18478100Y-60808500D01*
X23478200Y-53907200D02*
X21112800Y-53907200D01*
X21672500Y-60808500D02*
X23550900Y-58930100D01*
X41191100Y-35511100D02*
X41191100Y-39878300D01*
X40000000Y-34320000D02*
X41191100Y-35511100D01*
%TO.N,CAN_SPLIT*%
X30259100Y-64645900D02*
X23791600Y-64645900D01*
X23791600Y-64645900D02*
X22412500Y-66025000D01*
X22412500Y-66025000D02*
X20427500Y-66025000D01*
X33425000Y-61480000D02*
X30259100Y-64645900D01*
%TO.N,CAN_TX*%
X15250000Y-54820000D02*
X21919900Y-48150100D01*
X37908100Y-37682500D02*
X39177500Y-37682500D01*
X27440500Y-48150100D02*
X37908100Y-37682500D01*
X21919900Y-48150100D02*
X27440500Y-48150100D01*
X39177500Y-37682500D02*
X40000000Y-36860000D01*
D45*
%TO.N,GND*%
X7525000Y-14775000D02*
X9275000Y-14775000D01*
X84887500Y-78425000D02*
X85900000Y-78425000D01*
X11425000Y-96950000D02*
X12425000Y-96950000D01*
X72427500Y-48825000D02*
X73304400Y-49425000D01*
X78975000Y-31235000D02*
X80725000Y-31235000D01*
X28375000Y-55005000D02*
X29241000Y-55617500D01*
X12237500Y-49925000D02*
X13250000Y-49925000D01*
X59050000Y-44525000D02*
X60125000Y-44525000D01*
X68617500Y-39335000D02*
X69494400Y-39935000D01*
X67250000Y-24700000D02*
X68725000Y-24700000D01*
X24777500Y-70675000D02*
X26015000Y-70675000D01*
X54075000Y-44355000D02*
X54941000Y-44967500D01*
X73287500Y-59775000D02*
X72280700Y-59375000D01*
X71525000Y-31235000D02*
X73040500Y-31935000D01*
X49485000Y-15005000D02*
X50351000Y-15617500D01*
X76525000Y-13005000D02*
X77391000Y-13617500D01*
X54375000Y-39775000D02*
X56125000Y-39775000D01*
X10467500Y-44775000D02*
X11705000Y-44775000D01*
X22417500Y-30535000D02*
X23430000Y-30535000D01*
X50250000Y-33525000D02*
X51325000Y-33525000D01*
X45392500Y-15725000D02*
X46464200Y-16125000D01*
X54075000Y-48105000D02*
X54941000Y-48717500D01*
X9937500Y-69725000D02*
X8775000Y-69725000D01*
X67017500Y-45675000D02*
X68255000Y-45675000D01*
X17060000Y-74475000D02*
X18135000Y-74475000D01*
X29705000Y-19725000D02*
X30930000Y-19725000D01*
X21435000Y-74305000D02*
X22435000Y-74305000D01*
X80047500Y-48825000D02*
X81060000Y-48825000D01*
X73287500Y-61675000D02*
X74294300Y-62075000D01*
X67250000Y-20415000D02*
X68725000Y-20415000D01*
X26975000Y-62250000D02*
X28725000Y-62250000D01*
X22475000Y-23805000D02*
X23341000Y-24417500D01*
X11617500Y-74275000D02*
X12630000Y-74275000D01*
X49485000Y-67005000D02*
X50351000Y-67617500D01*
X80375000Y-23615000D02*
X81241000Y-24227500D01*
X46300000Y-44525000D02*
X47231000Y-45225000D01*
X57087500Y-66975000D02*
X58100000Y-66975000D01*
X35325000Y-61480000D02*
X36325000Y-61480000D01*
X84125000Y-32085000D02*
X85325000Y-32085000D01*
X3005000Y-19725000D02*
X4230000Y-19725000D01*
X81925000Y-30385000D02*
X80725000Y-30385000D01*
X8425000Y-28755000D02*
X9425000Y-28755000D01*
X88925000Y-35415000D02*
X89925000Y-35415000D01*
X50225000Y-44355000D02*
X51091000Y-44967500D01*
X57087500Y-14975000D02*
X58100000Y-14975000D01*
X13517500Y-30535000D02*
X14530000Y-30535000D01*
X13575000Y-23805000D02*
X14441000Y-24417500D01*
X79575000Y-60005000D02*
X80441000Y-60617500D01*
X19525000Y-62250000D02*
X21040500Y-62950000D01*
X8427500Y-36025000D02*
X9440000Y-36025000D01*
X71327500Y-43775000D02*
X72565000Y-43775000D01*
X35125000Y-28755000D02*
X36125000Y-28755000D01*
X16435000Y-45005000D02*
X17435000Y-45005000D01*
X6867500Y-23675000D02*
X8105000Y-23675000D01*
X46300000Y-48275000D02*
X47231000Y-48975000D01*
X20817500Y-18725000D02*
X22055000Y-18725000D01*
X19325000Y-86150000D02*
X19325000Y-87525000D01*
X25325000Y-14775000D02*
X27075000Y-14775000D01*
X15250000Y-56090000D02*
X16725000Y-56090000D01*
X54375000Y-28775000D02*
X56125000Y-28775000D01*
X16425000Y-14775000D02*
X18175000Y-14775000D01*
X3005000Y-18725000D02*
X4230000Y-18725000D01*
X33567500Y-23675000D02*
X34805000Y-23675000D01*
X21117500Y-44975000D02*
X21994300Y-45575000D01*
X16617500Y-66025000D02*
X17494300Y-66625000D01*
X34225000Y-14775000D02*
X35975000Y-14775000D01*
X76525000Y-23615000D02*
X77391000Y-24227500D01*
X81225000Y-35415000D02*
X82091000Y-36027500D01*
X7525000Y-45775000D02*
X9275000Y-45775000D01*
X85075000Y-35415000D02*
X85941000Y-36027500D01*
X35127500Y-36025000D02*
X36140000Y-36025000D01*
X4675000Y-23905000D02*
X5675000Y-23905000D01*
X43517500Y-66775000D02*
X44755000Y-66775000D01*
X80375000Y-13005000D02*
X81375000Y-13005000D01*
X41075000Y-84275000D02*
X42325000Y-84275000D01*
X50225000Y-48105000D02*
X51091000Y-48717500D01*
X24927500Y-44975000D02*
X25940000Y-44975000D01*
X24525000Y-55005000D02*
X25391000Y-55617500D01*
X11917500Y-18725000D02*
X13155000Y-18725000D01*
X45117500Y-51825000D02*
X45994300Y-52425000D01*
X31375000Y-23905000D02*
X32375000Y-23905000D01*
X14937500Y-69725000D02*
X16050000Y-69725000D01*
D47*
%TO.N,I2C_SCL*%
X41204000Y-48356000D02*
X41204000Y-46559700D01*
X39580500Y-22890000D02*
X35415500Y-18725000D01*
X38823300Y-43992600D02*
X39512600Y-43303300D01*
X35415500Y-18725000D02*
X34105000Y-18725000D01*
X41658700Y-34104600D02*
X41449000Y-33894900D01*
X41449000Y-33894900D02*
X41449000Y-23902100D01*
X34105000Y-18612100D02*
X33205400Y-17712500D01*
X41204000Y-46559700D02*
X40301000Y-45656700D01*
X38823300Y-44967400D02*
X38823300Y-43992600D01*
X40000000Y-49560000D02*
X41204000Y-48356000D01*
X34105000Y-18725000D02*
X34105000Y-18612100D01*
X52737500Y-51825000D02*
X52737500Y-50426600D01*
X40436900Y-22890000D02*
X39580500Y-22890000D01*
X39512600Y-43303300D02*
X40360100Y-43303300D01*
X40360100Y-43303300D02*
X41658700Y-42004700D01*
X40301000Y-45656700D02*
X39512600Y-45656700D01*
X7405000Y-18274000D02*
X7405000Y-18725000D01*
X7648300Y-18030700D02*
X7405000Y-18274000D01*
X41449000Y-23902100D02*
X40436900Y-22890000D01*
X39512600Y-45656700D02*
X38823300Y-44967400D01*
X41658700Y-42004700D02*
X41658700Y-34104600D01*
%TO.N,I2C_SDA*%
X8198500Y-19225000D02*
X8359100Y-19064400D01*
X48927500Y-51798400D02*
X48015000Y-50885900D01*
X48927500Y-51825000D02*
X48927500Y-51798400D01*
X9548400Y-19753900D02*
X9548400Y-19939400D01*
X8359100Y-19064400D02*
X8858900Y-19064400D01*
X8858900Y-19064400D02*
X9548400Y-19753900D01*
X33075700Y-19225000D02*
X32852100Y-19001400D01*
X34105000Y-19225000D02*
X33075700Y-19225000D01*
X7405000Y-19225000D02*
X8198500Y-19225000D01*
%TO.N,K_LINE*%
X79135000Y-47733600D02*
X79135000Y-49477200D01*
X56174900Y-83925100D02*
X56174900Y-57121000D01*
X78752800Y-49859400D02*
X75161600Y-49859400D01*
X74459000Y-49156800D02*
X74459000Y-48871400D01*
X74459000Y-48871400D02*
X74458900Y-48871400D01*
X67025000Y-35685000D02*
X67025000Y-36761700D01*
X72954400Y-43049200D02*
X74469700Y-44564500D01*
X74469700Y-44564500D02*
X74469700Y-45227300D01*
X55825000Y-84275000D02*
X56174900Y-83925100D01*
X82137500Y-44731100D02*
X82778100Y-45371700D01*
X67648200Y-37384900D02*
X67648200Y-39969500D01*
X56174900Y-57121000D02*
X62445800Y-50850100D01*
X82137500Y-44731100D02*
X82137500Y-44155000D01*
X70727900Y-43049200D02*
X72954400Y-43049200D01*
X79135000Y-47733600D02*
X82137500Y-44731100D01*
X67648200Y-39969500D02*
X70727900Y-43049200D01*
X74458900Y-48871400D02*
X74412500Y-48825000D01*
X62445800Y-50850100D02*
X72765700Y-50850100D01*
X67025000Y-36761700D02*
X67648200Y-37384900D01*
X74469700Y-45227300D02*
X76976000Y-47733600D01*
X76976000Y-47733600D02*
X79135000Y-47733600D01*
X75161600Y-49859400D02*
X74459000Y-49156800D01*
X79135000Y-49477200D02*
X78752800Y-49859400D01*
X85930800Y-45371700D02*
X87147500Y-44155000D01*
X72765700Y-50850100D02*
X74459000Y-49156800D01*
X82778100Y-45371700D02*
X85930800Y-45371700D01*
%TO.N,K_PU*%
X76945000Y-44275000D02*
X77771700Y-44275000D01*
X83016500Y-42949000D02*
X78581000Y-42949000D01*
X84222500Y-44155000D02*
X83016500Y-42949000D01*
X77771700Y-43758300D02*
X77771700Y-44275000D01*
X78581000Y-42949000D02*
X77771700Y-43758300D01*
%TO.N,K_RX*%
X73202500Y-44725000D02*
X73202500Y-45790000D01*
X78222500Y-48825000D02*
X76237500Y-48825000D01*
X65301700Y-24703100D02*
X65301700Y-39385400D01*
X73202500Y-45790000D02*
X76237500Y-48825000D01*
X62860000Y-22261400D02*
X65301700Y-24703100D01*
X70641300Y-44725000D02*
X73202500Y-44725000D01*
X65301700Y-39385400D02*
X70641300Y-44725000D01*
X62860000Y-21620000D02*
X62860000Y-22261400D01*
%TO.N,K_TX*%
X64608300Y-46640800D02*
X66792500Y-48825000D01*
X64608300Y-25908300D02*
X64608300Y-46640800D01*
X62860000Y-24160000D02*
X64608300Y-25908300D01*
%TO.N,K_TX_D*%
X68892500Y-44725000D02*
X69680500Y-45513000D01*
X69680500Y-45513000D02*
X69777600Y-45513000D01*
X78352300Y-45015200D02*
X78090000Y-45015200D01*
X79212500Y-44155000D02*
X78352300Y-45015200D01*
%TO.N,K_TX_G*%
X65950000Y-44842500D02*
X67017500Y-43775000D01*
X65950000Y-46157500D02*
X65950000Y-44842500D01*
X68617500Y-48825000D02*
X65950000Y-46157500D01*
X70602500Y-48825000D02*
X68617500Y-48825000D01*
D46*
%TO.N,LED_5V*%
X71112500Y-61065200D02*
X71112500Y-60975000D01*
X86015700Y-62897100D02*
X72944400Y-62897100D01*
X94370100Y-21370100D02*
X94370100Y-54542700D01*
X72944400Y-62897100D02*
X71112500Y-61065200D01*
X93000000Y-20000000D02*
X94370100Y-21370100D01*
X94370100Y-54542700D02*
X86015700Y-62897100D01*
D47*
%TO.N,LED_DIN*%
X75562500Y-61675000D02*
X75620500Y-61733000D01*
X75620500Y-61733000D02*
X83594500Y-61733000D01*
X83594500Y-61733000D02*
X85352500Y-59975000D01*
%TO.N,LED_DIN_A*%
X76487000Y-61261900D02*
X82080600Y-61261900D01*
X73287500Y-60725000D02*
X75950100Y-60725000D01*
X82080600Y-61261900D02*
X83367500Y-59975000D01*
X75950100Y-60725000D02*
X76487000Y-61261900D01*
%TO.N,LED_DIN_J*%
X91396600Y-24143400D02*
X91396600Y-55755900D01*
X93000000Y-22540000D02*
X91396600Y-24143400D01*
X91396600Y-55755900D02*
X87177500Y-59975000D01*
%TO.N,LED_DIN_MCU*%
X73667500Y-52100000D02*
X62860000Y-52100000D01*
X81542500Y-59975000D02*
X73667500Y-52100000D01*
D46*
%TO.N,OBD_VBAT*%
X4000000Y-84285200D02*
X13649500Y-93934700D01*
X41497000Y-45870400D02*
X41497000Y-43306700D01*
X38125000Y-83112000D02*
X38125000Y-84275000D01*
X20870500Y-96366500D02*
X26033500Y-96366500D01*
X41923800Y-52349900D02*
X41923800Y-46297200D01*
X51452500Y-66975000D02*
X51452500Y-69784500D01*
X41923800Y-46297200D02*
X41497000Y-45870400D01*
X51452500Y-69784500D02*
X38125000Y-83112000D01*
X51452500Y-61878600D02*
X41923800Y-52349900D01*
X13649500Y-93934700D02*
X18438700Y-93934700D01*
X43337500Y-41466200D02*
X43337500Y-39975000D01*
X26033500Y-96366500D02*
X38125000Y-84275000D01*
X41497000Y-43306700D02*
X43337500Y-41466200D01*
X51452500Y-66975000D02*
X51452500Y-61878600D01*
X4000000Y-66000000D02*
X4000000Y-84285200D01*
X18438700Y-93934700D02*
X20870500Y-96366500D01*
%TO.N,OBD_VBAT_F*%
X50375000Y-42555000D02*
X52175000Y-44355000D01*
X79586800Y-45816200D02*
X80487900Y-44915100D01*
X61031800Y-13351800D02*
X62918900Y-11464700D01*
X50375000Y-39975000D02*
X50375000Y-42555000D01*
X50375000Y-39975000D02*
X47612500Y-39975000D01*
X75959500Y-45816200D02*
X79586800Y-45816200D01*
X80487900Y-44915100D02*
X80487900Y-43747600D01*
X50375000Y-39775000D02*
X61031800Y-29118200D01*
X75645000Y-44275000D02*
X75645000Y-45501700D01*
X61031800Y-29118200D02*
X61031800Y-13351800D01*
X50375000Y-39975000D02*
X50375000Y-39775000D01*
X62918900Y-11464700D02*
X70741700Y-11464700D01*
X75645000Y-45501700D02*
X75959500Y-45816200D01*
D47*
%TO.N,PFD_SENSE*%
X52249400Y-13946900D02*
X53277500Y-14975000D01*
X53277500Y-14975000D02*
X55262500Y-14975000D01*
X48643100Y-13946900D02*
X52249400Y-13946900D01*
X47585000Y-16751800D02*
X48927500Y-18094300D01*
X43594300Y-16751800D02*
X47585000Y-16751800D01*
X43517500Y-16675000D02*
X43594300Y-16751800D01*
X48927500Y-18094300D02*
X48927500Y-19825000D01*
X47585000Y-15005000D02*
X48643100Y-13946900D01*
X47585000Y-16751800D02*
X47585000Y-15005000D01*
%TO.N,PWR_FAIL*%
X42094600Y-29859200D02*
X42094600Y-24732600D01*
X45117500Y-21709700D02*
X45117500Y-19825000D01*
X45117500Y-19825000D02*
X42402600Y-17110100D01*
X45117500Y-19825000D02*
X47102500Y-19825000D01*
X42094600Y-24732600D02*
X45117500Y-21709700D01*
X42402600Y-17110100D02*
X42402600Y-15889900D01*
X42402600Y-15889900D02*
X43517500Y-14775000D01*
%TO.N,PWR_LED_K*%
X48344800Y-49419900D02*
X47748200Y-50016500D01*
X56017500Y-48550400D02*
X55089100Y-49478800D01*
X47748200Y-50016500D02*
X45101000Y-50016500D01*
X45101000Y-50016500D02*
X43292500Y-51825000D01*
X55089100Y-49478800D02*
X52098000Y-49478800D01*
X56017500Y-48075000D02*
X56017500Y-48550400D01*
D46*
%TO.N,SCAP_MID*%
X83062500Y-78425000D02*
X81077500Y-78425000D01*
X77475000Y-74822500D02*
X81077500Y-78425000D01*
X77475000Y-72275000D02*
X77475000Y-74822500D01*
%TO.N,SCAP_TOP*%
X68525000Y-72275000D02*
X68525000Y-76225000D01*
X72295300Y-79995300D02*
X75827200Y-79995300D01*
X71525000Y-79225000D02*
X72295300Y-79995300D01*
X77217500Y-78605000D02*
X79072500Y-78605000D01*
X75827200Y-79995300D02*
X77217500Y-78605000D01*
X68525000Y-76225000D02*
X71525000Y-79225000D01*
X79072500Y-78605000D02*
X79252500Y-78425000D01*
D47*
%TO.N,SD_CD*%
X40000000Y-54640000D02*
X38635200Y-56004800D01*
X18902100Y-69104800D02*
X19006200Y-69208900D01*
X31802400Y-66902700D02*
X27630000Y-66902700D01*
X23701700Y-95375000D02*
X30750000Y-88326700D01*
X42123500Y-56763500D02*
X40000000Y-54640000D01*
X30750000Y-83773500D02*
X33128700Y-81394800D01*
X19006200Y-69208900D02*
X19006200Y-70052500D01*
X38635200Y-60069900D02*
X31802400Y-66902700D01*
X33128700Y-81394800D02*
X33128700Y-78686200D01*
X27336200Y-67196500D02*
X20173600Y-67196500D01*
X20173600Y-67196500D02*
X18902100Y-68468000D01*
X19006200Y-70052500D02*
X18383700Y-70675000D01*
X33128700Y-78686200D02*
X32917500Y-78475000D01*
X18902100Y-68468000D02*
X18902100Y-69104800D01*
X18383700Y-70675000D02*
X17212500Y-70675000D01*
X38635200Y-56004800D02*
X38635200Y-60069900D01*
X30750000Y-88326700D02*
X30750000Y-83773500D01*
X42123500Y-69269000D02*
X42123500Y-56763500D01*
X22650000Y-95375000D02*
X23701700Y-95375000D01*
X32917500Y-78475000D02*
X42123500Y-69269000D01*
X27630000Y-66902700D02*
X27336200Y-67196500D01*
%TO.N,SD_CLK*%
X36700800Y-65559200D02*
X36700800Y-69203200D01*
X34923700Y-70980300D02*
X27147200Y-70980300D01*
X36700800Y-69203200D02*
X34923700Y-70980300D01*
X27147200Y-70980300D02*
X23852500Y-74275000D01*
X40000000Y-62260000D02*
X36700800Y-65559200D01*
%TO.N,SD_CLK_C*%
X11038600Y-69487700D02*
X10325900Y-68775000D01*
X18203300Y-84926600D02*
X18203300Y-80956300D01*
X25677500Y-74447500D02*
X25677500Y-74275000D01*
X13249200Y-72641400D02*
X11966900Y-71359100D01*
X11520900Y-71359100D02*
X11038600Y-70876800D01*
X18225000Y-86150000D02*
X18225000Y-84948300D01*
X44025000Y-84275000D02*
X41669700Y-81919700D01*
X10325900Y-68775000D02*
X9937500Y-68775000D01*
X11966900Y-71359100D02*
X11520900Y-71359100D01*
X18225000Y-84948300D02*
X18203300Y-84926600D01*
X24862200Y-75262800D02*
X25677500Y-74447500D01*
X41669700Y-81919700D02*
X40642700Y-81919700D01*
X11038600Y-70876800D02*
X11038600Y-69487700D01*
%TO.N,SD_CMD*%
X39508800Y-63623300D02*
X37152500Y-65979600D01*
X40311900Y-63623300D02*
X39508800Y-63623300D01*
X28112500Y-73873800D02*
X28112500Y-74275000D01*
X37152500Y-69390300D02*
X34807200Y-71735600D01*
X40000000Y-59720000D02*
X41195400Y-60915400D01*
X37152500Y-65979600D02*
X37152500Y-69390300D01*
X30250700Y-71735600D02*
X28112500Y-73873800D01*
X41195400Y-62739800D02*
X40311900Y-63623300D01*
X41195400Y-60915400D02*
X41195400Y-62739800D01*
X34807200Y-71735600D02*
X30250700Y-71735600D01*
%TO.N,SD_CMD_C*%
X46914000Y-84214000D02*
X46975000Y-84275000D01*
X16025000Y-86150000D02*
X16025000Y-82561200D01*
X9252800Y-79509700D02*
X8931900Y-79188800D01*
X11617500Y-78475000D02*
X10582800Y-79509700D01*
X8931900Y-79188800D02*
X8931900Y-71680600D01*
X29937500Y-74275000D02*
X29937500Y-81770000D01*
X16025000Y-82561200D02*
X16123200Y-82561200D01*
X10582800Y-79509700D02*
X9252800Y-79509700D01*
X8931900Y-71680600D02*
X9937500Y-70675000D01*
X12180600Y-78475000D02*
X11617500Y-78475000D01*
X16025000Y-82561200D02*
X16025000Y-82319400D01*
X45500000Y-84214000D02*
X46914000Y-84214000D01*
X16025000Y-82319400D02*
X12180600Y-78475000D01*
%TO.N,SD_D0*%
X34623600Y-72558000D02*
X34089500Y-72558000D01*
X38823300Y-66814000D02*
X38823300Y-68358300D01*
X34089500Y-72558000D02*
X32372500Y-74275000D01*
X41659500Y-64885200D02*
X40436300Y-66108400D01*
X39528900Y-66108400D02*
X38823300Y-66814000D01*
X38823300Y-68358300D02*
X34623600Y-72558000D01*
X41659500Y-58839500D02*
X41659500Y-64885200D01*
X40436300Y-66108400D02*
X39528900Y-66108400D01*
X40000000Y-57180000D02*
X41659500Y-58839500D01*
%TO.N,SD_D0_C*%
X20425000Y-87351700D02*
X23510400Y-87351700D01*
X29426700Y-73242300D02*
X30440300Y-73242300D01*
X29025000Y-73644000D02*
X29426700Y-73242300D01*
X20425000Y-86150000D02*
X20425000Y-87351700D01*
X15491000Y-73953500D02*
X12212500Y-70675000D01*
X20425000Y-85549100D02*
X20425000Y-84948300D01*
X16156100Y-78753600D02*
X16912800Y-78753600D01*
X15491000Y-78088500D02*
X15491000Y-73953500D01*
X29025000Y-74946600D02*
X29025000Y-73644000D01*
X33119300Y-75353200D02*
X34197500Y-74275000D01*
X31846900Y-75353200D02*
X33119300Y-75353200D01*
X27745000Y-83117100D02*
X27745000Y-76226600D01*
X15877500Y-78475000D02*
X16156100Y-78753600D01*
X27745000Y-76226600D02*
X29025000Y-74946600D01*
X20425000Y-81741800D02*
X18622300Y-79939100D01*
X23510400Y-87351700D02*
X27745000Y-83117100D01*
X15877500Y-78475000D02*
X15491000Y-78088500D01*
X31314300Y-74820600D02*
X31846900Y-75353200D01*
X20425000Y-85549100D02*
X20425000Y-86150000D01*
X30440300Y-73242300D02*
X31314300Y-74116300D01*
X20425000Y-84948300D02*
X20425000Y-81741800D01*
X31314300Y-74116300D02*
X31314300Y-74820600D01*
%TO.N,SD_D1_C*%
X12212500Y-68775000D02*
X12212500Y-67951200D01*
X21525000Y-79862500D02*
X21525000Y-86150000D01*
X20137500Y-78475000D02*
X21525000Y-79862500D01*
X20727600Y-77238300D02*
X20137500Y-77828400D01*
X20137500Y-77828400D02*
X20137500Y-78475000D01*
%TO.N,SD_D2_C*%
X8136400Y-69194900D02*
X10097300Y-67234000D01*
X8136400Y-79079400D02*
X8136400Y-69194900D01*
X13396500Y-67234000D02*
X14937500Y-68775000D01*
X24397500Y-78475000D02*
X24397500Y-78202000D01*
X13825000Y-86150000D02*
X13825000Y-85061600D01*
X24397500Y-78202000D02*
X23485000Y-77289500D01*
X10097300Y-67234000D02*
X13396500Y-67234000D01*
X13825000Y-85061600D02*
X13825000Y-84583500D01*
X13190500Y-84133500D02*
X8136400Y-79079400D01*
X13375000Y-84133500D02*
X13190500Y-84133500D01*
X13825000Y-84583500D02*
X13375000Y-84133500D01*
%TO.N,SD_D3_C*%
X14849600Y-84872900D02*
X14849600Y-82030300D01*
X14925000Y-86750800D02*
X14925000Y-86150000D01*
X15756200Y-88182900D02*
X23396400Y-88182900D01*
X23396400Y-88182900D02*
X28657500Y-82921800D01*
X14925000Y-87351700D02*
X15756200Y-88182900D01*
X28657500Y-82921800D02*
X28657500Y-78475000D01*
X15982200Y-76348700D02*
X15982200Y-71719700D01*
X15982200Y-71719700D02*
X14937500Y-70675000D01*
X14925000Y-86750800D02*
X14925000Y-87351700D01*
X14925000Y-84948300D02*
X14849600Y-84872900D01*
X16350500Y-76717000D02*
X15982200Y-76348700D01*
X14925000Y-86150000D02*
X14925000Y-84948300D01*
%TO.N,SD_EN_G*%
X24777500Y-68775000D02*
X26454900Y-68775000D01*
X9851200Y-74275000D02*
X9792500Y-74275000D01*
X26454900Y-68775000D02*
X27750200Y-67479700D01*
X23500900Y-68854400D02*
X24698100Y-68854400D01*
X24698100Y-68854400D02*
X24777500Y-68775000D01*
X27750200Y-67479700D02*
X33902200Y-67479700D01*
X11796700Y-72329500D02*
X9851200Y-74275000D01*
X33902200Y-67479700D02*
X35397500Y-68975000D01*
%TO.N,SD_PG*%
X23324100Y-69725000D02*
X26652500Y-69725000D01*
X20017500Y-68775000D02*
X22374100Y-68775000D01*
X30103400Y-67940900D02*
X28436600Y-67940900D01*
X31137500Y-68975000D02*
X30103400Y-67940900D01*
X22374100Y-68775000D02*
X23324100Y-69725000D01*
X28436600Y-67940900D02*
X26652500Y-69725000D01*
%TO.N,SD_PWR_EN*%
X34697800Y-70100300D02*
X33572500Y-68975000D01*
X62860000Y-54640000D02*
X62482500Y-54640000D01*
X62482500Y-54640000D02*
X56816700Y-60305800D01*
D46*
%TO.N,SD_VDD*%
X22067300Y-71772700D02*
X19535000Y-74305000D01*
X23750200Y-79652700D02*
X25654800Y-79652700D01*
X10973800Y-77293700D02*
X9792500Y-78475000D01*
X14052500Y-78475000D02*
X15240000Y-79662500D01*
X19535000Y-74305000D02*
X19535000Y-75437500D01*
X25654800Y-79652700D02*
X26832500Y-78475000D01*
X21892500Y-69725000D02*
X22067300Y-69899800D01*
X20442500Y-76345000D02*
X18312500Y-78475000D01*
X14052500Y-74532500D02*
X14110000Y-74475000D01*
X22067300Y-69899800D02*
X22067300Y-71772700D01*
X19535000Y-75437500D02*
X20442500Y-76345000D01*
X15240000Y-79662500D02*
X17125000Y-79662500D01*
X20932700Y-76345000D02*
X22572500Y-77984800D01*
X17125000Y-79662500D02*
X18312500Y-78475000D01*
X22572500Y-77984800D02*
X22572500Y-78475000D01*
X17125000Y-86150000D02*
X17125000Y-84798300D01*
X14052500Y-77293700D02*
X10973800Y-77293700D01*
X20442500Y-76345000D02*
X20932700Y-76345000D01*
X14052500Y-77293700D02*
X14052500Y-78475000D01*
X22572500Y-78475000D02*
X23750200Y-79652700D01*
X17125000Y-84798300D02*
X17125000Y-79662500D01*
X14052500Y-77293700D02*
X14052500Y-74532500D01*
D47*
%TO.N,SENS_RTN*%
X1037100Y-43287100D02*
X3525000Y-45775000D01*
X2792500Y-46507500D02*
X3525000Y-45775000D01*
X20000000Y-6500000D02*
X20000000Y-7875000D01*
X17912800Y-4760300D02*
X10974200Y-4760300D01*
X20000000Y-6500000D02*
X19073300Y-6500000D01*
X10974200Y-4760300D02*
X1037100Y-14697400D01*
X19073300Y-6500000D02*
X19073300Y-5920800D01*
X22000000Y-6500000D02*
X22000000Y-7875000D01*
X2792500Y-49925000D02*
X2792500Y-46507500D01*
X19073300Y-5920800D02*
X17912800Y-4760300D01*
X1037100Y-14697400D02*
X1037100Y-43287100D01*
%TO.N,TERM2_A*%
X73375000Y-36761700D02*
X73175800Y-36761700D01*
X73375000Y-35685000D02*
X73375000Y-36761700D01*
X73175800Y-36761700D02*
X70602500Y-39335000D01*
%TO.N,TERM_A*%
X31225000Y-61750000D02*
X31225000Y-62826700D01*
X20433400Y-64194100D02*
X18602500Y-66025000D01*
X29857600Y-64194100D02*
X20433400Y-64194100D01*
X31225000Y-62826700D02*
X29857600Y-64194100D01*
%TO.N,VBAT_SNS*%
X55042600Y-66755100D02*
X55262500Y-66975000D01*
X41249400Y-53210500D02*
X49928000Y-61889100D01*
X49928000Y-64662000D02*
X47585000Y-67005000D01*
X49928000Y-64662000D02*
X50088800Y-64662000D01*
X47585000Y-67005000D02*
X46112500Y-67005000D01*
X39594500Y-50904200D02*
X40517300Y-50904200D01*
X40517300Y-50904200D02*
X41249400Y-51636300D01*
X49928000Y-61889100D02*
X49928000Y-64662000D01*
X38316900Y-49626600D02*
X39594500Y-50904200D01*
X41249400Y-51636300D02*
X41249400Y-53210500D01*
X40000000Y-41940000D02*
X38316900Y-43623100D01*
X46112500Y-67005000D02*
X45392500Y-67725000D01*
X53497400Y-65531000D02*
X53497400Y-66755100D01*
X38316900Y-43623100D02*
X38316900Y-49626600D01*
X53497400Y-66755100D02*
X55042600Y-66755100D01*
X53497400Y-66755100D02*
X53277500Y-66975000D01*
D46*
%TO.N,VSENS_F*%
X47462500Y-28975000D02*
X47612500Y-28975000D01*
X43212500Y-33225000D02*
X47462500Y-28975000D01*
D47*
%TO.N,XTAL1*%
X86338400Y-24266400D02*
X87751500Y-24266400D01*
X79630500Y-34379500D02*
X79325000Y-34685000D01*
X86957300Y-21586800D02*
X66728800Y-21586800D01*
X80899300Y-29703200D02*
X83898900Y-26703600D01*
X83901200Y-26703600D02*
X86338400Y-24266400D01*
X65943400Y-20801400D02*
X65943400Y-20029400D01*
X77380200Y-32129200D02*
X77380200Y-30296300D01*
X66827800Y-19145000D02*
X67250000Y-19145000D01*
X83898900Y-26703600D02*
X83901200Y-26703600D01*
X81925000Y-32085000D02*
X79630500Y-34379500D01*
X79630500Y-34379500D02*
X77380200Y-32129200D01*
X77380200Y-30296300D02*
X77973300Y-29703200D01*
X88051700Y-22681200D02*
X86957300Y-21586800D01*
X77973300Y-29703200D02*
X80899300Y-29703200D01*
X65943400Y-20029400D02*
X66827800Y-19145000D01*
X87751500Y-24266400D02*
X88051700Y-23966200D01*
X66728800Y-21586800D02*
X65943400Y-20801400D01*
X88051700Y-23966200D02*
X88051700Y-22681200D01*
X79325000Y-34685000D02*
X79325000Y-35415000D01*
%TO.N,XTAL2*%
X83025000Y-35265000D02*
X83025000Y-31485000D01*
X69990900Y-17159100D02*
X69990900Y-17477000D01*
X84125000Y-30385000D02*
X84125000Y-27118600D01*
X83175000Y-35415000D02*
X83025000Y-35265000D01*
X69990900Y-17477000D02*
X69592900Y-17875000D01*
X83025000Y-31485000D02*
X84125000Y-30385000D01*
X69592900Y-17875000D02*
X67250000Y-17875000D01*
X71183000Y-15967000D02*
X69990900Y-17159100D01*
X84125000Y-27118600D02*
X86499400Y-24744200D01*
X86499400Y-24744200D02*
X87912500Y-24744200D01*
X88503400Y-24153300D02*
X88503400Y-22494100D01*
X87912500Y-24744200D02*
X88503400Y-24153300D01*
X88503400Y-22494100D02*
X81976300Y-15967000D01*
X81976300Y-15967000D02*
X71183000Y-15967000D01*
%TD*%
M02*
