%TF.GenerationSoftware,KiCad,Pcbnew,9.0.5*%
%TF.CreationDate,2026-08-13T00:10:19-04:00*%
%TF.ProjectId,esp32s3-can-sd-logger,65737033-3273-4332-9d63-616e2d73642d,rev?*%
%TF.SameCoordinates,Original*%
%TF.FileFunction,Copper,L1,Top*%
%TF.FilePolarity,Positive*%
%FSLAX46Y46*%
G04 Gerber Fmt 4.6, Leading zero omitted, Abs format (unit mm)*
G04 Created by KiCad (PCBNEW 9.0.5) date 2026-08-13 00:10:19*
%MOMM*%
%LPD*%
G01*
G04 APERTURE LIST*
G04 Aperture macros list*
%AMRoundRect*
0 Rectangle with rounded corners*
0 $1 Rounding radius*
0 $2 $3 $4 $5 $6 $7 $8 $9 X,Y pos of 4 corners*
0 Add a 4 corners polygon primitive as box body*
4,1,4,$2,$3,$4,$5,$6,$7,$8,$9,$2,$3,0*
0 Add four circle primitives for the rounded corners*
1,1,$1+$1,$2,$3*
1,1,$1+$1,$4,$5*
1,1,$1+$1,$6,$7*
1,1,$1+$1,$8,$9*
0 Add four rect primitives between the rounded corners*
20,1,$1+$1,$2,$3,$4,$5,0*
20,1,$1+$1,$4,$5,$6,$7,0*
20,1,$1+$1,$6,$7,$8,$9,0*
20,1,$1+$1,$8,$9,$2,$3,0*%
G04 Aperture macros list end*
%TA.AperFunction,EtchedComponent*%
%ADD10C,0.000000*%
%TD*%
%TA.AperFunction,SMDPad,CuDef*%
%ADD11R,1.000000X1.500000*%
%TD*%
%TA.AperFunction,SMDPad,CuDef*%
%ADD12RoundRect,0.250000X-0.250000X-0.475000X0.250000X-0.475000X0.250000X0.475000X-0.250000X0.475000X0*%
%TD*%
%TA.AperFunction,SMDPad,CuDef*%
%ADD13RoundRect,0.250000X-0.262500X-0.450000X0.262500X-0.450000X0.262500X0.450000X-0.262500X0.450000X0*%
%TD*%
%TA.AperFunction,SMDPad,CuDef*%
%ADD14RoundRect,0.075000X-0.650000X-0.075000X0.650000X-0.075000X0.650000X0.075000X-0.650000X0.075000X0*%
%TD*%
%TA.AperFunction,SMDPad,CuDef*%
%ADD15R,1.350000X0.900000*%
%TD*%
%TA.AperFunction,SMDPad,CuDef*%
%ADD16C,1.500000*%
%TD*%
%TA.AperFunction,SMDPad,CuDef*%
%ADD17RoundRect,0.150000X-0.587500X-0.150000X0.587500X-0.150000X0.587500X0.150000X-0.587500X0.150000X0*%
%TD*%
%TA.AperFunction,SMDPad,CuDef*%
%ADD18RoundRect,0.250000X-1.000000X-0.650000X1.000000X-0.650000X1.000000X0.650000X-1.000000X0.650000X0*%
%TD*%
%TA.AperFunction,SMDPad,CuDef*%
%ADD19RoundRect,0.150000X-0.825000X-0.150000X0.825000X-0.150000X0.825000X0.150000X-0.825000X0.150000X0*%
%TD*%
%TA.AperFunction,SMDPad,CuDef*%
%ADD20RoundRect,0.250000X-0.312500X-1.450000X0.312500X-1.450000X0.312500X1.450000X-0.312500X1.450000X0*%
%TD*%
%TA.AperFunction,ComponentPad*%
%ADD21RoundRect,0.250000X-0.350000X-0.625000X0.350000X-0.625000X0.350000X0.625000X-0.350000X0.625000X0*%
%TD*%
%TA.AperFunction,ComponentPad*%
%ADD22O,1.200000X1.750000*%
%TD*%
%TA.AperFunction,SMDPad,CuDef*%
%ADD23RoundRect,0.243750X-0.243750X-0.456250X0.243750X-0.456250X0.243750X0.456250X-0.243750X0.456250X0*%
%TD*%
%TA.AperFunction,ComponentPad*%
%ADD24R,1.700000X1.700000*%
%TD*%
%TA.AperFunction,ComponentPad*%
%ADD25C,1.700000*%
%TD*%
%TA.AperFunction,SMDPad,CuDef*%
%ADD26RoundRect,0.250000X-0.325000X-0.650000X0.325000X-0.650000X0.325000X0.650000X-0.325000X0.650000X0*%
%TD*%
%TA.AperFunction,SMDPad,CuDef*%
%ADD27RoundRect,0.150000X-0.512500X-0.150000X0.512500X-0.150000X0.512500X0.150000X-0.512500X0.150000X0*%
%TD*%
%TA.AperFunction,SMDPad,CuDef*%
%ADD28RoundRect,0.218750X-0.218750X-0.381250X0.218750X-0.381250X0.218750X0.381250X-0.218750X0.381250X0*%
%TD*%
%TA.AperFunction,SMDPad,CuDef*%
%ADD29RoundRect,0.250000X-0.312500X-0.625000X0.312500X-0.625000X0.312500X0.625000X-0.312500X0.625000X0*%
%TD*%
%TA.AperFunction,ComponentPad*%
%ADD30RoundRect,0.250000X-0.550000X-0.550000X0.550000X-0.550000X0.550000X0.550000X-0.550000X0.550000X0*%
%TD*%
%TA.AperFunction,ComponentPad*%
%ADD31C,1.600000*%
%TD*%
%TA.AperFunction,SMDPad,CuDef*%
%ADD32RoundRect,0.250000X-0.450000X-0.350000X0.450000X-0.350000X0.450000X0.350000X-0.450000X0.350000X0*%
%TD*%
%TA.AperFunction,SMDPad,CuDef*%
%ADD33R,0.700000X1.750000*%
%TD*%
%TA.AperFunction,SMDPad,CuDef*%
%ADD34R,1.450000X1.000000*%
%TD*%
%TA.AperFunction,SMDPad,CuDef*%
%ADD35R,1.000000X1.550000*%
%TD*%
%TA.AperFunction,SMDPad,CuDef*%
%ADD36R,0.800000X1.500000*%
%TD*%
%TA.AperFunction,SMDPad,CuDef*%
%ADD37R,1.300000X1.500000*%
%TD*%
%TA.AperFunction,SMDPad,CuDef*%
%ADD38R,1.500000X1.500000*%
%TD*%
%TA.AperFunction,SMDPad,CuDef*%
%ADD39R,0.800000X1.400000*%
%TD*%
%TA.AperFunction,ComponentPad*%
%ADD40RoundRect,0.250000X0.625000X-0.350000X0.625000X0.350000X-0.625000X0.350000X-0.625000X-0.350000X0*%
%TD*%
%TA.AperFunction,ComponentPad*%
%ADD41O,1.750000X1.200000*%
%TD*%
%TA.AperFunction,ViaPad*%
%ADD42C,0.600000*%
%TD*%
%TA.AperFunction,ViaPad*%
%ADD43C,0.500000*%
%TD*%
%TA.AperFunction,ViaPad*%
%ADD44C,0.800000*%
%TD*%
%TA.AperFunction,Conductor*%
%ADD45C,0.300000*%
%TD*%
%TA.AperFunction,Conductor*%
%ADD46C,0.550000*%
%TD*%
%TA.AperFunction,Conductor*%
%ADD47C,0.250000*%
%TD*%
G04 APERTURE END LIST*
D10*
%TA.AperFunction,EtchedComponent*%
%TO.C,JP4*%
G36*
X67925000Y-35985000D02*
G01*
X67425000Y-35985000D01*
X67425000Y-35385000D01*
X67925000Y-35385000D01*
X67925000Y-35985000D01*
G37*
%TD.AperFunction*%
%TD*%
D11*
%TO.P,JP7,1*%
%TO.N,+5VS*%
X16235000Y-19225000D03*
%TO.P,JP7,2*%
%TO.N,AIN2_PU*%
X17535000Y-19225000D03*
%TD*%
D12*
%TO.P,C25,1*%
%TO.N,AIN1*%
X6525000Y-28755000D03*
%TO.P,C25,2*%
%TO.N,GND*%
X8425000Y-28755000D03*
%TD*%
%TO.P,C5,1*%
%TO.N,+3V3*%
X52175000Y-48105000D03*
%TO.P,C5,2*%
%TO.N,GND*%
X54075000Y-48105000D03*
%TD*%
%TO.P,C14,1*%
%TO.N,SD_VDD*%
X19535000Y-74305000D03*
%TO.P,C14,2*%
%TO.N,GND*%
X21435000Y-74305000D03*
%TD*%
D13*
%TO.P,R58,1*%
%TO.N,OBD_VBAT*%
X51452500Y-66975000D03*
%TO.P,R58,2*%
%TO.N,VBAT_SNS*%
X53277500Y-66975000D03*
%TD*%
D14*
%TO.P,U8,1*%
%TO.N,GND*%
X3005000Y-18725000D03*
%TO.P,U8,2*%
%TO.N,N/C*%
X3005000Y-19225000D03*
%TO.P,U8,3*%
%TO.N,GND*%
X3005000Y-19725000D03*
%TO.P,U8,4*%
%TO.N,AIN1*%
X3005000Y-20225000D03*
%TO.P,U8,5*%
%TO.N,AIN2*%
X3005000Y-20725000D03*
%TO.P,U8,6*%
%TO.N,AIN3*%
X7405000Y-20725000D03*
%TO.P,U8,7*%
%TO.N,AGND_SENSE*%
X7405000Y-20225000D03*
%TO.P,U8,8*%
%TO.N,+3V3*%
X7405000Y-19725000D03*
%TO.P,U8,9*%
%TO.N,I2C_SDA*%
X7405000Y-19225000D03*
%TO.P,U8,10*%
%TO.N,I2C_SCL*%
X7405000Y-18725000D03*
%TD*%
D15*
%TO.P,L2,1*%
%TO.N,CAN2H_T*%
X82500000Y-23335000D03*
%TO.P,L2,2*%
%TO.N,CAN2_H_C*%
X87050000Y-23335000D03*
%TO.P,L2,3*%
%TO.N,CAN2L_T*%
X82500000Y-25835000D03*
%TO.P,L2,4*%
%TO.N,CAN2_L_C*%
X87050000Y-25835000D03*
%TD*%
D16*
%TO.P,TP9,1*%
%TO.N,CAN_L*%
X52875000Y-84275000D03*
%TD*%
%TO.P,TP7,1*%
%TO.N,SD_CMD_C*%
X46975000Y-84275000D03*
%TD*%
D13*
%TO.P,R37,1*%
%TO.N,AIN1_IN*%
X2792500Y-32675000D03*
%TO.P,R37,2*%
%TO.N,AIN1_A*%
X4617500Y-32675000D03*
%TD*%
D17*
%TO.P,D20,1*%
%TO.N,GND*%
X43517500Y-66775000D03*
%TO.P,D20,2*%
%TO.N,+3V3*%
X43517500Y-68675000D03*
%TO.P,D20,3*%
%TO.N,VBAT_SNS*%
X45392500Y-67725000D03*
%TD*%
D13*
%TO.P,R17,1*%
%TO.N,SD_CMD*%
X28112500Y-74275000D03*
%TO.P,R17,2*%
%TO.N,SD_CMD_C*%
X29937500Y-74275000D03*
%TD*%
D12*
%TO.P,C26,1*%
%TO.N,AIN2*%
X11675000Y-23805000D03*
%TO.P,C26,2*%
%TO.N,GND*%
X13575000Y-23805000D03*
%TD*%
D18*
%TO.P,D14,1*%
%TO.N,AIN3_IN*%
X21325000Y-14775000D03*
%TO.P,D14,2*%
%TO.N,GND*%
X25325000Y-14775000D03*
%TD*%
D12*
%TO.P,C28,1*%
%TO.N,AIN4*%
X33225000Y-28755000D03*
%TO.P,C28,2*%
%TO.N,GND*%
X35125000Y-28755000D03*
%TD*%
D13*
%TO.P,R43,1*%
%TO.N,AIN2_A*%
X15502500Y-27185000D03*
%TO.P,R43,2*%
%TO.N,AIN2*%
X17327500Y-27185000D03*
%TD*%
D12*
%TO.P,C27,1*%
%TO.N,AIN3*%
X20575000Y-23805000D03*
%TO.P,C27,2*%
%TO.N,GND*%
X22475000Y-23805000D03*
%TD*%
D11*
%TO.P,JP4,1*%
%TO.N,K_LINE*%
X67025000Y-35685000D03*
%TO.P,JP4,2*%
%TO.N,AUX_A*%
X68325000Y-35685000D03*
%TO.P,JP4,3*%
%TO.N,CAN2_H_C*%
X69625000Y-35685000D03*
%TD*%
D13*
%TO.P,R10,1*%
%TO.N,+3V3*%
X50912500Y-51825000D03*
%TO.P,R10,2*%
%TO.N,I2C_SCL*%
X52737500Y-51825000D03*
%TD*%
D16*
%TO.P,TP8,1*%
%TO.N,CAN_H*%
X49925000Y-84275000D03*
%TD*%
D13*
%TO.P,R55,1*%
%TO.N,AGND_SENSE*%
X10412500Y-49925000D03*
%TO.P,R55,2*%
%TO.N,GND*%
X12237500Y-49925000D03*
%TD*%
D12*
%TO.P,C19,1*%
%TO.N,+3V3*%
X78475000Y-13005000D03*
%TO.P,C19,2*%
%TO.N,GND*%
X80375000Y-13005000D03*
%TD*%
D19*
%TO.P,U7,1*%
%TO.N,CAN2_TXD*%
X67250000Y-23430000D03*
%TO.P,U7,2*%
%TO.N,GND*%
X67250000Y-24700000D03*
%TO.P,U7,3*%
%TO.N,+5V*%
X67250000Y-25970000D03*
%TO.P,U7,4*%
%TO.N,CAN2_RXD*%
X67250000Y-27240000D03*
%TO.P,U7,5*%
%TO.N,+3V3*%
X72200000Y-27240000D03*
%TO.P,U7,6*%
%TO.N,CAN2L_T*%
X72200000Y-25970000D03*
%TO.P,U7,7*%
%TO.N,CAN2H_T*%
X72200000Y-24700000D03*
%TO.P,U7,8*%
%TO.N,CAN2_S*%
X72200000Y-23430000D03*
%TD*%
D18*
%TO.P,D12,1*%
%TO.N,AIN2_IN*%
X12425000Y-14775000D03*
%TO.P,D12,2*%
%TO.N,GND*%
X16425000Y-14775000D03*
%TD*%
D13*
%TO.P,R24,1*%
%TO.N,+3V3*%
X31092500Y-78475000D03*
%TO.P,R24,2*%
%TO.N,SD_CD*%
X32917500Y-78475000D03*
%TD*%
D12*
%TO.P,C15,1*%
%TO.N,+5V*%
X22625000Y-55005000D03*
%TO.P,C15,2*%
%TO.N,GND*%
X24525000Y-55005000D03*
%TD*%
D20*
%TO.P,PF3,1*%
%TO.N,+5V*%
X66837500Y-60975000D03*
%TO.P,PF3,2*%
%TO.N,LED_5V*%
X71112500Y-60975000D03*
%TD*%
D18*
%TO.P,D5,1*%
%TO.N,CAN_H*%
X15525000Y-62250000D03*
%TO.P,D5,2*%
%TO.N,GND*%
X19525000Y-62250000D03*
%TD*%
D17*
%TO.P,D19,1*%
%TO.N,GND*%
X10467500Y-44775000D03*
%TO.P,D19,2*%
%TO.N,+3V3*%
X10467500Y-46675000D03*
%TO.P,D19,3*%
%TO.N,AGND_SENSE*%
X12342500Y-45725000D03*
%TD*%
D21*
%TO.P,J2,1*%
%TO.N,AUX_A*%
X68000000Y-6500000D03*
D22*
%TO.P,J2,2*%
%TO.N,AUX_B*%
X70000000Y-6500000D03*
%TO.P,J2,3*%
%TO.N,GND*%
X72000000Y-6500000D03*
%TO.P,J2,4*%
X74000000Y-6500000D03*
%TD*%
D23*
%TO.P,D4,1*%
%TO.N,PWR_LED_K*%
X56017500Y-48075000D03*
%TO.P,D4,2*%
%TO.N,+3V3*%
X57892500Y-48075000D03*
%TD*%
D13*
%TO.P,R25,1*%
%TO.N,CAN_S*%
X14792500Y-66025000D03*
%TO.P,R25,2*%
%TO.N,GND*%
X16617500Y-66025000D03*
%TD*%
D24*
%TO.P,J10,1*%
%TO.N,AIN_SP1*%
X93000000Y-59000000D03*
D25*
%TO.P,J10,2*%
%TO.N,AIN_SP2*%
X93000000Y-61540000D03*
%TO.P,J10,3*%
%TO.N,AGND_SENSE*%
X93000000Y-64080000D03*
%TO.P,J10,4*%
%TO.N,GND*%
X93000000Y-66620000D03*
%TD*%
D26*
%TO.P,C10,1*%
%TO.N,+3V3*%
X43350000Y-44525000D03*
%TO.P,C10,2*%
%TO.N,GND*%
X46300000Y-44525000D03*
%TD*%
D13*
%TO.P,R6,1*%
%TO.N,+3V3*%
X43292500Y-19825000D03*
%TO.P,R6,2*%
%TO.N,PWR_FAIL*%
X45117500Y-19825000D03*
%TD*%
D20*
%TO.P,PF2,1*%
%TO.N,+5V*%
X43337500Y-28975000D03*
%TO.P,PF2,2*%
%TO.N,VSENS_F*%
X47612500Y-28975000D03*
%TD*%
D13*
%TO.P,R29,1*%
%TO.N,K_TX_G*%
X70602500Y-48825000D03*
%TO.P,R29,2*%
%TO.N,GND*%
X72427500Y-48825000D03*
%TD*%
D18*
%TO.P,D1,1*%
%TO.N,OBD_VBAT_F*%
X50375000Y-39775000D03*
%TO.P,D1,2*%
%TO.N,GND*%
X54375000Y-39775000D03*
%TD*%
D13*
%TO.P,R31,1*%
%TO.N,K_LINE*%
X74412500Y-48825000D03*
%TO.P,R31,2*%
%TO.N,K_RX*%
X76237500Y-48825000D03*
%TD*%
D12*
%TO.P,C1,1*%
%TO.N,OBD_VBAT_F*%
X52175000Y-44355000D03*
%TO.P,C1,2*%
%TO.N,GND*%
X54075000Y-44355000D03*
%TD*%
D19*
%TO.P,U5,1*%
%TO.N,CAN_TX*%
X15250000Y-54820000D03*
%TO.P,U5,2*%
%TO.N,GND*%
X15250000Y-56090000D03*
%TO.P,U5,3*%
%TO.N,+5V*%
X15250000Y-57360000D03*
%TO.P,U5,4*%
%TO.N,CAN_RX*%
X15250000Y-58630000D03*
%TO.P,U5,5*%
%TO.N,+3V3*%
X20200000Y-58630000D03*
%TO.P,U5,6*%
%TO.N,CANL_T*%
X20200000Y-57360000D03*
%TO.P,U5,7*%
%TO.N,CANH_T*%
X20200000Y-56090000D03*
%TO.P,U5,8*%
%TO.N,CAN_S*%
X20200000Y-54820000D03*
%TD*%
D13*
%TO.P,R14,1*%
%TO.N,SD_PWR_EN*%
X33572500Y-68975000D03*
%TO.P,R14,2*%
%TO.N,SD_EN_G*%
X35397500Y-68975000D03*
%TD*%
D12*
%TO.P,C20,1*%
%TO.N,XTAL1*%
X79325000Y-35415000D03*
%TO.P,C20,2*%
%TO.N,GND*%
X81225000Y-35415000D03*
%TD*%
%TO.P,C3,1*%
%TO.N,+5V*%
X48325000Y-48105000D03*
%TO.P,C3,2*%
%TO.N,GND*%
X50225000Y-48105000D03*
%TD*%
D16*
%TO.P,TP5,1*%
%TO.N,GND*%
X41075000Y-84275000D03*
%TD*%
D12*
%TO.P,C22,1*%
%TO.N,+5V*%
X74625000Y-23615000D03*
%TO.P,C22,2*%
%TO.N,GND*%
X76525000Y-23615000D03*
%TD*%
D18*
%TO.P,D9,1*%
%TO.N,AUX_B*%
X74975000Y-31235000D03*
%TO.P,D9,2*%
%TO.N,GND*%
X78975000Y-31235000D03*
%TD*%
D12*
%TO.P,C32,1*%
%TO.N,VBAT_SNS*%
X47585000Y-67005000D03*
%TO.P,C32,2*%
%TO.N,GND*%
X49485000Y-67005000D03*
%TD*%
D13*
%TO.P,R12,1*%
%TO.N,LED_DIN*%
X85352500Y-59975000D03*
%TO.P,R12,2*%
%TO.N,LED_DIN_J*%
X87177500Y-59975000D03*
%TD*%
%TO.P,R7,1*%
%TO.N,PWR_FAIL*%
X47102500Y-19825000D03*
%TO.P,R7,2*%
%TO.N,PFD_SENSE*%
X48927500Y-19825000D03*
%TD*%
%TO.P,R21,1*%
%TO.N,SD_VDD*%
X18312500Y-78475000D03*
%TO.P,R21,2*%
%TO.N,SD_D1_C*%
X20137500Y-78475000D03*
%TD*%
D16*
%TO.P,TP2,1*%
%TO.N,+3V3*%
X32225000Y-84275000D03*
%TD*%
D12*
%TO.P,C16,1*%
%TO.N,+3V3*%
X26475000Y-55005000D03*
%TO.P,C16,2*%
%TO.N,GND*%
X28375000Y-55005000D03*
%TD*%
D24*
%TO.P,J3,1*%
%TO.N,+3V3*%
X40000000Y-14000000D03*
D25*
%TO.P,J3,2*%
X40000000Y-16540000D03*
%TO.P,J3,3*%
%TO.N,N/C*%
X40000000Y-19080000D03*
%TO.P,J3,4*%
%TO.N,AIN1*%
X40000000Y-21620000D03*
%TO.P,J3,5*%
%TO.N,AIN2*%
X40000000Y-24160000D03*
%TO.P,J3,6*%
%TO.N,AIN3*%
X40000000Y-26700000D03*
%TO.P,J3,7*%
%TO.N,AIN4*%
X40000000Y-29240000D03*
%TO.P,J3,8*%
%TO.N,PWR_FAIL*%
X40000000Y-31780000D03*
%TO.P,J3,9*%
%TO.N,CAN_S*%
X40000000Y-34320000D03*
%TO.P,J3,10*%
%TO.N,CAN_TX*%
X40000000Y-36860000D03*
%TO.P,J3,11*%
%TO.N,CAN_RX*%
X40000000Y-39400000D03*
%TO.P,J3,12*%
%TO.N,VBAT_SNS*%
X40000000Y-41940000D03*
%TO.P,J3,13*%
%TO.N,N/C*%
X40000000Y-44480000D03*
%TO.P,J3,14*%
X40000000Y-47020000D03*
%TO.P,J3,15*%
%TO.N,I2C_SCL*%
X40000000Y-49560000D03*
%TO.P,J3,16*%
%TO.N,I2C_SDA*%
X40000000Y-52100000D03*
%TO.P,J3,17*%
%TO.N,SD_CD*%
X40000000Y-54640000D03*
%TO.P,J3,18*%
%TO.N,SD_D0*%
X40000000Y-57180000D03*
%TO.P,J3,19*%
%TO.N,SD_CMD*%
X40000000Y-59720000D03*
%TO.P,J3,20*%
%TO.N,SD_CLK*%
X40000000Y-62260000D03*
%TO.P,J3,21*%
%TO.N,+5V*%
X40000000Y-64800000D03*
%TO.P,J3,22*%
%TO.N,GND*%
X40000000Y-67340000D03*
%TD*%
D16*
%TO.P,TP3,1*%
%TO.N,+5VS*%
X35175000Y-84275000D03*
%TD*%
D13*
%TO.P,R8,1*%
%TO.N,PWR_LED_K*%
X43292500Y-51825000D03*
%TO.P,R8,2*%
%TO.N,GND*%
X45117500Y-51825000D03*
%TD*%
D26*
%TO.P,C4,1*%
%TO.N,+3V3*%
X43350000Y-48275000D03*
%TO.P,C4,2*%
%TO.N,GND*%
X46300000Y-48275000D03*
%TD*%
D27*
%TO.P,U2,1*%
%TO.N,GND*%
X73287500Y-59775000D03*
%TO.P,U2,2*%
%TO.N,LED_DIN_A*%
X73287500Y-60725000D03*
%TO.P,U2,3*%
%TO.N,GND*%
X73287500Y-61675000D03*
%TO.P,U2,4*%
%TO.N,LED_DIN*%
X75562500Y-61675000D03*
%TO.P,U2,5*%
%TO.N,+5V*%
X75562500Y-59775000D03*
%TD*%
D13*
%TO.P,R22,1*%
%TO.N,SD_VDD*%
X22572500Y-78475000D03*
%TO.P,R22,2*%
%TO.N,SD_D2_C*%
X24397500Y-78475000D03*
%TD*%
%TO.P,R20,1*%
%TO.N,SD_VDD*%
X14052500Y-78475000D03*
%TO.P,R20,2*%
%TO.N,SD_D0_C*%
X15877500Y-78475000D03*
%TD*%
D18*
%TO.P,D16,1*%
%TO.N,AIN4_IN*%
X30225000Y-14775000D03*
%TO.P,D16,2*%
%TO.N,GND*%
X34225000Y-14775000D03*
%TD*%
D17*
%TO.P,D7,1*%
%TO.N,GND*%
X71327500Y-43775000D03*
%TO.P,D7,2*%
%TO.N,+3V3*%
X71327500Y-45675000D03*
%TO.P,D7,3*%
%TO.N,K_RX*%
X73202500Y-44725000D03*
%TD*%
D12*
%TO.P,C21,1*%
%TO.N,XTAL2*%
X83175000Y-35415000D03*
%TO.P,C21,2*%
%TO.N,GND*%
X85075000Y-35415000D03*
%TD*%
%TO.P,C23,1*%
%TO.N,+3V3*%
X78475000Y-23615000D03*
%TO.P,C23,2*%
%TO.N,GND*%
X80375000Y-23615000D03*
%TD*%
D18*
%TO.P,D8,1*%
%TO.N,AUX_A*%
X67525000Y-31235000D03*
%TO.P,D8,2*%
%TO.N,GND*%
X71525000Y-31235000D03*
%TD*%
D13*
%TO.P,R51,1*%
%TO.N,AIN4_A*%
X29492500Y-36025000D03*
%TO.P,R51,2*%
%TO.N,AIN4*%
X31317500Y-36025000D03*
%TD*%
%TO.P,R2,1*%
%TO.N,SCAP_MID*%
X83062500Y-68975000D03*
%TO.P,R2,2*%
%TO.N,GND*%
X84887500Y-68975000D03*
%TD*%
%TO.P,R32,1*%
%TO.N,K_RX*%
X78222500Y-48825000D03*
%TO.P,R32,2*%
%TO.N,GND*%
X80047500Y-48825000D03*
%TD*%
D18*
%TO.P,D3,1*%
%TO.N,+5VS*%
X50375000Y-28775000D03*
%TO.P,D3,2*%
%TO.N,GND*%
X54375000Y-28775000D03*
%TD*%
%TO.P,D10,1*%
%TO.N,AIN1_IN*%
X3525000Y-14775000D03*
%TO.P,D10,2*%
%TO.N,GND*%
X7525000Y-14775000D03*
%TD*%
D13*
%TO.P,R15,1*%
%TO.N,SD_EN_G*%
X9792500Y-74275000D03*
%TO.P,R15,2*%
%TO.N,GND*%
X11617500Y-74275000D03*
%TD*%
D12*
%TO.P,C30,1*%
%TO.N,+3V3*%
X2775000Y-23905000D03*
%TO.P,C30,2*%
%TO.N,GND*%
X4675000Y-23905000D03*
%TD*%
D14*
%TO.P,U9,1*%
%TO.N,+3V3*%
X29705000Y-18725000D03*
%TO.P,U9,2*%
%TO.N,N/C*%
X29705000Y-19225000D03*
%TO.P,U9,3*%
%TO.N,GND*%
X29705000Y-19725000D03*
%TO.P,U9,4*%
%TO.N,AIN4*%
X29705000Y-20225000D03*
%TO.P,U9,5*%
%TO.N,AIN_SP1*%
X29705000Y-20725000D03*
%TO.P,U9,6*%
%TO.N,AIN_SP2*%
X34105000Y-20725000D03*
%TO.P,U9,7*%
%TO.N,AGND_SENSE*%
X34105000Y-20225000D03*
%TO.P,U9,8*%
%TO.N,+3V3*%
X34105000Y-19725000D03*
%TO.P,U9,9*%
%TO.N,I2C_SDA*%
X34105000Y-19225000D03*
%TO.P,U9,10*%
%TO.N,I2C_SCL*%
X34105000Y-18725000D03*
%TD*%
D13*
%TO.P,R47,1*%
%TO.N,AIN3_A*%
X24402500Y-27185000D03*
%TO.P,R47,2*%
%TO.N,AIN3*%
X26227500Y-27185000D03*
%TD*%
D17*
%TO.P,Q3,1*%
%TO.N,K_TX_G*%
X67017500Y-43775000D03*
%TO.P,Q3,2*%
%TO.N,GND*%
X67017500Y-45675000D03*
%TO.P,Q3,3*%
%TO.N,K_TX_D*%
X68892500Y-44725000D03*
%TD*%
D11*
%TO.P,JP8,1*%
%TO.N,+5VS*%
X25135000Y-19225000D03*
%TO.P,JP8,2*%
%TO.N,AIN3_PU*%
X26435000Y-19225000D03*
%TD*%
D28*
%TO.P,FB1,1*%
%TO.N,VSENS_F*%
X43212500Y-33225000D03*
%TO.P,FB1,2*%
%TO.N,+5VS*%
X45337500Y-33225000D03*
%TD*%
D29*
%TO.P,R33,1*%
%TO.N,K_PU*%
X84222500Y-44155000D03*
%TO.P,R33,2*%
%TO.N,K_LINE*%
X87147500Y-44155000D03*
%TD*%
D30*
%TO.P,C7,1*%
%TO.N,SCAP_MID*%
X83000000Y-92000000D03*
D31*
%TO.P,C7,2*%
%TO.N,GND*%
X86500000Y-92000000D03*
%TD*%
D13*
%TO.P,R45,1*%
%TO.N,AIN3_IN*%
X24442500Y-23775000D03*
%TO.P,R45,2*%
%TO.N,AIN3_A*%
X26267500Y-23775000D03*
%TD*%
D17*
%TO.P,D13,1*%
%TO.N,GND*%
X11917500Y-18725000D03*
%TO.P,D13,2*%
%TO.N,+3V3*%
X11917500Y-20625000D03*
%TO.P,D13,3*%
%TO.N,AIN2*%
X13792500Y-19675000D03*
%TD*%
D13*
%TO.P,R46,1*%
%TO.N,AIN3_PU*%
X20592500Y-27185000D03*
%TO.P,R46,2*%
%TO.N,AIN3_A*%
X22417500Y-27185000D03*
%TD*%
%TO.P,R23,1*%
%TO.N,SD_VDD*%
X26832500Y-78475000D03*
%TO.P,R23,2*%
%TO.N,SD_D3_C*%
X28657500Y-78475000D03*
%TD*%
%TO.P,R11,1*%
%TO.N,LED_DIN_MCU*%
X81542500Y-59975000D03*
%TO.P,R11,2*%
%TO.N,LED_DIN_A*%
X83367500Y-59975000D03*
%TD*%
D24*
%TO.P,J7,1*%
%TO.N,+5V*%
X93000000Y-33000000D03*
D25*
%TO.P,J7,2*%
%TO.N,+3V3*%
X93000000Y-35540000D03*
%TO.P,J7,3*%
%TO.N,GND*%
X93000000Y-38080000D03*
%TO.P,J7,4*%
X93000000Y-40620000D03*
%TD*%
D17*
%TO.P,U1,1*%
%TO.N,PWR_FAIL*%
X43517500Y-14775000D03*
%TO.P,U1,2*%
%TO.N,PFD_SENSE*%
X43517500Y-16675000D03*
%TO.P,U1,3*%
%TO.N,GND*%
X45392500Y-15725000D03*
%TD*%
D13*
%TO.P,R53,1*%
%TO.N,SENS_RTN*%
X2792500Y-49925000D03*
%TO.P,R53,2*%
%TO.N,AGND_A*%
X4617500Y-49925000D03*
%TD*%
D21*
%TO.P,J9,1*%
%TO.N,+5VS*%
X12000000Y-6500000D03*
D22*
%TO.P,J9,2*%
X14000000Y-6500000D03*
%TO.P,J9,3*%
%TO.N,AIN1_IN*%
X16000000Y-6500000D03*
%TO.P,J9,4*%
%TO.N,AIN2_IN*%
X18000000Y-6500000D03*
%TO.P,J9,5*%
%TO.N,SENS_RTN*%
X20000000Y-6500000D03*
%TO.P,J9,6*%
X22000000Y-6500000D03*
%TO.P,J9,7*%
%TO.N,AIN3_IN*%
X24000000Y-6500000D03*
%TO.P,J9,8*%
%TO.N,AIN4_IN*%
X26000000Y-6500000D03*
%TO.P,J9,9*%
%TO.N,GND*%
X28000000Y-6500000D03*
%TO.P,J9,10*%
X30000000Y-6500000D03*
%TD*%
D11*
%TO.P,JP1,1*%
%TO.N,CAN_H*%
X29925000Y-61750000D03*
%TO.P,JP1,2*%
%TO.N,TERM_A*%
X31225000Y-61750000D03*
%TD*%
D16*
%TO.P,TP1,1*%
%TO.N,+5V*%
X29275000Y-84275000D03*
%TD*%
D32*
%TO.P,Y1,1*%
%TO.N,XTAL1*%
X81925000Y-32085000D03*
%TO.P,Y1,2*%
%TO.N,GND*%
X84125000Y-32085000D03*
%TO.P,Y1,3*%
%TO.N,XTAL2*%
X84125000Y-30385000D03*
%TO.P,Y1,4*%
%TO.N,GND*%
X81925000Y-30385000D03*
%TD*%
D26*
%TO.P,C2,1*%
%TO.N,+5V*%
X56100000Y-44525000D03*
%TO.P,C2,2*%
%TO.N,GND*%
X59050000Y-44525000D03*
%TD*%
D24*
%TO.P,J6,1*%
%TO.N,LED_5V*%
X93000000Y-20000000D03*
D25*
%TO.P,J6,2*%
%TO.N,LED_DIN_J*%
X93000000Y-22540000D03*
%TO.P,J6,3*%
%TO.N,GND*%
X93000000Y-25080000D03*
%TD*%
D13*
%TO.P,R57,1*%
%TO.N,AIN_SP2*%
X23102500Y-44975000D03*
%TO.P,R57,2*%
%TO.N,GND*%
X24927500Y-44975000D03*
%TD*%
%TO.P,R59,1*%
%TO.N,VBAT_SNS*%
X55262500Y-66975000D03*
%TO.P,R59,2*%
%TO.N,GND*%
X57087500Y-66975000D03*
%TD*%
D15*
%TO.P,L1,1*%
%TO.N,CANH_T*%
X30500000Y-54725000D03*
%TO.P,L1,2*%
%TO.N,CAN_H*%
X35050000Y-54725000D03*
%TO.P,L1,3*%
%TO.N,CANL_T*%
X30500000Y-57225000D03*
%TO.P,L1,4*%
%TO.N,CAN_L*%
X35050000Y-57225000D03*
%TD*%
D13*
%TO.P,R4,1*%
%TO.N,+5V*%
X51452500Y-14975000D03*
%TO.P,R4,2*%
%TO.N,PFD_SENSE*%
X53277500Y-14975000D03*
%TD*%
D29*
%TO.P,R3,1*%
%TO.N,+5V*%
X74292500Y-69155000D03*
%TO.P,R3,2*%
%TO.N,SCAP_TOP*%
X77217500Y-69155000D03*
%TD*%
D26*
%TO.P,C9,1*%
%TO.N,+5VS*%
X47300000Y-33525000D03*
%TO.P,C9,2*%
%TO.N,GND*%
X50250000Y-33525000D03*
%TD*%
D33*
%TO.P,J8,1*%
%TO.N,SD_D2_C*%
X20175000Y-92350000D03*
%TO.P,J8,2*%
%TO.N,SD_D3_C*%
X19075000Y-92350000D03*
%TO.P,J8,3*%
%TO.N,SD_CMD_C*%
X17975000Y-92350000D03*
%TO.P,J8,4*%
%TO.N,SD_VDD*%
X16875000Y-92350000D03*
%TO.P,J8,5*%
%TO.N,SD_CLK_C*%
X15775000Y-92350000D03*
%TO.P,J8,6*%
%TO.N,GND*%
X14675000Y-92350000D03*
%TO.P,J8,7*%
%TO.N,SD_D0_C*%
X13575000Y-92350000D03*
%TO.P,J8,8*%
%TO.N,SD_D1_C*%
X12475000Y-92350000D03*
D34*
%TO.P,J8,9*%
%TO.N,SD_CD*%
X11350000Y-83125000D03*
D35*
%TO.P,J8,10*%
%TO.N,GND*%
X22575000Y-81550000D03*
D36*
%TO.P,J8,11*%
%TO.N,N/C*%
X11025000Y-84625000D03*
D37*
X11275000Y-92225000D03*
D38*
X22625000Y-92225000D03*
D39*
X22975000Y-83975000D03*
%TD*%
D16*
%TO.P,TP11,1*%
%TO.N,AUX_A*%
X58775000Y-84275000D03*
%TD*%
D11*
%TO.P,JP2,1*%
%TO.N,OBD_VBAT_F*%
X75645000Y-44275000D03*
%TO.P,JP2,2*%
%TO.N,K_PU*%
X76945000Y-44275000D03*
%TD*%
D13*
%TO.P,R48,1*%
%TO.N,AIN3*%
X20592500Y-30535000D03*
%TO.P,R48,2*%
%TO.N,GND*%
X22417500Y-30535000D03*
%TD*%
D16*
%TO.P,TP4,1*%
%TO.N,OBD_VBAT*%
X38125000Y-84275000D03*
%TD*%
D18*
%TO.P,D2,1*%
%TO.N,+5V*%
X67525000Y-69775000D03*
%TO.P,D2,2*%
%TO.N,SCAP_TOP*%
X71525000Y-69775000D03*
%TD*%
D13*
%TO.P,R27,1*%
%TO.N,CAN_SPLIT*%
X22412500Y-66025000D03*
%TO.P,R27,2*%
%TO.N,CAN_L*%
X24237500Y-66025000D03*
%TD*%
D20*
%TO.P,PF1,1*%
%TO.N,OBD_VBAT*%
X43337500Y-39975000D03*
%TO.P,PF1,2*%
%TO.N,OBD_VBAT_F*%
X47612500Y-39975000D03*
%TD*%
D13*
%TO.P,R1,1*%
%TO.N,SCAP_TOP*%
X79252500Y-68975000D03*
%TO.P,R1,2*%
%TO.N,SCAP_MID*%
X81077500Y-68975000D03*
%TD*%
D27*
%TO.P,U4,1*%
%TO.N,SD_D2_C*%
X14937500Y-68775000D03*
%TO.P,U4,2*%
%TO.N,GND*%
X14937500Y-69725000D03*
%TO.P,U4,3*%
%TO.N,SD_D3_C*%
X14937500Y-70675000D03*
%TO.P,U4,4*%
%TO.N,SD_CD*%
X17212500Y-70675000D03*
%TO.P,U4,5*%
%TO.N,+3V3*%
X17212500Y-69725000D03*
%TO.P,U4,6*%
%TO.N,N/C*%
X17212500Y-68775000D03*
%TD*%
D13*
%TO.P,R35,1*%
%TO.N,TERM2_A*%
X70602500Y-39335000D03*
%TO.P,R35,2*%
%TO.N,CAN2_SPLIT*%
X72427500Y-39335000D03*
%TD*%
%TO.P,R9,1*%
%TO.N,+3V3*%
X47102500Y-51825000D03*
%TO.P,R9,2*%
%TO.N,I2C_SDA*%
X48927500Y-51825000D03*
%TD*%
D18*
%TO.P,D18,1*%
%TO.N,SENS_RTN*%
X3525000Y-45775000D03*
%TO.P,D18,2*%
%TO.N,GND*%
X7525000Y-45775000D03*
%TD*%
D13*
%TO.P,R49,1*%
%TO.N,AIN4_IN*%
X29492500Y-32675000D03*
%TO.P,R49,2*%
%TO.N,AIN4_A*%
X31317500Y-32675000D03*
%TD*%
%TO.P,R34,1*%
%TO.N,CAN2_S*%
X66792500Y-39335000D03*
%TO.P,R34,2*%
%TO.N,GND*%
X68617500Y-39335000D03*
%TD*%
%TO.P,R26,1*%
%TO.N,TERM_A*%
X18602500Y-66025000D03*
%TO.P,R26,2*%
%TO.N,CAN_SPLIT*%
X20427500Y-66025000D03*
%TD*%
D17*
%TO.P,Q2,1*%
%TO.N,SD_EN_G*%
X24777500Y-68775000D03*
%TO.P,Q2,2*%
%TO.N,GND*%
X24777500Y-70675000D03*
%TO.P,Q2,3*%
%TO.N,SD_PG*%
X26652500Y-69725000D03*
%TD*%
D13*
%TO.P,R36,1*%
%TO.N,CAN2_SPLIT*%
X74412500Y-39335000D03*
%TO.P,R36,2*%
%TO.N,CAN2_L_C*%
X76237500Y-39335000D03*
%TD*%
D12*
%TO.P,C24,1*%
%TO.N,CAN2_SPLIT*%
X87025000Y-35415000D03*
%TO.P,C24,2*%
%TO.N,GND*%
X88925000Y-35415000D03*
%TD*%
%TO.P,C8,1*%
%TO.N,PFD_SENSE*%
X47585000Y-15005000D03*
%TO.P,C8,2*%
%TO.N,GND*%
X49485000Y-15005000D03*
%TD*%
D13*
%TO.P,R54,1*%
%TO.N,AGND_A*%
X6602500Y-49925000D03*
%TO.P,R54,2*%
%TO.N,AGND_SENSE*%
X8427500Y-49925000D03*
%TD*%
D30*
%TO.P,C6,1*%
%TO.N,SCAP_TOP*%
X72000000Y-92000000D03*
D31*
%TO.P,C6,2*%
%TO.N,SCAP_MID*%
X75500000Y-92000000D03*
%TD*%
D13*
%TO.P,R16,1*%
%TO.N,SD_CLK*%
X23852500Y-74275000D03*
%TO.P,R16,2*%
%TO.N,SD_CLK_C*%
X25677500Y-74275000D03*
%TD*%
D11*
%TO.P,JP6,1*%
%TO.N,+5VS*%
X3025000Y-29025000D03*
%TO.P,JP6,2*%
%TO.N,AIN1_PU*%
X4325000Y-29025000D03*
%TD*%
D12*
%TO.P,C18,1*%
%TO.N,+3V3*%
X74625000Y-13005000D03*
%TO.P,C18,2*%
%TO.N,GND*%
X76525000Y-13005000D03*
%TD*%
D13*
%TO.P,R44,1*%
%TO.N,AIN2*%
X11692500Y-30535000D03*
%TO.P,R44,2*%
%TO.N,GND*%
X13517500Y-30535000D03*
%TD*%
D12*
%TO.P,C11,1*%
%TO.N,+3V3*%
X48325000Y-44355000D03*
%TO.P,C11,2*%
%TO.N,GND*%
X50225000Y-44355000D03*
%TD*%
D17*
%TO.P,Q1,1*%
%TO.N,SD_PG*%
X20017500Y-68775000D03*
%TO.P,Q1,2*%
%TO.N,+3V3*%
X20017500Y-70675000D03*
%TO.P,Q1,3*%
%TO.N,SD_VDD*%
X21892500Y-69725000D03*
%TD*%
D11*
%TO.P,JP9,1*%
%TO.N,+5VS*%
X29725000Y-29025000D03*
%TO.P,JP9,2*%
%TO.N,AIN4_PU*%
X31025000Y-29025000D03*
%TD*%
D13*
%TO.P,R40,1*%
%TO.N,AIN1*%
X6602500Y-36025000D03*
%TO.P,R40,2*%
%TO.N,GND*%
X8427500Y-36025000D03*
%TD*%
D24*
%TO.P,J5,1*%
%TO.N,GND*%
X93000000Y-46000000D03*
D25*
%TO.P,J5,2*%
%TO.N,+3V3*%
X93000000Y-48540000D03*
%TO.P,J5,3*%
%TO.N,I2C_SDA*%
X93000000Y-51080000D03*
%TO.P,J5,4*%
%TO.N,I2C_SCL*%
X93000000Y-53620000D03*
%TD*%
D13*
%TO.P,R18,1*%
%TO.N,SD_D0*%
X32372500Y-74275000D03*
%TO.P,R18,2*%
%TO.N,SD_D0_C*%
X34197500Y-74275000D03*
%TD*%
%TO.P,R19,1*%
%TO.N,SD_VDD*%
X9792500Y-78475000D03*
%TO.P,R19,2*%
%TO.N,SD_CMD_C*%
X11617500Y-78475000D03*
%TD*%
D11*
%TO.P,JP5,1*%
%TO.N,AUX_B*%
X75825000Y-35685000D03*
%TO.P,JP5,2*%
%TO.N,CAN2_L_C*%
X77125000Y-35685000D03*
%TD*%
%TO.P,JP3,1*%
%TO.N,CAN2_H_C*%
X72075000Y-35685000D03*
%TO.P,JP3,2*%
%TO.N,TERM2_A*%
X73375000Y-35685000D03*
%TD*%
D24*
%TO.P,J4,1*%
%TO.N,GND*%
X62860000Y-14000000D03*
D25*
%TO.P,J4,2*%
%TO.N,N/C*%
X62860000Y-16540000D03*
%TO.P,J4,3*%
X62860000Y-19080000D03*
%TO.P,J4,4*%
%TO.N,K_RX*%
X62860000Y-21620000D03*
%TO.P,J4,5*%
%TO.N,K_TX*%
X62860000Y-24160000D03*
%TO.P,J4,6*%
%TO.N,CAN2_CS*%
X62860000Y-26700000D03*
%TO.P,J4,7*%
%TO.N,CAN2_MISO*%
X62860000Y-29240000D03*
%TO.P,J4,8*%
%TO.N,CAN2_MOSI*%
X62860000Y-31780000D03*
%TO.P,J4,9*%
%TO.N,CAN2_SCK*%
X62860000Y-34320000D03*
%TO.P,J4,10*%
%TO.N,N/C*%
X62860000Y-36860000D03*
%TO.P,J4,11*%
X62860000Y-39400000D03*
%TO.P,J4,12*%
X62860000Y-41940000D03*
%TO.P,J4,13*%
X62860000Y-44480000D03*
%TO.P,J4,14*%
X62860000Y-47020000D03*
%TO.P,J4,15*%
X62860000Y-49560000D03*
%TO.P,J4,16*%
%TO.N,LED_DIN_MCU*%
X62860000Y-52100000D03*
%TO.P,J4,17*%
%TO.N,SD_PWR_EN*%
X62860000Y-54640000D03*
%TO.P,J4,18*%
%TO.N,CAN2_INT*%
X62860000Y-57180000D03*
%TO.P,J4,19*%
%TO.N,N/C*%
X62860000Y-59720000D03*
%TO.P,J4,20*%
X62860000Y-62260000D03*
%TO.P,J4,21*%
%TO.N,GND*%
X62860000Y-64800000D03*
%TO.P,J4,22*%
X62860000Y-67340000D03*
%TD*%
D17*
%TO.P,D15,1*%
%TO.N,GND*%
X20817500Y-18725000D03*
%TO.P,D15,2*%
%TO.N,+3V3*%
X20817500Y-20625000D03*
%TO.P,D15,3*%
%TO.N,AIN3*%
X22692500Y-19675000D03*
%TD*%
D27*
%TO.P,U3,1*%
%TO.N,SD_CLK_C*%
X9937500Y-68775000D03*
%TO.P,U3,2*%
%TO.N,GND*%
X9937500Y-69725000D03*
%TO.P,U3,3*%
%TO.N,SD_CMD_C*%
X9937500Y-70675000D03*
%TO.P,U3,4*%
%TO.N,SD_D0_C*%
X12212500Y-70675000D03*
%TO.P,U3,5*%
%TO.N,+3V3*%
X12212500Y-69725000D03*
%TO.P,U3,6*%
%TO.N,SD_D1_C*%
X12212500Y-68775000D03*
%TD*%
D13*
%TO.P,R41,1*%
%TO.N,AIN2_IN*%
X15542500Y-23775000D03*
%TO.P,R41,2*%
%TO.N,AIN2_A*%
X17367500Y-23775000D03*
%TD*%
D12*
%TO.P,C29,1*%
%TO.N,AGND_SENSE*%
X14535000Y-45005000D03*
%TO.P,C29,2*%
%TO.N,GND*%
X16435000Y-45005000D03*
%TD*%
D18*
%TO.P,D6,1*%
%TO.N,CAN_L*%
X22975000Y-62250000D03*
%TO.P,D6,2*%
%TO.N,GND*%
X26975000Y-62250000D03*
%TD*%
D16*
%TO.P,TP6,1*%
%TO.N,SD_CLK_C*%
X44025000Y-84275000D03*
%TD*%
D17*
%TO.P,D17,1*%
%TO.N,GND*%
X33567500Y-23675000D03*
%TO.P,D17,2*%
%TO.N,+3V3*%
X33567500Y-25575000D03*
%TO.P,D17,3*%
%TO.N,AIN4*%
X35442500Y-24625000D03*
%TD*%
D19*
%TO.P,U6,1*%
%TO.N,CAN2_TXD*%
X67250000Y-12795000D03*
%TO.P,U6,2*%
%TO.N,CAN2_RXD*%
X67250000Y-14065000D03*
%TO.P,U6,3*%
%TO.N,N/C*%
X67250000Y-15335000D03*
%TO.P,U6,4*%
%TO.N,CAN2_INT*%
X67250000Y-16605000D03*
%TO.P,U6,5*%
%TO.N,XTAL2*%
X67250000Y-17875000D03*
%TO.P,U6,6*%
%TO.N,XTAL1*%
X67250000Y-19145000D03*
%TO.P,U6,7*%
%TO.N,GND*%
X67250000Y-20415000D03*
%TO.P,U6,8*%
%TO.N,N/C*%
X72200000Y-20415000D03*
%TO.P,U6,9*%
X72200000Y-19145000D03*
%TO.P,U6,10*%
%TO.N,CAN2_SCK*%
X72200000Y-17875000D03*
%TO.P,U6,11*%
%TO.N,CAN2_MOSI*%
X72200000Y-16605000D03*
%TO.P,U6,12*%
%TO.N,CAN2_MISO*%
X72200000Y-15335000D03*
%TO.P,U6,13*%
%TO.N,CAN2_CS*%
X72200000Y-14065000D03*
%TO.P,U6,14*%
%TO.N,+3V3*%
X72200000Y-12795000D03*
%TD*%
D13*
%TO.P,R42,1*%
%TO.N,AIN2_PU*%
X11692500Y-27185000D03*
%TO.P,R42,2*%
%TO.N,AIN2_A*%
X13517500Y-27185000D03*
%TD*%
%TO.P,R13,1*%
%TO.N,+3V3*%
X29312500Y-68975000D03*
%TO.P,R13,2*%
%TO.N,SD_PG*%
X31137500Y-68975000D03*
%TD*%
D29*
%TO.P,R30,1*%
%TO.N,K_TX_D*%
X79212500Y-44155000D03*
%TO.P,R30,2*%
%TO.N,K_LINE*%
X82137500Y-44155000D03*
%TD*%
D12*
%TO.P,C17,1*%
%TO.N,CAN_SPLIT*%
X33425000Y-61480000D03*
%TO.P,C17,2*%
%TO.N,GND*%
X35325000Y-61480000D03*
%TD*%
D17*
%TO.P,D11,1*%
%TO.N,GND*%
X6867500Y-23675000D03*
%TO.P,D11,2*%
%TO.N,+3V3*%
X6867500Y-25575000D03*
%TO.P,D11,3*%
%TO.N,AIN1*%
X8742500Y-24625000D03*
%TD*%
D13*
%TO.P,R28,1*%
%TO.N,K_TX*%
X66792500Y-48825000D03*
%TO.P,R28,2*%
%TO.N,K_TX_G*%
X68617500Y-48825000D03*
%TD*%
%TO.P,R56,1*%
%TO.N,AIN_SP1*%
X19292500Y-44975000D03*
%TO.P,R56,2*%
%TO.N,GND*%
X21117500Y-44975000D03*
%TD*%
D16*
%TO.P,TP10,1*%
%TO.N,K_LINE*%
X55825000Y-84275000D03*
%TD*%
D13*
%TO.P,R50,1*%
%TO.N,AIN4_PU*%
X33302500Y-32675000D03*
%TO.P,R50,2*%
%TO.N,AIN4_A*%
X35127500Y-32675000D03*
%TD*%
D12*
%TO.P,C12,1*%
%TO.N,+5V*%
X77675000Y-60005000D03*
%TO.P,C12,2*%
%TO.N,GND*%
X79575000Y-60005000D03*
%TD*%
D13*
%TO.P,R39,1*%
%TO.N,AIN1_A*%
X2792500Y-36025000D03*
%TO.P,R39,2*%
%TO.N,AIN1*%
X4617500Y-36025000D03*
%TD*%
D40*
%TO.P,J1,1*%
%TO.N,OBD_VBAT*%
X4000000Y-66000000D03*
D41*
%TO.P,J1,2*%
%TO.N,GND*%
X4000000Y-64000000D03*
%TO.P,J1,3*%
%TO.N,CAN_H*%
X4000000Y-62000000D03*
%TO.P,J1,4*%
%TO.N,CAN_L*%
X4000000Y-60000000D03*
%TD*%
D26*
%TO.P,C13,1*%
%TO.N,SD_VDD*%
X14110000Y-74475000D03*
%TO.P,C13,2*%
%TO.N,GND*%
X17060000Y-74475000D03*
%TD*%
D13*
%TO.P,R38,1*%
%TO.N,AIN1_PU*%
X6602500Y-32675000D03*
%TO.P,R38,2*%
%TO.N,AIN1_A*%
X8427500Y-32675000D03*
%TD*%
%TO.P,R52,1*%
%TO.N,AIN4*%
X33302500Y-36025000D03*
%TO.P,R52,2*%
%TO.N,GND*%
X35127500Y-36025000D03*
%TD*%
D12*
%TO.P,C31,1*%
%TO.N,+3V3*%
X29475000Y-23905000D03*
%TO.P,C31,2*%
%TO.N,GND*%
X31375000Y-23905000D03*
%TD*%
D13*
%TO.P,R5,1*%
%TO.N,PFD_SENSE*%
X55262500Y-14975000D03*
%TO.P,R5,2*%
%TO.N,GND*%
X57087500Y-14975000D03*
%TD*%
D42*
%TO.N,+3V3*%
X18375000Y-69725000D03*
X3641000Y-24517500D03*
X73675000Y-12795000D03*
X22055000Y-20625000D03*
X44755000Y-68675000D03*
X35330000Y-19725000D03*
X79341000Y-13617500D03*
X13155000Y-20625000D03*
X58880000Y-48075000D03*
X21255000Y-70675000D03*
D43*
X11100000Y-69725000D03*
D42*
X44425000Y-48275000D03*
X72565000Y-45675000D03*
X43798800Y-20864200D03*
X8630000Y-19725000D03*
X73675000Y-27240000D03*
X49191000Y-44967500D03*
X21675000Y-58630000D03*
X31598700Y-79514200D03*
X79341000Y-24227500D03*
X11705000Y-46675000D03*
X30930000Y-18725000D03*
X51418800Y-52864200D03*
X8105000Y-25575000D03*
X34805000Y-25575000D03*
X27341000Y-55617500D03*
X53041000Y-48717500D03*
X30341000Y-24517500D03*
X33475000Y-84275000D03*
X44425000Y-44525000D03*
X47608800Y-52864200D03*
X29818700Y-70014200D03*
X75491000Y-13617500D03*
D44*
%TO.N,+5V*%
X75220600Y-24996800D03*
X68832000Y-25890000D03*
X51452500Y-16340000D03*
X32223100Y-64800000D03*
X67412500Y-64722800D03*
%TO.N,+5VS*%
X14000000Y-7875000D03*
X5469700Y-25057300D03*
X12000000Y-7875000D03*
X25135000Y-16340000D03*
X50375000Y-26299900D03*
D42*
%TO.N,AGND_SENSE*%
X13223100Y-60672800D03*
X32861100Y-20262500D03*
X8654200Y-22353600D03*
%TO.N,AIN1*%
X8953400Y-23383800D03*
%TO.N,AIN2*%
X17782400Y-25150500D03*
%TO.N,AIN2_IN*%
X13079900Y-10894000D03*
%TO.N,AIN3*%
X27109000Y-25881100D03*
%TO.N,AIN_SP1*%
X19292500Y-46179100D03*
X85385200Y-51564499D03*
X82985200Y-49164500D03*
X42185200Y-37564499D03*
X36785200Y-30164800D03*
X44485200Y-38364500D03*
%TO.N,AIN_SP2*%
X23102500Y-49817000D03*
%TO.N,AUX_B*%
X83532000Y-19127100D03*
%TO.N,CAN2_CS*%
X69055200Y-18689700D03*
%TO.N,CAN2_H_C*%
X83953700Y-27363700D03*
X70965600Y-33133200D03*
%TO.N,CAN2_MISO*%
X70133500Y-16506500D03*
%TO.N,CAN2_MOSI*%
X74136100Y-25116100D03*
%TO.N,CAN2_S*%
X70885500Y-29779000D03*
X66198300Y-32644500D03*
%TO.N,CAN2_SCK*%
X69228800Y-34320000D03*
%TO.N,CANL_T*%
X29287000Y-57316900D03*
X21690200Y-57316900D03*
%TO.N,CAN_H*%
X31400300Y-59329500D03*
X29166500Y-59811800D03*
X29968900Y-66070000D03*
X49357400Y-69922700D03*
%TO.N,CAN_L*%
X25087100Y-62887900D03*
X53471300Y-63619200D03*
X34459400Y-63619200D03*
%TO.N,CAN_RX*%
X16405900Y-59410500D03*
%TO.N,GND*%
X85941000Y-36027500D03*
X81060000Y-48825000D03*
X85900000Y-68975000D03*
X22435000Y-74305000D03*
X12630000Y-74275000D03*
X72565000Y-43775000D03*
X36140000Y-36025000D03*
X14530000Y-30535000D03*
X36125000Y-28755000D03*
X28725000Y-62250000D03*
X5675000Y-23905000D03*
X68725000Y-24700000D03*
X82091000Y-36027500D03*
X81375000Y-13005000D03*
X51325000Y-33525000D03*
X72280700Y-59375000D03*
X77391000Y-24227500D03*
X56125000Y-28775000D03*
X14441000Y-24417500D03*
X81241000Y-24227500D03*
X89925000Y-35415000D03*
X27075000Y-14775000D03*
X9275000Y-14775000D03*
X46464200Y-16125000D03*
X35975000Y-14775000D03*
X80441000Y-60617500D03*
X11705000Y-44775000D03*
X34805000Y-23675000D03*
X51091000Y-48717500D03*
X9425000Y-28755000D03*
X73304400Y-49425000D03*
X29241000Y-55617500D03*
X42325000Y-84275000D03*
X23430000Y-30535000D03*
X18135000Y-74475000D03*
X13775000Y-69725000D03*
X22055000Y-18725000D03*
X56125000Y-39775000D03*
X50351000Y-15617500D03*
X51091000Y-44967500D03*
X9440000Y-36025000D03*
X13250000Y-49925000D03*
X17435000Y-45005000D03*
X30930000Y-19725000D03*
X14675000Y-93725000D03*
X47231000Y-45225000D03*
X16725000Y-56090000D03*
X4230000Y-18725000D03*
X36325000Y-61480000D03*
X23341000Y-24417500D03*
X18175000Y-14775000D03*
X26015000Y-70675000D03*
X73040500Y-31935000D03*
X85325000Y-32085000D03*
X69494400Y-39935000D03*
X60125000Y-44525000D03*
X54941000Y-44967500D03*
X4230000Y-19725000D03*
X13155000Y-18725000D03*
X68725000Y-20415000D03*
X54941000Y-48717500D03*
X8775000Y-69725000D03*
X23575000Y-81550000D03*
X50351000Y-67617500D03*
X25391000Y-55617500D03*
X47231000Y-48975000D03*
X21994300Y-45575000D03*
X80725000Y-31235000D03*
X80725000Y-30385000D03*
X44755000Y-66775000D03*
X9275000Y-45775000D03*
X77391000Y-13617500D03*
X21040500Y-62950000D03*
X25940000Y-44975000D03*
X74294300Y-62075000D03*
X8105000Y-23675000D03*
X58100000Y-66975000D03*
X32375000Y-23905000D03*
X58100000Y-14975000D03*
X68255000Y-45675000D03*
X17494300Y-66625000D03*
X45994300Y-52425000D03*
%TO.N,I2C_SCL*%
X52814400Y-53028400D03*
X34105000Y-17791700D03*
X9612200Y-19875800D03*
%TO.N,I2C_SDA*%
X5641700Y-21054200D03*
X36389400Y-30906800D03*
X48927500Y-53031800D03*
X38751300Y-38571300D03*
X32251100Y-18260900D03*
%TO.N,K_LINE*%
X87147500Y-47228000D03*
X79687500Y-47226400D03*
X67422900Y-38171800D03*
%TO.N,K_RX*%
X71743600Y-44788600D03*
%TO.N,LED_DIN*%
X75712100Y-60630800D03*
X86136500Y-58963100D03*
%TO.N,LED_DIN_MCU*%
X76668500Y-59267000D03*
D44*
%TO.N,OBD_VBAT*%
X42269200Y-69518400D03*
%TO.N,OBD_VBAT_F*%
X65420800Y-26983400D03*
X51098900Y-30469700D03*
D42*
%TO.N,PWR_FAIL*%
X42204500Y-31780000D03*
%TO.N,SD_CD*%
X16622400Y-72095800D03*
X38613600Y-59156500D03*
X10186900Y-79995600D03*
X37960600Y-69528500D03*
X27110900Y-70645000D03*
%TO.N,SD_CLK*%
X36253100Y-62549900D03*
%TO.N,SD_CLK_C*%
X16762500Y-90791500D03*
X27662500Y-85191500D03*
%TO.N,SD_CMD*%
X32878000Y-72875800D03*
X37155800Y-59923200D03*
X28112500Y-72875800D03*
%TO.N,SD_CMD_C*%
X17838700Y-90899500D03*
X29007700Y-85564800D03*
%TO.N,SD_D0_C*%
X33229800Y-75262800D03*
X16916600Y-77826900D03*
X13575000Y-89560300D03*
X13386300Y-73024200D03*
%TO.N,SD_D1_C*%
X21164800Y-78676000D03*
X12475000Y-90899500D03*
%TO.N,SD_D2_C*%
X15995600Y-76136900D03*
X24397500Y-79860400D03*
%TO.N,SD_D3_C*%
X19075000Y-89102000D03*
X28657500Y-76717000D03*
X15318000Y-74186400D03*
%TO.N,SD_EN_G*%
X6037500Y-70873800D03*
X8752300Y-70873800D03*
%TO.N,SD_PWR_EN*%
X33572500Y-70549400D03*
X57592500Y-62573900D03*
D44*
%TO.N,SD_VDD*%
X18069800Y-72195600D03*
X20540400Y-69725000D03*
D42*
%TO.N,SENS_RTN*%
X22000000Y-7875000D03*
X20000000Y-7875000D03*
%TO.N,TERM_A*%
X18602500Y-64382000D03*
X31225000Y-64382000D03*
%TO.N,VBAT_SNS*%
X49870000Y-50678100D03*
%TO.N,XTAL1*%
X66670800Y-22172800D03*
X74831200Y-33803100D03*
%TO.N,XTAL2*%
X83025000Y-33472200D03*
X65758500Y-18050300D03*
%TD*%
D45*
%TO.N,+3V3*%
X29475000Y-23905000D02*
X30341000Y-24517500D01*
X12212500Y-69725000D02*
X11100000Y-69725000D01*
X29705000Y-18725000D02*
X30930000Y-18725000D01*
X52175000Y-48105000D02*
X53041000Y-48717500D01*
X31092500Y-78475000D02*
X31598700Y-79514200D01*
X74625000Y-13005000D02*
X75491000Y-13617500D01*
X7405000Y-19725000D02*
X8630000Y-19725000D01*
X33567500Y-25575000D02*
X34805000Y-25575000D01*
X20017500Y-70675000D02*
X21255000Y-70675000D01*
X43350000Y-48275000D02*
X44425000Y-48275000D01*
X47102500Y-51825000D02*
X47608800Y-52864200D01*
X71327500Y-45675000D02*
X72565000Y-45675000D01*
X78475000Y-13005000D02*
X79341000Y-13617500D01*
X43517500Y-68675000D02*
X44755000Y-68675000D01*
X20200000Y-58630000D02*
X21675000Y-58630000D01*
X72200000Y-27240000D02*
X73675000Y-27240000D01*
X2775000Y-23905000D02*
X3641000Y-24517500D01*
X48325000Y-44355000D02*
X49191000Y-44967500D01*
X57892500Y-48075000D02*
X58880000Y-48075000D01*
X11917500Y-20625000D02*
X13155000Y-20625000D01*
X43292500Y-19825000D02*
X43798800Y-20864200D01*
X29312500Y-68975000D02*
X29818700Y-70014200D01*
X78475000Y-23615000D02*
X79341000Y-24227500D01*
X10467500Y-46675000D02*
X11705000Y-46675000D01*
X72200000Y-12795000D02*
X73675000Y-12795000D01*
X50912500Y-51825000D02*
X51418800Y-52864200D01*
X17212500Y-69725000D02*
X18375000Y-69725000D01*
X20817500Y-20625000D02*
X22055000Y-20625000D01*
X43350000Y-44525000D02*
X44425000Y-44525000D01*
X6867500Y-25575000D02*
X8105000Y-25575000D01*
X34105000Y-19725000D02*
X35330000Y-19725000D01*
X32225000Y-84275000D02*
X33475000Y-84275000D01*
X26475000Y-55005000D02*
X27341000Y-55617500D01*
D46*
%TO.N,+5V*%
X51452500Y-25423200D02*
X51452500Y-16340000D01*
X67525000Y-68391500D02*
X73529000Y-68391500D01*
X29773400Y-58800900D02*
X31078700Y-60106200D01*
X22625000Y-58800900D02*
X22010100Y-59415800D01*
X51452500Y-16340000D02*
X51452500Y-14975000D01*
X50521000Y-45909000D02*
X55150700Y-45909000D01*
X67250000Y-25970000D02*
X67330000Y-25890000D01*
X75220600Y-24996800D02*
X74625000Y-24401200D01*
X67525000Y-68391500D02*
X67525000Y-69775000D01*
X74625000Y-24401200D02*
X74625000Y-23615000D01*
X22010100Y-59415800D02*
X18469000Y-59415800D01*
X77675000Y-61446600D02*
X87514500Y-61446600D01*
X73529000Y-68391500D02*
X74292500Y-69155000D01*
X55150700Y-45909000D02*
X56100000Y-44959700D01*
X31078700Y-60106200D02*
X31511500Y-60106200D01*
X38737300Y-69206800D02*
X38387200Y-68856700D01*
X38387200Y-66412800D02*
X40000000Y-64800000D01*
X74292500Y-69155000D02*
X77675000Y-65772500D01*
X56100000Y-44959700D02*
X56100000Y-44525000D01*
X32223100Y-60817800D02*
X32223100Y-64800000D01*
X87514500Y-61446600D02*
X94356400Y-54604700D01*
X52532700Y-26503400D02*
X51452500Y-25423200D01*
X56100000Y-44525000D02*
X52532700Y-40957700D01*
X76223400Y-60043700D02*
X75954700Y-59775000D01*
X75954700Y-59775000D02*
X75562500Y-59775000D01*
X77675000Y-61446600D02*
X77675000Y-60005000D01*
X46889300Y-25423200D02*
X43337500Y-28975000D01*
X31511500Y-60106200D02*
X32223100Y-60817800D01*
X67412500Y-61550000D02*
X67412500Y-64722800D01*
X67412500Y-64722800D02*
X67525000Y-64835300D01*
X67330000Y-25890000D02*
X68832000Y-25890000D01*
X77636300Y-60043700D02*
X76223400Y-60043700D01*
X77675000Y-65772500D02*
X77675000Y-61446600D01*
X66837500Y-60975000D02*
X67412500Y-61550000D01*
X51452500Y-25423200D02*
X46889300Y-25423200D01*
X29275000Y-84275000D02*
X38737300Y-74812700D01*
X94356400Y-34356400D02*
X93000000Y-33000000D01*
X67525000Y-64835300D02*
X67525000Y-68391500D01*
X38737300Y-74812700D02*
X38737300Y-69206800D01*
X22625000Y-58800900D02*
X22625000Y-55005000D01*
X18469000Y-59415800D02*
X16413200Y-57360000D01*
X48325000Y-48105000D02*
X50521000Y-45909000D01*
X22625000Y-58800900D02*
X29773400Y-58800900D01*
X94356400Y-54604700D02*
X94356400Y-34356400D01*
X38387200Y-68856700D02*
X38387200Y-66412800D01*
X77675000Y-60005000D02*
X77636300Y-60043700D01*
X16413200Y-57360000D02*
X15250000Y-57360000D01*
X52532700Y-40957700D02*
X52532700Y-26503400D01*
%TO.N,+5VS*%
X3025000Y-27502000D02*
X5469700Y-25057300D01*
X25135000Y-20833700D02*
X27887300Y-23586000D01*
X27887300Y-28164000D02*
X28748300Y-29025000D01*
X45337500Y-33225000D02*
X47000000Y-33225000D01*
X14159800Y-8034800D02*
X14159800Y-18126500D01*
X16235000Y-19225000D02*
X15258300Y-19225000D01*
X47300000Y-32462000D02*
X47300000Y-33525000D01*
X41392500Y-78057500D02*
X41392500Y-37170000D01*
X41392500Y-37170000D02*
X45337500Y-33225000D01*
X47000000Y-33225000D02*
X47300000Y-33525000D01*
X14000000Y-6500000D02*
X14000000Y-7875000D01*
X50375000Y-28775000D02*
X50375000Y-29387000D01*
X12000000Y-6500000D02*
X12000000Y-7875000D01*
X25135000Y-19225000D02*
X25135000Y-20833700D01*
X27887300Y-23586000D02*
X27887300Y-28164000D01*
X29725000Y-29025000D02*
X28748300Y-29025000D01*
X35175000Y-84275000D02*
X41392500Y-78057500D01*
X50375000Y-29387000D02*
X47300000Y-32462000D01*
X14159800Y-18126500D02*
X15258300Y-19225000D01*
X25135000Y-19225000D02*
X25135000Y-16340000D01*
X3025000Y-29025000D02*
X3025000Y-27502000D01*
X14000000Y-7875000D02*
X14159800Y-8034800D01*
X50375000Y-28775000D02*
X50375000Y-26299900D01*
D47*
%TO.N,AGND_A*%
X6602500Y-49925000D02*
X4617500Y-49925000D01*
%TO.N,AGND_SENSE*%
X34105000Y-20225000D02*
X32898600Y-20225000D01*
X13223100Y-52586500D02*
X10561600Y-49925000D01*
X9943900Y-29359600D02*
X10395600Y-28907900D01*
X7569800Y-21269200D02*
X8654200Y-22353600D01*
X6311800Y-20942800D02*
X6638200Y-21269200D01*
X8427500Y-49925000D02*
X10412500Y-49925000D01*
X6311800Y-20494100D02*
X6311800Y-20942800D01*
X6580900Y-20225000D02*
X6311800Y-20494100D01*
X32898600Y-20225000D02*
X32861100Y-20262500D01*
X13223100Y-60672800D02*
X13223100Y-52586500D01*
X10561600Y-49925000D02*
X10412500Y-49925000D01*
X8896200Y-22353600D02*
X8654200Y-22353600D01*
X12342500Y-48144100D02*
X12342500Y-45725000D01*
X10395600Y-23853000D02*
X8896200Y-22353600D01*
X7405000Y-20225000D02*
X6580900Y-20225000D01*
X6638200Y-21269200D02*
X7569800Y-21269200D01*
X12342500Y-45725000D02*
X12342500Y-34008200D01*
X10561600Y-49925000D02*
X12342500Y-48144100D01*
X13815000Y-45725000D02*
X14535000Y-45005000D01*
X12342500Y-34008200D02*
X9943900Y-31609600D01*
X12342500Y-45725000D02*
X13815000Y-45725000D01*
X10395600Y-28907900D02*
X10395600Y-23853000D01*
X9943900Y-31609600D02*
X9943900Y-29359600D01*
%TO.N,AIN1*%
X8798200Y-23383800D02*
X8953400Y-23383800D01*
X8996600Y-24370900D02*
X8742500Y-24625000D01*
X8996600Y-24246500D02*
X8996600Y-24370900D01*
X8996600Y-26283400D02*
X6525000Y-28755000D01*
X3542600Y-22611500D02*
X8025900Y-22611500D01*
X8996600Y-24246500D02*
X8996600Y-23427000D01*
X6655300Y-36025000D02*
X9268800Y-33411500D01*
X8996600Y-24246500D02*
X8996600Y-26283400D01*
X9268800Y-31498800D02*
X6525000Y-28755000D01*
X8025900Y-22611500D02*
X8798200Y-23383800D01*
X4617500Y-36025000D02*
X6602500Y-36025000D01*
X6602500Y-36025000D02*
X6655300Y-36025000D01*
X3005000Y-20225000D02*
X2211500Y-20225000D01*
X1940900Y-20495600D02*
X1940900Y-21009800D01*
X2211500Y-20225000D02*
X1940900Y-20495600D01*
X1940900Y-21009800D02*
X3542600Y-22611500D01*
X9268800Y-33411500D02*
X9268800Y-31498800D01*
X8996600Y-23427000D02*
X8953400Y-23383800D01*
%TO.N,AIN1_A*%
X5647700Y-33705200D02*
X4617500Y-32675000D01*
X2792500Y-36025000D02*
X2792500Y-34500000D01*
X8427500Y-32675000D02*
X7397300Y-33705200D01*
X2792500Y-34500000D02*
X4617500Y-32675000D01*
X7397300Y-33705200D02*
X5647700Y-33705200D01*
%TO.N,AIN1_IN*%
X14394300Y-5241800D02*
X15073300Y-5920800D01*
X3525000Y-14775000D02*
X1489200Y-16810800D01*
X3525000Y-13178700D02*
X11461900Y-5241800D01*
X16000000Y-6500000D02*
X15073300Y-6500000D01*
X3525000Y-14775000D02*
X3525000Y-13178700D01*
X15073300Y-5920800D02*
X15073300Y-6500000D01*
X1489200Y-16810800D02*
X1489200Y-31371700D01*
X11461900Y-5241800D02*
X14394300Y-5241800D01*
X1489200Y-31371700D02*
X2792500Y-32675000D01*
%TO.N,AIN1_PU*%
X5151700Y-31224200D02*
X6602500Y-32675000D01*
X5151700Y-29025000D02*
X5151700Y-31224200D01*
X4325000Y-29025000D02*
X5151700Y-29025000D01*
%TO.N,AIN2*%
X17782400Y-26730100D02*
X17782400Y-25150500D01*
X18240300Y-24692600D02*
X17782400Y-25150500D01*
X10241300Y-19613600D02*
X8816200Y-18188500D01*
X12548000Y-28273600D02*
X12548000Y-24678000D01*
X8816200Y-18188500D02*
X6625000Y-18188500D01*
X12548000Y-28273600D02*
X16238900Y-28273600D01*
X10241300Y-22371300D02*
X10241300Y-19613600D01*
X18240300Y-23073700D02*
X18240300Y-24692600D01*
X11692500Y-30535000D02*
X12548000Y-29679500D01*
X12548000Y-29679500D02*
X12548000Y-28273600D01*
X6625000Y-18188500D02*
X6084500Y-18729000D01*
X4155300Y-20725000D02*
X3005000Y-20725000D01*
X6084500Y-18729000D02*
X6084500Y-18795800D01*
X11675000Y-23805000D02*
X10241300Y-22371300D01*
X14841600Y-19675000D02*
X18240300Y-23073700D01*
X13792500Y-19675000D02*
X14841600Y-19675000D01*
X16238900Y-28273600D02*
X17327500Y-27185000D01*
X17327500Y-27185000D02*
X17782400Y-26730100D01*
X6084500Y-18795800D02*
X4155300Y-20725000D01*
X12548000Y-24678000D02*
X11675000Y-23805000D01*
%TO.N,AIN2_A*%
X15502500Y-25640000D02*
X15502500Y-27185000D01*
X13517500Y-27185000D02*
X15502500Y-27185000D01*
X17367500Y-23775000D02*
X15502500Y-25640000D01*
%TO.N,AIN2_IN*%
X15542500Y-23775000D02*
X14159900Y-22392400D01*
X10837700Y-21042800D02*
X10837700Y-16362300D01*
X14159900Y-22392400D02*
X12187300Y-22392400D01*
X10837700Y-16362300D02*
X12425000Y-14775000D01*
X12187300Y-22392400D02*
X10837700Y-21042800D01*
X13079900Y-10894000D02*
X12425000Y-11548900D01*
X12425000Y-11548900D02*
X12425000Y-14775000D01*
%TO.N,AIN2_PU*%
X17535000Y-20301700D02*
X18735100Y-21501800D01*
X10847300Y-29850800D02*
X11692500Y-29005600D01*
X17535000Y-19225000D02*
X17535000Y-20301700D01*
X18735100Y-21501800D02*
X18735100Y-27383500D01*
X11692500Y-29005600D02*
X11692500Y-27185000D01*
X11234400Y-31622500D02*
X10847300Y-31235400D01*
X18735100Y-27383500D02*
X14496100Y-31622500D01*
X14496100Y-31622500D02*
X11234400Y-31622500D01*
X10847300Y-31235400D02*
X10847300Y-29850800D01*
%TO.N,AIN3*%
X19053300Y-32074200D02*
X11047300Y-32074200D01*
X21445500Y-28273600D02*
X21445500Y-29682000D01*
X26227500Y-26762600D02*
X27109000Y-25881100D01*
X10847300Y-29095000D02*
X10847300Y-23657200D01*
X21445500Y-29682000D02*
X20592500Y-30535000D01*
X21445500Y-24675500D02*
X20575000Y-23805000D01*
X25138900Y-28273600D02*
X21445500Y-28273600D01*
X21445500Y-28273600D02*
X21445500Y-24675500D01*
X22692500Y-19675000D02*
X22692500Y-21687500D01*
X22692500Y-21687500D02*
X20575000Y-23805000D01*
X11047300Y-32074200D02*
X10395600Y-31422500D01*
X20592500Y-30535000D02*
X19053300Y-32074200D01*
X10395600Y-29546700D02*
X10847300Y-29095000D01*
X7915100Y-20725000D02*
X7405000Y-20725000D01*
X10395600Y-31422500D02*
X10395600Y-29546700D01*
X10847300Y-23657200D02*
X7915100Y-20725000D01*
X26227500Y-27185000D02*
X26227500Y-26762600D01*
X26227500Y-27185000D02*
X25138900Y-28273600D01*
%TO.N,AIN3_A*%
X26267500Y-23775000D02*
X26267500Y-25320000D01*
X22417500Y-27185000D02*
X24402500Y-27185000D01*
X26267500Y-25320000D02*
X24402500Y-27185000D01*
%TO.N,AIN3_IN*%
X23966200Y-17416200D02*
X23966200Y-23298700D01*
X24000000Y-6500000D02*
X24000000Y-12100000D01*
X24000000Y-12100000D02*
X21325000Y-14775000D01*
X23966200Y-23298700D02*
X24442500Y-23775000D01*
X21325000Y-14775000D02*
X23966200Y-17416200D01*
%TO.N,AIN3_PU*%
X24360000Y-5273700D02*
X25000000Y-5913700D01*
X23000000Y-5895300D02*
X23621600Y-5273700D01*
X27701700Y-14515300D02*
X27701700Y-18785000D01*
X25000000Y-11813600D02*
X27701700Y-14515300D01*
X23621600Y-5273700D02*
X24360000Y-5273700D01*
X20592500Y-27185000D02*
X19711900Y-26304400D01*
X27701700Y-18785000D02*
X27261700Y-19225000D01*
X19711900Y-26304400D02*
X19711900Y-11188300D01*
X23000000Y-7900200D02*
X23000000Y-5895300D01*
X19711900Y-11188300D02*
X23000000Y-7900200D01*
X25000000Y-5913700D02*
X25000000Y-11813600D01*
X26435000Y-19225000D02*
X27261700Y-19225000D01*
%TO.N,AIN4*%
X33225000Y-28755000D02*
X35442500Y-26537500D01*
X33302500Y-36025000D02*
X31317500Y-36025000D01*
X34776400Y-22745600D02*
X30430600Y-22745600D01*
X37703600Y-31536400D02*
X36006400Y-31536400D01*
X28644800Y-20491700D02*
X28911500Y-20225000D01*
X35442500Y-23411700D02*
X34776400Y-22745600D01*
X36006400Y-33334800D02*
X36006400Y-31536400D01*
X30430600Y-22745600D02*
X28644800Y-20959800D01*
X33302500Y-36025000D02*
X33316200Y-36025000D01*
X33316200Y-36025000D02*
X36006400Y-33334800D01*
X40000000Y-29240000D02*
X37703600Y-31536400D01*
X35442500Y-24625000D02*
X35442500Y-23411700D01*
X33225000Y-28755000D02*
X36006400Y-31536400D01*
X28911500Y-20225000D02*
X29705000Y-20225000D01*
X28644800Y-20959800D02*
X28644800Y-20491700D01*
X35442500Y-26537500D02*
X35442500Y-24625000D01*
%TO.N,AIN4_A*%
X31317500Y-34200000D02*
X31336600Y-34219100D01*
X35127500Y-33154100D02*
X35127500Y-32675000D01*
X31336600Y-34219100D02*
X34062500Y-34219100D01*
X31317500Y-34200000D02*
X31317500Y-32675000D01*
X29492500Y-36025000D02*
X31317500Y-34200000D01*
X34062500Y-34219100D02*
X35127500Y-33154100D01*
%TO.N,AIN4_IN*%
X34198400Y-33367400D02*
X33798400Y-33767400D01*
X34198400Y-32041500D02*
X34198400Y-33367400D01*
X32865500Y-33767400D02*
X32398100Y-33300000D01*
X28193100Y-22214100D02*
X28644800Y-22665800D01*
X30225000Y-14775000D02*
X26000000Y-10550000D01*
X30225000Y-14775000D02*
X28193100Y-16806900D01*
X32398100Y-33300000D02*
X32398100Y-32177000D01*
X32367400Y-30210500D02*
X34198400Y-32041500D01*
X30557400Y-31610100D02*
X29492500Y-32675000D01*
X33798400Y-33767400D02*
X32865500Y-33767400D01*
X28193100Y-16806900D02*
X28193100Y-22214100D01*
X32398100Y-32177000D02*
X31831200Y-31610100D01*
X28644800Y-22665800D02*
X28644800Y-24932700D01*
X32367400Y-28655300D02*
X32367400Y-30210500D01*
X26000000Y-10550000D02*
X26000000Y-6500000D01*
X28644800Y-24932700D02*
X32367400Y-28655300D01*
X31831200Y-31610100D02*
X30557400Y-31610100D01*
%TO.N,AIN4_PU*%
X31025000Y-29025000D02*
X31025000Y-30101700D01*
X33302500Y-32379200D02*
X31025000Y-30101700D01*
X33302500Y-32675000D02*
X33302500Y-32379200D01*
%TO.N,AIN_SP1*%
X36785200Y-24064500D02*
X36785200Y-30164800D01*
X29705000Y-20725000D02*
X31114700Y-22134700D01*
X19292500Y-44975000D02*
X19292500Y-46179100D01*
X44485200Y-38364500D02*
X43985200Y-37864500D01*
X42485200Y-37864500D02*
X42185200Y-37564499D01*
X34855400Y-22134700D02*
X36785200Y-24064500D01*
X31114700Y-22134700D02*
X34855400Y-22134700D01*
X85385200Y-51564499D02*
X82985200Y-49164500D01*
X43985200Y-37864500D02*
X42485200Y-37864500D01*
%TO.N,AIN_SP2*%
X40452900Y-28020300D02*
X39608700Y-28020300D01*
X39608700Y-28020300D02*
X38194200Y-26605800D01*
X23102500Y-46005600D02*
X29071800Y-46005600D01*
X40492400Y-35590000D02*
X41205300Y-34877100D01*
X39487400Y-35590000D02*
X40492400Y-35590000D01*
X38194200Y-26605800D02*
X38194200Y-24175300D01*
X38194200Y-24175300D02*
X34743900Y-20725000D01*
X23102500Y-44975000D02*
X23102500Y-46005600D01*
X34743900Y-20725000D02*
X34105000Y-20725000D01*
X41205300Y-34877100D02*
X41205300Y-28772700D01*
X41205300Y-28772700D02*
X40452900Y-28020300D01*
X29071800Y-46005600D02*
X39487400Y-35590000D01*
X23102500Y-46005600D02*
X23102500Y-49817000D01*
%TO.N,AUX_A*%
X73527400Y-13675000D02*
X73290100Y-13437700D01*
X73250000Y-15970000D02*
X73527400Y-15692600D01*
X67625000Y-31235000D02*
X68325000Y-31935000D01*
X71139200Y-13437700D02*
X68043900Y-10342400D01*
X58775000Y-84275000D02*
X58775000Y-65759300D01*
X67625000Y-31235000D02*
X67625000Y-29164900D01*
X70760200Y-16766100D02*
X70760200Y-16331500D01*
X62465900Y-17810000D02*
X63297900Y-17810000D01*
X57806100Y-22469800D02*
X62465900Y-17810000D01*
X68000000Y-6500000D02*
X68000000Y-10298500D01*
X58775000Y-65759300D02*
X56955000Y-63939300D01*
X57806100Y-46650300D02*
X57806100Y-22469800D01*
X64063900Y-14322400D02*
X68043900Y-10342400D01*
X56955000Y-63939300D02*
X56955000Y-47501400D01*
X64063900Y-17044000D02*
X64063900Y-14322400D01*
X56955000Y-47501400D02*
X57806100Y-46650300D01*
X73290100Y-13437700D02*
X71139200Y-13437700D01*
X67625000Y-29164900D02*
X69919500Y-26870400D01*
X69919500Y-26870400D02*
X69919500Y-17606800D01*
X63297900Y-17810000D02*
X64063900Y-17044000D01*
X73527400Y-15692600D02*
X73527400Y-13675000D01*
X69919500Y-17606800D02*
X70760200Y-16766100D01*
X67625000Y-31235000D02*
X67525000Y-31235000D01*
X68000000Y-10298500D02*
X68043900Y-10342400D01*
X70760200Y-16331500D02*
X71121700Y-15970000D01*
X71121700Y-15970000D02*
X73250000Y-15970000D01*
X68325000Y-31935000D02*
X68325000Y-35685000D01*
%TO.N,AUX_B*%
X74975000Y-31235000D02*
X77812400Y-28397600D01*
X74975000Y-31235000D02*
X75825000Y-32085000D01*
X77812400Y-28397600D02*
X81572800Y-28397600D01*
X81572800Y-28397600D02*
X83532000Y-26438400D01*
X83532000Y-26438400D02*
X83532000Y-19127100D01*
X75825000Y-32085000D02*
X75825000Y-35685000D01*
%TO.N,CAN2H_T*%
X80589800Y-25777600D02*
X73787600Y-25777600D01*
X73787600Y-25777600D02*
X72710000Y-24700000D01*
X82500000Y-23867400D02*
X80589800Y-25777600D01*
X82500000Y-23335000D02*
X82500000Y-23867400D01*
X72710000Y-24700000D02*
X72200000Y-24700000D01*
%TO.N,CAN2L_T*%
X81498300Y-25835000D02*
X81089600Y-26243700D01*
X81089600Y-26243700D02*
X72473700Y-26243700D01*
X82500000Y-25835000D02*
X81498300Y-25835000D01*
X72473700Y-26243700D02*
X72200000Y-25970000D01*
%TO.N,CAN2_CS*%
X69456100Y-18288800D02*
X69055200Y-18689700D01*
X72200000Y-14065000D02*
X71688800Y-14065000D01*
X69456100Y-16297700D02*
X69456100Y-18288800D01*
X71688800Y-14065000D02*
X69456100Y-16297700D01*
%TO.N,CAN2_H_C*%
X69625000Y-35685000D02*
X70965600Y-35685000D01*
X87050000Y-23335000D02*
X86048300Y-23335000D01*
X83953700Y-26879900D02*
X86048300Y-24785300D01*
X86048300Y-24785300D02*
X86048300Y-23335000D01*
X70965600Y-35685000D02*
X70965600Y-33133200D01*
X70965600Y-35685000D02*
X72075000Y-35685000D01*
X83953700Y-27363700D02*
X83953700Y-26879900D01*
%TO.N,CAN2_INT*%
X63347500Y-25523300D02*
X62547900Y-25523300D01*
X64057600Y-55982400D02*
X64057600Y-26233400D01*
X68552700Y-13717500D02*
X68552700Y-15763600D01*
X64581500Y-15058200D02*
X66217400Y-13422300D01*
X61618600Y-24594000D02*
X61618600Y-21142100D01*
X62860000Y-57180000D02*
X64057600Y-55982400D01*
X68552700Y-15763600D02*
X67711300Y-16605000D01*
X68257500Y-13422300D02*
X68552700Y-13717500D01*
X64057600Y-26233400D02*
X63347500Y-25523300D01*
X67711300Y-16605000D02*
X67250000Y-16605000D01*
X63338300Y-20350000D02*
X64581500Y-19106800D01*
X61618600Y-21142100D02*
X62410700Y-20350000D01*
X62410700Y-20350000D02*
X63338300Y-20350000D01*
X66217400Y-13422300D02*
X68257500Y-13422300D01*
X62547900Y-25523300D02*
X61618600Y-24594000D01*
X64581500Y-19106800D02*
X64581500Y-15058200D01*
%TO.N,CAN2_L_C*%
X77125000Y-30615400D02*
X78666000Y-29074400D01*
X83129300Y-29074400D02*
X86048300Y-26155400D01*
X77125000Y-35685000D02*
X77125000Y-38447500D01*
X87050000Y-25835000D02*
X86048300Y-25835000D01*
X77125000Y-38447500D02*
X76237500Y-39335000D01*
X78666000Y-29074400D02*
X83129300Y-29074400D01*
X77125000Y-35685000D02*
X77125000Y-30615400D01*
X86048300Y-26155400D02*
X86048300Y-25835000D01*
%TO.N,CAN2_MISO*%
X71117900Y-15335000D02*
X70133500Y-16319400D01*
X72200000Y-15335000D02*
X71117900Y-15335000D01*
X70133500Y-16319400D02*
X70133500Y-16506500D01*
%TO.N,CAN2_MOSI*%
X73502300Y-17500800D02*
X73502300Y-24482300D01*
X73502300Y-24482300D02*
X74136100Y-25116100D01*
X72606500Y-16605000D02*
X73502300Y-17500800D01*
X72200000Y-16605000D02*
X72606500Y-16605000D01*
%TO.N,CAN2_RXD*%
X65037000Y-15886200D02*
X65037000Y-25469500D01*
X65037000Y-25469500D02*
X66807500Y-27240000D01*
X66858200Y-14065000D02*
X65037000Y-15886200D01*
X67250000Y-14065000D02*
X66858200Y-14065000D01*
X66807500Y-27240000D02*
X67250000Y-27240000D01*
%TO.N,CAN2_S*%
X70885500Y-24364300D02*
X70885500Y-29779000D01*
X66792500Y-39335000D02*
X66198300Y-38740800D01*
X71819800Y-23430000D02*
X70885500Y-24364300D01*
X72200000Y-23430000D02*
X71819800Y-23430000D01*
X66198300Y-38740800D02*
X66198300Y-32644500D01*
%TO.N,CAN2_SCK*%
X70391000Y-27246700D02*
X69228800Y-28408900D01*
X72200000Y-17875000D02*
X71759200Y-17875000D01*
X69228800Y-28408900D02*
X69228800Y-34320000D01*
X70391000Y-19243200D02*
X70391000Y-27246700D01*
X71759200Y-17875000D02*
X70391000Y-19243200D01*
%TO.N,CAN2_SPLIT*%
X74412500Y-39335000D02*
X74412500Y-39695900D01*
X74412500Y-39335000D02*
X72427500Y-39335000D01*
X74412500Y-39695900D02*
X75554200Y-40837600D01*
X75554200Y-40837600D02*
X82063000Y-40837600D01*
X82063000Y-40837600D02*
X87025000Y-35875600D01*
X87025000Y-35875600D02*
X87025000Y-35415000D01*
%TO.N,CAN2_TXD*%
X69004400Y-17770700D02*
X68269600Y-18505500D01*
X67250000Y-12795000D02*
X68269000Y-12795000D01*
X67041800Y-23430000D02*
X67250000Y-23430000D01*
X66230600Y-18505500D02*
X65488700Y-19247400D01*
X65488700Y-19247400D02*
X65488700Y-21876900D01*
X69004400Y-13530400D02*
X69004400Y-17770700D01*
X65488700Y-21876900D02*
X67041800Y-23430000D01*
X68269600Y-18505500D02*
X66230600Y-18505500D01*
X68269000Y-12795000D02*
X69004400Y-13530400D01*
%TO.N,CANH_T*%
X20585400Y-56090000D02*
X21527800Y-55147600D01*
X21527800Y-54507800D02*
X22087300Y-53948300D01*
X20200000Y-56090000D02*
X20585400Y-56090000D01*
X22087300Y-53948300D02*
X28915900Y-53948300D01*
X21527800Y-55147600D02*
X21527800Y-54507800D01*
X28915900Y-53948300D02*
X29498300Y-54530700D01*
X30500000Y-54725000D02*
X29498300Y-54725000D01*
X29498300Y-54530700D02*
X29498300Y-54725000D01*
%TO.N,CANL_T*%
X20200000Y-57360000D02*
X20243100Y-57316900D01*
X20243100Y-57316900D02*
X21690200Y-57316900D01*
X29406400Y-57316900D02*
X29498300Y-57225000D01*
X30500000Y-57225000D02*
X29498300Y-57225000D01*
X29287000Y-57316900D02*
X29406400Y-57316900D01*
%TO.N,CAN_H*%
X11191200Y-67055200D02*
X7062700Y-62926700D01*
X15293500Y-67055200D02*
X11191200Y-67055200D01*
X15778800Y-61996200D02*
X15525000Y-62250000D01*
X29925000Y-62826700D02*
X29968900Y-62870600D01*
X31400300Y-58374700D02*
X34048300Y-55726700D01*
X4000000Y-62000000D02*
X4000000Y-62926700D01*
X29925000Y-61750000D02*
X29166500Y-60991500D01*
X49925000Y-84275000D02*
X49357400Y-83707400D01*
X29166500Y-60991500D02*
X29166500Y-59811800D01*
X15778800Y-61996200D02*
X15705000Y-62070000D01*
X7062700Y-62926700D02*
X4000000Y-62926700D01*
X29166500Y-60991500D02*
X16783500Y-60991500D01*
X15705000Y-62070000D02*
X15705000Y-66643700D01*
X34048300Y-55726700D02*
X34048300Y-54725000D01*
X29925000Y-61750000D02*
X29925000Y-62826700D01*
X29968900Y-62870600D02*
X29968900Y-66070000D01*
X35050000Y-54725000D02*
X34048300Y-54725000D01*
X16783500Y-60991500D02*
X15778800Y-61996200D01*
X31400300Y-59329500D02*
X31400300Y-58374700D01*
X15705000Y-66643700D02*
X15293500Y-67055200D01*
X49357400Y-83707400D02*
X49357400Y-69922700D01*
%TO.N,CAN_L*%
X22975000Y-62250000D02*
X23852800Y-63127800D01*
X34048300Y-57225000D02*
X34048300Y-58001700D01*
X52875000Y-84275000D02*
X56121700Y-81028300D01*
X34459400Y-58412800D02*
X34459400Y-63619200D01*
X24237500Y-63127800D02*
X24477400Y-62887900D01*
X35050000Y-57225000D02*
X34048300Y-57225000D01*
X24237500Y-63127800D02*
X24237500Y-66025000D01*
X56121700Y-81028300D02*
X56121700Y-66269600D01*
X56121700Y-66269600D02*
X53471300Y-63619200D01*
X24477400Y-62887900D02*
X25087100Y-62887900D01*
X34048300Y-58001700D02*
X34459400Y-58412800D01*
X23852800Y-63127800D02*
X24237500Y-63127800D01*
%TO.N,CAN_RX*%
X16030500Y-59410500D02*
X15250000Y-58630000D01*
X16405900Y-59410500D02*
X16030500Y-59410500D01*
%TO.N,CAN_S*%
X13947700Y-56451200D02*
X14221600Y-56725100D01*
X18790800Y-43947300D02*
X18139900Y-44598200D01*
X13947700Y-54472200D02*
X13947700Y-56451200D01*
X40000000Y-34320000D02*
X30372700Y-43947300D01*
X30372700Y-43947300D02*
X18790800Y-43947300D01*
X14792500Y-66025000D02*
X13932800Y-65165300D01*
X13932800Y-57013900D02*
X14221600Y-56725100D01*
X13932800Y-65165300D02*
X13932800Y-57013900D01*
X17045600Y-56725100D02*
X18950700Y-54820000D01*
X18950700Y-54820000D02*
X20200000Y-54820000D01*
X18139900Y-50280000D02*
X13947700Y-54472200D01*
X18139900Y-44598200D02*
X18139900Y-50280000D01*
X14221600Y-56725100D02*
X17045600Y-56725100D01*
%TO.N,CAN_SPLIT*%
X22412500Y-66025000D02*
X23455000Y-67067500D01*
X20427500Y-66025000D02*
X22412500Y-66025000D01*
X23455000Y-67067500D02*
X31025600Y-67067500D01*
X33425000Y-64668100D02*
X33425000Y-61480000D01*
X31025600Y-67067500D02*
X33425000Y-64668100D01*
%TO.N,CAN_TX*%
X40000000Y-36860000D02*
X39576400Y-36860000D01*
X19559400Y-50510600D02*
X15250000Y-54820000D01*
X25925800Y-50510600D02*
X19559400Y-50510600D01*
X39576400Y-36860000D02*
X25925800Y-50510600D01*
D45*
%TO.N,GND*%
X8427500Y-36025000D02*
X9440000Y-36025000D01*
X22475000Y-23805000D02*
X23341000Y-24417500D01*
X73287500Y-59775000D02*
X72280700Y-59375000D01*
X81225000Y-35415000D02*
X82091000Y-36027500D01*
X7525000Y-45775000D02*
X9275000Y-45775000D01*
X3005000Y-18725000D02*
X4230000Y-18725000D01*
X35127500Y-36025000D02*
X36140000Y-36025000D01*
X67017500Y-45675000D02*
X68255000Y-45675000D01*
X80375000Y-23615000D02*
X81241000Y-24227500D01*
X80375000Y-13005000D02*
X81375000Y-13005000D01*
X21117500Y-44975000D02*
X21994300Y-45575000D01*
X68617500Y-39335000D02*
X69494400Y-39935000D01*
X24927500Y-44975000D02*
X25940000Y-44975000D01*
X41075000Y-84275000D02*
X42325000Y-84275000D01*
X43517500Y-66775000D02*
X44755000Y-66775000D01*
X22417500Y-30535000D02*
X23430000Y-30535000D01*
X76525000Y-13005000D02*
X77391000Y-13617500D01*
X17060000Y-74475000D02*
X18135000Y-74475000D01*
X22575000Y-81550000D02*
X23575000Y-81550000D01*
X19525000Y-62250000D02*
X21040500Y-62950000D01*
X79575000Y-60005000D02*
X80441000Y-60617500D01*
X24777500Y-70675000D02*
X26015000Y-70675000D01*
X54075000Y-44355000D02*
X54941000Y-44967500D01*
X3005000Y-19725000D02*
X4230000Y-19725000D01*
X16435000Y-45005000D02*
X17435000Y-45005000D01*
X11917500Y-18725000D02*
X13155000Y-18725000D01*
X71525000Y-31235000D02*
X73040500Y-31935000D01*
X33567500Y-23675000D02*
X34805000Y-23675000D01*
X54375000Y-28775000D02*
X56125000Y-28775000D01*
X26975000Y-62250000D02*
X28725000Y-62250000D01*
X57087500Y-14975000D02*
X58100000Y-14975000D01*
X54075000Y-48105000D02*
X54941000Y-48717500D01*
X84125000Y-32085000D02*
X85325000Y-32085000D01*
X50225000Y-48105000D02*
X51091000Y-48717500D01*
X12237500Y-49925000D02*
X13250000Y-49925000D01*
X13575000Y-23805000D02*
X14441000Y-24417500D01*
X4675000Y-23905000D02*
X5675000Y-23905000D01*
X88925000Y-35415000D02*
X89925000Y-35415000D01*
X84887500Y-68975000D02*
X85900000Y-68975000D01*
X50225000Y-44355000D02*
X51091000Y-44967500D01*
X34225000Y-14775000D02*
X35975000Y-14775000D01*
X20817500Y-18725000D02*
X22055000Y-18725000D01*
X49485000Y-15005000D02*
X50351000Y-15617500D01*
X50250000Y-33525000D02*
X51325000Y-33525000D01*
X10467500Y-44775000D02*
X11705000Y-44775000D01*
X8425000Y-28755000D02*
X9425000Y-28755000D01*
X31375000Y-23905000D02*
X32375000Y-23905000D01*
X28375000Y-55005000D02*
X29241000Y-55617500D01*
X14675000Y-92350000D02*
X14675000Y-93725000D01*
X71327500Y-43775000D02*
X72565000Y-43775000D01*
X80047500Y-48825000D02*
X81060000Y-48825000D01*
X24525000Y-55005000D02*
X25391000Y-55617500D01*
X78975000Y-31235000D02*
X80725000Y-31235000D01*
X81925000Y-30385000D02*
X80725000Y-30385000D01*
X54375000Y-39775000D02*
X56125000Y-39775000D01*
X11617500Y-74275000D02*
X12630000Y-74275000D01*
X59050000Y-44525000D02*
X60125000Y-44525000D01*
X14937500Y-69725000D02*
X13775000Y-69725000D01*
X35325000Y-61480000D02*
X36325000Y-61480000D01*
X49485000Y-67005000D02*
X50351000Y-67617500D01*
X15250000Y-56090000D02*
X16725000Y-56090000D01*
X21435000Y-74305000D02*
X22435000Y-74305000D01*
X45392500Y-15725000D02*
X46464200Y-16125000D01*
X35125000Y-28755000D02*
X36125000Y-28755000D01*
X16425000Y-14775000D02*
X18175000Y-14775000D01*
X45117500Y-51825000D02*
X45994300Y-52425000D01*
X9937500Y-69725000D02*
X8775000Y-69725000D01*
X67250000Y-20415000D02*
X68725000Y-20415000D01*
X6867500Y-23675000D02*
X8105000Y-23675000D01*
X72427500Y-48825000D02*
X73304400Y-49425000D01*
X13517500Y-30535000D02*
X14530000Y-30535000D01*
X29705000Y-19725000D02*
X30930000Y-19725000D01*
X25325000Y-14775000D02*
X27075000Y-14775000D01*
X7525000Y-14775000D02*
X9275000Y-14775000D01*
X76525000Y-23615000D02*
X77391000Y-24227500D01*
X57087500Y-66975000D02*
X58100000Y-66975000D01*
X73287500Y-61675000D02*
X74294300Y-62075000D01*
X67250000Y-24700000D02*
X68725000Y-24700000D01*
X46300000Y-44525000D02*
X47231000Y-45225000D01*
X85075000Y-35415000D02*
X85941000Y-36027500D01*
X46300000Y-48275000D02*
X47231000Y-48975000D01*
X16617500Y-66025000D02*
X17494300Y-66625000D01*
D47*
%TO.N,I2C_SCL*%
X9612200Y-19801300D02*
X9612200Y-19875800D01*
X8535900Y-18725000D02*
X9612200Y-19801300D01*
X7405000Y-18725000D02*
X8535900Y-18725000D01*
X52737500Y-51825000D02*
X52814400Y-51901900D01*
X52814400Y-51901900D02*
X52814400Y-53028400D01*
X34105000Y-18725000D02*
X34105000Y-17791700D01*
%TO.N,I2C_SDA*%
X36389400Y-30906700D02*
X36389400Y-30906800D01*
X33107800Y-19117600D02*
X32199300Y-20026100D01*
X32199300Y-20546500D02*
X32976400Y-21323600D01*
X38751300Y-50851300D02*
X40000000Y-52100000D01*
X38751300Y-38571300D02*
X38751300Y-50851300D01*
X37742500Y-24362400D02*
X37742500Y-30104900D01*
X7405000Y-19225000D02*
X6519400Y-19225000D01*
X6519400Y-19225000D02*
X5641700Y-20102700D01*
X36940700Y-30906700D02*
X36389400Y-30906700D01*
X48927500Y-53031800D02*
X48927500Y-51825000D01*
X33107800Y-19117600D02*
X32251100Y-18260900D01*
X32199300Y-20026100D02*
X32199300Y-20546500D01*
X34105000Y-19225000D02*
X33215200Y-19225000D01*
X34703700Y-21323600D02*
X37742500Y-24362400D01*
X32976400Y-21323600D02*
X34703700Y-21323600D01*
X33215200Y-19225000D02*
X33107800Y-19117600D01*
X37742500Y-30104900D02*
X36940700Y-30906700D01*
X5641700Y-20102700D02*
X5641700Y-21054200D01*
%TO.N,K_LINE*%
X67025000Y-35685000D02*
X67025000Y-36761700D01*
X79135000Y-49454400D02*
X79135000Y-47778900D01*
X74412500Y-49873700D02*
X74412500Y-48825000D01*
X55825000Y-84275000D02*
X56941200Y-85391200D01*
X64664800Y-79980200D02*
X64664800Y-59621400D01*
X74412500Y-49873700D02*
X78715700Y-49873700D01*
X79687500Y-46605000D02*
X79687500Y-47226400D01*
X87147500Y-44155000D02*
X87147500Y-47228000D01*
X59253800Y-85391200D02*
X64664800Y-79980200D01*
X67025000Y-36761700D02*
X67422900Y-37159600D01*
X56941200Y-85391200D02*
X59253800Y-85391200D01*
X64664800Y-59621400D02*
X74412500Y-49873700D01*
X78715700Y-49873700D02*
X79135000Y-49454400D01*
X79135000Y-47778900D02*
X79687500Y-47226400D01*
X82137500Y-44155000D02*
X79687500Y-46605000D01*
X67422900Y-37159600D02*
X67422900Y-38171800D01*
%TO.N,K_PU*%
X78582500Y-42947500D02*
X77771700Y-43758300D01*
X83015000Y-42947500D02*
X78582500Y-42947500D01*
X84222500Y-44155000D02*
X83015000Y-42947500D01*
X77771700Y-43758300D02*
X77771700Y-44275000D01*
X76945000Y-44275000D02*
X77771700Y-44275000D01*
%TO.N,K_RX*%
X73202500Y-44725000D02*
X71807200Y-44725000D01*
X76237500Y-47760000D02*
X73202500Y-44725000D01*
X71807200Y-44725000D02*
X71743600Y-44788600D01*
X76237500Y-48825000D02*
X76237500Y-47760000D01*
X78222500Y-48825000D02*
X76237500Y-48825000D01*
%TO.N,K_TX*%
X64676500Y-46709000D02*
X64676500Y-25976500D01*
X64676500Y-25976500D02*
X62860000Y-24160000D01*
X66792500Y-48825000D02*
X64676500Y-46709000D01*
%TO.N,K_TX_D*%
X74532100Y-44930500D02*
X74992600Y-45391000D01*
X68892500Y-44725000D02*
X70544800Y-43072700D01*
X70544800Y-43072700D02*
X73014100Y-43072700D01*
X74992600Y-45391000D02*
X77976500Y-45391000D01*
X73014100Y-43072700D02*
X74532100Y-44590700D01*
X77976500Y-45391000D02*
X79212500Y-44155000D01*
X74532100Y-44590700D02*
X74532100Y-44930500D01*
%TO.N,K_TX_G*%
X67017500Y-43775000D02*
X65928300Y-44864200D01*
X65928300Y-44864200D02*
X65928300Y-46135800D01*
X70602500Y-48825000D02*
X68617500Y-48825000D01*
X65928300Y-46135800D02*
X68617500Y-48825000D01*
D46*
%TO.N,LED_5V*%
X85685000Y-45321200D02*
X79812400Y-51193800D01*
X85685000Y-43566300D02*
X85685000Y-45321200D01*
X90701700Y-38549600D02*
X85685000Y-43566300D01*
X79812400Y-51193800D02*
X79313900Y-51193800D01*
X79313900Y-51193800D02*
X71112500Y-59395200D01*
X90701700Y-22298300D02*
X90701700Y-38549600D01*
X71112500Y-59395200D02*
X71112500Y-60975000D01*
X93000000Y-20000000D02*
X90701700Y-22298300D01*
D47*
%TO.N,LED_DIN*%
X85352500Y-59975000D02*
X85352500Y-59747100D01*
X85352500Y-59747100D02*
X86136500Y-58963100D01*
X75562500Y-61675000D02*
X75562500Y-60780400D01*
X75562500Y-60780400D02*
X75712100Y-60630800D01*
%TO.N,LED_DIN_A*%
X73678600Y-60725000D02*
X74537500Y-59866100D01*
X74537500Y-59415500D02*
X75547800Y-58405200D01*
X81797700Y-58405200D02*
X83367500Y-59975000D01*
X74537500Y-59866100D02*
X74537500Y-59415500D01*
X73287500Y-60725000D02*
X73678600Y-60725000D01*
X75547800Y-58405200D02*
X81797700Y-58405200D01*
%TO.N,LED_DIN_J*%
X91396600Y-55755900D02*
X87177500Y-59975000D01*
X93000000Y-22540000D02*
X91396600Y-24143400D01*
X91396600Y-24143400D02*
X91396600Y-55755900D01*
%TO.N,LED_DIN_MCU*%
X80926700Y-59359200D02*
X81542500Y-59975000D01*
X80020900Y-58909000D02*
X80471000Y-59359100D01*
X76668500Y-59267000D02*
X77026500Y-58909000D01*
X77026500Y-58909000D02*
X80020900Y-58909000D01*
X80471000Y-59359200D02*
X80926700Y-59359200D01*
X80471000Y-59359100D02*
X80471000Y-59359200D01*
D46*
%TO.N,OBD_VBAT*%
X42269200Y-80130800D02*
X42269200Y-69518400D01*
X49979900Y-69146000D02*
X49035800Y-69146000D01*
X42269200Y-69457800D02*
X42269200Y-41043300D01*
X48724000Y-69457800D02*
X42269200Y-69457800D01*
X51452500Y-67673400D02*
X49979900Y-69146000D01*
X42269200Y-69518400D02*
X42269200Y-69457800D01*
X42269200Y-41043300D02*
X43337500Y-39975000D01*
X38125000Y-84275000D02*
X42269200Y-80130800D01*
X51452500Y-66975000D02*
X51452500Y-67673400D01*
X49035800Y-69146000D02*
X48724000Y-69457800D01*
%TO.N,OBD_VBAT_F*%
X75645000Y-44275000D02*
X72596500Y-41226500D01*
X49171500Y-39775000D02*
X49171500Y-32397100D01*
X49171500Y-39775000D02*
X50375000Y-39775000D01*
X49171500Y-32397100D02*
X51098900Y-30469700D01*
X50375000Y-39775000D02*
X50375000Y-42555000D01*
X47612500Y-39975000D02*
X48971500Y-39975000D01*
X72596500Y-41226500D02*
X66890900Y-41226500D01*
X66890900Y-41226500D02*
X65420800Y-39756400D01*
X50375000Y-42555000D02*
X52175000Y-44355000D01*
X65420800Y-39756400D02*
X65420800Y-26983400D01*
X48971500Y-39975000D02*
X49171500Y-39775000D01*
D47*
%TO.N,PFD_SENSE*%
X53277500Y-14975000D02*
X52249700Y-13947200D01*
X55262500Y-14975000D02*
X53277500Y-14975000D01*
X43615800Y-16773300D02*
X43517500Y-16675000D01*
X47585000Y-15944800D02*
X46756500Y-16773300D01*
X52249700Y-13947200D02*
X48642800Y-13947200D01*
X46756500Y-16773300D02*
X43615800Y-16773300D01*
X48642800Y-13947200D02*
X47585000Y-15005000D01*
X48927500Y-19825000D02*
X48927500Y-18944300D01*
X47585000Y-15005000D02*
X47585000Y-15944800D01*
X48927500Y-18944300D02*
X46756500Y-16773300D01*
%TO.N,PWR_FAIL*%
X42204500Y-23999700D02*
X42204500Y-31780000D01*
X45117500Y-21086700D02*
X42204500Y-23999700D01*
X45117500Y-19825000D02*
X45117500Y-21086700D01*
X47102500Y-19825000D02*
X45117500Y-19825000D01*
X42451200Y-17158700D02*
X45117500Y-19825000D01*
X43517500Y-14775000D02*
X42451200Y-15841300D01*
X42451200Y-15841300D02*
X42451200Y-17158700D01*
%TO.N,PWR_LED_K*%
X45389100Y-49728400D02*
X43292500Y-51825000D01*
X56017500Y-48584900D02*
X54874000Y-49728400D01*
X56017500Y-48075000D02*
X56017500Y-48584900D01*
X54874000Y-49728400D02*
X45389100Y-49728400D01*
D46*
%TO.N,SCAP_MID*%
X83000000Y-92000000D02*
X83062500Y-91937500D01*
X83062500Y-91937500D02*
X83062500Y-68975000D01*
X81077500Y-68975000D02*
X83062500Y-68975000D01*
%TO.N,SCAP_TOP*%
X79072500Y-69155000D02*
X79252500Y-68975000D01*
X75181100Y-71191400D02*
X77217500Y-69155000D01*
X72000000Y-92000000D02*
X72000000Y-71191400D01*
X72000000Y-71191400D02*
X75181100Y-71191400D01*
X71525000Y-70716400D02*
X72000000Y-71191400D01*
X77217500Y-69155000D02*
X79072500Y-69155000D01*
X71525000Y-69775000D02*
X71525000Y-70716400D01*
D47*
%TO.N,SD_CD*%
X37785500Y-73607000D02*
X37785500Y-69528500D01*
X17212500Y-70675000D02*
X17863800Y-71326300D01*
X11350000Y-83125000D02*
X11350000Y-82298300D01*
X16622400Y-72095800D02*
X16622400Y-71265100D01*
X11350000Y-82298300D02*
X10186900Y-81135200D01*
X38613600Y-64602800D02*
X38613600Y-59156500D01*
X37785500Y-65430900D02*
X38613600Y-64602800D01*
X37785500Y-69528500D02*
X37960600Y-69528500D01*
X17863800Y-71326300D02*
X26429600Y-71326300D01*
X37785500Y-69528500D02*
X37785500Y-65430900D01*
X10186900Y-81135200D02*
X10186900Y-79995600D01*
X16622400Y-71265100D02*
X17212500Y-70675000D01*
X26429600Y-71326300D02*
X27110900Y-70645000D01*
X32917500Y-78475000D02*
X37785500Y-73607000D01*
%TO.N,SD_CLK*%
X35374800Y-70580500D02*
X34660000Y-70580500D01*
X36253100Y-62549900D02*
X36430400Y-62727200D01*
X26349500Y-71778000D02*
X23852500Y-74275000D01*
X36430400Y-62727200D02*
X36430400Y-69524900D01*
X36430400Y-69524900D02*
X35374800Y-70580500D01*
X33462500Y-71778000D02*
X26349500Y-71778000D01*
X34660000Y-70580500D02*
X33462500Y-71778000D01*
%TO.N,SD_CLK_C*%
X42108500Y-86191500D02*
X28748200Y-86191500D01*
X15775000Y-90846100D02*
X15775000Y-92350000D01*
X9937500Y-68775000D02*
X8813400Y-68775000D01*
X27702600Y-85145900D02*
X27702600Y-76300100D01*
X15862500Y-90791500D02*
X16762500Y-90791500D01*
X12347200Y-88933600D02*
X13862500Y-88933600D01*
X8105200Y-84691600D02*
X12347200Y-88933600D01*
X28748200Y-86191500D02*
X27702600Y-85145900D01*
X13862500Y-88933600D02*
X15775000Y-90846100D01*
X8813400Y-68775000D02*
X8105200Y-69483200D01*
X44025000Y-84275000D02*
X42108500Y-86191500D01*
X8105200Y-69483200D02*
X8105200Y-84691600D01*
X27702600Y-76300100D02*
X25677500Y-74275000D01*
%TO.N,SD_CMD*%
X34925100Y-71032200D02*
X35561900Y-71032200D01*
X36882100Y-62559700D02*
X37155800Y-62286000D01*
X33081500Y-72875800D02*
X34925100Y-71032200D01*
X37155800Y-62286000D02*
X37155800Y-59923200D01*
X35561900Y-71032200D02*
X36882100Y-69712000D01*
X32878000Y-72875800D02*
X33081500Y-72875800D01*
X28112500Y-74275000D02*
X28112500Y-72875800D01*
X36882100Y-69712000D02*
X36882100Y-62559700D01*
%TO.N,SD_CMD_C*%
X38590100Y-85357600D02*
X29007700Y-85357600D01*
X8925900Y-84861600D02*
X8925900Y-77754700D01*
X29007700Y-85564800D02*
X29007700Y-85357600D01*
X28154400Y-84742200D02*
X28154400Y-82080700D01*
X17975000Y-91148300D02*
X17838700Y-91012000D01*
X17975000Y-92350000D02*
X17975000Y-91148300D01*
X28154400Y-82080700D02*
X29937500Y-80297600D01*
X17838700Y-91012000D02*
X17838700Y-90899500D01*
X10705000Y-77397800D02*
X10705000Y-77562500D01*
X12546200Y-88481900D02*
X8925900Y-84861600D01*
X9282800Y-77397800D02*
X10705000Y-77397800D01*
X10705000Y-71442500D02*
X10705000Y-77397800D01*
X46975000Y-84275000D02*
X45883200Y-83183200D01*
X9937500Y-70675000D02*
X10705000Y-71442500D01*
X8925900Y-77754700D02*
X9282800Y-77397800D01*
X39600100Y-84347600D02*
X38590100Y-85357600D01*
X29937500Y-80297600D02*
X29937500Y-74275000D01*
X15421100Y-88481900D02*
X12546200Y-88481900D01*
X10705000Y-77562500D02*
X11617500Y-78475000D01*
X28769800Y-85357600D02*
X28154400Y-84742200D01*
X17838700Y-90899500D02*
X15421100Y-88481900D01*
X29007700Y-85357600D02*
X28769800Y-85357600D01*
X39600100Y-84224100D02*
X39600100Y-84347600D01*
X45883200Y-83183200D02*
X40641000Y-83183200D01*
X40641000Y-83183200D02*
X39600100Y-84224100D01*
%TO.N,SD_D0*%
X35749000Y-71483900D02*
X37333800Y-69899100D01*
X37333800Y-63676800D02*
X37898500Y-63112100D01*
X37333800Y-69899100D02*
X37333800Y-63676800D01*
X37898500Y-58985400D02*
X39703900Y-57180000D01*
X35163600Y-71483900D02*
X35749000Y-71483900D01*
X32372500Y-74275000D02*
X35163600Y-71483900D01*
X39703900Y-57180000D02*
X40000000Y-57180000D01*
X37898500Y-63112100D02*
X37898500Y-58985400D01*
%TO.N,SD_D0_C*%
X16268500Y-78475000D02*
X16916600Y-77826900D01*
X13575000Y-92350000D02*
X13575000Y-89560300D01*
X34197500Y-74295100D02*
X33229800Y-75262800D01*
X12212500Y-70675000D02*
X13386300Y-71848800D01*
X34197500Y-74275000D02*
X34197500Y-74295100D01*
X15877500Y-78475000D02*
X16268500Y-78475000D01*
X13386300Y-71848800D02*
X13386300Y-73024200D01*
%TO.N,SD_D1_C*%
X12475000Y-92350000D02*
X12475000Y-90899500D01*
X7653500Y-86078000D02*
X7653500Y-69215200D01*
X21164800Y-78676000D02*
X20338500Y-78676000D01*
X11525600Y-68088100D02*
X12212500Y-68775000D01*
X20338500Y-78676000D02*
X20137500Y-78475000D01*
X8780600Y-68088100D02*
X11525600Y-68088100D01*
X12475000Y-90899500D02*
X7653500Y-86078000D01*
X7653500Y-69215200D02*
X8780600Y-68088100D01*
%TO.N,SD_D2_C*%
X24397500Y-79860400D02*
X24397500Y-78475000D01*
X15995600Y-69439300D02*
X15995600Y-76136900D01*
X20175000Y-91148300D02*
X24397500Y-86925800D01*
X14937500Y-68775000D02*
X15331300Y-68775000D01*
X20175000Y-92350000D02*
X20175000Y-91148300D01*
X24397500Y-86925800D02*
X24397500Y-79860400D01*
X15331300Y-68775000D02*
X15995600Y-69439300D01*
%TO.N,SD_D3_C*%
X19075000Y-92350000D02*
X19075000Y-89102000D01*
X15318000Y-71055500D02*
X15318000Y-74186400D01*
X28657500Y-78475000D02*
X28657500Y-76717000D01*
X14937500Y-70675000D02*
X15318000Y-71055500D01*
%TO.N,SD_EN_G*%
X8752300Y-73234800D02*
X9792500Y-74275000D01*
X8752300Y-70873800D02*
X8752300Y-73234800D01*
X8513700Y-67634300D02*
X6037500Y-70110500D01*
X6037500Y-70110500D02*
X6037500Y-70873800D01*
X24777500Y-68775000D02*
X23636800Y-67634300D01*
X24777500Y-68775000D02*
X25627500Y-67925000D01*
X25627500Y-67925000D02*
X34347500Y-67925000D01*
X34347500Y-67925000D02*
X35397500Y-68975000D01*
X23636800Y-67634300D02*
X8513700Y-67634300D01*
%TO.N,SD_PG*%
X30117400Y-70668400D02*
X28099500Y-70668400D01*
X28099500Y-70668400D02*
X27156100Y-69725000D01*
X20017500Y-68775000D02*
X23064900Y-68775000D01*
X27156100Y-69725000D02*
X26652500Y-69725000D01*
X31137500Y-68975000D02*
X31137500Y-69648300D01*
X31137500Y-69648300D02*
X30117400Y-70668400D01*
X23064900Y-68775000D02*
X24014900Y-69725000D01*
X24014900Y-69725000D02*
X26652500Y-69725000D01*
%TO.N,SD_PWR_EN*%
X62860000Y-54640000D02*
X57592500Y-59907500D01*
X33572500Y-68975000D02*
X33572500Y-70549400D01*
X57592500Y-59907500D02*
X57592500Y-62573900D01*
D46*
%TO.N,SD_VDD*%
X16875000Y-92350000D02*
X16875000Y-93701700D01*
X14110000Y-78417500D02*
X14052500Y-78475000D01*
X14110000Y-77050200D02*
X14110000Y-78417500D01*
X26525900Y-78475000D02*
X26525900Y-90536300D01*
X23795200Y-77252300D02*
X25303200Y-77252300D01*
X10985700Y-79668200D02*
X9792500Y-78475000D01*
X18312500Y-78049000D02*
X18312500Y-78475000D01*
X22572500Y-78475000D02*
X23795200Y-77252300D01*
X17313700Y-77050200D02*
X18312500Y-78049000D01*
X14110000Y-74475000D02*
X14110000Y-77050200D01*
X19494500Y-79657000D02*
X21390500Y-79657000D01*
X21892500Y-69725000D02*
X20540400Y-69725000D01*
X19535000Y-74305000D02*
X18069800Y-72839800D01*
X25303200Y-77252300D02*
X26525900Y-78475000D01*
X19535000Y-74305000D02*
X19535000Y-75437500D01*
X12859300Y-79668200D02*
X10985700Y-79668200D01*
X23360500Y-93701700D02*
X16875000Y-93701700D01*
X26525900Y-90536300D02*
X23360500Y-93701700D01*
X21390500Y-79657000D02*
X22572500Y-78475000D01*
X18312500Y-78475000D02*
X19494500Y-79657000D01*
X14110000Y-77050200D02*
X17313700Y-77050200D01*
X18069800Y-72839800D02*
X18069800Y-72195600D01*
X14052500Y-78475000D02*
X12859300Y-79668200D01*
X19535000Y-75437500D02*
X22572500Y-78475000D01*
X26832500Y-78475000D02*
X26525900Y-78475000D01*
D47*
%TO.N,SENS_RTN*%
X1037500Y-14761400D02*
X1037500Y-43287500D01*
X3525000Y-45775000D02*
X2792500Y-46507500D01*
X1037500Y-43287500D02*
X3525000Y-45775000D01*
X20000000Y-6867500D02*
X20000000Y-7875000D01*
X2792500Y-46507500D02*
X2792500Y-49925000D01*
X20000000Y-6867500D02*
X17871000Y-4738500D01*
X17871000Y-4738500D02*
X11060400Y-4738500D01*
X11060400Y-4738500D02*
X1037500Y-14761400D01*
X20000000Y-6500000D02*
X20000000Y-6867500D01*
X22000000Y-6500000D02*
X22000000Y-7875000D01*
%TO.N,TERM2_A*%
X73175800Y-36761700D02*
X73375000Y-36761700D01*
X73375000Y-35685000D02*
X73375000Y-36761700D01*
X70602500Y-39335000D02*
X73175800Y-36761700D01*
%TO.N,TERM_A*%
X18602500Y-66025000D02*
X18602500Y-64382000D01*
X31225000Y-61750000D02*
X31225000Y-64382000D01*
%TO.N,VBAT_SNS*%
X55262500Y-66975000D02*
X53277500Y-66975000D01*
X52243600Y-65941100D02*
X49870000Y-65941100D01*
X49870000Y-65941100D02*
X49870000Y-50678100D01*
X53277500Y-66975000D02*
X52243600Y-65941100D01*
X48648900Y-65941100D02*
X47585000Y-67005000D01*
X49870000Y-65941100D02*
X48648900Y-65941100D01*
X46112500Y-67005000D02*
X45392500Y-67725000D01*
X47585000Y-67005000D02*
X46112500Y-67005000D01*
D46*
%TO.N,VSENS_F*%
X43212500Y-33225000D02*
X47462500Y-28975000D01*
X47462500Y-28975000D02*
X47612500Y-28975000D01*
D47*
%TO.N,XTAL1*%
X66869900Y-19145000D02*
X67250000Y-19145000D01*
X75325000Y-39958500D02*
X75325000Y-37910300D01*
X79325000Y-37822900D02*
X76783200Y-40364700D01*
X76783200Y-40364700D02*
X75731200Y-40364700D01*
X75325000Y-37910300D02*
X74831200Y-37416500D01*
X79325000Y-35415000D02*
X79325000Y-37822900D01*
X65940400Y-21442400D02*
X65940400Y-20074500D01*
X75731200Y-40364700D02*
X75325000Y-39958500D01*
X66670800Y-22172800D02*
X65940400Y-21442400D01*
X65940400Y-20074500D02*
X66869900Y-19145000D01*
X79325000Y-34685000D02*
X79325000Y-35415000D01*
X74831200Y-37416500D02*
X74831200Y-33803100D01*
X81925000Y-32085000D02*
X79325000Y-34685000D01*
%TO.N,XTAL2*%
X67250000Y-17875000D02*
X65933800Y-17875000D01*
X83025000Y-33472200D02*
X83025000Y-31485000D01*
X83025000Y-35265000D02*
X83025000Y-33472200D01*
X65933800Y-17875000D02*
X65758500Y-18050300D01*
X83175000Y-35415000D02*
X83025000Y-35265000D01*
X83025000Y-31485000D02*
X84125000Y-30385000D01*
%TD*%
M02*
