M48
; DRILL file {KiCad 9.0.5} date 2026-08-13T09:55:38-0400
; FORMAT={-:-/ absolute / metric / decimal}
; #@! TF.CreationDate,2026-08-13T09:55:38-04:00
; #@! TF.GenerationSoftware,Kicad,Pcbnew,9.0.5
; #@! TF.FileFunction,Plated,1,4,PTH
FMAT,2
METRIC
; #@! TA.AperFunction,Plated,PTH,ViaDrill
T1C0.250
; #@! TA.AperFunction,Plated,PTH,ViaDrill
T2C0.300
; #@! TA.AperFunction,Plated,PTH,ViaDrill
T3C0.400
; #@! TA.AperFunction,Plated,PTH,ComponentDrill
T4C0.750
; #@! TA.AperFunction,Plated,PTH,ComponentDrill
T5C0.800
; #@! TA.AperFunction,Plated,PTH,ComponentDrill
T6C1.000
%
G90
G05
T1
X16.05Y-69.725
T2
X7.648Y-18.031
X8.98Y-22.353
X8.998Y-23.395
X9.548Y-19.939
X10.792Y-22.488
X10.829Y-6.532
X11.797Y-72.329
X12.212Y-67.951
X13.249Y-72.641
X13.375Y-84.133
X14.85Y-82.03
X16.123Y-82.561
X16.351Y-76.717
X16.913Y-78.754
X18.203Y-80.956
X18.422Y-23.041
X18.622Y-79.939
X20.0Y-7.875
X20.47Y-25.366
X20.728Y-77.238
X21.602Y-56.661
X21.709Y-57.569
X22.0Y-7.875
X23.075Y-60.668
X23.485Y-77.289
X23.501Y-68.854
X24.862Y-75.263
X25.87Y-47.523
X27.276Y-47.05
X29.155Y-57.569
X29.387Y-63.567
X29.938Y-81.77
X30.227Y-55.801
X32.852Y-19.001
X32.872Y-20.188
X33.205Y-17.712
X34.698Y-70.1
X35.462Y-30.574
X37.995Y-37.056
X40.643Y-81.92
X42.095Y-29.859
X43.081Y-79.254
X45.421Y-76.985
X45.5Y-84.214
X48.015Y-50.886
X48.345Y-49.42
X50.089Y-64.662
X52.098Y-49.479
X52.737Y-50.427
X53.497Y-65.531
X56.817Y-60.306
X60.156Y-52.225
X60.42Y-45.575
X61.331Y-29.927
X65.859Y-16.093
X67.412Y-33.986
X69.364Y-17.217
X69.778Y-45.513
X70.239Y-18.376
X70.27Y-20.922
X74.975Y-28.561
X78.09Y-45.015
T3
X3.583Y-27.527
X3.641Y-24.517
X4.23Y-18.725
X4.23Y-19.725
X5.675Y-23.905
X8.105Y-23.675
X8.105Y-25.575
X8.63Y-19.725
X8.775Y-69.725
X9.275Y-14.775
X9.275Y-45.775
X9.425Y-28.755
X9.44Y-36.025
X11.705Y-44.775
X11.705Y-46.675
X12.0Y-7.875
X12.425Y-96.95
X12.63Y-74.275
X13.155Y-18.725
X13.155Y-20.625
X13.25Y-49.925
X13.375Y-69.725
X14.0Y-7.875
X14.441Y-24.418
X14.53Y-30.535
X16.725Y-56.09
X17.435Y-45.005
X17.494Y-66.625
X18.135Y-74.475
X18.175Y-14.775
X18.375Y-69.725
X19.325Y-87.525
X21.04Y-62.95
X21.255Y-70.675
X21.675Y-58.63
X21.994Y-45.575
X22.055Y-18.725
X22.055Y-20.625
X22.435Y-74.305
X22.586Y-58.815
X23.341Y-24.418
X23.43Y-30.535
X25.391Y-55.617
X25.94Y-44.975
X26.015Y-70.675
X27.075Y-14.775
X27.341Y-55.617
X28.725Y-62.25
X29.241Y-55.617
X29.725Y-27.663
X29.819Y-70.014
X30.341Y-24.517
X30.93Y-18.725
X30.93Y-19.725
X31.599Y-79.514
X32.375Y-23.905
X32.4Y-81.094
X33.475Y-84.275
X34.805Y-23.675
X34.805Y-25.575
X35.33Y-19.725
X35.497Y-79.059
X35.975Y-14.775
X36.125Y-28.755
X36.14Y-36.025
X36.325Y-61.48
X42.325Y-84.275
X43.799Y-20.864
X44.425Y-44.525
X44.425Y-48.275
X44.755Y-66.775
X44.755Y-68.675
X45.994Y-52.425
X46.464Y-16.125
X47.231Y-45.225
X47.231Y-48.975
X47.609Y-52.864
X49.191Y-44.968
X50.351Y-15.617
X50.351Y-67.617
X50.37Y-59.358
X50.375Y-23.28
X51.091Y-44.968
X51.091Y-48.718
X51.325Y-33.525
X51.419Y-52.864
X53.041Y-48.718
X54.941Y-44.968
X54.941Y-48.718
X56.125Y-28.775
X56.125Y-39.775
X58.1Y-14.975
X58.1Y-66.975
X58.88Y-48.075
X60.125Y-44.525
X67.412Y-67.992
X68.255Y-45.675
X68.725Y-20.415
X68.725Y-24.7
X69.494Y-39.935
X70.742Y-11.465
X72.281Y-59.375
X72.565Y-43.775
X72.565Y-45.675
X73.04Y-31.935
X73.304Y-49.425
X73.675Y-12.795
X73.675Y-27.24
X74.294Y-62.075
X75.491Y-13.617
X75.51Y-22.446
X77.391Y-13.617
X77.391Y-24.227
X79.341Y-13.617
X79.341Y-24.227
X80.441Y-60.617
X80.488Y-43.748
X80.725Y-30.385
X80.725Y-31.235
X81.06Y-48.825
X81.241Y-24.227
X81.375Y-13.005
X82.091Y-36.027
X85.325Y-32.085
X85.9Y-78.425
X85.941Y-36.027
X89.925Y-35.415
T4
X4.0Y-60.0
X4.0Y-62.0
X4.0Y-64.0
X4.0Y-66.0
X12.0Y-6.5
X14.0Y-6.5
X16.0Y-6.5
X18.0Y-6.5
X20.0Y-6.5
X22.0Y-6.5
X24.0Y-6.5
X26.0Y-6.5
X28.0Y-6.5
X30.0Y-6.5
X68.0Y-6.5
X70.0Y-6.5
X72.0Y-6.5
X74.0Y-6.5
T5
X68.525Y-72.275
X72.025Y-72.275
X77.475Y-72.275
X80.975Y-72.275
T6
X40.0Y-14.0
X40.0Y-16.54
X40.0Y-19.08
X40.0Y-21.62
X40.0Y-24.16
X40.0Y-26.7
X40.0Y-29.24
X40.0Y-31.78
X40.0Y-34.32
X40.0Y-36.86
X40.0Y-39.4
X40.0Y-41.94
X40.0Y-44.48
X40.0Y-47.02
X40.0Y-49.56
X40.0Y-52.1
X40.0Y-54.64
X40.0Y-57.18
X40.0Y-59.72
X40.0Y-62.26
X40.0Y-64.8
X40.0Y-67.34
X62.86Y-14.0
X62.86Y-16.54
X62.86Y-19.08
X62.86Y-21.62
X62.86Y-24.16
X62.86Y-26.7
X62.86Y-29.24
X62.86Y-31.78
X62.86Y-34.32
X62.86Y-36.86
X62.86Y-39.4
X62.86Y-41.94
X62.86Y-44.48
X62.86Y-47.02
X62.86Y-49.56
X62.86Y-52.1
X62.86Y-54.64
X62.86Y-57.18
X62.86Y-59.72
X62.86Y-62.26
X62.86Y-64.8
X62.86Y-67.34
X93.0Y-20.0
X93.0Y-22.54
X93.0Y-25.08
X93.0Y-33.0
X93.0Y-35.54
X93.0Y-38.08
X93.0Y-40.62
X93.0Y-46.0
X93.0Y-48.54
X93.0Y-51.08
X93.0Y-53.62
X93.0Y-59.0
X93.0Y-61.54
X93.0Y-64.08
X93.0Y-66.62
M30
