%TF.GenerationSoftware,KiCad,Pcbnew,9.0.5*%
%TF.CreationDate,2026-08-13T09:55:38-04:00*%
%TF.ProjectId,esp32s3-can-sd-logger,65737033-3273-4332-9d63-616e2d73642d,rev?*%
%TF.SameCoordinates,Original*%
%TF.FileFunction,Copper,L4,Bot*%
%TF.FilePolarity,Positive*%
%FSLAX46Y46*%
G04 Gerber Fmt 4.6, Leading zero omitted, Abs format (unit mm)*
G04 Created by KiCad (PCBNEW 9.0.5) date 2026-08-13 09:55:38*
%MOMM*%
%LPD*%
G01*
G04 APERTURE LIST*
G04 Aperture macros list*
%AMRoundRect*
0 Rectangle with rounded corners*
0 $1 Rounding radius*
0 $2 $3 $4 $5 $6 $7 $8 $9 X,Y pos of 4 corners*
0 Add a 4 corners polygon primitive as box body*
4,1,4,$2,$3,$4,$5,$6,$7,$8,$9,$2,$3,0*
0 Add four circle primitives for the rounded corners*
1,1,$1+$1,$2,$3*
1,1,$1+$1,$4,$5*
1,1,$1+$1,$6,$7*
1,1,$1+$1,$8,$9*
0 Add four rect primitives between the rounded corners*
20,1,$1+$1,$2,$3,$4,$5,0*
20,1,$1+$1,$4,$5,$6,$7,0*
20,1,$1+$1,$6,$7,$8,$9,0*
20,1,$1+$1,$8,$9,$2,$3,0*%
G04 Aperture macros list end*
%TA.AperFunction,ComponentPad*%
%ADD10R,1.700000X1.700000*%
%TD*%
%TA.AperFunction,ComponentPad*%
%ADD11C,1.700000*%
%TD*%
%TA.AperFunction,ComponentPad*%
%ADD12RoundRect,0.250000X-0.550000X-0.550000X0.550000X-0.550000X0.550000X0.550000X-0.550000X0.550000X0*%
%TD*%
%TA.AperFunction,ComponentPad*%
%ADD13C,1.600000*%
%TD*%
%TA.AperFunction,ComponentPad*%
%ADD14RoundRect,0.250000X-0.350000X-0.625000X0.350000X-0.625000X0.350000X0.625000X-0.350000X0.625000X0*%
%TD*%
%TA.AperFunction,ComponentPad*%
%ADD15O,1.200000X1.750000*%
%TD*%
%TA.AperFunction,ComponentPad*%
%ADD16RoundRect,0.250000X0.625000X-0.350000X0.625000X0.350000X-0.625000X0.350000X-0.625000X-0.350000X0*%
%TD*%
%TA.AperFunction,ComponentPad*%
%ADD17O,1.750000X1.200000*%
%TD*%
%TA.AperFunction,ViaPad*%
%ADD18C,0.600000*%
%TD*%
%TA.AperFunction,ViaPad*%
%ADD19C,0.800000*%
%TD*%
%TA.AperFunction,ViaPad*%
%ADD20C,0.500000*%
%TD*%
%TA.AperFunction,Conductor*%
%ADD21C,0.550000*%
%TD*%
%TA.AperFunction,Conductor*%
%ADD22C,0.250000*%
%TD*%
G04 APERTURE END LIST*
D10*
%TO.P,J7,1*%
%TO.N,+5V*%
X93000000Y-33000000D03*
D11*
%TO.P,J7,2*%
%TO.N,+3V3*%
X93000000Y-35540000D03*
%TO.P,J7,3*%
%TO.N,GND*%
X93000000Y-38080000D03*
%TO.P,J7,4*%
X93000000Y-40620000D03*
%TD*%
D12*
%TO.P,C7,1*%
%TO.N,SCAP_MID*%
X77475000Y-72275000D03*
D13*
%TO.P,C7,2*%
%TO.N,GND*%
X80975000Y-72275000D03*
%TD*%
D10*
%TO.P,J6,1*%
%TO.N,LED_5V*%
X93000000Y-20000000D03*
D11*
%TO.P,J6,2*%
%TO.N,LED_DIN_J*%
X93000000Y-22540000D03*
%TO.P,J6,3*%
%TO.N,GND*%
X93000000Y-25080000D03*
%TD*%
D10*
%TO.P,J3,1*%
%TO.N,+3V3*%
X40000000Y-14000000D03*
D11*
%TO.P,J3,2*%
X40000000Y-16540000D03*
%TO.P,J3,3*%
%TO.N,N/C*%
X40000000Y-19080000D03*
%TO.P,J3,4*%
%TO.N,AIN1*%
X40000000Y-21620000D03*
%TO.P,J3,5*%
%TO.N,AIN2*%
X40000000Y-24160000D03*
%TO.P,J3,6*%
%TO.N,AIN3*%
X40000000Y-26700000D03*
%TO.P,J3,7*%
%TO.N,AIN4*%
X40000000Y-29240000D03*
%TO.P,J3,8*%
%TO.N,PWR_FAIL*%
X40000000Y-31780000D03*
%TO.P,J3,9*%
%TO.N,CAN_S*%
X40000000Y-34320000D03*
%TO.P,J3,10*%
%TO.N,CAN_TX*%
X40000000Y-36860000D03*
%TO.P,J3,11*%
%TO.N,CAN_RX*%
X40000000Y-39400000D03*
%TO.P,J3,12*%
%TO.N,VBAT_SNS*%
X40000000Y-41940000D03*
%TO.P,J3,13*%
%TO.N,N/C*%
X40000000Y-44480000D03*
%TO.P,J3,14*%
X40000000Y-47020000D03*
%TO.P,J3,15*%
%TO.N,I2C_SCL*%
X40000000Y-49560000D03*
%TO.P,J3,16*%
%TO.N,I2C_SDA*%
X40000000Y-52100000D03*
%TO.P,J3,17*%
%TO.N,SD_CD*%
X40000000Y-54640000D03*
%TO.P,J3,18*%
%TO.N,SD_D0*%
X40000000Y-57180000D03*
%TO.P,J3,19*%
%TO.N,SD_CMD*%
X40000000Y-59720000D03*
%TO.P,J3,20*%
%TO.N,SD_CLK*%
X40000000Y-62260000D03*
%TO.P,J3,21*%
%TO.N,+5V*%
X40000000Y-64800000D03*
%TO.P,J3,22*%
%TO.N,GND*%
X40000000Y-67340000D03*
%TD*%
D12*
%TO.P,C6,1*%
%TO.N,SCAP_TOP*%
X68525000Y-72275000D03*
D13*
%TO.P,C6,2*%
%TO.N,SCAP_MID*%
X72025000Y-72275000D03*
%TD*%
D14*
%TO.P,J9,1*%
%TO.N,+5VS*%
X12000000Y-6500000D03*
D15*
%TO.P,J9,2*%
X14000000Y-6500000D03*
%TO.P,J9,3*%
%TO.N,AIN1_IN*%
X16000000Y-6500000D03*
%TO.P,J9,4*%
%TO.N,AIN2_IN*%
X18000000Y-6500000D03*
%TO.P,J9,5*%
%TO.N,SENS_RTN*%
X20000000Y-6500000D03*
%TO.P,J9,6*%
X22000000Y-6500000D03*
%TO.P,J9,7*%
%TO.N,AIN3_IN*%
X24000000Y-6500000D03*
%TO.P,J9,8*%
%TO.N,AIN4_IN*%
X26000000Y-6500000D03*
%TO.P,J9,9*%
%TO.N,GND*%
X28000000Y-6500000D03*
%TO.P,J9,10*%
X30000000Y-6500000D03*
%TD*%
D10*
%TO.P,J4,1*%
%TO.N,GND*%
X62860000Y-14000000D03*
D11*
%TO.P,J4,2*%
%TO.N,N/C*%
X62860000Y-16540000D03*
%TO.P,J4,3*%
X62860000Y-19080000D03*
%TO.P,J4,4*%
%TO.N,K_RX*%
X62860000Y-21620000D03*
%TO.P,J4,5*%
%TO.N,K_TX*%
X62860000Y-24160000D03*
%TO.P,J4,6*%
%TO.N,CAN2_CS*%
X62860000Y-26700000D03*
%TO.P,J4,7*%
%TO.N,CAN2_MISO*%
X62860000Y-29240000D03*
%TO.P,J4,8*%
%TO.N,CAN2_MOSI*%
X62860000Y-31780000D03*
%TO.P,J4,9*%
%TO.N,CAN2_SCK*%
X62860000Y-34320000D03*
%TO.P,J4,10*%
%TO.N,N/C*%
X62860000Y-36860000D03*
%TO.P,J4,11*%
X62860000Y-39400000D03*
%TO.P,J4,12*%
X62860000Y-41940000D03*
%TO.P,J4,13*%
X62860000Y-44480000D03*
%TO.P,J4,14*%
X62860000Y-47020000D03*
%TO.P,J4,15*%
X62860000Y-49560000D03*
%TO.P,J4,16*%
%TO.N,LED_DIN_MCU*%
X62860000Y-52100000D03*
%TO.P,J4,17*%
%TO.N,SD_PWR_EN*%
X62860000Y-54640000D03*
%TO.P,J4,18*%
%TO.N,CAN2_INT*%
X62860000Y-57180000D03*
%TO.P,J4,19*%
%TO.N,N/C*%
X62860000Y-59720000D03*
%TO.P,J4,20*%
X62860000Y-62260000D03*
%TO.P,J4,21*%
%TO.N,GND*%
X62860000Y-64800000D03*
%TO.P,J4,22*%
X62860000Y-67340000D03*
%TD*%
D14*
%TO.P,J2,1*%
%TO.N,AUX_A*%
X68000000Y-6500000D03*
D15*
%TO.P,J2,2*%
%TO.N,AUX_B*%
X70000000Y-6500000D03*
%TO.P,J2,3*%
%TO.N,GND*%
X72000000Y-6500000D03*
%TO.P,J2,4*%
X74000000Y-6500000D03*
%TD*%
D16*
%TO.P,J1,1*%
%TO.N,OBD_VBAT*%
X4000000Y-66000000D03*
D17*
%TO.P,J1,2*%
%TO.N,GND*%
X4000000Y-64000000D03*
%TO.P,J1,3*%
%TO.N,CAN_H*%
X4000000Y-62000000D03*
%TO.P,J1,4*%
%TO.N,CAN_L*%
X4000000Y-60000000D03*
%TD*%
D10*
%TO.P,J5,1*%
%TO.N,GND*%
X93000000Y-46000000D03*
D11*
%TO.P,J5,2*%
%TO.N,+3V3*%
X93000000Y-48540000D03*
%TO.P,J5,3*%
%TO.N,I2C_SDA*%
X93000000Y-51080000D03*
%TO.P,J5,4*%
%TO.N,I2C_SCL*%
X93000000Y-53620000D03*
%TD*%
D10*
%TO.P,J10,1*%
%TO.N,AIN_SP1*%
X93000000Y-59000000D03*
D11*
%TO.P,J10,2*%
%TO.N,AIN_SP2*%
X93000000Y-61540000D03*
%TO.P,J10,3*%
%TO.N,AGND_SENSE*%
X93000000Y-64080000D03*
%TO.P,J10,4*%
%TO.N,GND*%
X93000000Y-66620000D03*
%TD*%
D18*
%TO.N,+3V3*%
X44755000Y-68675000D03*
X73675000Y-27240000D03*
X8105000Y-25575000D03*
X21255000Y-70675000D03*
X72565000Y-45675000D03*
X58880000Y-48075000D03*
X49191000Y-44967500D03*
X79341000Y-13617500D03*
X30341000Y-24517500D03*
X8630000Y-19725000D03*
X44425000Y-48275000D03*
X27341000Y-55617500D03*
X47608800Y-52864200D03*
X34805000Y-25575000D03*
X18375000Y-69725000D03*
X51418800Y-52864200D03*
X21675000Y-58630000D03*
X73675000Y-12795000D03*
X31598700Y-79514200D03*
X29818700Y-70014200D03*
X13375000Y-69725000D03*
X30930000Y-18725000D03*
X11705000Y-46675000D03*
X79341000Y-24227500D03*
X33475000Y-84275000D03*
X53041000Y-48717500D03*
X75491000Y-13617500D03*
X3641000Y-24517500D03*
X22055000Y-20625000D03*
X43798800Y-20864200D03*
X44425000Y-44525000D03*
X13155000Y-20625000D03*
X35330000Y-19725000D03*
D19*
%TO.N,+5V*%
X22585700Y-58815000D03*
X32400400Y-81093800D03*
X67412500Y-67992000D03*
X75510300Y-22445700D03*
X50370500Y-59358400D03*
%TO.N,+5VS*%
X35497500Y-79059200D03*
X12000000Y-7875000D03*
X14000000Y-7875000D03*
X29725000Y-27662900D03*
X50375000Y-23279700D03*
X3582500Y-27527500D03*
D18*
%TO.N,AGND_SENSE*%
X32871700Y-20187800D03*
X8980500Y-22352600D03*
X25870400Y-47523400D03*
%TO.N,AIN1*%
X8998400Y-23395500D03*
%TO.N,AIN2*%
X18421800Y-23040700D03*
%TO.N,AIN2_IN*%
X10829100Y-6531800D03*
%TO.N,AIN3*%
X20470000Y-25365800D03*
X10791900Y-22488200D03*
%TO.N,AIN4*%
X35462400Y-30574500D03*
%TO.N,AIN_SP1*%
X27275800Y-47049600D03*
%TO.N,AIN_SP2*%
X37995000Y-37055800D03*
%TO.N,AUX_A*%
X60419900Y-45574800D03*
X67412500Y-33986300D03*
%TO.N,AUX_B*%
X74975000Y-28561000D03*
%TO.N,CAN2_INT*%
X60155600Y-52225500D03*
X65858700Y-16093300D03*
X61331400Y-29927100D03*
%TO.N,CAN2_MISO*%
X69364200Y-17217400D03*
%TO.N,CAN2_MOSI*%
X70238700Y-18376300D03*
%TO.N,CAN2_SCK*%
X70270500Y-20922500D03*
%TO.N,CANH_T*%
X30226800Y-55800600D03*
X21601800Y-56660700D03*
%TO.N,CANL_T*%
X29154700Y-57568600D03*
X21708800Y-57568600D03*
%TO.N,CAN_H*%
X29387500Y-63567400D03*
X43080900Y-79254400D03*
%TO.N,CAN_L*%
X23075500Y-60667900D03*
X45420900Y-76985400D03*
%TO.N,GND*%
X36140000Y-36025000D03*
X72565000Y-43775000D03*
X85900000Y-78425000D03*
X80441000Y-60617500D03*
X13155000Y-18725000D03*
X8105000Y-23675000D03*
X80725000Y-31235000D03*
X27075000Y-14775000D03*
X47231000Y-48975000D03*
X89925000Y-35415000D03*
X45994300Y-52425000D03*
X19325000Y-87525000D03*
X34805000Y-23675000D03*
X21040500Y-62950000D03*
X56125000Y-28775000D03*
D20*
X16050000Y-69725000D03*
D18*
X9275000Y-45775000D03*
X46464200Y-16125000D03*
X5675000Y-23905000D03*
X68725000Y-24700000D03*
X17435000Y-45005000D03*
X23430000Y-30535000D03*
X68255000Y-45675000D03*
X26015000Y-70675000D03*
X14530000Y-30535000D03*
X18135000Y-74475000D03*
X12630000Y-74275000D03*
X8775000Y-69725000D03*
X85325000Y-32085000D03*
X80725000Y-30385000D03*
X77391000Y-13617500D03*
X4230000Y-18725000D03*
X51091000Y-44967500D03*
X50351000Y-67617500D03*
X28725000Y-62250000D03*
X22435000Y-74305000D03*
X82091000Y-36027500D03*
X44755000Y-66775000D03*
X30930000Y-19725000D03*
X13250000Y-49925000D03*
X56125000Y-39775000D03*
X16725000Y-56090000D03*
X85941000Y-36027500D03*
X22055000Y-18725000D03*
X25940000Y-44975000D03*
X74294300Y-62075000D03*
X9425000Y-28755000D03*
X77391000Y-24227500D03*
X17494300Y-66625000D03*
X36325000Y-61480000D03*
X54941000Y-48717500D03*
X68725000Y-20415000D03*
X81375000Y-13005000D03*
X60125000Y-44525000D03*
X12425000Y-96950000D03*
X9275000Y-14775000D03*
X81241000Y-24227500D03*
X54941000Y-44967500D03*
X81060000Y-48825000D03*
X58100000Y-66975000D03*
X35975000Y-14775000D03*
X32375000Y-23905000D03*
X72280700Y-59375000D03*
X42325000Y-84275000D03*
X36125000Y-28755000D03*
X23341000Y-24417500D03*
X73040500Y-31935000D03*
X9440000Y-36025000D03*
X11705000Y-44775000D03*
X29241000Y-55617500D03*
X25391000Y-55617500D03*
X58100000Y-14975000D03*
X14441000Y-24417500D03*
X73304400Y-49425000D03*
X4230000Y-19725000D03*
X47231000Y-45225000D03*
X50351000Y-15617500D03*
X69494400Y-39935000D03*
X18175000Y-14775000D03*
X51091000Y-48717500D03*
X51325000Y-33525000D03*
X21994300Y-45575000D03*
%TO.N,I2C_SCL*%
X52737500Y-50426600D03*
X7648300Y-18030700D03*
X33205400Y-17712500D03*
%TO.N,I2C_SDA*%
X9548400Y-19939400D03*
X48015000Y-50885900D03*
X32852100Y-19001400D03*
%TO.N,K_TX_D*%
X69777600Y-45513000D03*
X78090000Y-45015200D03*
D19*
%TO.N,OBD_VBAT_F*%
X80487900Y-43747600D03*
X70741700Y-11464700D03*
D18*
%TO.N,PWR_FAIL*%
X42094600Y-29859200D03*
%TO.N,PWR_LED_K*%
X48344800Y-49419900D03*
X52098000Y-49478800D03*
%TO.N,SD_CLK_C*%
X40642700Y-81919700D03*
X18203300Y-80956300D03*
X13249200Y-72641400D03*
X24862200Y-75262800D03*
%TO.N,SD_CMD_C*%
X45500000Y-84214000D03*
X29937500Y-81770000D03*
X16123200Y-82561200D03*
%TO.N,SD_D0_C*%
X16912800Y-78753600D03*
X18622300Y-79939100D03*
%TO.N,SD_D1_C*%
X20727600Y-77238300D03*
X12212500Y-67951200D03*
%TO.N,SD_D2_C*%
X23485000Y-77289500D03*
X13375000Y-84133500D03*
%TO.N,SD_D3_C*%
X14849600Y-82030300D03*
X16350500Y-76717000D03*
%TO.N,SD_EN_G*%
X11796700Y-72329500D03*
X23500900Y-68854400D03*
%TO.N,SD_PWR_EN*%
X34697800Y-70100300D03*
X56816700Y-60305800D03*
%TO.N,SENS_RTN*%
X20000000Y-7875000D03*
X22000000Y-7875000D03*
%TO.N,VBAT_SNS*%
X50088800Y-64662000D03*
X53497400Y-65531000D03*
%TD*%
D21*
%TO.N,+5V*%
X42725800Y-81093800D02*
X32400400Y-81093800D01*
X95284400Y-66219000D02*
X95284400Y-35284400D01*
X66723400Y-68681100D02*
X62324900Y-68681100D01*
X45441600Y-59358400D02*
X40000000Y-64800000D01*
X93511400Y-67992000D02*
X95284400Y-66219000D01*
X33350000Y-64800000D02*
X27365000Y-58815000D01*
X81119000Y-22445700D02*
X75510300Y-22445700D01*
X67412500Y-67992000D02*
X66723400Y-68681100D01*
X40000000Y-64800000D02*
X33350000Y-64800000D01*
X58731700Y-61071400D02*
X57018700Y-59358400D01*
X57018700Y-59358400D02*
X50370500Y-59358400D01*
X62324900Y-68681100D02*
X58731700Y-65087900D01*
X67412500Y-67992000D02*
X93511400Y-67992000D01*
X91673300Y-33000000D02*
X81119000Y-22445700D01*
X27365000Y-58815000D02*
X22585700Y-58815000D01*
X93000000Y-33000000D02*
X91673300Y-33000000D01*
X58731700Y-65087900D02*
X42725800Y-81093800D01*
X50370500Y-59358400D02*
X45441600Y-59358400D01*
X95284400Y-35284400D02*
X93000000Y-33000000D01*
X58731700Y-65087900D02*
X58731700Y-61071400D01*
%TO.N,+5VS*%
X18726800Y-12673300D02*
X41086900Y-12673300D01*
X41086900Y-12673300D02*
X50375000Y-21961400D01*
X50375000Y-21961400D02*
X50375000Y-23279700D01*
X35497500Y-79059200D02*
X35497500Y-79038800D01*
X13536400Y-67976000D02*
X12724300Y-67163900D01*
X5023800Y-27662900D02*
X29725000Y-27662900D01*
X14000000Y-7875000D02*
X14467900Y-8342900D01*
X35497500Y-79038800D02*
X24434700Y-67976000D01*
X12000000Y-7875000D02*
X14000000Y-7875000D01*
X14467900Y-8414400D02*
X5227900Y-17654400D01*
X3137400Y-67163900D02*
X2632000Y-66658500D01*
X2632000Y-66658500D02*
X2632000Y-28478000D01*
X14467900Y-8414400D02*
X18726800Y-12673300D01*
X24434700Y-67976000D02*
X13536400Y-67976000D01*
X4888400Y-27527500D02*
X5023800Y-27662900D01*
X12724300Y-67163900D02*
X3137400Y-67163900D01*
X2632000Y-28478000D02*
X3582500Y-27527500D01*
X4888400Y-27527500D02*
X3582500Y-27527500D01*
X5227900Y-17654400D02*
X5227900Y-22930700D01*
X5227900Y-22930700D02*
X4888400Y-23270200D01*
X4888400Y-23270200D02*
X4888400Y-27527500D01*
X14467900Y-8342900D02*
X14467900Y-8414400D01*
D22*
%TO.N,AGND_SENSE*%
X74281500Y-64080000D02*
X93000000Y-64080000D01*
X25870400Y-47523400D02*
X36703700Y-58356700D01*
X36703700Y-58356700D02*
X58217300Y-58356700D01*
X58217300Y-58356700D02*
X60850600Y-60990000D01*
X9924500Y-21408600D02*
X8980500Y-22352600D01*
X71191500Y-60990000D02*
X74281500Y-64080000D01*
X60850600Y-60990000D02*
X71191500Y-60990000D01*
X32871700Y-20187800D02*
X31650900Y-21408600D01*
X31650900Y-21408600D02*
X9924500Y-21408600D01*
%TO.N,AIN1*%
X39759700Y-21860300D02*
X10533600Y-21860300D01*
X40000000Y-21620000D02*
X39759700Y-21860300D01*
X10533600Y-21860300D02*
X8998400Y-23395500D01*
%TO.N,AIN2*%
X38880700Y-23040700D02*
X18421800Y-23040700D01*
X40000000Y-24160000D02*
X38880700Y-23040700D01*
%TO.N,AIN2_IN*%
X17073300Y-6500000D02*
X17073300Y-5920800D01*
X18000000Y-6500000D02*
X17073300Y-6500000D01*
X17073300Y-5920800D02*
X16406600Y-5254100D01*
X10829100Y-5864100D02*
X10829100Y-6531800D01*
X11439100Y-5254100D02*
X10829100Y-5864100D01*
X16406600Y-5254100D02*
X11439100Y-5254100D01*
%TO.N,AIN3*%
X38243800Y-24943800D02*
X40000000Y-26700000D01*
X30784600Y-25365800D02*
X31206600Y-24943800D01*
X13669500Y-25365800D02*
X20470000Y-25365800D01*
X31206600Y-24943800D02*
X38243800Y-24943800D01*
X10791900Y-22488200D02*
X13669500Y-25365800D01*
X20470000Y-25365800D02*
X30784600Y-25365800D01*
%TO.N,AIN4*%
X40000000Y-29240000D02*
X36796900Y-29240000D01*
X36796900Y-29240000D02*
X35462400Y-30574500D01*
%TO.N,AIN_SP1*%
X58665100Y-55910000D02*
X61147300Y-58392200D01*
X61147300Y-58392200D02*
X91215500Y-58392200D01*
X91215500Y-58392200D02*
X91823300Y-59000000D01*
X93000000Y-59000000D02*
X91823300Y-59000000D01*
X36136200Y-55910000D02*
X58665100Y-55910000D01*
X27275800Y-47049600D02*
X36136200Y-55910000D01*
%TO.N,AIN_SP2*%
X81319700Y-48198300D02*
X82931400Y-49810000D01*
X39069200Y-38130000D02*
X51276700Y-38130000D01*
X37995000Y-37055800D02*
X39069200Y-38130000D01*
X51276700Y-38130000D02*
X61345000Y-48198300D01*
X94659500Y-51060600D02*
X94659500Y-59880500D01*
X93408900Y-49810000D02*
X94659500Y-51060600D01*
X61345000Y-48198300D02*
X81319700Y-48198300D01*
X82931400Y-49810000D02*
X93408900Y-49810000D01*
X94659500Y-59880500D02*
X93000000Y-61540000D01*
%TO.N,AUX_A*%
X60844500Y-42202600D02*
X60844500Y-45150200D01*
X70958300Y-30440500D02*
X70958300Y-16507800D01*
X68000000Y-13549500D02*
X68000000Y-6500000D01*
X67412500Y-33986300D02*
X70958300Y-30440500D01*
X62377100Y-40670000D02*
X60844500Y-42202600D01*
X70958300Y-16507800D02*
X68000000Y-13549500D01*
X67412500Y-33986300D02*
X67412500Y-36524600D01*
X67412500Y-36524600D02*
X63267100Y-40670000D01*
X60844500Y-45150200D02*
X60419900Y-45574800D01*
X63267100Y-40670000D02*
X62377100Y-40670000D01*
%TO.N,AUX_B*%
X74975000Y-27653600D02*
X73604900Y-26283500D01*
X73604900Y-26283500D02*
X73604900Y-15388200D01*
X73604900Y-15388200D02*
X70000000Y-11783300D01*
X70000000Y-6500000D02*
X70000000Y-7701700D01*
X74975000Y-28561000D02*
X74975000Y-27653600D01*
X70000000Y-11783300D02*
X70000000Y-7701700D01*
%TO.N,CAN2_INT*%
X60155600Y-54475600D02*
X62860000Y-57180000D01*
X63254200Y-27970000D02*
X62371400Y-27970000D01*
X60155600Y-52225500D02*
X60155600Y-54475600D01*
X62371400Y-27970000D02*
X61331400Y-29010000D01*
X65858700Y-25365500D02*
X63254200Y-27970000D01*
X65858700Y-16093300D02*
X65858700Y-25365500D01*
X61331400Y-29010000D02*
X61331400Y-29927100D01*
%TO.N,CAN2_MISO*%
X69364200Y-17217400D02*
X67321600Y-19260000D01*
X67321600Y-19260000D02*
X67321600Y-24778400D01*
X67321600Y-24778400D02*
X62860000Y-29240000D01*
%TO.N,CAN2_MOSI*%
X70238700Y-18376300D02*
X69582700Y-19032300D01*
X69582700Y-19032300D02*
X69582700Y-25057300D01*
X69582700Y-25057300D02*
X62860000Y-31780000D01*
%TO.N,CAN2_SCK*%
X70270500Y-26909500D02*
X62860000Y-34320000D01*
X70270500Y-20922500D02*
X70270500Y-26909500D01*
%TO.N,CANH_T*%
X29366700Y-56660700D02*
X21601800Y-56660700D01*
X30226800Y-55800600D02*
X29366700Y-56660700D01*
%TO.N,CANL_T*%
X29154700Y-57568600D02*
X21708800Y-57568600D01*
%TO.N,CAN_H*%
X4000000Y-62000000D02*
X4000000Y-62926700D01*
X29387500Y-66385500D02*
X42256400Y-79254400D01*
X29387500Y-63624800D02*
X29387500Y-66385500D01*
X42256400Y-79254400D02*
X43080900Y-79254400D01*
X5624800Y-63624800D02*
X4926700Y-62926700D01*
X29387500Y-63567400D02*
X29387500Y-63624800D01*
X29387500Y-63624800D02*
X5624800Y-63624800D01*
X4926700Y-62926700D02*
X4000000Y-62926700D01*
%TO.N,CAN_L*%
X22407600Y-60000000D02*
X23075500Y-60667900D01*
X4000000Y-60000000D02*
X22407600Y-60000000D01*
X33920200Y-67187500D02*
X29641400Y-62908700D01*
X33920200Y-70222600D02*
X33920200Y-67187500D01*
X45420900Y-76985400D02*
X40683000Y-76985400D01*
X29641400Y-62908700D02*
X25316300Y-62908700D01*
X40683000Y-76985400D02*
X33920200Y-70222600D01*
X25316300Y-62908700D02*
X23075500Y-60667900D01*
%TO.N,I2C_SCL*%
X40000000Y-49560000D02*
X40699200Y-50259200D01*
X53140900Y-50830000D02*
X52737500Y-50426600D01*
X40699200Y-50259200D02*
X52570100Y-50259200D01*
X93000000Y-53620000D02*
X90210000Y-50830000D01*
X8082100Y-17596900D02*
X7648300Y-18030700D01*
X33205400Y-17712500D02*
X33089800Y-17596900D01*
X52570100Y-50259200D02*
X52737500Y-50426600D01*
X33089800Y-17596900D02*
X8082100Y-17596900D01*
X90210000Y-50830000D02*
X53140900Y-50830000D01*
%TO.N,I2C_SDA*%
X37368300Y-32675400D02*
X37368300Y-48618700D01*
X34293900Y-20443200D02*
X40489200Y-20443200D01*
X39627000Y-30416700D02*
X37368300Y-32675400D01*
X40000000Y-52100000D02*
X40424800Y-51675200D01*
X93528200Y-54811300D02*
X66596300Y-54811300D01*
X37368300Y-48618700D02*
X40424800Y-51675200D01*
X48720300Y-51591200D02*
X48015000Y-50885900D01*
X41309500Y-50885900D02*
X48015000Y-50885900D01*
X32852100Y-19001400D02*
X31935300Y-18084600D01*
X66596300Y-54811300D02*
X65155000Y-53370000D01*
X40424800Y-51675200D02*
X40520200Y-51675200D01*
X40520200Y-51675200D02*
X41309500Y-50885900D01*
X11403200Y-18084600D02*
X9548400Y-19939400D01*
X31935300Y-18084600D02*
X11403200Y-18084600D01*
X94184600Y-52264600D02*
X94184600Y-54154900D01*
X40535100Y-30416700D02*
X39627000Y-30416700D01*
X41184200Y-29767600D02*
X40535100Y-30416700D01*
X94184600Y-54154900D02*
X93528200Y-54811300D01*
X41184200Y-21138200D02*
X41184200Y-29767600D01*
X93000000Y-51080000D02*
X94184600Y-52264600D01*
X65155000Y-53370000D02*
X62210100Y-53370000D01*
X40489200Y-20443200D02*
X41184200Y-21138200D01*
X60431300Y-51591200D02*
X48720300Y-51591200D01*
X32852100Y-19001400D02*
X34293900Y-20443200D01*
X40424800Y-51675200D02*
X40520200Y-51675200D01*
X62210100Y-53370000D02*
X60431300Y-51591200D01*
%TO.N,K_TX_D*%
X78090000Y-45015200D02*
X70275400Y-45015200D01*
X70275400Y-45015200D02*
X69777600Y-45513000D01*
D21*
%TO.N,OBD_VBAT_F*%
X74628200Y-15351200D02*
X70741700Y-11464700D01*
X80487900Y-32200100D02*
X74628200Y-26340400D01*
X80487900Y-43747600D02*
X80487900Y-32200100D01*
X74628200Y-26340400D02*
X74628200Y-15351200D01*
D22*
%TO.N,PWR_FAIL*%
X40000000Y-31780000D02*
X41920800Y-29859200D01*
X41920800Y-29859200D02*
X42094600Y-29859200D01*
%TO.N,PWR_LED_K*%
X48403700Y-49478800D02*
X48344800Y-49419900D01*
X52098000Y-49478800D02*
X48403700Y-49478800D01*
D21*
%TO.N,SCAP_MID*%
X72025000Y-72275000D02*
X77475000Y-72275000D01*
D22*
%TO.N,SD_CLK_C*%
X31519100Y-81919700D02*
X24862200Y-75262800D01*
X18384100Y-72641400D02*
X13249200Y-72641400D01*
X22356000Y-76613300D02*
X18384100Y-72641400D01*
X22356000Y-76613300D02*
X23511700Y-76613300D01*
X18517800Y-80956300D02*
X22356000Y-77118100D01*
X23511700Y-76613300D02*
X24862200Y-75262800D01*
X22356000Y-77118100D02*
X22356000Y-76613300D01*
X18203300Y-80956300D02*
X18517800Y-80956300D01*
X40642700Y-81919700D02*
X31519100Y-81919700D01*
%TO.N,SD_CMD_C*%
X29937500Y-81770000D02*
X29146300Y-82561200D01*
X31097100Y-82929600D02*
X44215600Y-82929600D01*
X29146300Y-82561200D02*
X16123200Y-82561200D01*
X29937500Y-81770000D02*
X31097100Y-82929600D01*
X44215600Y-82929600D02*
X45500000Y-84214000D01*
%TO.N,SD_D0_C*%
X18622300Y-79939100D02*
X18069600Y-79386400D01*
X18069600Y-79386300D02*
X17545500Y-79386300D01*
X18069600Y-79386400D02*
X18069600Y-79386300D01*
X17545500Y-79386300D02*
X16912800Y-78753600D01*
%TO.N,SD_D1_C*%
X12212500Y-67951200D02*
X11114700Y-69049000D01*
X11114700Y-69049000D02*
X11114700Y-72533700D01*
X15358300Y-75939600D02*
X19428900Y-75939600D01*
X12856600Y-73437900D02*
X15358300Y-75939600D01*
X11114700Y-72533700D02*
X12018900Y-73437900D01*
X19428900Y-75939600D02*
X20727600Y-77238300D01*
X12018900Y-73437900D02*
X12856600Y-73437900D01*
%TO.N,SD_D2_C*%
X13375000Y-84133500D02*
X13633100Y-84133500D01*
X18857100Y-81917400D02*
X23485000Y-77289500D01*
X13633100Y-84133500D02*
X15849200Y-81917400D01*
X15849200Y-81917400D02*
X18857100Y-81917400D01*
%TO.N,SD_D3_C*%
X14849600Y-78217900D02*
X14849600Y-82030300D01*
X16350500Y-76717000D02*
X14849600Y-78217900D01*
%TO.N,SD_EN_G*%
X11796700Y-72329500D02*
X15271800Y-68854400D01*
X15271800Y-68854400D02*
X23500900Y-68854400D01*
%TO.N,SD_PWR_EN*%
X38728100Y-66070000D02*
X44575900Y-66070000D01*
X44575900Y-66070000D02*
X50340100Y-60305800D01*
X34697800Y-70100300D02*
X38728100Y-66070000D01*
X50340100Y-60305800D02*
X56816700Y-60305800D01*
%TO.N,SENS_RTN*%
X20000000Y-7875000D02*
X22000000Y-7875000D01*
%TO.N,VBAT_SNS*%
X50088800Y-64662000D02*
X52628400Y-64662000D01*
X52628400Y-64662000D02*
X53497400Y-65531000D01*
%TD*%
M02*
