M48
; DRILL file {KiCad 9.0.5} date 2026-08-13T00:10:20-0400
; FORMAT={-:-/ absolute / metric / decimal}
; #@! TF.CreationDate,2026-08-13T00:10:20-04:00
; #@! TF.GenerationSoftware,Kicad,Pcbnew,9.0.5
; #@! TF.FileFunction,Plated,1,4,PTH
FMAT,2
METRIC
; #@! TA.AperFunction,Plated,PTH,ViaDrill
T1C0.250
; #@! TA.AperFunction,Plated,PTH,ViaDrill
T2C0.300
; #@! TA.AperFunction,Plated,PTH,ViaDrill
T3C0.400
; #@! TA.AperFunction,Plated,PTH,ComponentDrill
T4C0.750
; #@! TA.AperFunction,Plated,PTH,ComponentDrill
T5C0.800
; #@! TA.AperFunction,Plated,PTH,ComponentDrill
T6C1.000
%
G90
G05
T1
X11.1Y-69.725
T2
X5.642Y-21.054
X6.037Y-70.874
X8.654Y-22.354
X8.752Y-70.874
X8.953Y-23.384
X9.612Y-19.876
X10.187Y-79.996
X12.475Y-90.899
X13.08Y-10.894
X13.223Y-60.673
X13.386Y-73.024
X13.575Y-89.56
X15.318Y-74.186
X15.996Y-76.137
X16.406Y-59.41
X16.622Y-72.096
X16.762Y-90.791
X16.917Y-77.827
X17.782Y-25.15
X17.839Y-90.899
X18.602Y-64.382
X19.075Y-89.102
X19.293Y-46.179
X20.0Y-7.875
X21.165Y-78.676
X21.69Y-57.317
X22.0Y-7.875
X23.102Y-49.817
X24.397Y-79.86
X25.087Y-62.888
X27.109Y-25.881
X27.111Y-70.645
X27.662Y-85.191
X28.112Y-72.876
X28.657Y-76.717
X29.008Y-85.565
X29.166Y-59.812
X29.287Y-57.317
X29.969Y-66.07
X31.225Y-64.382
X31.4Y-59.329
X32.251Y-18.261
X32.861Y-20.262
X32.878Y-72.876
X33.23Y-75.263
X33.572Y-70.549
X34.105Y-17.792
X34.459Y-63.619
X36.253Y-62.55
X36.389Y-30.907
X36.785Y-30.165
X37.156Y-59.923
X37.961Y-69.528
X38.614Y-59.156
X38.751Y-38.571
X42.185Y-37.564
X42.204Y-31.78
X44.485Y-38.364
X48.927Y-53.032
X49.357Y-69.923
X49.87Y-50.678
X52.814Y-53.028
X53.471Y-63.619
X57.592Y-62.574
X65.758Y-18.05
X66.198Y-32.645
X66.671Y-22.173
X67.423Y-38.172
X69.055Y-18.69
X69.229Y-34.32
X70.133Y-16.506
X70.885Y-29.779
X70.966Y-33.133
X71.744Y-44.789
X74.136Y-25.116
X74.831Y-33.803
X75.712Y-60.631
X76.668Y-59.267
X79.688Y-47.226
X82.985Y-49.164
X83.025Y-33.472
X83.532Y-19.127
X83.954Y-27.364
X85.385Y-51.564
X86.136Y-58.963
X87.147Y-47.228
T3
X3.641Y-24.517
X4.23Y-18.725
X4.23Y-19.725
X5.47Y-25.057
X5.675Y-23.905
X8.105Y-23.675
X8.105Y-25.575
X8.63Y-19.725
X8.775Y-69.725
X9.275Y-14.775
X9.275Y-45.775
X9.425Y-28.755
X9.44Y-36.025
X11.705Y-44.775
X11.705Y-46.675
X12.0Y-7.875
X12.63Y-74.275
X13.155Y-18.725
X13.155Y-20.625
X13.25Y-49.925
X13.775Y-69.725
X14.0Y-7.875
X14.441Y-24.418
X14.53Y-30.535
X14.675Y-93.725
X16.725Y-56.09
X17.435Y-45.005
X17.494Y-66.625
X18.07Y-72.196
X18.135Y-74.475
X18.175Y-14.775
X18.375Y-69.725
X20.54Y-69.725
X21.04Y-62.95
X21.255Y-70.675
X21.675Y-58.63
X21.994Y-45.575
X22.055Y-18.725
X22.055Y-20.625
X22.435Y-74.305
X23.341Y-24.418
X23.43Y-30.535
X23.575Y-81.55
X25.135Y-16.34
X25.391Y-55.617
X25.94Y-44.975
X26.015Y-70.675
X27.075Y-14.775
X27.341Y-55.617
X28.725Y-62.25
X29.241Y-55.617
X29.819Y-70.014
X30.341Y-24.517
X30.93Y-18.725
X30.93Y-19.725
X31.599Y-79.514
X32.223Y-64.8
X32.375Y-23.905
X33.475Y-84.275
X34.805Y-23.675
X34.805Y-25.575
X35.33Y-19.725
X35.975Y-14.775
X36.125Y-28.755
X36.14Y-36.025
X36.325Y-61.48
X42.269Y-69.518
X42.325Y-84.275
X43.799Y-20.864
X44.425Y-44.525
X44.425Y-48.275
X44.755Y-66.775
X44.755Y-68.675
X45.994Y-52.425
X46.464Y-16.125
X47.231Y-45.225
X47.231Y-48.975
X47.609Y-52.864
X49.191Y-44.968
X50.351Y-15.617
X50.351Y-67.617
X50.375Y-26.3
X51.091Y-44.968
X51.091Y-48.718
X51.099Y-30.47
X51.325Y-33.525
X51.419Y-52.864
X51.453Y-16.34
X53.041Y-48.718
X54.941Y-44.968
X54.941Y-48.718
X56.125Y-28.775
X56.125Y-39.775
X58.1Y-14.975
X58.1Y-66.975
X58.88Y-48.075
X60.125Y-44.525
X65.421Y-26.983
X67.412Y-64.723
X68.255Y-45.675
X68.725Y-20.415
X68.725Y-24.7
X68.832Y-25.89
X69.494Y-39.935
X72.281Y-59.375
X72.565Y-43.775
X72.565Y-45.675
X73.04Y-31.935
X73.304Y-49.425
X73.675Y-12.795
X73.675Y-27.24
X74.294Y-62.075
X75.221Y-24.997
X75.491Y-13.617
X77.391Y-13.617
X77.391Y-24.227
X79.341Y-13.617
X79.341Y-24.227
X80.441Y-60.617
X80.725Y-30.385
X80.725Y-31.235
X81.06Y-48.825
X81.241Y-24.227
X81.375Y-13.005
X82.091Y-36.027
X85.325Y-32.085
X85.9Y-68.975
X85.941Y-36.027
X89.925Y-35.415
T4
X4.0Y-60.0
X4.0Y-62.0
X4.0Y-64.0
X4.0Y-66.0
X12.0Y-6.5
X14.0Y-6.5
X16.0Y-6.5
X18.0Y-6.5
X20.0Y-6.5
X22.0Y-6.5
X24.0Y-6.5
X26.0Y-6.5
X28.0Y-6.5
X30.0Y-6.5
X68.0Y-6.5
X70.0Y-6.5
X72.0Y-6.5
X74.0Y-6.5
T5
X72.0Y-92.0
X75.5Y-92.0
X83.0Y-92.0
X86.5Y-92.0
T6
X40.0Y-14.0
X40.0Y-16.54
X40.0Y-19.08
X40.0Y-21.62
X40.0Y-24.16
X40.0Y-26.7
X40.0Y-29.24
X40.0Y-31.78
X40.0Y-34.32
X40.0Y-36.86
X40.0Y-39.4
X40.0Y-41.94
X40.0Y-44.48
X40.0Y-47.02
X40.0Y-49.56
X40.0Y-52.1
X40.0Y-54.64
X40.0Y-57.18
X40.0Y-59.72
X40.0Y-62.26
X40.0Y-64.8
X40.0Y-67.34
X62.86Y-14.0
X62.86Y-16.54
X62.86Y-19.08
X62.86Y-21.62
X62.86Y-24.16
X62.86Y-26.7
X62.86Y-29.24
X62.86Y-31.78
X62.86Y-34.32
X62.86Y-36.86
X62.86Y-39.4
X62.86Y-41.94
X62.86Y-44.48
X62.86Y-47.02
X62.86Y-49.56
X62.86Y-52.1
X62.86Y-54.64
X62.86Y-57.18
X62.86Y-59.72
X62.86Y-62.26
X62.86Y-64.8
X62.86Y-67.34
X93.0Y-20.0
X93.0Y-22.54
X93.0Y-25.08
X93.0Y-33.0
X93.0Y-35.54
X93.0Y-38.08
X93.0Y-40.62
X93.0Y-46.0
X93.0Y-48.54
X93.0Y-51.08
X93.0Y-53.62
X93.0Y-59.0
X93.0Y-61.54
X93.0Y-64.08
X93.0Y-66.62
M30
