M48
; DRILL file {KiCad 9.0.5} date 2026-08-13T08:27:33-0400
; FORMAT={-:-/ absolute / metric / decimal}
; #@! TF.CreationDate,2026-08-13T08:27:33-04:00
; #@! TF.GenerationSoftware,Kicad,Pcbnew,9.0.5
; #@! TF.FileFunction,Plated,1,4,PTH
FMAT,2
METRIC
; #@! TA.AperFunction,Plated,PTH,ViaDrill
T1C0.250
; #@! TA.AperFunction,Plated,PTH,ViaDrill
T2C0.300
; #@! TA.AperFunction,Plated,PTH,ViaDrill
T3C0.400
; #@! TA.AperFunction,Plated,PTH,ComponentDrill
T4C0.750
; #@! TA.AperFunction,Plated,PTH,ComponentDrill
T5C0.800
; #@! TA.AperFunction,Plated,PTH,ComponentDrill
T6C1.000
%
G90
G05
T1
X16.05Y-69.725
T2
X3.525Y-40.222
X7.384Y-71.899
X8.461Y-77.028
X8.723Y-72.542
X8.8Y-22.825
X8.873Y-68.124
X9.061Y-23.693
X9.257Y-21.315
X9.524Y-66.925
X9.799Y-18.99
X10.85Y-72.096
X11.675Y-25.98
X11.877Y-81.606
X12.425Y-10.894
X12.43Y-58.77
X12.857Y-77.809
X14.792Y-64.516
X17.328Y-25.98
X18.713Y-76.154
X18.787Y-18.8
X20.0Y-7.875
X20.548Y-79.708
X21.372Y-77.888
X22.0Y-7.875
X22.99Y-53.579
X24.279Y-75.844
X24.839Y-75.261
X26.095Y-28.394
X26.142Y-49.061
X26.668Y-48.186
X26.887Y-67.981
X27.236Y-28.002
X27.322Y-65.503
X28.112Y-72.849
X28.174Y-82.271
X29.695Y-81.82
X32.21Y-21.315
X32.431Y-19.146
X32.5Y-22.125
X33.091Y-59.704
X33.225Y-30.009
X34.197Y-76.514
X35.656Y-67.118
X35.661Y-66.227
X36.69Y-66.992
X38.093Y-28.714
X41.827Y-54.725
X43.429Y-75.845
X48.927Y-55.275
X49.925Y-77.075
X51.581Y-50.669
X54.237Y-46.036
X57.646Y-60.99
X59.11Y-49.883
X59.526Y-48.705
X64.674Y-17.802
X65.573Y-20.927
X66.582Y-28.057
X67.025Y-37.595
X68.108Y-28.667
X69.105Y-15.629
X70.794Y-21.275
X74.387Y-40.788
X74.783Y-26.439
X79.688Y-33.124
X83.324Y-28.432
X84.017Y-54.315
T3
X1.473Y-32.486
X1.473Y-83.8
X2.878Y-26.257
X3.641Y-24.517
X4.23Y-18.725
X4.23Y-19.725
X5.675Y-23.905
X8.105Y-23.675
X8.105Y-25.575
X8.63Y-19.725
X8.775Y-69.725
X9.275Y-14.775
X9.275Y-45.775
X9.425Y-28.755
X9.44Y-36.025
X11.705Y-44.775
X11.705Y-46.675
X12.0Y-7.875
X12.63Y-74.275
X13.155Y-18.725
X13.155Y-20.625
X13.25Y-49.925
X13.375Y-69.725
X14.0Y-7.875
X14.441Y-24.418
X14.53Y-30.535
X14.675Y-93.725
X16.725Y-56.09
X16.833Y-57.088
X17.435Y-45.005
X17.494Y-66.625
X18.135Y-74.475
X18.175Y-14.775
X18.375Y-69.725
X20.184Y-75.632
X21.04Y-62.95
X21.255Y-70.675
X21.554Y-54.125
X21.675Y-58.63
X21.994Y-45.575
X22.055Y-18.725
X22.055Y-20.625
X22.435Y-74.305
X22.906Y-68.911
X23.341Y-24.418
X23.43Y-30.535
X23.575Y-81.55
X25.391Y-55.617
X25.94Y-44.975
X26.015Y-70.675
X27.075Y-14.775
X27.341Y-55.617
X28.725Y-62.25
X29.241Y-55.617
X29.725Y-30.439
X29.819Y-70.014
X30.341Y-24.517
X30.93Y-18.725
X30.93Y-19.725
X31.599Y-79.514
X32.375Y-23.905
X33.475Y-84.275
X34.805Y-23.675
X34.805Y-25.575
X35.175Y-82.877
X35.33Y-19.725
X35.975Y-14.775
X36.125Y-28.755
X36.14Y-36.025
X36.325Y-61.48
X38.14Y-77.803
X42.325Y-84.275
X43.799Y-20.864
X44.425Y-44.525
X44.425Y-48.275
X44.755Y-66.775
X44.755Y-68.675
X45.994Y-52.425
X46.305Y-66.805
X46.464Y-16.125
X47.231Y-45.225
X47.231Y-48.975
X47.609Y-52.864
X49.191Y-44.968
X50.351Y-15.617
X50.351Y-67.617
X50.375Y-25.034
X51.091Y-44.968
X51.091Y-48.718
X51.325Y-33.525
X51.419Y-52.864
X52.175Y-45.807
X53.041Y-48.718
X54.941Y-44.968
X54.941Y-48.718
X56.125Y-28.775
X56.125Y-39.775
X56.555Y-49.723
X58.1Y-14.975
X58.1Y-66.975
X58.88Y-48.075
X60.125Y-44.525
X60.734Y-59.774
X64.807Y-49.865
X64.807Y-67.307
X68.255Y-45.675
X68.725Y-20.415
X68.725Y-24.7
X69.494Y-39.935
X72.281Y-59.375
X72.565Y-43.775
X72.565Y-45.675
X73.04Y-31.935
X73.304Y-49.425
X73.675Y-12.795
X73.675Y-27.24
X74.294Y-62.075
X74.644Y-47.094
X75.491Y-13.617
X77.391Y-13.617
X77.391Y-24.227
X79.341Y-13.617
X79.341Y-24.227
X80.441Y-60.617
X80.725Y-30.385
X80.725Y-31.235
X81.06Y-48.825
X81.241Y-24.227
X81.375Y-13.005
X82.091Y-36.027
X85.325Y-32.085
X85.9Y-78.425
X85.941Y-36.027
X89.925Y-35.415
T4
X4.0Y-60.0
X4.0Y-62.0
X4.0Y-64.0
X4.0Y-66.0
X12.0Y-6.5
X14.0Y-6.5
X16.0Y-6.5
X18.0Y-6.5
X20.0Y-6.5
X22.0Y-6.5
X24.0Y-6.5
X26.0Y-6.5
X28.0Y-6.5
X30.0Y-6.5
X68.0Y-6.5
X70.0Y-6.5
X72.0Y-6.5
X74.0Y-6.5
T5
X68.525Y-72.275
X72.025Y-72.275
X77.475Y-72.275
X80.975Y-72.275
T6
X40.0Y-14.0
X40.0Y-16.54
X40.0Y-19.08
X40.0Y-21.62
X40.0Y-24.16
X40.0Y-26.7
X40.0Y-29.24
X40.0Y-31.78
X40.0Y-34.32
X40.0Y-36.86
X40.0Y-39.4
X40.0Y-41.94
X40.0Y-44.48
X40.0Y-47.02
X40.0Y-49.56
X40.0Y-52.1
X40.0Y-54.64
X40.0Y-57.18
X40.0Y-59.72
X40.0Y-62.26
X40.0Y-64.8
X40.0Y-67.34
X62.86Y-14.0
X62.86Y-16.54
X62.86Y-19.08
X62.86Y-21.62
X62.86Y-24.16
X62.86Y-26.7
X62.86Y-29.24
X62.86Y-31.78
X62.86Y-34.32
X62.86Y-36.86
X62.86Y-39.4
X62.86Y-41.94
X62.86Y-44.48
X62.86Y-47.02
X62.86Y-49.56
X62.86Y-52.1
X62.86Y-54.64
X62.86Y-57.18
X62.86Y-59.72
X62.86Y-62.26
X62.86Y-64.8
X62.86Y-67.34
X93.0Y-20.0
X93.0Y-22.54
X93.0Y-25.08
X93.0Y-33.0
X93.0Y-35.54
X93.0Y-38.08
X93.0Y-40.62
X93.0Y-46.0
X93.0Y-48.54
X93.0Y-51.08
X93.0Y-53.62
X93.0Y-59.0
X93.0Y-61.54
X93.0Y-64.08
X93.0Y-66.62
M30
