%TF.GenerationSoftware,KiCad,Pcbnew,9.0.5*%
%TF.CreationDate,2026-08-14T08:38:23-04:00*%
%TF.ProjectId,esp32s3-can-sd-logger,65737033-3273-4332-9d63-616e2d73642d,rev?*%
%TF.SameCoordinates,Original*%
%TF.FileFunction,Copper,L1,Top*%
%TF.FilePolarity,Positive*%
%FSLAX46Y46*%
G04 Gerber Fmt 4.6, Leading zero omitted, Abs format (unit mm)*
G04 Created by KiCad (PCBNEW 9.0.5) date 2026-08-14 08:38:23*
%MOMM*%
%LPD*%
G01*
G04 APERTURE LIST*
G04 Aperture macros list*
%AMRoundRect*
0 Rectangle with rounded corners*
0 $1 Rounding radius*
0 $2 $3 $4 $5 $6 $7 $8 $9 X,Y pos of 4 corners*
0 Add a 4 corners polygon primitive as box body*
4,1,4,$2,$3,$4,$5,$6,$7,$8,$9,$2,$3,0*
0 Add four circle primitives for the rounded corners*
1,1,$1+$1,$2,$3*
1,1,$1+$1,$4,$5*
1,1,$1+$1,$6,$7*
1,1,$1+$1,$8,$9*
0 Add four rect primitives between the rounded corners*
20,1,$1+$1,$2,$3,$4,$5,0*
20,1,$1+$1,$4,$5,$6,$7,0*
20,1,$1+$1,$6,$7,$8,$9,0*
20,1,$1+$1,$8,$9,$2,$3,0*%
G04 Aperture macros list end*
%TA.AperFunction,EtchedComponent*%
%ADD10C,0.000000*%
%TD*%
%TA.AperFunction,SMDPad,CuDef*%
%ADD11RoundRect,0.250000X-0.250000X-0.475000X0.250000X-0.475000X0.250000X0.475000X-0.250000X0.475000X0*%
%TD*%
%TA.AperFunction,SMDPad,CuDef*%
%ADD12RoundRect,0.250000X-0.312500X-1.450000X0.312500X-1.450000X0.312500X1.450000X-0.312500X1.450000X0*%
%TD*%
%TA.AperFunction,SMDPad,CuDef*%
%ADD13RoundRect,0.150000X-0.587500X-0.150000X0.587500X-0.150000X0.587500X0.150000X-0.587500X0.150000X0*%
%TD*%
%TA.AperFunction,SMDPad,CuDef*%
%ADD14RoundRect,0.250000X-0.262500X-0.450000X0.262500X-0.450000X0.262500X0.450000X-0.262500X0.450000X0*%
%TD*%
%TA.AperFunction,SMDPad,CuDef*%
%ADD15RoundRect,0.243750X-0.243750X-0.456250X0.243750X-0.456250X0.243750X0.456250X-0.243750X0.456250X0*%
%TD*%
%TA.AperFunction,ComponentPad*%
%ADD16R,1.700000X1.700000*%
%TD*%
%TA.AperFunction,ComponentPad*%
%ADD17C,1.700000*%
%TD*%
%TA.AperFunction,SMDPad,CuDef*%
%ADD18R,1.000000X1.500000*%
%TD*%
%TA.AperFunction,SMDPad,CuDef*%
%ADD19RoundRect,0.250000X-1.000000X-0.650000X1.000000X-0.650000X1.000000X0.650000X-1.000000X0.650000X0*%
%TD*%
%TA.AperFunction,SMDPad,CuDef*%
%ADD20C,1.500000*%
%TD*%
%TA.AperFunction,SMDPad,CuDef*%
%ADD21RoundRect,0.250000X-0.325000X-0.650000X0.325000X-0.650000X0.325000X0.650000X-0.325000X0.650000X0*%
%TD*%
%TA.AperFunction,SMDPad,CuDef*%
%ADD22RoundRect,0.075000X-0.650000X-0.075000X0.650000X-0.075000X0.650000X0.075000X-0.650000X0.075000X0*%
%TD*%
%TA.AperFunction,SMDPad,CuDef*%
%ADD23RoundRect,0.150000X-0.825000X-0.150000X0.825000X-0.150000X0.825000X0.150000X-0.825000X0.150000X0*%
%TD*%
%TA.AperFunction,SMDPad,CuDef*%
%ADD24RoundRect,0.150000X-0.512500X-0.150000X0.512500X-0.150000X0.512500X0.150000X-0.512500X0.150000X0*%
%TD*%
%TA.AperFunction,SMDPad,CuDef*%
%ADD25R,1.350000X0.900000*%
%TD*%
%TA.AperFunction,ComponentPad*%
%ADD26RoundRect,0.250000X0.625000X-0.350000X0.625000X0.350000X-0.625000X0.350000X-0.625000X-0.350000X0*%
%TD*%
%TA.AperFunction,ComponentPad*%
%ADD27O,1.750000X1.200000*%
%TD*%
%TA.AperFunction,SMDPad,CuDef*%
%ADD28RoundRect,0.250000X-0.450000X-0.350000X0.450000X-0.350000X0.450000X0.350000X-0.450000X0.350000X0*%
%TD*%
%TA.AperFunction,SMDPad,CuDef*%
%ADD29RoundRect,0.250000X-0.312500X-0.625000X0.312500X-0.625000X0.312500X0.625000X-0.312500X0.625000X0*%
%TD*%
%TA.AperFunction,ComponentPad*%
%ADD30RoundRect,0.250000X-0.550000X-0.550000X0.550000X-0.550000X0.550000X0.550000X-0.550000X0.550000X0*%
%TD*%
%TA.AperFunction,ComponentPad*%
%ADD31C,1.600000*%
%TD*%
%TA.AperFunction,SMDPad,CuDef*%
%ADD32RoundRect,0.218750X-0.218750X-0.381250X0.218750X-0.381250X0.218750X0.381250X-0.218750X0.381250X0*%
%TD*%
%TA.AperFunction,SMDPad,CuDef*%
%ADD33R,0.700000X1.750000*%
%TD*%
%TA.AperFunction,SMDPad,CuDef*%
%ADD34R,1.450000X1.000000*%
%TD*%
%TA.AperFunction,SMDPad,CuDef*%
%ADD35R,1.000000X1.550000*%
%TD*%
%TA.AperFunction,SMDPad,CuDef*%
%ADD36R,0.800000X1.500000*%
%TD*%
%TA.AperFunction,SMDPad,CuDef*%
%ADD37R,1.300000X1.500000*%
%TD*%
%TA.AperFunction,SMDPad,CuDef*%
%ADD38R,1.500000X1.500000*%
%TD*%
%TA.AperFunction,SMDPad,CuDef*%
%ADD39R,0.800000X1.400000*%
%TD*%
%TA.AperFunction,ComponentPad*%
%ADD40RoundRect,0.250000X-0.350000X-0.625000X0.350000X-0.625000X0.350000X0.625000X-0.350000X0.625000X0*%
%TD*%
%TA.AperFunction,ComponentPad*%
%ADD41O,1.200000X1.750000*%
%TD*%
%TA.AperFunction,ViaPad*%
%ADD42C,0.600000*%
%TD*%
%TA.AperFunction,ViaPad*%
%ADD43C,0.500000*%
%TD*%
%TA.AperFunction,ViaPad*%
%ADD44C,0.800000*%
%TD*%
%TA.AperFunction,Conductor*%
%ADD45C,0.300000*%
%TD*%
%TA.AperFunction,Conductor*%
%ADD46C,0.550000*%
%TD*%
%TA.AperFunction,Conductor*%
%ADD47C,0.250000*%
%TD*%
G04 APERTURE END LIST*
D10*
%TA.AperFunction,EtchedComponent*%
%TO.C,JP4*%
G36*
X73375000Y-36557500D02*
G01*
X72875000Y-36557500D01*
X72875000Y-35957500D01*
X73375000Y-35957500D01*
X73375000Y-36557500D01*
G37*
%TD.AperFunction*%
%TD*%
D11*
%TO.P,C23,1*%
%TO.N,+3V3*%
X80075000Y-23672500D03*
%TO.P,C23,2*%
%TO.N,GND*%
X81975000Y-23672500D03*
%TD*%
D12*
%TO.P,PF3,1*%
%TO.N,+5V*%
X66837500Y-60975000D03*
%TO.P,PF3,2*%
%TO.N,LED_5V*%
X71112500Y-60975000D03*
%TD*%
D11*
%TO.P,C25,1*%
%TO.N,AIN1*%
X7325000Y-31155000D03*
%TO.P,C25,2*%
%TO.N,GND*%
X9225000Y-31155000D03*
%TD*%
D13*
%TO.P,D15,1*%
%TO.N,GND*%
X20817500Y-19525000D03*
%TO.P,D15,2*%
%TO.N,+3V3*%
X20817500Y-21425000D03*
%TO.P,D15,3*%
%TO.N,AIN3*%
X22692500Y-20475000D03*
%TD*%
D11*
%TO.P,C18,1*%
%TO.N,+3V3*%
X75425000Y-13005000D03*
%TO.P,C18,2*%
%TO.N,GND*%
X77325000Y-13005000D03*
%TD*%
D14*
%TO.P,R29,1*%
%TO.N,K_TX_G*%
X77212500Y-49625000D03*
%TO.P,R29,2*%
%TO.N,GND*%
X79037500Y-49625000D03*
%TD*%
%TO.P,R52,1*%
%TO.N,AIN4*%
X34102500Y-40025000D03*
%TO.P,R52,2*%
%TO.N,GND*%
X35927500Y-40025000D03*
%TD*%
D11*
%TO.P,C24,1*%
%TO.N,CAN2_SPLIT*%
X71425000Y-40995000D03*
%TO.P,C24,2*%
%TO.N,GND*%
X73325000Y-40995000D03*
%TD*%
D14*
%TO.P,R57,1*%
%TO.N,AIN_SP2*%
X31402500Y-44975000D03*
%TO.P,R57,2*%
%TO.N,GND*%
X33227500Y-44975000D03*
%TD*%
D15*
%TO.P,D4,1*%
%TO.N,PWR_LED_K*%
X52567500Y-54225000D03*
%TO.P,D4,2*%
%TO.N,+3V3*%
X54442500Y-54225000D03*
%TD*%
D16*
%TO.P,J4,1*%
%TO.N,GND*%
X62860000Y-14000000D03*
D17*
%TO.P,J4,2*%
%TO.N,N/C*%
X62860000Y-16540000D03*
%TO.P,J4,3*%
X62860000Y-19080000D03*
%TO.P,J4,4*%
%TO.N,K_RX*%
X62860000Y-21620000D03*
%TO.P,J4,5*%
%TO.N,K_TX*%
X62860000Y-24160000D03*
%TO.P,J4,6*%
%TO.N,CAN2_CS*%
X62860000Y-26700000D03*
%TO.P,J4,7*%
%TO.N,CAN2_MISO*%
X62860000Y-29240000D03*
%TO.P,J4,8*%
%TO.N,CAN2_MOSI*%
X62860000Y-31780000D03*
%TO.P,J4,9*%
%TO.N,CAN2_SCK*%
X62860000Y-34320000D03*
%TO.P,J4,10*%
%TO.N,N/C*%
X62860000Y-36860000D03*
%TO.P,J4,11*%
X62860000Y-39400000D03*
%TO.P,J4,12*%
X62860000Y-41940000D03*
%TO.P,J4,13*%
X62860000Y-44480000D03*
%TO.P,J4,14*%
X62860000Y-47020000D03*
%TO.P,J4,15*%
X62860000Y-49560000D03*
%TO.P,J4,16*%
%TO.N,LED_DIN_MCU*%
X62860000Y-52100000D03*
%TO.P,J4,17*%
%TO.N,SD_PWR_EN*%
X62860000Y-54640000D03*
%TO.P,J4,18*%
%TO.N,CAN2_INT*%
X62860000Y-57180000D03*
%TO.P,J4,19*%
%TO.N,N/C*%
X62860000Y-59720000D03*
%TO.P,J4,20*%
X62860000Y-62260000D03*
%TO.P,J4,21*%
%TO.N,GND*%
X62860000Y-64800000D03*
%TO.P,J4,22*%
X62860000Y-67340000D03*
%TD*%
D14*
%TO.P,R28,1*%
%TO.N,K_TX*%
X72602500Y-49625000D03*
%TO.P,R28,2*%
%TO.N,K_TX_G*%
X74427500Y-49625000D03*
%TD*%
D18*
%TO.P,JP4,1*%
%TO.N,K_LINE*%
X72475000Y-36257500D03*
%TO.P,JP4,2*%
%TO.N,AUX_A*%
X73775000Y-36257500D03*
%TO.P,JP4,3*%
%TO.N,CAN2_H_C*%
X75075000Y-36257500D03*
%TD*%
D19*
%TO.P,D12,1*%
%TO.N,AIN2_IN*%
X12425000Y-14775000D03*
%TO.P,D12,2*%
%TO.N,GND*%
X16425000Y-14775000D03*
%TD*%
D20*
%TO.P,TP9,1*%
%TO.N,CAN_L*%
X57275000Y-83275000D03*
%TD*%
D14*
%TO.P,R41,1*%
%TO.N,AIN2_IN*%
X16342500Y-25375000D03*
%TO.P,R41,2*%
%TO.N,AIN2_A*%
X18167500Y-25375000D03*
%TD*%
D20*
%TO.P,TP8,1*%
%TO.N,CAN_H*%
X53525000Y-83275000D03*
%TD*%
D16*
%TO.P,J6,1*%
%TO.N,LED_5V*%
X93000000Y-20000000D03*
D17*
%TO.P,J6,2*%
%TO.N,LED_DIN_J*%
X93000000Y-22540000D03*
%TO.P,J6,3*%
%TO.N,GND*%
X93000000Y-25080000D03*
%TD*%
D21*
%TO.P,C13,1*%
%TO.N,SD_VDD*%
X13460000Y-75750000D03*
%TO.P,C13,2*%
%TO.N,GND*%
X16410000Y-75750000D03*
%TD*%
D22*
%TO.P,U9,1*%
%TO.N,+3V3*%
X29705000Y-19525000D03*
%TO.P,U9,2*%
%TO.N,N/C*%
X29705000Y-20025000D03*
%TO.P,U9,3*%
%TO.N,GND*%
X29705000Y-20525000D03*
%TO.P,U9,4*%
%TO.N,AIN4*%
X29705000Y-21025000D03*
%TO.P,U9,5*%
%TO.N,AIN_SP1*%
X29705000Y-21525000D03*
%TO.P,U9,6*%
%TO.N,AIN_SP2*%
X34105000Y-21525000D03*
%TO.P,U9,7*%
%TO.N,AGND_SENSE*%
X34105000Y-21025000D03*
%TO.P,U9,8*%
%TO.N,+3V3*%
X34105000Y-20525000D03*
%TO.P,U9,9*%
%TO.N,I2C_SDA*%
X34105000Y-20025000D03*
%TO.P,U9,10*%
%TO.N,I2C_SCL*%
X34105000Y-19525000D03*
%TD*%
D14*
%TO.P,R16,1*%
%TO.N,SD_CLK*%
X23902500Y-75550000D03*
%TO.P,R16,2*%
%TO.N,SD_CLK_C*%
X25727500Y-75550000D03*
%TD*%
D20*
%TO.P,TP11,1*%
%TO.N,AUX_A*%
X27275000Y-87725000D03*
%TD*%
D19*
%TO.P,D18,1*%
%TO.N,SENS_RTN*%
X3525000Y-45775000D03*
%TO.P,D18,2*%
%TO.N,GND*%
X7525000Y-45775000D03*
%TD*%
D20*
%TO.P,TP10,1*%
%TO.N,K_LINE*%
X61025000Y-83275000D03*
%TD*%
D23*
%TO.P,U6,1*%
%TO.N,CAN2_TXD*%
X67250000Y-12795000D03*
%TO.P,U6,2*%
%TO.N,CAN2_RXD*%
X67250000Y-14065000D03*
%TO.P,U6,3*%
%TO.N,N/C*%
X67250000Y-15335000D03*
%TO.P,U6,4*%
%TO.N,CAN2_INT*%
X67250000Y-16605000D03*
%TO.P,U6,5*%
%TO.N,XTAL2*%
X67250000Y-17875000D03*
%TO.P,U6,6*%
%TO.N,XTAL1*%
X67250000Y-19145000D03*
%TO.P,U6,7*%
%TO.N,GND*%
X67250000Y-20415000D03*
%TO.P,U6,8*%
%TO.N,N/C*%
X72200000Y-20415000D03*
%TO.P,U6,9*%
X72200000Y-19145000D03*
%TO.P,U6,10*%
%TO.N,CAN2_SCK*%
X72200000Y-17875000D03*
%TO.P,U6,11*%
%TO.N,CAN2_MOSI*%
X72200000Y-16605000D03*
%TO.P,U6,12*%
%TO.N,CAN2_MISO*%
X72200000Y-15335000D03*
%TO.P,U6,13*%
%TO.N,CAN2_CS*%
X72200000Y-14065000D03*
%TO.P,U6,14*%
%TO.N,+3V3*%
X72200000Y-12795000D03*
%TD*%
D14*
%TO.P,R54,1*%
%TO.N,AGND_A*%
X2792500Y-50725000D03*
%TO.P,R54,2*%
%TO.N,AGND_SENSE*%
X4617500Y-50725000D03*
%TD*%
%TO.P,R21,1*%
%TO.N,SD_VDD*%
X18012500Y-80025000D03*
%TO.P,R21,2*%
%TO.N,SD_D1_C*%
X19837500Y-80025000D03*
%TD*%
D24*
%TO.P,U4,1*%
%TO.N,SD_D2_C*%
X14287500Y-69775000D03*
%TO.P,U4,2*%
%TO.N,GND*%
X14287500Y-70725000D03*
%TO.P,U4,3*%
%TO.N,SD_D3_C*%
X14287500Y-71675000D03*
%TO.P,U4,4*%
%TO.N,SD_CD*%
X16562500Y-71675000D03*
%TO.P,U4,5*%
%TO.N,+3V3*%
X16562500Y-70725000D03*
%TO.P,U4,6*%
%TO.N,N/C*%
X16562500Y-69775000D03*
%TD*%
D14*
%TO.P,R35,1*%
%TO.N,TERM2_A*%
X80702500Y-40965000D03*
%TO.P,R35,2*%
%TO.N,CAN2_SPLIT*%
X82527500Y-40965000D03*
%TD*%
D18*
%TO.P,JP9,1*%
%TO.N,+5VS*%
X29725000Y-31425000D03*
%TO.P,JP9,2*%
%TO.N,AIN4_PU*%
X31025000Y-31425000D03*
%TD*%
D21*
%TO.P,C10,1*%
%TO.N,+3V3*%
X43350000Y-45325000D03*
%TO.P,C10,2*%
%TO.N,GND*%
X46300000Y-45325000D03*
%TD*%
D12*
%TO.P,PF2,1*%
%TO.N,+5V*%
X43337500Y-28975000D03*
%TO.P,PF2,2*%
%TO.N,VSENS_F*%
X47612500Y-28975000D03*
%TD*%
D14*
%TO.P,R37,1*%
%TO.N,AIN1_IN*%
X2792500Y-35875000D03*
%TO.P,R37,2*%
%TO.N,AIN1_A*%
X4617500Y-35875000D03*
%TD*%
%TO.P,R42,1*%
%TO.N,AIN2_PU*%
X11692500Y-29585000D03*
%TO.P,R42,2*%
%TO.N,AIN2_A*%
X13517500Y-29585000D03*
%TD*%
D11*
%TO.P,C8,1*%
%TO.N,PFD_SENSE*%
X48385000Y-15005000D03*
%TO.P,C8,2*%
%TO.N,GND*%
X50285000Y-15005000D03*
%TD*%
D16*
%TO.P,J10,1*%
%TO.N,AIN_SP1*%
X93000000Y-59000000D03*
D17*
%TO.P,J10,2*%
%TO.N,AIN_SP2*%
X93000000Y-61540000D03*
%TO.P,J10,3*%
%TO.N,AGND_SENSE*%
X93000000Y-64080000D03*
%TO.P,J10,4*%
%TO.N,GND*%
X93000000Y-66620000D03*
%TD*%
D14*
%TO.P,R59,1*%
%TO.N,VBAT_SNS*%
X57662500Y-66975000D03*
%TO.P,R59,2*%
%TO.N,GND*%
X59487500Y-66975000D03*
%TD*%
%TO.P,R1,1*%
%TO.N,SCAP_TOP*%
X80852500Y-79725000D03*
%TO.P,R1,2*%
%TO.N,SCAP_MID*%
X82677500Y-79725000D03*
%TD*%
D18*
%TO.P,JP6,1*%
%TO.N,+5VS*%
X3025000Y-31425000D03*
%TO.P,JP6,2*%
%TO.N,AIN1_PU*%
X4325000Y-31425000D03*
%TD*%
D14*
%TO.P,R13,1*%
%TO.N,+3V3*%
X29712500Y-69975000D03*
%TO.P,R13,2*%
%TO.N,SD_PG*%
X31537500Y-69975000D03*
%TD*%
D24*
%TO.P,U2,1*%
%TO.N,GND*%
X74087500Y-59775000D03*
%TO.P,U2,2*%
%TO.N,LED_DIN_A*%
X74087500Y-60725000D03*
%TO.P,U2,3*%
%TO.N,GND*%
X74087500Y-61675000D03*
%TO.P,U2,4*%
%TO.N,LED_DIN*%
X76362500Y-61675000D03*
%TO.P,U2,5*%
%TO.N,+5V*%
X76362500Y-59775000D03*
%TD*%
D14*
%TO.P,R32,1*%
%TO.N,K_RX*%
X86432500Y-49625000D03*
%TO.P,R32,2*%
%TO.N,GND*%
X88257500Y-49625000D03*
%TD*%
D13*
%TO.P,D7,1*%
%TO.N,GND*%
X72127500Y-43775000D03*
%TO.P,D7,2*%
%TO.N,+3V3*%
X72127500Y-45675000D03*
%TO.P,D7,3*%
%TO.N,K_RX*%
X74002500Y-44725000D03*
%TD*%
D11*
%TO.P,C22,1*%
%TO.N,+5V*%
X75425000Y-23672500D03*
%TO.P,C22,2*%
%TO.N,GND*%
X77325000Y-23672500D03*
%TD*%
D14*
%TO.P,R46,1*%
%TO.N,AIN3_PU*%
X20592500Y-29585000D03*
%TO.P,R46,2*%
%TO.N,AIN3_A*%
X22417500Y-29585000D03*
%TD*%
D11*
%TO.P,C11,1*%
%TO.N,+3V3*%
X49125000Y-45155000D03*
%TO.P,C11,2*%
%TO.N,GND*%
X51025000Y-45155000D03*
%TD*%
D14*
%TO.P,R7,1*%
%TO.N,PWR_FAIL*%
X47902500Y-20625000D03*
%TO.P,R7,2*%
%TO.N,PFD_SENSE*%
X49727500Y-20625000D03*
%TD*%
%TO.P,R18,1*%
%TO.N,SD_D0*%
X33122500Y-75550000D03*
%TO.P,R18,2*%
%TO.N,SD_D0_C*%
X34947500Y-75550000D03*
%TD*%
%TO.P,R34,1*%
%TO.N,CAN2_S*%
X76092500Y-40965000D03*
%TO.P,R34,2*%
%TO.N,GND*%
X77917500Y-40965000D03*
%TD*%
D25*
%TO.P,L2,1*%
%TO.N,CAN2H_T*%
X66950000Y-30300000D03*
%TO.P,L2,2*%
%TO.N,CAN2_H_C*%
X71500000Y-30300000D03*
%TO.P,L2,3*%
%TO.N,CAN2L_T*%
X66950000Y-32800000D03*
%TO.P,L2,4*%
%TO.N,CAN2_L_C*%
X71500000Y-32800000D03*
%TD*%
D26*
%TO.P,J1,1*%
%TO.N,OBD_VBAT*%
X4000000Y-66000000D03*
D27*
%TO.P,J1,2*%
%TO.N,GND*%
X4000000Y-64000000D03*
%TO.P,J1,3*%
%TO.N,CAN_H*%
X4000000Y-62000000D03*
%TO.P,J1,4*%
%TO.N,CAN_L*%
X4000000Y-60000000D03*
%TD*%
D14*
%TO.P,R43,1*%
%TO.N,AIN2_A*%
X16302500Y-29585000D03*
%TO.P,R43,2*%
%TO.N,AIN2*%
X18127500Y-29585000D03*
%TD*%
D28*
%TO.P,Y1,1*%
%TO.N,XTAL1*%
X67025000Y-37607500D03*
%TO.P,Y1,2*%
%TO.N,GND*%
X69225000Y-37607500D03*
%TO.P,Y1,3*%
%TO.N,XTAL2*%
X69225000Y-35907500D03*
%TO.P,Y1,4*%
%TO.N,GND*%
X67025000Y-35907500D03*
%TD*%
D13*
%TO.P,D11,1*%
%TO.N,GND*%
X7667500Y-25275000D03*
%TO.P,D11,2*%
%TO.N,+3V3*%
X7667500Y-27175000D03*
%TO.P,D11,3*%
%TO.N,AIN1*%
X9542500Y-26225000D03*
%TD*%
D14*
%TO.P,R31,1*%
%TO.N,K_LINE*%
X81822500Y-49625000D03*
%TO.P,R31,2*%
%TO.N,K_RX*%
X83647500Y-49625000D03*
%TD*%
D20*
%TO.P,TP7,1*%
%TO.N,SD_CMD_C*%
X49775000Y-83275000D03*
%TD*%
D19*
%TO.P,D9,1*%
%TO.N,AUX_B*%
X83425000Y-31350000D03*
%TO.P,D9,2*%
%TO.N,GND*%
X87425000Y-31350000D03*
%TD*%
%TO.P,D10,1*%
%TO.N,AIN1_IN*%
X3525000Y-14775000D03*
%TO.P,D10,2*%
%TO.N,GND*%
X7525000Y-14775000D03*
%TD*%
D16*
%TO.P,J5,1*%
%TO.N,GND*%
X93000000Y-46000000D03*
D17*
%TO.P,J5,2*%
%TO.N,+3V3*%
X93000000Y-48540000D03*
%TO.P,J5,3*%
%TO.N,I2C_SDA*%
X93000000Y-51080000D03*
%TO.P,J5,4*%
%TO.N,I2C_SCL*%
X93000000Y-53620000D03*
%TD*%
D11*
%TO.P,C16,1*%
%TO.N,+3V3*%
X24075000Y-55005000D03*
%TO.P,C16,2*%
%TO.N,GND*%
X25975000Y-55005000D03*
%TD*%
D23*
%TO.P,U5,1*%
%TO.N,CAN_TX*%
X11250000Y-54820000D03*
%TO.P,U5,2*%
%TO.N,GND*%
X11250000Y-56090000D03*
%TO.P,U5,3*%
%TO.N,+5V*%
X11250000Y-57360000D03*
%TO.P,U5,4*%
%TO.N,CAN_RX*%
X11250000Y-58630000D03*
%TO.P,U5,5*%
%TO.N,+3V3*%
X16200000Y-58630000D03*
%TO.P,U5,6*%
%TO.N,CANL_T*%
X16200000Y-57360000D03*
%TO.P,U5,7*%
%TO.N,CANH_T*%
X16200000Y-56090000D03*
%TO.P,U5,8*%
%TO.N,CAN_S*%
X16200000Y-54820000D03*
%TD*%
D14*
%TO.P,R49,1*%
%TO.N,AIN4_IN*%
X29492500Y-35875000D03*
%TO.P,R49,2*%
%TO.N,AIN4_A*%
X31317500Y-35875000D03*
%TD*%
D24*
%TO.P,U3,1*%
%TO.N,SD_CLK_C*%
X8937500Y-69775000D03*
%TO.P,U3,2*%
%TO.N,GND*%
X8937500Y-70725000D03*
%TO.P,U3,3*%
%TO.N,SD_CMD_C*%
X8937500Y-71675000D03*
%TO.P,U3,4*%
%TO.N,SD_D0_C*%
X11212500Y-71675000D03*
%TO.P,U3,5*%
%TO.N,+3V3*%
X11212500Y-70725000D03*
%TO.P,U3,6*%
%TO.N,SD_D1_C*%
X11212500Y-69775000D03*
%TD*%
D11*
%TO.P,C27,1*%
%TO.N,AIN3*%
X20575000Y-25405000D03*
%TO.P,C27,2*%
%TO.N,GND*%
X22475000Y-25405000D03*
%TD*%
D21*
%TO.P,C4,1*%
%TO.N,+3V3*%
X53850000Y-49875000D03*
%TO.P,C4,2*%
%TO.N,GND*%
X56800000Y-49875000D03*
%TD*%
D14*
%TO.P,R58,1*%
%TO.N,OBD_VBAT*%
X53052500Y-66975000D03*
%TO.P,R58,2*%
%TO.N,VBAT_SNS*%
X54877500Y-66975000D03*
%TD*%
D18*
%TO.P,JP1,1*%
%TO.N,CAN_H*%
X27525000Y-62250000D03*
%TO.P,JP1,2*%
%TO.N,TERM_A*%
X28825000Y-62250000D03*
%TD*%
D14*
%TO.P,R39,1*%
%TO.N,AIN1_A*%
X2792500Y-40025000D03*
%TO.P,R39,2*%
%TO.N,AIN1*%
X4617500Y-40025000D03*
%TD*%
D29*
%TO.P,R3,1*%
%TO.N,+5V*%
X75092500Y-79905000D03*
%TO.P,R3,2*%
%TO.N,SCAP_TOP*%
X78017500Y-79905000D03*
%TD*%
D14*
%TO.P,R11,1*%
%TO.N,LED_DIN_MCU*%
X83942500Y-59975000D03*
%TO.P,R11,2*%
%TO.N,LED_DIN_A*%
X85767500Y-59975000D03*
%TD*%
D11*
%TO.P,C32,1*%
%TO.N,VBAT_SNS*%
X48385000Y-67005000D03*
%TO.P,C32,2*%
%TO.N,GND*%
X50285000Y-67005000D03*
%TD*%
D19*
%TO.P,D14,1*%
%TO.N,AIN3_IN*%
X21325000Y-14775000D03*
%TO.P,D14,2*%
%TO.N,GND*%
X25325000Y-14775000D03*
%TD*%
D14*
%TO.P,R51,1*%
%TO.N,AIN4_A*%
X29492500Y-40025000D03*
%TO.P,R51,2*%
%TO.N,AIN4*%
X31317500Y-40025000D03*
%TD*%
D19*
%TO.P,D8,1*%
%TO.N,AUX_A*%
X75175000Y-31350000D03*
%TO.P,D8,2*%
%TO.N,GND*%
X79175000Y-31350000D03*
%TD*%
D14*
%TO.P,R6,1*%
%TO.N,+3V3*%
X43292500Y-20625000D03*
%TO.P,R6,2*%
%TO.N,PWR_FAIL*%
X45117500Y-20625000D03*
%TD*%
D11*
%TO.P,C12,1*%
%TO.N,+5V*%
X79275000Y-60005000D03*
%TO.P,C12,2*%
%TO.N,GND*%
X81175000Y-60005000D03*
%TD*%
D29*
%TO.P,R30,1*%
%TO.N,K_TX_D*%
X81612500Y-44155000D03*
%TO.P,R30,2*%
%TO.N,K_LINE*%
X84537500Y-44155000D03*
%TD*%
D14*
%TO.P,R53,1*%
%TO.N,SENS_RTN*%
X20802500Y-44975000D03*
%TO.P,R53,2*%
%TO.N,AGND_A*%
X22627500Y-44975000D03*
%TD*%
%TO.P,R25,1*%
%TO.N,CAN_S*%
X10792500Y-67025000D03*
%TO.P,R25,2*%
%TO.N,GND*%
X12617500Y-67025000D03*
%TD*%
D20*
%TO.P,TP5,1*%
%TO.N,GND*%
X42275000Y-83275000D03*
%TD*%
D11*
%TO.P,C30,1*%
%TO.N,+3V3*%
X2775000Y-25505000D03*
%TO.P,C30,2*%
%TO.N,GND*%
X4675000Y-25505000D03*
%TD*%
D30*
%TO.P,C7,1*%
%TO.N,SCAP_MID*%
X78275000Y-72275000D03*
D31*
%TO.P,C7,2*%
%TO.N,GND*%
X81775000Y-72275000D03*
%TD*%
D32*
%TO.P,FB1,1*%
%TO.N,VSENS_F*%
X43212500Y-34025000D03*
%TO.P,FB1,2*%
%TO.N,+5VS*%
X45337500Y-34025000D03*
%TD*%
D13*
%TO.P,D17,1*%
%TO.N,GND*%
X34367500Y-25275000D03*
%TO.P,D17,2*%
%TO.N,+3V3*%
X34367500Y-27175000D03*
%TO.P,D17,3*%
%TO.N,AIN4*%
X36242500Y-26225000D03*
%TD*%
D25*
%TO.P,L1,1*%
%TO.N,CANH_T*%
X28900000Y-54725000D03*
%TO.P,L1,2*%
%TO.N,CAN_H*%
X33450000Y-54725000D03*
%TO.P,L1,3*%
%TO.N,CANL_T*%
X28900000Y-57225000D03*
%TO.P,L1,4*%
%TO.N,CAN_L*%
X33450000Y-57225000D03*
%TD*%
D19*
%TO.P,D1,1*%
%TO.N,OBD_VBAT_F*%
X51175000Y-39775000D03*
%TO.P,D1,2*%
%TO.N,GND*%
X55175000Y-39775000D03*
%TD*%
D11*
%TO.P,C3,1*%
%TO.N,+5V*%
X43275000Y-54255000D03*
%TO.P,C3,2*%
%TO.N,GND*%
X45175000Y-54255000D03*
%TD*%
D14*
%TO.P,R14,1*%
%TO.N,SD_PWR_EN*%
X34322500Y-69975000D03*
%TO.P,R14,2*%
%TO.N,SD_EN_G*%
X36147500Y-69975000D03*
%TD*%
D30*
%TO.P,C6,1*%
%TO.N,SCAP_TOP*%
X68525000Y-72275000D03*
D31*
%TO.P,C6,2*%
%TO.N,SCAP_MID*%
X72025000Y-72275000D03*
%TD*%
D11*
%TO.P,C21,1*%
%TO.N,XTAL2*%
X66775000Y-40995000D03*
%TO.P,C21,2*%
%TO.N,GND*%
X68675000Y-40995000D03*
%TD*%
D13*
%TO.P,Q2,1*%
%TO.N,SD_EN_G*%
X24827500Y-69775000D03*
%TO.P,Q2,2*%
%TO.N,GND*%
X24827500Y-71675000D03*
%TO.P,Q2,3*%
%TO.N,SD_PG*%
X26702500Y-70725000D03*
%TD*%
D16*
%TO.P,J7,1*%
%TO.N,+5V*%
X93000000Y-33000000D03*
D17*
%TO.P,J7,2*%
%TO.N,+3V3*%
X93000000Y-35540000D03*
%TO.P,J7,3*%
%TO.N,GND*%
X93000000Y-38080000D03*
%TO.P,J7,4*%
X93000000Y-40620000D03*
%TD*%
D11*
%TO.P,C14,1*%
%TO.N,SD_VDD*%
X19235000Y-75580000D03*
%TO.P,C14,2*%
%TO.N,GND*%
X21135000Y-75580000D03*
%TD*%
D14*
%TO.P,R36,1*%
%TO.N,CAN2_SPLIT*%
X85312500Y-40965000D03*
%TO.P,R36,2*%
%TO.N,CAN2_L_C*%
X87137500Y-40965000D03*
%TD*%
D20*
%TO.P,TP6,1*%
%TO.N,SD_CLK_C*%
X46025000Y-83275000D03*
%TD*%
%TO.P,TP3,1*%
%TO.N,+5VS*%
X34775000Y-83275000D03*
%TD*%
D14*
%TO.P,R38,1*%
%TO.N,AIN1_PU*%
X7402500Y-35875000D03*
%TO.P,R38,2*%
%TO.N,AIN1_A*%
X9227500Y-35875000D03*
%TD*%
D12*
%TO.P,PF1,1*%
%TO.N,OBD_VBAT*%
X43337500Y-39975000D03*
%TO.P,PF1,2*%
%TO.N,OBD_VBAT_F*%
X47612500Y-39975000D03*
%TD*%
D13*
%TO.P,D20,1*%
%TO.N,GND*%
X43517500Y-66775000D03*
%TO.P,D20,2*%
%TO.N,+3V3*%
X43517500Y-68675000D03*
%TO.P,D20,3*%
%TO.N,VBAT_SNS*%
X45392500Y-67725000D03*
%TD*%
D14*
%TO.P,R27,1*%
%TO.N,CAN_SPLIT*%
X20012500Y-67025000D03*
%TO.P,R27,2*%
%TO.N,CAN_L*%
X21837500Y-67025000D03*
%TD*%
D19*
%TO.P,D2,1*%
%TO.N,+5V*%
X67525000Y-80525000D03*
%TO.P,D2,2*%
%TO.N,SCAP_TOP*%
X71525000Y-80525000D03*
%TD*%
D14*
%TO.P,R20,1*%
%TO.N,SD_VDD*%
X13402500Y-80025000D03*
%TO.P,R20,2*%
%TO.N,SD_D0_C*%
X15227500Y-80025000D03*
%TD*%
D11*
%TO.P,C31,1*%
%TO.N,+3V3*%
X29475000Y-25505000D03*
%TO.P,C31,2*%
%TO.N,GND*%
X31375000Y-25505000D03*
%TD*%
D14*
%TO.P,R48,1*%
%TO.N,AIN3*%
X20592500Y-33735000D03*
%TO.P,R48,2*%
%TO.N,GND*%
X22417500Y-33735000D03*
%TD*%
%TO.P,R15,1*%
%TO.N,SD_EN_G*%
X8792500Y-75550000D03*
%TO.P,R15,2*%
%TO.N,GND*%
X10617500Y-75550000D03*
%TD*%
D13*
%TO.P,U1,1*%
%TO.N,PWR_FAIL*%
X43517500Y-14775000D03*
%TO.P,U1,2*%
%TO.N,PFD_SENSE*%
X43517500Y-16675000D03*
%TO.P,U1,3*%
%TO.N,GND*%
X45392500Y-15725000D03*
%TD*%
D19*
%TO.P,D6,1*%
%TO.N,CAN_L*%
X19775000Y-62750000D03*
%TO.P,D6,2*%
%TO.N,GND*%
X23775000Y-62750000D03*
%TD*%
D11*
%TO.P,C19,1*%
%TO.N,+3V3*%
X80075000Y-13005000D03*
%TO.P,C19,2*%
%TO.N,GND*%
X81975000Y-13005000D03*
%TD*%
D21*
%TO.P,C2,1*%
%TO.N,+5V*%
X48000000Y-49875000D03*
%TO.P,C2,2*%
%TO.N,GND*%
X50950000Y-49875000D03*
%TD*%
D14*
%TO.P,R45,1*%
%TO.N,AIN3_IN*%
X25242500Y-25375000D03*
%TO.P,R45,2*%
%TO.N,AIN3_A*%
X27067500Y-25375000D03*
%TD*%
%TO.P,R12,1*%
%TO.N,LED_DIN*%
X66792500Y-66025000D03*
%TO.P,R12,2*%
%TO.N,LED_DIN_J*%
X68617500Y-66025000D03*
%TD*%
%TO.P,R17,1*%
%TO.N,SD_CMD*%
X28512500Y-75550000D03*
%TO.P,R17,2*%
%TO.N,SD_CMD_C*%
X30337500Y-75550000D03*
%TD*%
D29*
%TO.P,R33,1*%
%TO.N,K_PU*%
X66842500Y-49805000D03*
%TO.P,R33,2*%
%TO.N,K_LINE*%
X69767500Y-49805000D03*
%TD*%
D14*
%TO.P,R2,1*%
%TO.N,SCAP_MID*%
X85462500Y-79725000D03*
%TO.P,R2,2*%
%TO.N,GND*%
X87287500Y-79725000D03*
%TD*%
D19*
%TO.P,D3,1*%
%TO.N,+5VS*%
X51175000Y-28775000D03*
%TO.P,D3,2*%
%TO.N,GND*%
X55175000Y-28775000D03*
%TD*%
D33*
%TO.P,J8,1*%
%TO.N,SD_D2_C*%
X13825000Y-86150000D03*
%TO.P,J8,2*%
%TO.N,SD_D3_C*%
X14925000Y-86150000D03*
%TO.P,J8,3*%
%TO.N,SD_CMD_C*%
X16025000Y-86150000D03*
%TO.P,J8,4*%
%TO.N,SD_VDD*%
X17125000Y-86150000D03*
%TO.P,J8,5*%
%TO.N,SD_CLK_C*%
X18225000Y-86150000D03*
%TO.P,J8,6*%
%TO.N,GND*%
X19325000Y-86150000D03*
%TO.P,J8,7*%
%TO.N,SD_D0_C*%
X20425000Y-86150000D03*
%TO.P,J8,8*%
%TO.N,SD_D1_C*%
X21525000Y-86150000D03*
D34*
%TO.P,J8,9*%
%TO.N,SD_CD*%
X22650000Y-95375000D03*
D35*
%TO.P,J8,10*%
%TO.N,GND*%
X11425000Y-96950000D03*
D36*
%TO.P,J8,11*%
%TO.N,N/C*%
X22975000Y-93875000D03*
D37*
X22725000Y-86275000D03*
D38*
X11375000Y-86275000D03*
D39*
X11025000Y-94525000D03*
%TD*%
D22*
%TO.P,U8,1*%
%TO.N,GND*%
X3005000Y-19525000D03*
%TO.P,U8,2*%
%TO.N,N/C*%
X3005000Y-20025000D03*
%TO.P,U8,3*%
%TO.N,GND*%
X3005000Y-20525000D03*
%TO.P,U8,4*%
%TO.N,AIN1*%
X3005000Y-21025000D03*
%TO.P,U8,5*%
%TO.N,AIN2*%
X3005000Y-21525000D03*
%TO.P,U8,6*%
%TO.N,AIN3*%
X7405000Y-21525000D03*
%TO.P,U8,7*%
%TO.N,AGND_SENSE*%
X7405000Y-21025000D03*
%TO.P,U8,8*%
%TO.N,+3V3*%
X7405000Y-20525000D03*
%TO.P,U8,9*%
%TO.N,I2C_SDA*%
X7405000Y-20025000D03*
%TO.P,U8,10*%
%TO.N,I2C_SCL*%
X7405000Y-19525000D03*
%TD*%
D11*
%TO.P,C15,1*%
%TO.N,+5V*%
X19425000Y-55005000D03*
%TO.P,C15,2*%
%TO.N,GND*%
X21325000Y-55005000D03*
%TD*%
D18*
%TO.P,JP3,1*%
%TO.N,CAN2_H_C*%
X78325000Y-36257500D03*
%TO.P,JP3,2*%
%TO.N,TERM2_A*%
X79625000Y-36257500D03*
%TD*%
D14*
%TO.P,R26,1*%
%TO.N,TERM_A*%
X15402500Y-67025000D03*
%TO.P,R26,2*%
%TO.N,CAN_SPLIT*%
X17227500Y-67025000D03*
%TD*%
D20*
%TO.P,TP4,1*%
%TO.N,OBD_VBAT*%
X38525000Y-83275000D03*
%TD*%
D11*
%TO.P,C17,1*%
%TO.N,CAN_SPLIT*%
X31825000Y-61980000D03*
%TO.P,C17,2*%
%TO.N,GND*%
X33725000Y-61980000D03*
%TD*%
D14*
%TO.P,R22,1*%
%TO.N,SD_VDD*%
X22622500Y-80025000D03*
%TO.P,R22,2*%
%TO.N,SD_D2_C*%
X24447500Y-80025000D03*
%TD*%
D18*
%TO.P,JP7,1*%
%TO.N,+5VS*%
X17035000Y-20025000D03*
%TO.P,JP7,2*%
%TO.N,AIN2_PU*%
X18335000Y-20025000D03*
%TD*%
D14*
%TO.P,R8,1*%
%TO.N,PWR_LED_K*%
X57202500Y-54225000D03*
%TO.P,R8,2*%
%TO.N,GND*%
X59027500Y-54225000D03*
%TD*%
%TO.P,R10,1*%
%TO.N,+3V3*%
X47902500Y-58435000D03*
%TO.P,R10,2*%
%TO.N,I2C_SCL*%
X49727500Y-58435000D03*
%TD*%
D21*
%TO.P,C9,1*%
%TO.N,+5VS*%
X48100000Y-34325000D03*
%TO.P,C9,2*%
%TO.N,GND*%
X51050000Y-34325000D03*
%TD*%
D16*
%TO.P,J3,1*%
%TO.N,+3V3*%
X40000000Y-14000000D03*
D17*
%TO.P,J3,2*%
X40000000Y-16540000D03*
%TO.P,J3,3*%
%TO.N,N/C*%
X40000000Y-19080000D03*
%TO.P,J3,4*%
%TO.N,AIN1*%
X40000000Y-21620000D03*
%TO.P,J3,5*%
%TO.N,AIN2*%
X40000000Y-24160000D03*
%TO.P,J3,6*%
%TO.N,AIN3*%
X40000000Y-26700000D03*
%TO.P,J3,7*%
%TO.N,AIN4*%
X40000000Y-29240000D03*
%TO.P,J3,8*%
%TO.N,PWR_FAIL*%
X40000000Y-31780000D03*
%TO.P,J3,9*%
%TO.N,CAN_S*%
X40000000Y-34320000D03*
%TO.P,J3,10*%
%TO.N,CAN_TX*%
X40000000Y-36860000D03*
%TO.P,J3,11*%
%TO.N,CAN_RX*%
X40000000Y-39400000D03*
%TO.P,J3,12*%
%TO.N,VBAT_SNS*%
X40000000Y-41940000D03*
%TO.P,J3,13*%
%TO.N,N/C*%
X40000000Y-44480000D03*
%TO.P,J3,14*%
X40000000Y-47020000D03*
%TO.P,J3,15*%
%TO.N,I2C_SCL*%
X40000000Y-49560000D03*
%TO.P,J3,16*%
%TO.N,I2C_SDA*%
X40000000Y-52100000D03*
%TO.P,J3,17*%
%TO.N,SD_CD*%
X40000000Y-54640000D03*
%TO.P,J3,18*%
%TO.N,SD_D0*%
X40000000Y-57180000D03*
%TO.P,J3,19*%
%TO.N,SD_CMD*%
X40000000Y-59720000D03*
%TO.P,J3,20*%
%TO.N,SD_CLK*%
X40000000Y-62260000D03*
%TO.P,J3,21*%
%TO.N,+5V*%
X40000000Y-64800000D03*
%TO.P,J3,22*%
%TO.N,GND*%
X40000000Y-67340000D03*
%TD*%
D13*
%TO.P,Q3,1*%
%TO.N,K_TX_G*%
X67017500Y-43775000D03*
%TO.P,Q3,2*%
%TO.N,GND*%
X67017500Y-45675000D03*
%TO.P,Q3,3*%
%TO.N,K_TX_D*%
X68892500Y-44725000D03*
%TD*%
D14*
%TO.P,R23,1*%
%TO.N,SD_VDD*%
X27232500Y-80025000D03*
%TO.P,R23,2*%
%TO.N,SD_D3_C*%
X29057500Y-80025000D03*
%TD*%
D13*
%TO.P,D19,1*%
%TO.N,GND*%
X11267500Y-44775000D03*
%TO.P,D19,2*%
%TO.N,+3V3*%
X11267500Y-46675000D03*
%TO.P,D19,3*%
%TO.N,AGND_SENSE*%
X13142500Y-45725000D03*
%TD*%
D14*
%TO.P,R56,1*%
%TO.N,AIN_SP1*%
X26792500Y-44975000D03*
%TO.P,R56,2*%
%TO.N,GND*%
X28617500Y-44975000D03*
%TD*%
D19*
%TO.P,D5,1*%
%TO.N,CAN_H*%
X11525000Y-62750000D03*
%TO.P,D5,2*%
%TO.N,GND*%
X15525000Y-62750000D03*
%TD*%
D13*
%TO.P,D13,1*%
%TO.N,GND*%
X11917500Y-19525000D03*
%TO.P,D13,2*%
%TO.N,+3V3*%
X11917500Y-21425000D03*
%TO.P,D13,3*%
%TO.N,AIN2*%
X13792500Y-20475000D03*
%TD*%
D14*
%TO.P,R24,1*%
%TO.N,+3V3*%
X31842500Y-80025000D03*
%TO.P,R24,2*%
%TO.N,SD_CD*%
X33667500Y-80025000D03*
%TD*%
D40*
%TO.P,J2,1*%
%TO.N,AUX_A*%
X68000000Y-6500000D03*
D41*
%TO.P,J2,2*%
%TO.N,AUX_B*%
X70000000Y-6500000D03*
%TO.P,J2,3*%
%TO.N,GND*%
X72000000Y-6500000D03*
%TO.P,J2,4*%
X74000000Y-6500000D03*
%TD*%
D14*
%TO.P,R44,1*%
%TO.N,AIN2*%
X11692500Y-33735000D03*
%TO.P,R44,2*%
%TO.N,GND*%
X13517500Y-33735000D03*
%TD*%
D11*
%TO.P,C26,1*%
%TO.N,AIN2*%
X11675000Y-25405000D03*
%TO.P,C26,2*%
%TO.N,GND*%
X13575000Y-25405000D03*
%TD*%
D20*
%TO.P,TP1,1*%
%TO.N,+5V*%
X27275000Y-83275000D03*
%TD*%
D11*
%TO.P,C1,1*%
%TO.N,OBD_VBAT_F*%
X43275000Y-49705000D03*
%TO.P,C1,2*%
%TO.N,GND*%
X45175000Y-49705000D03*
%TD*%
%TO.P,C5,1*%
%TO.N,+3V3*%
X47925000Y-54255000D03*
%TO.P,C5,2*%
%TO.N,GND*%
X49825000Y-54255000D03*
%TD*%
D14*
%TO.P,R55,1*%
%TO.N,AGND_SENSE*%
X7402500Y-50725000D03*
%TO.P,R55,2*%
%TO.N,GND*%
X9227500Y-50725000D03*
%TD*%
D23*
%TO.P,U7,1*%
%TO.N,CAN2_TXD*%
X67250000Y-23487500D03*
%TO.P,U7,2*%
%TO.N,GND*%
X67250000Y-24757500D03*
%TO.P,U7,3*%
%TO.N,+5V*%
X67250000Y-26027500D03*
%TO.P,U7,4*%
%TO.N,CAN2_RXD*%
X67250000Y-27297500D03*
%TO.P,U7,5*%
%TO.N,+3V3*%
X72200000Y-27297500D03*
%TO.P,U7,6*%
%TO.N,CAN2L_T*%
X72200000Y-26027500D03*
%TO.P,U7,7*%
%TO.N,CAN2H_T*%
X72200000Y-24757500D03*
%TO.P,U7,8*%
%TO.N,CAN2_S*%
X72200000Y-23487500D03*
%TD*%
D40*
%TO.P,J9,1*%
%TO.N,+5VS*%
X12000000Y-6500000D03*
D41*
%TO.P,J9,2*%
X14000000Y-6500000D03*
%TO.P,J9,3*%
%TO.N,AIN1_IN*%
X16000000Y-6500000D03*
%TO.P,J9,4*%
%TO.N,AIN2_IN*%
X18000000Y-6500000D03*
%TO.P,J9,5*%
%TO.N,SENS_RTN*%
X20000000Y-6500000D03*
%TO.P,J9,6*%
X22000000Y-6500000D03*
%TO.P,J9,7*%
%TO.N,AIN3_IN*%
X24000000Y-6500000D03*
%TO.P,J9,8*%
%TO.N,AIN4_IN*%
X26000000Y-6500000D03*
%TO.P,J9,9*%
%TO.N,GND*%
X28000000Y-6500000D03*
%TO.P,J9,10*%
X30000000Y-6500000D03*
%TD*%
D11*
%TO.P,C29,1*%
%TO.N,AGND_SENSE*%
X16135000Y-45005000D03*
%TO.P,C29,2*%
%TO.N,GND*%
X18035000Y-45005000D03*
%TD*%
D14*
%TO.P,R5,1*%
%TO.N,PFD_SENSE*%
X57662500Y-14975000D03*
%TO.P,R5,2*%
%TO.N,GND*%
X59487500Y-14975000D03*
%TD*%
D18*
%TO.P,JP2,1*%
%TO.N,OBD_VBAT_F*%
X77245000Y-44275000D03*
%TO.P,JP2,2*%
%TO.N,K_PU*%
X78545000Y-44275000D03*
%TD*%
D19*
%TO.P,D16,1*%
%TO.N,AIN4_IN*%
X30225000Y-14775000D03*
%TO.P,D16,2*%
%TO.N,GND*%
X34225000Y-14775000D03*
%TD*%
D14*
%TO.P,R50,1*%
%TO.N,AIN4_PU*%
X34102500Y-35875000D03*
%TO.P,R50,2*%
%TO.N,AIN4_A*%
X35927500Y-35875000D03*
%TD*%
%TO.P,R19,1*%
%TO.N,SD_VDD*%
X8792500Y-80025000D03*
%TO.P,R19,2*%
%TO.N,SD_CMD_C*%
X10617500Y-80025000D03*
%TD*%
D11*
%TO.P,C20,1*%
%TO.N,XTAL1*%
X87175000Y-35987500D03*
%TO.P,C20,2*%
%TO.N,GND*%
X89075000Y-35987500D03*
%TD*%
%TO.P,C28,1*%
%TO.N,AIN4*%
X34025000Y-31155000D03*
%TO.P,C28,2*%
%TO.N,GND*%
X35925000Y-31155000D03*
%TD*%
D14*
%TO.P,R40,1*%
%TO.N,AIN1*%
X7402500Y-40025000D03*
%TO.P,R40,2*%
%TO.N,GND*%
X9227500Y-40025000D03*
%TD*%
D18*
%TO.P,JP8,1*%
%TO.N,+5VS*%
X25935000Y-20025000D03*
%TO.P,JP8,2*%
%TO.N,AIN3_PU*%
X27235000Y-20025000D03*
%TD*%
D14*
%TO.P,R9,1*%
%TO.N,+3V3*%
X43292500Y-58435000D03*
%TO.P,R9,2*%
%TO.N,I2C_SDA*%
X45117500Y-58435000D03*
%TD*%
D18*
%TO.P,JP5,1*%
%TO.N,AUX_B*%
X82875000Y-36257500D03*
%TO.P,JP5,2*%
%TO.N,CAN2_L_C*%
X84175000Y-36257500D03*
%TD*%
D13*
%TO.P,Q1,1*%
%TO.N,SD_PG*%
X19717500Y-69775000D03*
%TO.P,Q1,2*%
%TO.N,+3V3*%
X19717500Y-71675000D03*
%TO.P,Q1,3*%
%TO.N,SD_VDD*%
X21592500Y-70725000D03*
%TD*%
D14*
%TO.P,R4,1*%
%TO.N,+5V*%
X53052500Y-14975000D03*
%TO.P,R4,2*%
%TO.N,PFD_SENSE*%
X54877500Y-14975000D03*
%TD*%
D20*
%TO.P,TP2,1*%
%TO.N,+3V3*%
X31025000Y-83275000D03*
%TD*%
D14*
%TO.P,R47,1*%
%TO.N,AIN3_A*%
X25202500Y-29585000D03*
%TO.P,R47,2*%
%TO.N,AIN3*%
X27027500Y-29585000D03*
%TD*%
D42*
%TO.N,+3V3*%
X30930000Y-19525000D03*
X35605000Y-27175000D03*
X22055000Y-21425000D03*
X13155000Y-21425000D03*
X32275000Y-83275000D03*
X30218800Y-71014200D03*
X43798800Y-59474200D03*
X54925000Y-49875000D03*
X30341000Y-26117500D03*
D43*
X12325000Y-70725000D03*
D42*
X43798800Y-21664200D03*
X73675000Y-27297500D03*
X24941000Y-55617500D03*
X8630000Y-20525000D03*
X35330000Y-20525000D03*
X49991000Y-45767500D03*
X48791000Y-54867500D03*
X48408800Y-59474200D03*
X73365000Y-45675000D03*
X17725000Y-70725000D03*
X44755000Y-68675000D03*
X17675000Y-58630000D03*
X55430000Y-54225000D03*
X3641000Y-26117500D03*
X44425000Y-45325000D03*
X20955000Y-71675000D03*
X12505000Y-46675000D03*
X73675000Y-12795000D03*
X80941000Y-24285000D03*
X80941000Y-13617500D03*
X8905000Y-27175000D03*
X76291000Y-13617500D03*
X32348700Y-81064200D03*
D44*
%TO.N,+5V*%
X38037700Y-64136300D03*
X42430400Y-64662000D03*
X50136600Y-18135100D03*
X65426100Y-22793700D03*
X75425000Y-25218700D03*
X13184200Y-61497900D03*
%TO.N,+5VS*%
X14000000Y-7875000D03*
X3740000Y-33283500D03*
X27503500Y-71994400D03*
X32715000Y-21966300D03*
X51175000Y-22059000D03*
X12000000Y-7875000D03*
D42*
%TO.N,AGND_SENSE*%
X31308600Y-23378800D03*
X8492500Y-60713200D03*
X6030600Y-20679300D03*
%TO.N,AIN1*%
X10153100Y-24358900D03*
X2002600Y-23262800D03*
%TO.N,AIN1_IN*%
X3525000Y-10643900D03*
%TO.N,AIN2*%
X13228600Y-23851400D03*
X4234400Y-21333700D03*
%TO.N,AIN3*%
X27027500Y-27832000D03*
X5696000Y-23889500D03*
%TO.N,AIN4*%
X36242500Y-28590500D03*
X25165900Y-26895700D03*
%TO.N,AIN_SP1*%
X30526200Y-48650200D03*
%TO.N,AIN_SP2*%
X31402500Y-55910000D03*
%TO.N,AUX_A*%
X75014000Y-26908800D03*
%TO.N,CAN2_L_C*%
X84072700Y-34809700D03*
X72501700Y-34809700D03*
%TO.N,CAN2_MISO*%
X68820100Y-19371700D03*
%TO.N,CAN2_MOSI*%
X70231000Y-19795400D03*
%TO.N,CAN2_S*%
X71648300Y-38003600D03*
X76092500Y-38003600D03*
%TO.N,CAN2_SCK*%
X70893500Y-22827700D03*
%TO.N,CAN_H*%
X26365000Y-62820800D03*
X53525000Y-79738700D03*
X36309000Y-67596900D03*
X13281000Y-63397800D03*
%TO.N,CAN_L*%
X36027200Y-68654000D03*
X57275000Y-77335500D03*
%TO.N,CAN_RX*%
X13427800Y-57470900D03*
%TO.N,CAN_S*%
X17104200Y-54820000D03*
%TO.N,CAN_TX*%
X13008500Y-55119700D03*
%TO.N,GND*%
X89270000Y-49625000D03*
X35605000Y-25275000D03*
X10240000Y-40025000D03*
X82975000Y-13005000D03*
X65985800Y-36457500D03*
X30930000Y-20525000D03*
X73365000Y-43775000D03*
X52025000Y-45155000D03*
X89175000Y-31350000D03*
X13155000Y-19525000D03*
X17275000Y-62750000D03*
X35975000Y-14775000D03*
X25525000Y-62750000D03*
X90075000Y-35987500D03*
X52025000Y-49875000D03*
X72925000Y-59775000D03*
X14530000Y-33735000D03*
X23475000Y-25405000D03*
X60500000Y-66975000D03*
X26975000Y-55005000D03*
X69675000Y-40995000D03*
X43525000Y-83275000D03*
X18175000Y-14775000D03*
X46175000Y-54255000D03*
X22135000Y-75580000D03*
X68725000Y-20415000D03*
X51285000Y-67005000D03*
X60500000Y-14975000D03*
X51285000Y-15005000D03*
X11630000Y-75550000D03*
X34240000Y-44975000D03*
X36925000Y-31155000D03*
X12425000Y-96950000D03*
X80925000Y-31350000D03*
X7775000Y-70725000D03*
X47375000Y-45325000D03*
X19035000Y-45005000D03*
X10240000Y-50725000D03*
X23430000Y-33735000D03*
X5675000Y-25505000D03*
X14575000Y-25405000D03*
X78325000Y-23672500D03*
X34725000Y-61980000D03*
X57875000Y-49875000D03*
X46630000Y-15725000D03*
X50825000Y-54255000D03*
X44755000Y-66775000D03*
X19325000Y-87525000D03*
X88300000Y-79725000D03*
X78930000Y-40965000D03*
X32375000Y-25505000D03*
X78325000Y-13005000D03*
X9275000Y-14775000D03*
X9275000Y-45775000D03*
X4230000Y-19525000D03*
X52125000Y-34325000D03*
X75094300Y-62075000D03*
X68255000Y-45675000D03*
X70425000Y-37607500D03*
X17485000Y-75750000D03*
X56925000Y-28775000D03*
X13630000Y-67025000D03*
X82175000Y-60005000D03*
X36940000Y-40025000D03*
X68725000Y-24757500D03*
X80050000Y-49625000D03*
X8905000Y-25275000D03*
X29630000Y-44975000D03*
X4230000Y-20525000D03*
X27075000Y-14775000D03*
X60040000Y-54225000D03*
X74325000Y-40995000D03*
X13125000Y-70725000D03*
X46175000Y-49705000D03*
X12725000Y-56090000D03*
X22325000Y-55005000D03*
X22055000Y-19525000D03*
X26065000Y-71675000D03*
X56925000Y-39775000D03*
X12505000Y-44775000D03*
X10225000Y-31155000D03*
X82975000Y-23672500D03*
%TO.N,I2C_SCL*%
X9256700Y-21260500D03*
X51516100Y-51314500D03*
X38804000Y-19888200D03*
X34105000Y-18863400D03*
%TO.N,I2C_SDA*%
X46818000Y-52100000D03*
%TO.N,K_LINE*%
X61206500Y-58461200D03*
X66011200Y-58461200D03*
%TO.N,K_RX*%
X74646800Y-46890200D03*
%TO.N,K_TX*%
X70915000Y-46184800D03*
%TO.N,LED_DIN*%
X74535100Y-62674700D03*
X67885600Y-63082500D03*
%TO.N,LED_DIN_J*%
X68617500Y-64628600D03*
X91073700Y-64628600D03*
%TO.N,LED_DIN_MCU*%
X83942500Y-52100000D03*
D44*
%TO.N,OBD_VBAT*%
X45453500Y-74574000D03*
%TO.N,OBD_VBAT_F*%
X59336900Y-13596200D03*
X57701700Y-16340000D03*
X85193700Y-37872600D03*
X76093300Y-44566100D03*
D42*
%TO.N,PWR_FAIL*%
X45317500Y-28002000D03*
%TO.N,SD_CD*%
X36606600Y-65069900D03*
X26715000Y-86235200D03*
X17368900Y-77711100D03*
X18476300Y-72559000D03*
X30450000Y-79408300D03*
%TO.N,SD_CLK*%
X23902500Y-76882000D03*
%TO.N,SD_CLK_C*%
X9500000Y-69875000D03*
X18000000Y-85375000D03*
%TO.N,SD_CMD*%
X32717400Y-59720000D03*
X28117400Y-71129400D03*
X32717400Y-66786400D03*
%TO.N,SD_CMD_C*%
X30337500Y-73819700D03*
X12899700Y-71741000D03*
X49775000Y-73819700D03*
%TO.N,SD_D0_C*%
X20425000Y-87640300D03*
X35887500Y-81536500D03*
X11651200Y-72582000D03*
%TO.N,SD_D1_C*%
X18990100Y-77084400D03*
X11606300Y-73785900D03*
%TO.N,SD_D2_C*%
X13825000Y-84166500D03*
X13096300Y-69825300D03*
X24447500Y-81724600D03*
%TO.N,SD_D3_C*%
X15106300Y-84325200D03*
X29057500Y-83239300D03*
X16807300Y-78323000D03*
%TO.N,SD_PWR_EN*%
X34322500Y-71180500D03*
X59950800Y-62238200D03*
%TO.N,SENS_RTN*%
X20296500Y-20475000D03*
X20000000Y-7875000D03*
X22000000Y-7875000D03*
X19007500Y-17931300D03*
%TO.N,VBAT_SNS*%
X52799900Y-47709100D03*
%TO.N,XTAL1*%
X68885700Y-27007700D03*
X67025000Y-38717700D03*
X86166300Y-35856600D03*
%TD*%
D45*
%TO.N,+3V3*%
X29712500Y-69975000D02*
X30218800Y-71014200D01*
X11917500Y-21425000D02*
X13155000Y-21425000D01*
X43292500Y-58435000D02*
X43798800Y-59474200D01*
X47925000Y-54255000D02*
X48791000Y-54867500D01*
X72127500Y-45675000D02*
X73365000Y-45675000D01*
X43517500Y-68675000D02*
X44755000Y-68675000D01*
X7405000Y-20525000D02*
X8630000Y-20525000D01*
X43292500Y-20625000D02*
X43798800Y-21664200D01*
X11267500Y-46675000D02*
X12505000Y-46675000D01*
X49125000Y-45155000D02*
X49991000Y-45767500D01*
X11212500Y-70725000D02*
X12325000Y-70725000D01*
X20817500Y-21425000D02*
X22055000Y-21425000D01*
X80075000Y-13005000D02*
X80941000Y-13617500D01*
X29475000Y-25505000D02*
X30341000Y-26117500D01*
X34105000Y-20525000D02*
X35330000Y-20525000D01*
X7667500Y-27175000D02*
X8905000Y-27175000D01*
X31842500Y-80025000D02*
X32348700Y-81064200D01*
X54442500Y-54225000D02*
X55430000Y-54225000D01*
X80075000Y-23672500D02*
X80941000Y-24285000D01*
X29705000Y-19525000D02*
X30930000Y-19525000D01*
X2775000Y-25505000D02*
X3641000Y-26117500D01*
X19717500Y-71675000D02*
X20955000Y-71675000D01*
X47902500Y-58435000D02*
X48408800Y-59474200D01*
X16200000Y-58630000D02*
X17675000Y-58630000D01*
X75425000Y-13005000D02*
X76291000Y-13617500D01*
X34367500Y-27175000D02*
X35605000Y-27175000D01*
X53850000Y-49875000D02*
X54925000Y-49875000D01*
X72200000Y-27297500D02*
X73675000Y-27297500D01*
X43350000Y-45325000D02*
X44425000Y-45325000D01*
X24075000Y-55005000D02*
X24941000Y-55617500D01*
X16562500Y-70725000D02*
X17725000Y-70725000D01*
X72200000Y-12795000D02*
X73675000Y-12795000D01*
X31025000Y-83275000D02*
X32275000Y-83275000D01*
D46*
%TO.N,+5V*%
X42298800Y-55231200D02*
X42298800Y-64530400D01*
X38280700Y-71292800D02*
X38280700Y-66519300D01*
X42297500Y-34704200D02*
X42297500Y-30015000D01*
X42263900Y-43925600D02*
X44397400Y-41792100D01*
X11988100Y-60301800D02*
X13184200Y-61497900D01*
X73073400Y-81924100D02*
X68924100Y-81924100D01*
X69615400Y-63713900D02*
X66876500Y-60975000D01*
X66657800Y-26027500D02*
X65426100Y-24795800D01*
X67240400Y-69816900D02*
X69615400Y-67441900D01*
X28522700Y-84522700D02*
X35287500Y-84522700D01*
X27275000Y-83275000D02*
X28522700Y-84522700D01*
X37671000Y-71902500D02*
X38280700Y-71292800D01*
X68924100Y-81924100D02*
X67525000Y-80525000D01*
X18462700Y-54042700D02*
X19425000Y-55005000D01*
X42280700Y-19885600D02*
X42280700Y-27918200D01*
X66876500Y-60975000D02*
X66837500Y-60975000D01*
X76362500Y-59775000D02*
X79045000Y-59775000D01*
X9784000Y-56513800D02*
X9784000Y-54377800D01*
X38280700Y-66519300D02*
X40000000Y-64800000D01*
X65426100Y-24795800D02*
X65426100Y-22793700D01*
X10630200Y-57360000D02*
X9797700Y-58192500D01*
X42298800Y-64530400D02*
X42430400Y-64662000D01*
X42263900Y-53243900D02*
X42263900Y-43925600D01*
X48000000Y-49875000D02*
X47655000Y-49875000D01*
X53052500Y-14975000D02*
X50136600Y-17890900D01*
X39336400Y-64136400D02*
X38037700Y-64136400D01*
X9797700Y-59039900D02*
X11059600Y-60301800D01*
X44397400Y-36804100D02*
X42297500Y-34704200D01*
X75092500Y-79905000D02*
X73073400Y-81924100D01*
X67240400Y-80240400D02*
X67240400Y-69816900D01*
X50136600Y-18135100D02*
X44031200Y-18135100D01*
X10630200Y-57360000D02*
X9784000Y-56513800D01*
X9797700Y-58192500D02*
X9797700Y-59039900D01*
X66657800Y-26027500D02*
X67250000Y-26027500D01*
X69615400Y-67441900D02*
X69615400Y-63713900D01*
X44031200Y-18135100D02*
X42280700Y-19885600D01*
X35287500Y-84522700D02*
X37671000Y-82139200D01*
X11059600Y-60301800D02*
X11988100Y-60301800D01*
X64795200Y-28422900D02*
X65152800Y-28065300D01*
X37671000Y-82139200D02*
X37671000Y-71902500D01*
X42297500Y-30015000D02*
X43337500Y-28975000D01*
X10119100Y-54042700D02*
X18462700Y-54042700D01*
X79045000Y-59775000D02*
X79275000Y-60005000D01*
X47655000Y-49875000D02*
X43275000Y-54255000D01*
X40000000Y-64800000D02*
X39336400Y-64136400D01*
X66837500Y-60975000D02*
X64795200Y-58932700D01*
X9784000Y-54377800D02*
X10119100Y-54042700D01*
X43275000Y-54255000D02*
X42263900Y-53243900D01*
X65152800Y-27532500D02*
X66657800Y-26027500D01*
X42280700Y-27918200D02*
X43337500Y-28975000D01*
X65152800Y-28065300D02*
X65152800Y-27532500D01*
X67525000Y-80525000D02*
X67240400Y-80240400D01*
X11250000Y-57360000D02*
X10630200Y-57360000D01*
X66837500Y-60975000D02*
X69053500Y-58759000D01*
X64795200Y-58932700D02*
X64795200Y-28422900D01*
X44397400Y-41792100D02*
X44397400Y-36804100D01*
X75425000Y-23672500D02*
X75425000Y-25218700D01*
X69053500Y-58759000D02*
X75346500Y-58759000D01*
X75346500Y-58759000D02*
X76362500Y-59775000D01*
X50136600Y-17890900D02*
X50136600Y-18135100D01*
X38037700Y-64136400D02*
X38037700Y-64136300D01*
X43275000Y-54255000D02*
X42298800Y-55231200D01*
%TO.N,+5VS*%
X16546700Y-19884800D02*
X17688300Y-18743200D01*
X29725000Y-31425000D02*
X29725000Y-29326700D01*
X3025000Y-32651700D02*
X3108200Y-32651700D01*
X16546700Y-20025000D02*
X16546700Y-19884800D01*
X3025000Y-31425000D02*
X3025000Y-29326700D01*
X14000000Y-6500000D02*
X14000000Y-7875000D01*
X34775000Y-83275000D02*
X34775000Y-79389900D01*
X14159800Y-18126500D02*
X14159800Y-8034800D01*
X6452300Y-24854600D02*
X8283900Y-23023000D01*
X10648500Y-9226500D02*
X12000000Y-7875000D01*
X25879900Y-18743200D02*
X25935000Y-18798300D01*
X33152100Y-25899600D02*
X33152100Y-22403400D01*
X3025000Y-29326700D02*
X6452300Y-25899400D01*
X3025000Y-31425000D02*
X3025000Y-32651700D01*
X14159800Y-8034800D02*
X14000000Y-7875000D01*
X47800000Y-34025000D02*
X48100000Y-34325000D01*
X8592600Y-23023000D02*
X10648500Y-20967100D01*
X25935000Y-20025000D02*
X25935000Y-18798300D01*
X33152100Y-22403400D02*
X32715000Y-21966300D01*
X8283900Y-23023000D02*
X8592600Y-23023000D01*
X51175000Y-31250000D02*
X51175000Y-28775000D01*
X3108200Y-32651700D02*
X3740000Y-33283500D01*
X10648500Y-20967100D02*
X10648500Y-9226500D01*
X17035000Y-20025000D02*
X16546700Y-20025000D01*
X29725000Y-29326700D02*
X33152100Y-25899600D01*
X45337500Y-34025000D02*
X47800000Y-34025000D01*
X27503500Y-76285200D02*
X27503500Y-71994400D01*
X51175000Y-28775000D02*
X51175000Y-22059000D01*
X16546700Y-20025000D02*
X16058300Y-20025000D01*
X34775000Y-79389900D02*
X32159300Y-76774200D01*
X17688300Y-18743200D02*
X25879900Y-18743200D01*
X27992500Y-76774200D02*
X27503500Y-76285200D01*
X6452300Y-25899400D02*
X6452300Y-24854600D01*
X32159300Y-76774200D02*
X27992500Y-76774200D01*
X16058300Y-20025000D02*
X14159800Y-18126500D01*
X48100000Y-34325000D02*
X51175000Y-31250000D01*
X12000000Y-6500000D02*
X12000000Y-7875000D01*
D47*
%TO.N,AGND_A*%
X4078300Y-49439200D02*
X2792500Y-50725000D01*
X22627500Y-44975000D02*
X18163300Y-49439200D01*
X18163300Y-49439200D02*
X4078300Y-49439200D01*
%TO.N,AGND_SENSE*%
X3649400Y-34323000D02*
X1924500Y-32598100D01*
X7402500Y-50725000D02*
X4617500Y-50725000D01*
X3568800Y-51773700D02*
X4617500Y-50725000D01*
X2310300Y-51773700D02*
X3568800Y-51773700D01*
X5236800Y-21818800D02*
X6030600Y-21025000D01*
X1897800Y-46677300D02*
X1897800Y-38594700D01*
X34105000Y-21025000D02*
X32611500Y-21025000D01*
X6030600Y-21025000D02*
X6030600Y-20679300D01*
X1924500Y-24741200D02*
X4846900Y-21818800D01*
X1897800Y-38594700D02*
X3649400Y-36843100D01*
X13142500Y-45725000D02*
X10408000Y-45725000D01*
X3595000Y-48374400D02*
X1897800Y-46677300D01*
X1910700Y-51374100D02*
X2310300Y-51773700D01*
X1924500Y-32598100D02*
X1924500Y-24741200D01*
X10408000Y-45725000D02*
X8423900Y-47709100D01*
X3595000Y-48374400D02*
X1910700Y-50058700D01*
X8423900Y-47709100D02*
X4260300Y-47709100D01*
X13142500Y-45725000D02*
X15415000Y-45725000D01*
X31308600Y-22327900D02*
X31308600Y-23378800D01*
X8492500Y-51815000D02*
X8492500Y-60713200D01*
X32611500Y-21025000D02*
X31308600Y-22327900D01*
X3649400Y-36843100D02*
X3649400Y-34323000D01*
X15415000Y-45725000D02*
X16135000Y-45005000D01*
X4846900Y-21818800D02*
X5236800Y-21818800D01*
X1910700Y-50058700D02*
X1910700Y-51374100D01*
X6030600Y-21025000D02*
X7405000Y-21025000D01*
X4260300Y-47709100D02*
X3595000Y-48374400D01*
X7402500Y-50725000D02*
X8492500Y-51815000D01*
%TO.N,AIN1*%
X3005000Y-21025000D02*
X2198700Y-21025000D01*
X10067800Y-33897800D02*
X7325000Y-31155000D01*
X9542500Y-28937500D02*
X7325000Y-31155000D01*
X1951900Y-23212100D02*
X2002600Y-23262800D01*
X9542500Y-26225000D02*
X9542500Y-28937500D01*
X1951900Y-21271800D02*
X1951900Y-23212100D01*
X10067800Y-37359700D02*
X10067800Y-33897800D01*
X4617500Y-40025000D02*
X7402500Y-40025000D01*
X2198700Y-21025000D02*
X1951900Y-21271800D01*
X9542500Y-26225000D02*
X9542500Y-24969500D01*
X9542500Y-24969500D02*
X10153100Y-24358900D01*
X7402500Y-40025000D02*
X10067800Y-37359700D01*
%TO.N,AIN1_A*%
X9227500Y-35875000D02*
X8147100Y-36955400D01*
X4617500Y-38200000D02*
X4617500Y-35875000D01*
X8147100Y-36955400D02*
X5697900Y-36955400D01*
X2792500Y-40025000D02*
X4617500Y-38200000D01*
X5697900Y-36955400D02*
X4617500Y-35875000D01*
%TO.N,AIN1_IN*%
X1375900Y-16924100D02*
X1375900Y-34458400D01*
X3525000Y-14775000D02*
X3525000Y-10643900D01*
X1375900Y-34458400D02*
X2792500Y-35875000D01*
X3525000Y-14775000D02*
X1375900Y-16924100D01*
%TO.N,AIN1_PU*%
X4325000Y-31425000D02*
X5151700Y-31425000D01*
X7402500Y-35875000D02*
X5151700Y-33624200D01*
X5151700Y-33624200D02*
X5151700Y-31425000D01*
%TO.N,AIN2*%
X13792500Y-20475000D02*
X13792500Y-23287500D01*
X11675000Y-25405000D02*
X13228600Y-23851400D01*
X10818700Y-26261300D02*
X10818700Y-30551500D01*
X17090000Y-30622500D02*
X18127500Y-29585000D01*
X14805000Y-30622500D02*
X17090000Y-30622500D01*
X11692500Y-33735000D02*
X14805000Y-30622500D01*
X4043100Y-21525000D02*
X4234400Y-21333700D01*
X13792500Y-23287500D02*
X13228600Y-23851400D01*
X10818700Y-30551500D02*
X11692500Y-31425300D01*
X3005000Y-21525000D02*
X4043100Y-21525000D01*
X11675000Y-25405000D02*
X10818700Y-26261300D01*
X11692500Y-31425300D02*
X11692500Y-33735000D01*
%TO.N,AIN2_A*%
X18167500Y-27720000D02*
X18167500Y-25375000D01*
X16302500Y-29585000D02*
X13517500Y-29585000D01*
X16302500Y-29585000D02*
X18167500Y-27720000D01*
%TO.N,AIN2_IN*%
X16394300Y-5241800D02*
X17073300Y-5920800D01*
X16342500Y-21561100D02*
X12425000Y-17643600D01*
X13596100Y-5241800D02*
X16394300Y-5241800D01*
X12425000Y-14775000D02*
X13000500Y-14199500D01*
X18000000Y-6500000D02*
X17073300Y-6500000D01*
X17073300Y-5920800D02*
X17073300Y-6500000D01*
X12425000Y-17643600D02*
X12425000Y-14775000D01*
X16342500Y-25375000D02*
X16342500Y-21561100D01*
X13000500Y-14199500D02*
X13000500Y-5837400D01*
X13000500Y-5837400D02*
X13596100Y-5241800D01*
%TO.N,AIN2_PU*%
X17255000Y-26004500D02*
X17255000Y-23345300D01*
X17255000Y-23345300D02*
X18335000Y-22265300D01*
X16019400Y-27240100D02*
X17255000Y-26004500D01*
X11692500Y-29585000D02*
X14037400Y-27240100D01*
X18335000Y-22265300D02*
X18335000Y-20025000D01*
X14037400Y-27240100D02*
X16019400Y-27240100D01*
%TO.N,AIN3*%
X24608300Y-32004200D02*
X22323300Y-32004200D01*
X7405000Y-22180500D02*
X5696000Y-23889500D01*
X22323300Y-32004200D02*
X20592500Y-33735000D01*
X22692500Y-20475000D02*
X22692500Y-23287500D01*
X20592500Y-33735000D02*
X19739700Y-32882200D01*
X22692500Y-23287500D02*
X20575000Y-25405000D01*
X19739700Y-26240300D02*
X20575000Y-25405000D01*
X7405000Y-21525000D02*
X7405000Y-22180500D01*
X27027500Y-27832000D02*
X27027500Y-29585000D01*
X27027500Y-29585000D02*
X24608300Y-32004200D01*
X19739700Y-32882200D02*
X19739700Y-26240300D01*
%TO.N,AIN3_A*%
X25202500Y-27878800D02*
X27067500Y-26013800D01*
X25202500Y-29585000D02*
X25202500Y-27878800D01*
X25202500Y-29585000D02*
X22417500Y-29585000D01*
X27067500Y-26013800D02*
X27067500Y-25375000D01*
%TO.N,AIN3_IN*%
X25289500Y-12100000D02*
X28071700Y-14882200D01*
X28071700Y-21541200D02*
X25242500Y-24370400D01*
X24000000Y-6500000D02*
X24000000Y-12100000D01*
X28071700Y-14882200D02*
X28071700Y-21541200D01*
X24000000Y-12100000D02*
X21325000Y-14775000D01*
X25242500Y-24370400D02*
X25242500Y-25375000D01*
X24000000Y-12100000D02*
X25289500Y-12100000D01*
%TO.N,AIN3_PU*%
X27235000Y-21101700D02*
X24252000Y-24084700D01*
X24252000Y-24084700D02*
X24252000Y-25925500D01*
X27235000Y-20025000D02*
X27235000Y-21101700D01*
X24252000Y-25925500D02*
X20592500Y-29585000D01*
%TO.N,AIN4*%
X25165900Y-26895600D02*
X25165900Y-26895700D01*
X36242500Y-28937500D02*
X36242500Y-28590500D01*
X36775000Y-33905000D02*
X34025000Y-31155000D01*
X36242500Y-28590500D02*
X36242500Y-26225000D01*
X28588200Y-22214600D02*
X26155100Y-24647700D01*
X31317500Y-40025000D02*
X34102500Y-40025000D01*
X29705000Y-21025000D02*
X28901500Y-21025000D01*
X28588200Y-21338300D02*
X28588200Y-22214600D01*
X36775000Y-37352500D02*
X36775000Y-33905000D01*
X34102500Y-40025000D02*
X36775000Y-37352500D01*
X26155100Y-26045200D02*
X25304700Y-26895600D01*
X25304700Y-26895600D02*
X25165900Y-26895600D01*
X34025000Y-31155000D02*
X36242500Y-28937500D01*
X28901500Y-21025000D02*
X28588200Y-21338300D01*
X26155100Y-24647700D02*
X26155100Y-26045200D01*
%TO.N,AIN4_A*%
X34837300Y-36965200D02*
X32407700Y-36965200D01*
X29492500Y-37700000D02*
X31317500Y-35875000D01*
X35927500Y-35875000D02*
X34837300Y-36965200D01*
X29492500Y-40025000D02*
X29492500Y-37700000D01*
X32407700Y-36965200D02*
X31317500Y-35875000D01*
%TO.N,AIN4_IN*%
X30225000Y-14775000D02*
X31602500Y-16152500D01*
X31602500Y-16152500D02*
X31602500Y-21395100D01*
X30225000Y-14775000D02*
X26926700Y-11476700D01*
X26926700Y-11476700D02*
X26926700Y-6500000D01*
X26000000Y-6500000D02*
X26926700Y-6500000D01*
X28638200Y-35020700D02*
X29492500Y-35875000D01*
X31602500Y-21395100D02*
X28638200Y-24359400D01*
X28638200Y-24359400D02*
X28638200Y-35020700D01*
%TO.N,AIN4_PU*%
X31851700Y-31425000D02*
X31851700Y-33624200D01*
X31851700Y-33624200D02*
X34102500Y-35875000D01*
X31025000Y-31425000D02*
X31851700Y-31425000D01*
%TO.N,AIN_SP1*%
X29705000Y-22039100D02*
X29705000Y-21525000D01*
X30467700Y-48650200D02*
X30526200Y-48650200D01*
X26792500Y-44975000D02*
X28186500Y-43581000D01*
X26792500Y-44975000D02*
X30467700Y-48650200D01*
X28186500Y-43581000D02*
X28186500Y-23557600D01*
X28186500Y-23557600D02*
X29705000Y-22039100D01*
%TO.N,AIN_SP2*%
X37614600Y-25034600D02*
X34105000Y-21525000D01*
X34370600Y-43497800D02*
X37614600Y-40253800D01*
X31402500Y-44975000D02*
X31402500Y-55910000D01*
X37614600Y-40253800D02*
X37614600Y-25034600D01*
X32879700Y-43497800D02*
X34370600Y-43497800D01*
X31402500Y-44975000D02*
X32879700Y-43497800D01*
%TO.N,AUX_A*%
X61564300Y-12935700D02*
X61564300Y-54431500D01*
X71738200Y-31390700D02*
X73775000Y-33427500D01*
X51650000Y-82988700D02*
X46913700Y-87725000D01*
X75175000Y-31350000D02*
X75175000Y-29682500D01*
X73775000Y-33427500D02*
X73775000Y-36257500D01*
X75175000Y-29682500D02*
X75014000Y-29521500D01*
X70664700Y-29521500D02*
X70444000Y-29742200D01*
X58575000Y-57420800D02*
X58575000Y-67665300D01*
X70444000Y-29742200D02*
X70444000Y-30831100D01*
X71003600Y-31390700D02*
X71738200Y-31390700D01*
X46913700Y-87725000D02*
X27275000Y-87725000D01*
X51650000Y-74590300D02*
X51650000Y-82988700D01*
X70444000Y-30831100D02*
X71003600Y-31390700D01*
X68000000Y-6500000D02*
X61564300Y-12935700D01*
X58575000Y-67665300D02*
X51650000Y-74590300D01*
X75014000Y-26908800D02*
X75014000Y-29521500D01*
X61564300Y-54431500D02*
X58575000Y-57420800D01*
X75014000Y-29521500D02*
X70664700Y-29521500D01*
%TO.N,AUX_B*%
X70926700Y-6500000D02*
X70926700Y-7426700D01*
X78982300Y-26907300D02*
X83425000Y-31350000D01*
X70926700Y-7426700D02*
X74471100Y-10971100D01*
X82875000Y-36257500D02*
X82875000Y-31900000D01*
X78982300Y-23369400D02*
X78982300Y-26907300D01*
X74471100Y-10971100D02*
X74471100Y-18858200D01*
X70000000Y-6500000D02*
X70926700Y-6500000D01*
X82875000Y-31900000D02*
X83425000Y-31350000D01*
X74471100Y-18858200D02*
X78982300Y-23369400D01*
%TO.N,CAN2H_T*%
X71786100Y-24757500D02*
X72200000Y-24757500D01*
X67951700Y-30300000D02*
X67951700Y-28828000D01*
X69512400Y-27267300D02*
X69512400Y-27031200D01*
X67951700Y-28828000D02*
X69512400Y-27267300D01*
X69512400Y-27031200D02*
X71786100Y-24757500D01*
X66950000Y-30300000D02*
X67951700Y-30300000D01*
%TO.N,CAN2L_T*%
X69056400Y-28695600D02*
X69056400Y-31695300D01*
X70984700Y-26197700D02*
X70717600Y-26464800D01*
X72029800Y-26197700D02*
X70984700Y-26197700D01*
X72200000Y-26027500D02*
X72029800Y-26197700D01*
X69056400Y-31695300D02*
X67951700Y-32800000D01*
X66950000Y-32800000D02*
X67951700Y-32800000D01*
X70717600Y-26464800D02*
X70717600Y-26466900D01*
X70185800Y-27566200D02*
X69056400Y-28695600D01*
X70717600Y-26466900D02*
X70185800Y-26998700D01*
X70185800Y-26998700D02*
X70185800Y-27566200D01*
%TO.N,CAN2_CS*%
X72200000Y-14065000D02*
X71452400Y-14065000D01*
X64090400Y-13648600D02*
X64090400Y-25469600D01*
X71452400Y-14065000D02*
X69092500Y-11705100D01*
X64090400Y-25469600D02*
X62860000Y-26700000D01*
X69092500Y-11705100D02*
X66033900Y-11705100D01*
X66033900Y-11705100D02*
X64090400Y-13648600D01*
%TO.N,CAN2_H_C*%
X72501700Y-30300000D02*
X72501700Y-31303700D01*
X72501700Y-31303700D02*
X75075000Y-33877000D01*
X75075000Y-33877000D02*
X75075000Y-36257500D01*
X71500000Y-30300000D02*
X72501700Y-30300000D01*
X75075000Y-36257500D02*
X78325000Y-36257500D01*
%TO.N,CAN2_INT*%
X68565900Y-12449900D02*
X68272800Y-12156800D01*
X67656500Y-16605000D02*
X68565900Y-15695600D01*
X65580300Y-13434200D02*
X64542100Y-14472400D01*
X64542100Y-14472400D02*
X64542100Y-27557900D01*
X68565900Y-15695600D02*
X68565900Y-12449900D01*
X65580300Y-12797500D02*
X65580300Y-13434200D01*
X68272800Y-12156800D02*
X66221000Y-12156800D01*
X64542100Y-27557900D02*
X64115100Y-27984900D01*
X67250000Y-16605000D02*
X67656500Y-16605000D01*
X64115100Y-55924900D02*
X62860000Y-57180000D01*
X64115100Y-27984900D02*
X64115100Y-55924900D01*
X66221000Y-12156800D02*
X65580300Y-12797500D01*
%TO.N,CAN2_L_C*%
X72501700Y-32800000D02*
X72501700Y-34809700D01*
X84175000Y-35180800D02*
X84072700Y-35078500D01*
X84175000Y-38002500D02*
X84175000Y-36257500D01*
X84175000Y-36257500D02*
X84175000Y-35180800D01*
X87137500Y-40965000D02*
X84175000Y-38002500D01*
X84072700Y-35078500D02*
X84072700Y-34809700D01*
X71500000Y-32800000D02*
X72501700Y-32800000D01*
%TO.N,CAN2_MISO*%
X68820100Y-19040200D02*
X68820100Y-19371700D01*
X72200000Y-15335000D02*
X70461500Y-15335000D01*
X66207300Y-17240000D02*
X65947700Y-17499600D01*
X65947700Y-18274100D02*
X66175900Y-18502300D01*
X66175900Y-18502300D02*
X68282200Y-18502300D01*
X68282200Y-18502300D02*
X68820100Y-19040200D01*
X70461500Y-15335000D02*
X68556500Y-17240000D01*
X68556500Y-17240000D02*
X66207300Y-17240000D01*
X65947700Y-17499600D02*
X65947700Y-18274100D01*
%TO.N,CAN2_MOSI*%
X70231000Y-18116300D02*
X70231000Y-19795400D01*
X72200000Y-16605000D02*
X71742300Y-16605000D01*
X71742300Y-16605000D02*
X70231000Y-18116300D01*
%TO.N,CAN2_RXD*%
X65445500Y-20923900D02*
X66354500Y-21832900D01*
X66354500Y-21832900D02*
X67245500Y-21832900D01*
X65445500Y-15489400D02*
X65445500Y-20923900D01*
X67245500Y-21832900D02*
X69364000Y-23951400D01*
X66869900Y-14065000D02*
X65445500Y-15489400D01*
X69364000Y-25631800D02*
X67698300Y-27297500D01*
X67250000Y-14065000D02*
X66869900Y-14065000D01*
X67698300Y-27297500D02*
X67250000Y-27297500D01*
X69364000Y-23951400D02*
X69364000Y-25631800D01*
%TO.N,CAN2_S*%
X70773500Y-28699600D02*
X69959800Y-29513300D01*
X76092500Y-40965000D02*
X76092500Y-38003600D01*
X69959800Y-29513300D02*
X69959800Y-33162800D01*
X74314900Y-24524300D02*
X74314900Y-27553000D01*
X72200000Y-23487500D02*
X73278100Y-23487500D01*
X69959800Y-33162800D02*
X71648300Y-34851300D01*
X73278100Y-23487500D02*
X74314900Y-24524300D01*
X71648300Y-34851300D02*
X71648300Y-38003600D01*
X73168300Y-28699600D02*
X70773500Y-28699600D01*
X74314900Y-27553000D02*
X73168300Y-28699600D01*
%TO.N,CAN2_SCK*%
X70893500Y-18724100D02*
X70893500Y-22827700D01*
X72200000Y-17875000D02*
X71742600Y-17875000D01*
X71742600Y-17875000D02*
X70893500Y-18724100D01*
%TO.N,CAN2_SPLIT*%
X81382300Y-42110200D02*
X72540200Y-42110200D01*
X72540200Y-42110200D02*
X71425000Y-40995000D01*
X82527500Y-40965000D02*
X81382300Y-42110200D01*
X85312500Y-40965000D02*
X82527500Y-40965000D01*
%TO.N,CAN2_TXD*%
X67250000Y-12795000D02*
X66864800Y-12795000D01*
X64993800Y-14666000D02*
X64993800Y-21231300D01*
X66864800Y-12795000D02*
X64993800Y-14666000D01*
X64993800Y-21231300D02*
X67250000Y-23487500D01*
%TO.N,CANH_T*%
X27898300Y-54725000D02*
X27898300Y-55016300D01*
X27898300Y-55016300D02*
X26646200Y-56268400D01*
X26646200Y-56268400D02*
X16378400Y-56268400D01*
X28900000Y-54725000D02*
X27898300Y-54725000D01*
X16378400Y-56268400D02*
X16200000Y-56090000D01*
%TO.N,CANL_T*%
X27763300Y-57360000D02*
X27898300Y-57225000D01*
X16200000Y-57360000D02*
X27763300Y-57360000D01*
X28900000Y-57225000D02*
X27898300Y-57225000D01*
%TO.N,CAN_H*%
X35872600Y-67160500D02*
X36309000Y-67596900D01*
X26698300Y-62250000D02*
X26698300Y-62487500D01*
X32448300Y-55779000D02*
X27055300Y-61172000D01*
X4000000Y-62000000D02*
X10775000Y-62000000D01*
X27525000Y-62250000D02*
X26698300Y-62250000D01*
X33450000Y-54725000D02*
X34451700Y-54725000D01*
X35872600Y-56145900D02*
X35872600Y-67160500D01*
X32949200Y-54725000D02*
X32448300Y-54725000D01*
X53525000Y-83275000D02*
X53525000Y-79738700D01*
X27055300Y-61172000D02*
X26795300Y-61172000D01*
X10775000Y-62000000D02*
X11525000Y-62750000D01*
X32448300Y-54725000D02*
X32448300Y-55779000D01*
X26698300Y-61269000D02*
X26698300Y-62250000D01*
X11525000Y-62750000D02*
X12633200Y-62750000D01*
X12633200Y-62750000D02*
X13281000Y-63397800D01*
X26795300Y-61172000D02*
X26698300Y-61269000D01*
X34451700Y-54725000D02*
X35872600Y-56145900D01*
X32949200Y-54725000D02*
X33450000Y-54725000D01*
X26698300Y-62487500D02*
X26365000Y-62820800D01*
%TO.N,CAN_L*%
X30324500Y-59348800D02*
X32448300Y-57225000D01*
X16242700Y-67714200D02*
X16242700Y-66282300D01*
X2784900Y-62424900D02*
X3360000Y-63000000D01*
X33061700Y-57225000D02*
X32448300Y-57225000D01*
X33061700Y-57225000D02*
X33450000Y-57225000D01*
X3360000Y-63000000D02*
X4625900Y-63000000D01*
X21837500Y-64812500D02*
X27991300Y-64812500D01*
X21837500Y-64812500D02*
X21837500Y-67025000D01*
X9697700Y-68071800D02*
X15885100Y-68071800D01*
X3420800Y-60926700D02*
X2784900Y-61562600D01*
X27991300Y-64812500D02*
X30324500Y-62479300D01*
X2784900Y-61562600D02*
X2784900Y-62424900D01*
X15885100Y-68071800D02*
X16242700Y-67714200D01*
X19775000Y-62750000D02*
X21837500Y-64812500D01*
X57275000Y-83275000D02*
X57275000Y-77335500D01*
X4625900Y-63000000D02*
X9697700Y-68071800D01*
X36027200Y-68654000D02*
X35358600Y-67985400D01*
X16242700Y-66282300D02*
X19775000Y-62750000D01*
X4000000Y-60926700D02*
X3420800Y-60926700D01*
X35358600Y-67985400D02*
X35358600Y-58131900D01*
X30324500Y-62479300D02*
X30324500Y-59348800D01*
X4000000Y-60000000D02*
X4000000Y-60926700D01*
X33450000Y-57225000D02*
X34451700Y-57225000D01*
X35358600Y-58131900D02*
X34451700Y-57225000D01*
%TO.N,CAN_RX*%
X12268700Y-58630000D02*
X13427800Y-57470900D01*
X11250000Y-58630000D02*
X12268700Y-58630000D01*
%TO.N,CAN_S*%
X10792500Y-67025000D02*
X13910900Y-63906600D01*
X13910900Y-63906600D02*
X13910900Y-57965900D01*
X14853600Y-57023200D02*
X14853600Y-55770600D01*
X15804200Y-54820000D02*
X16200000Y-54820000D01*
X13910900Y-57965900D02*
X14853600Y-57023200D01*
X14853600Y-55770600D02*
X15804200Y-54820000D01*
%TO.N,CAN_SPLIT*%
X17227500Y-67025000D02*
X20012500Y-67025000D01*
X20012500Y-67025000D02*
X21053500Y-68066000D01*
X25739000Y-68066000D02*
X31825000Y-61980000D01*
X21053500Y-68066000D02*
X25739000Y-68066000D01*
%TO.N,CAN_TX*%
X12708800Y-54820000D02*
X13008500Y-55119700D01*
X11250000Y-54820000D02*
X12708800Y-54820000D01*
D45*
%TO.N,GND*%
X13517500Y-33735000D02*
X14530000Y-33735000D01*
X29705000Y-20525000D02*
X30930000Y-20525000D01*
X9227500Y-50725000D02*
X10240000Y-50725000D01*
X42275000Y-83275000D02*
X43525000Y-83275000D01*
X9227500Y-40025000D02*
X10240000Y-40025000D01*
X22475000Y-25405000D02*
X23475000Y-25405000D01*
X59487500Y-66975000D02*
X60500000Y-66975000D01*
X21135000Y-75580000D02*
X22135000Y-75580000D01*
X7525000Y-14775000D02*
X9275000Y-14775000D01*
X35925000Y-31155000D02*
X36925000Y-31155000D01*
X13575000Y-25405000D02*
X14575000Y-25405000D01*
X33227500Y-44975000D02*
X34240000Y-44975000D01*
X45175000Y-49705000D02*
X46175000Y-49705000D01*
X3005000Y-20525000D02*
X4230000Y-20525000D01*
X69225000Y-37607500D02*
X70425000Y-37607500D01*
X33725000Y-61980000D02*
X34725000Y-61980000D01*
X87425000Y-31350000D02*
X89175000Y-31350000D01*
X22417500Y-33735000D02*
X23430000Y-33735000D01*
X77325000Y-13005000D02*
X78325000Y-13005000D01*
X81975000Y-13005000D02*
X82975000Y-13005000D01*
X74087500Y-59775000D02*
X72925000Y-59775000D01*
X72127500Y-43775000D02*
X73365000Y-43775000D01*
X35927500Y-40025000D02*
X36940000Y-40025000D01*
X74087500Y-61675000D02*
X75094300Y-62075000D01*
X67250000Y-20415000D02*
X68725000Y-20415000D01*
X20817500Y-19525000D02*
X22055000Y-19525000D01*
X81975000Y-23672500D02*
X82975000Y-23672500D01*
X34367500Y-25275000D02*
X35605000Y-25275000D01*
X55175000Y-39775000D02*
X56925000Y-39775000D01*
X10617500Y-75550000D02*
X11630000Y-75550000D01*
X56800000Y-49875000D02*
X57875000Y-49875000D01*
X45392500Y-15725000D02*
X46630000Y-15725000D01*
X46300000Y-45325000D02*
X47375000Y-45325000D01*
X31375000Y-25505000D02*
X32375000Y-25505000D01*
X18035000Y-45005000D02*
X19035000Y-45005000D01*
X67250000Y-24757500D02*
X68725000Y-24757500D01*
X15525000Y-62750000D02*
X17275000Y-62750000D01*
X51050000Y-34325000D02*
X52125000Y-34325000D01*
X59487500Y-14975000D02*
X60500000Y-14975000D01*
X4675000Y-25505000D02*
X5675000Y-25505000D01*
X43517500Y-66775000D02*
X44755000Y-66775000D01*
X28617500Y-44975000D02*
X29630000Y-44975000D01*
X9225000Y-31155000D02*
X10225000Y-31155000D01*
X11267500Y-44775000D02*
X12505000Y-44775000D01*
X73325000Y-40995000D02*
X74325000Y-40995000D01*
X23775000Y-62750000D02*
X25525000Y-62750000D01*
X59027500Y-54225000D02*
X60040000Y-54225000D01*
X11917500Y-19525000D02*
X13155000Y-19525000D01*
X19325000Y-86150000D02*
X19325000Y-87525000D01*
X50950000Y-49875000D02*
X52025000Y-49875000D01*
X49825000Y-54255000D02*
X50825000Y-54255000D01*
X77325000Y-23672500D02*
X78325000Y-23672500D01*
X7667500Y-25275000D02*
X8905000Y-25275000D01*
X50285000Y-15005000D02*
X51285000Y-15005000D01*
X3005000Y-19525000D02*
X4230000Y-19525000D01*
X81175000Y-60005000D02*
X82175000Y-60005000D01*
X79175000Y-31350000D02*
X80925000Y-31350000D01*
X11425000Y-96950000D02*
X12425000Y-96950000D01*
X11250000Y-56090000D02*
X12725000Y-56090000D01*
X50285000Y-67005000D02*
X51285000Y-67005000D01*
X14287500Y-70725000D02*
X13125000Y-70725000D01*
X67025000Y-35907500D02*
X65985800Y-36457500D01*
X24827500Y-71675000D02*
X26065000Y-71675000D01*
X88257500Y-49625000D02*
X89270000Y-49625000D01*
X16425000Y-14775000D02*
X18175000Y-14775000D01*
X16410000Y-75750000D02*
X17485000Y-75750000D01*
X25325000Y-14775000D02*
X27075000Y-14775000D01*
X55175000Y-28775000D02*
X56925000Y-28775000D01*
X45175000Y-54255000D02*
X46175000Y-54255000D01*
X12617500Y-67025000D02*
X13630000Y-67025000D01*
X34225000Y-14775000D02*
X35975000Y-14775000D01*
X87287500Y-79725000D02*
X88300000Y-79725000D01*
X8937500Y-70725000D02*
X7775000Y-70725000D01*
X7525000Y-45775000D02*
X9275000Y-45775000D01*
X51025000Y-45155000D02*
X52025000Y-45155000D01*
X21325000Y-55005000D02*
X22325000Y-55005000D01*
X67017500Y-45675000D02*
X68255000Y-45675000D01*
X25975000Y-55005000D02*
X26975000Y-55005000D01*
X77917500Y-40965000D02*
X78930000Y-40965000D01*
X79037500Y-49625000D02*
X80050000Y-49625000D01*
X89075000Y-35987500D02*
X90075000Y-35987500D01*
X68675000Y-40995000D02*
X69675000Y-40995000D01*
D47*
%TO.N,I2C_SCL*%
X40000000Y-49560000D02*
X38804000Y-48364000D01*
X38804000Y-48364000D02*
X38804000Y-19888200D01*
X34105000Y-19525000D02*
X34105000Y-18863400D01*
X8546300Y-19525000D02*
X9256700Y-20235400D01*
X7405000Y-19525000D02*
X8546300Y-19525000D01*
X51516100Y-51314500D02*
X51516100Y-56646400D01*
X51516100Y-56646400D02*
X49727500Y-58435000D01*
X9256700Y-20235400D02*
X9256700Y-21260500D01*
%TO.N,I2C_SDA*%
X46818000Y-56734500D02*
X46818000Y-52100000D01*
X32999200Y-18216500D02*
X34413300Y-18216500D01*
X5906000Y-19362500D02*
X5906000Y-10725400D01*
X33304200Y-20025000D02*
X34105000Y-20025000D01*
X27846400Y-4755500D02*
X29000000Y-5909100D01*
X32999200Y-19720000D02*
X33304200Y-20025000D01*
X32999200Y-18216500D02*
X32999200Y-19720000D01*
X38183500Y-21986700D02*
X38183500Y-50283500D01*
X29000000Y-5909100D02*
X29000000Y-10431300D01*
X45117500Y-58435000D02*
X46818000Y-56734500D01*
X11875900Y-4755500D02*
X27846400Y-4755500D01*
X5906000Y-10725400D02*
X11875900Y-4755500D01*
X32328300Y-17545600D02*
X32999200Y-18216500D01*
X29000000Y-10431300D02*
X32328300Y-13759600D01*
X32328300Y-13759600D02*
X32328300Y-17545600D01*
X6568500Y-20025000D02*
X5906000Y-19362500D01*
X7405000Y-20025000D02*
X6568500Y-20025000D01*
X34413300Y-18216500D02*
X38183500Y-21986700D01*
X38183500Y-50283500D02*
X40000000Y-52100000D01*
%TO.N,K_LINE*%
X66362700Y-42944700D02*
X65451700Y-43855700D01*
X68081100Y-51491400D02*
X69767500Y-49805000D01*
X81822500Y-46870000D02*
X84537500Y-44155000D01*
X80327400Y-51120100D02*
X81822500Y-49625000D01*
X66011200Y-51491400D02*
X68081100Y-51491400D01*
X70451200Y-40316600D02*
X70451200Y-41182200D01*
X61025000Y-83275000D02*
X61206500Y-83093500D01*
X69767500Y-49805000D02*
X71082600Y-51120100D01*
X72475000Y-36257500D02*
X72475000Y-38292800D01*
X70451200Y-41182200D02*
X68688700Y-42944700D01*
X72475000Y-38292800D02*
X70451200Y-40316600D01*
X68688700Y-42944700D02*
X66362700Y-42944700D01*
X65451700Y-43855700D02*
X65451700Y-50931900D01*
X81822500Y-49625000D02*
X81822500Y-46870000D01*
X66011200Y-51491400D02*
X66011200Y-58461200D01*
X65451700Y-50931900D02*
X66011200Y-51491400D01*
X61206500Y-83093500D02*
X61206500Y-58461200D01*
X71082600Y-51120100D02*
X80327400Y-51120100D01*
%TO.N,K_PU*%
X70760800Y-43715900D02*
X70760800Y-45452800D01*
X78454800Y-43108100D02*
X71368600Y-43108100D01*
X78545000Y-43198300D02*
X78454800Y-43108100D01*
X71368600Y-43108100D02*
X70760800Y-43715900D01*
X78545000Y-44275000D02*
X78545000Y-43198300D01*
X70760800Y-45452800D02*
X66842500Y-49371100D01*
X66842500Y-49371100D02*
X66842500Y-49805000D01*
%TO.N,K_RX*%
X86432500Y-49625000D02*
X85427700Y-49625000D01*
X85427700Y-49625000D02*
X83647500Y-49625000D01*
X82152600Y-45369300D02*
X74646800Y-45369300D01*
X82759700Y-44132300D02*
X82759700Y-44762200D01*
X85146200Y-42935700D02*
X83956300Y-42935700D01*
X74646800Y-45369300D02*
X74646800Y-46890200D01*
X83956300Y-42935700D02*
X82759700Y-44132300D01*
X82759700Y-44762200D02*
X82152600Y-45369300D01*
X85427700Y-43217200D02*
X85146200Y-42935700D01*
X74646800Y-45369300D02*
X74002500Y-44725000D01*
X85427700Y-49625000D02*
X85427700Y-43217200D01*
%TO.N,K_TX*%
X72602500Y-47872300D02*
X72602500Y-49625000D01*
X70915000Y-46184800D02*
X72602500Y-47872300D01*
%TO.N,K_TX_D*%
X81612500Y-44155000D02*
X80082000Y-42624500D01*
X70993000Y-42624500D02*
X68892500Y-44725000D01*
X80082000Y-42624500D02*
X70993000Y-42624500D01*
%TO.N,K_TX_G*%
X71607400Y-49807800D02*
X70367100Y-48567500D01*
X74427500Y-49625000D02*
X73384100Y-50668400D01*
X66311600Y-51039700D02*
X65903400Y-50631500D01*
X67886800Y-49931300D02*
X67886800Y-50537500D01*
X67384600Y-51039700D02*
X66311600Y-51039700D01*
X65903400Y-44889100D02*
X67017500Y-43775000D01*
X71607400Y-50211100D02*
X71607400Y-49807800D01*
X67886800Y-50537500D02*
X67384600Y-51039700D01*
X72064700Y-50668400D02*
X71607400Y-50211100D01*
X69250600Y-48567500D02*
X67886800Y-49931300D01*
X77212500Y-49625000D02*
X74427500Y-49625000D01*
X73384100Y-50668400D02*
X72064700Y-50668400D01*
X65903400Y-50631500D02*
X65903400Y-44889100D01*
X70367100Y-48567500D02*
X69250600Y-48567500D01*
D46*
%TO.N,LED_5V*%
X93000000Y-20000000D02*
X94346600Y-21346600D01*
X78130700Y-67993200D02*
X71112500Y-60975000D01*
X94346600Y-21346600D02*
X94346600Y-67166400D01*
X93519800Y-67993200D02*
X78130700Y-67993200D01*
X94346600Y-67166400D02*
X93519800Y-67993200D01*
D47*
%TO.N,LED_DIN*%
X67885600Y-63082500D02*
X66792500Y-64175600D01*
X76362500Y-61675000D02*
X76362500Y-61804200D01*
X74580000Y-62719600D02*
X74535100Y-62674700D01*
X76362500Y-61804200D02*
X75447100Y-62719600D01*
X66792500Y-64175600D02*
X66792500Y-66025000D01*
X75447100Y-62719600D02*
X74580000Y-62719600D01*
%TO.N,LED_DIN_A*%
X84623300Y-61119200D02*
X85767500Y-59975000D01*
X74087500Y-60725000D02*
X78241100Y-60725000D01*
X78635300Y-61119200D02*
X84623300Y-61119200D01*
X78241100Y-60725000D02*
X78635300Y-61119200D01*
%TO.N,LED_DIN_J*%
X91073700Y-24466300D02*
X91073700Y-64628600D01*
X93000000Y-22540000D02*
X91073700Y-24466300D01*
X68617500Y-66025000D02*
X68617500Y-64628600D01*
%TO.N,LED_DIN_MCU*%
X83942500Y-59975000D02*
X83942500Y-52100000D01*
D46*
%TO.N,OBD_VBAT*%
X45453500Y-74574000D02*
X41509700Y-70630200D01*
X45453500Y-74574000D02*
X38525000Y-81502500D01*
X53052500Y-66975000D02*
X45453500Y-74574000D01*
X41509700Y-70630200D02*
X41509700Y-41802800D01*
X41509700Y-41802800D02*
X43337500Y-39975000D01*
X38525000Y-81502500D02*
X38525000Y-83275000D01*
%TO.N,OBD_VBAT_F*%
X67281100Y-5141800D02*
X59336900Y-13086000D01*
X51175000Y-39775000D02*
X52809300Y-41409300D01*
X59336900Y-13086000D02*
X59336900Y-13596200D01*
X85193700Y-14026900D02*
X76308600Y-5141800D01*
X50936500Y-47388900D02*
X45591100Y-47388900D01*
X52809300Y-41409300D02*
X52809300Y-45516100D01*
X76268300Y-44275000D02*
X76268300Y-44391100D01*
X52809300Y-45516100D02*
X50936500Y-47388900D01*
X51175000Y-39775000D02*
X57701700Y-33248300D01*
X76268300Y-44391100D02*
X76093300Y-44566100D01*
X45591100Y-47388900D02*
X43275000Y-49705000D01*
X47612500Y-39975000D02*
X47812500Y-39775000D01*
X47812500Y-39775000D02*
X51175000Y-39775000D01*
X85193700Y-37872600D02*
X85193700Y-14026900D01*
X76308600Y-5141800D02*
X67281100Y-5141800D01*
X77245000Y-44275000D02*
X76268300Y-44275000D01*
X57701700Y-33248300D02*
X57701700Y-16340000D01*
D47*
%TO.N,PFD_SENSE*%
X54877500Y-15475000D02*
X54877500Y-14975000D01*
X49727500Y-20625000D02*
X54877500Y-15475000D01*
X57662500Y-14975000D02*
X54877500Y-14975000D01*
X46715000Y-16675000D02*
X48385000Y-15005000D01*
X43517500Y-16675000D02*
X46715000Y-16675000D01*
X53844200Y-13941700D02*
X49448300Y-13941700D01*
X49448300Y-13941700D02*
X48385000Y-15005000D01*
X54877500Y-14975000D02*
X53844200Y-13941700D01*
%TO.N,PWR_FAIL*%
X45317500Y-28002000D02*
X45317500Y-20825000D01*
X40000000Y-31780000D02*
X41650300Y-30129700D01*
X41650300Y-30129700D02*
X41650300Y-16642200D01*
X45317500Y-20825000D02*
X45117500Y-20625000D01*
X41650300Y-16642200D02*
X43517500Y-14775000D01*
X45117500Y-20625000D02*
X47902500Y-20625000D01*
%TO.N,PWR_LED_K*%
X52567500Y-54225000D02*
X53597800Y-53194700D01*
X53597800Y-53194700D02*
X56172200Y-53194700D01*
X56172200Y-53194700D02*
X57202500Y-54225000D01*
D46*
%TO.N,SCAP_MID*%
X78275000Y-75322500D02*
X82677500Y-79725000D01*
X85462500Y-79725000D02*
X82677500Y-79725000D01*
X78275000Y-72275000D02*
X78275000Y-75322500D01*
%TO.N,SCAP_TOP*%
X76654100Y-78541600D02*
X78017500Y-79905000D01*
X68525000Y-72275000D02*
X68525000Y-75541600D01*
X71525000Y-78541600D02*
X76654100Y-78541600D01*
X68525000Y-75541600D02*
X71525000Y-78541600D01*
X78017500Y-79905000D02*
X80672500Y-79905000D01*
X80672500Y-79905000D02*
X80852500Y-79725000D01*
X71525000Y-78541600D02*
X71525000Y-80525000D01*
D47*
%TO.N,SD_CD*%
X31980600Y-81693000D02*
X32655400Y-81693000D01*
X16513100Y-77657100D02*
X15507300Y-76651300D01*
X36606600Y-58033400D02*
X36606600Y-65069900D01*
X16562500Y-72402900D02*
X18320200Y-72402900D01*
X18320200Y-72402900D02*
X18476300Y-72559000D01*
X32655400Y-81693000D02*
X33667500Y-80680900D01*
X15507300Y-76651300D02*
X15507300Y-73458100D01*
X17314900Y-77657100D02*
X16513100Y-77657100D01*
X17368900Y-77711100D02*
X17314900Y-77657100D01*
X30450000Y-80162400D02*
X31980600Y-81693000D01*
X23701700Y-95375000D02*
X23701700Y-89248500D01*
X15507300Y-73458100D02*
X16562500Y-72402900D01*
X33667500Y-80680900D02*
X33667500Y-80025000D01*
X16562500Y-71675000D02*
X16562500Y-72402900D01*
X40000000Y-54640000D02*
X36606600Y-58033400D01*
X22650000Y-95375000D02*
X23701700Y-95375000D01*
X30450000Y-79408300D02*
X30450000Y-80162400D01*
X23701700Y-89248500D02*
X26715000Y-86235200D01*
%TO.N,SD_CLK*%
X23902500Y-75550000D02*
X23902500Y-76882000D01*
%TO.N,SD_CLK_C*%
X26174400Y-85179800D02*
X26174400Y-82638400D01*
X23087200Y-88267000D02*
X26174400Y-85179800D01*
X44120200Y-85179800D02*
X26174400Y-85179800D01*
X18225000Y-86150000D02*
X18225000Y-87351700D01*
X18225000Y-87351700D02*
X19140300Y-88267000D01*
X28082000Y-80730800D02*
X28082000Y-77904500D01*
X26174400Y-82638400D02*
X28082000Y-80730800D01*
X46025000Y-83275000D02*
X44120200Y-85179800D01*
X28082000Y-77904500D02*
X25727500Y-75550000D01*
X19140300Y-88267000D02*
X23087200Y-88267000D01*
%TO.N,SD_CMD*%
X28512500Y-71524500D02*
X28512500Y-75550000D01*
X28117400Y-71129400D02*
X28512500Y-71524500D01*
X32717400Y-66786400D02*
X32717400Y-59720000D01*
%TO.N,SD_CMD_C*%
X11246400Y-79497600D02*
X11144900Y-79497600D01*
X30337500Y-75550000D02*
X30337500Y-73819700D01*
X8937500Y-72004500D02*
X8937500Y-71675000D01*
X12278000Y-72362700D02*
X12899700Y-71741000D01*
X11144900Y-79497600D02*
X10617500Y-80025000D01*
X11246400Y-79497600D02*
X12256700Y-78487300D01*
X11246400Y-79497600D02*
X16025000Y-84276200D01*
X12278000Y-74064700D02*
X12278000Y-72362700D01*
X49775000Y-83275000D02*
X49775000Y-73819700D01*
X11428000Y-74412600D02*
X11345600Y-74412600D01*
X12231300Y-75264900D02*
X12231300Y-75215900D01*
X12256700Y-75290300D02*
X12231300Y-75264900D01*
X12231300Y-75215900D02*
X11679100Y-74663600D01*
X11679100Y-74663600D02*
X11428000Y-74412600D01*
X11345600Y-74412600D02*
X8937500Y-72004500D01*
X12256700Y-78487300D02*
X12256700Y-75290300D01*
X11679100Y-74663600D02*
X12278000Y-74064700D01*
X16025000Y-84276200D02*
X16025000Y-86150000D01*
%TO.N,SD_D0*%
X37283900Y-71388600D02*
X37283900Y-59896100D01*
X33122500Y-75550000D02*
X37283900Y-71388600D01*
X37283900Y-59896100D02*
X40000000Y-57180000D01*
%TO.N,SD_D0_C*%
X35887500Y-76490000D02*
X35887500Y-81536500D01*
X20425000Y-86150000D02*
X20425000Y-84948300D01*
X20425000Y-86150000D02*
X20425000Y-87640300D01*
X11212500Y-71675000D02*
X11212500Y-72143300D01*
X34947500Y-75550000D02*
X35887500Y-76490000D01*
X20150800Y-84948300D02*
X15227500Y-80025000D01*
X11212500Y-72143300D02*
X11651200Y-72582000D01*
X20425000Y-84948300D02*
X20150800Y-84948300D01*
%TO.N,SD_D1_C*%
X10192400Y-70406600D02*
X10192400Y-72372000D01*
X21525000Y-86150000D02*
X21525000Y-81712500D01*
X10824000Y-69775000D02*
X10192400Y-70406600D01*
X10192400Y-72372000D02*
X11606300Y-73785900D01*
X18990100Y-79177600D02*
X18990100Y-77084400D01*
X11212500Y-69775000D02*
X10824000Y-69775000D01*
X19837500Y-80025000D02*
X18990100Y-79177600D01*
X21525000Y-81712500D02*
X19837500Y-80025000D01*
%TO.N,SD_D2_C*%
X14287500Y-69775000D02*
X14237200Y-69825300D01*
X13825000Y-86150000D02*
X13825000Y-84166500D01*
X24447500Y-80025000D02*
X24447500Y-81724600D01*
X14237200Y-69825300D02*
X13096300Y-69825300D01*
%TO.N,SD_D3_C*%
X14287500Y-71675000D02*
X14539900Y-71927400D01*
X29057500Y-80025000D02*
X29057500Y-83239300D01*
X14539900Y-76340600D02*
X16522300Y-78323000D01*
X15106300Y-84767000D02*
X15106300Y-84325200D01*
X14539900Y-71927400D02*
X14539900Y-76340600D01*
X14925000Y-86150000D02*
X14925000Y-84948300D01*
X16522300Y-78323000D02*
X16807300Y-78323000D01*
X14925000Y-84948300D02*
X15106300Y-84767000D01*
%TO.N,SD_EN_G*%
X7052700Y-69648100D02*
X6690500Y-70010300D01*
X6949000Y-72185800D02*
X7136100Y-72185800D01*
X7054800Y-69648100D02*
X7052700Y-69648100D01*
X7136100Y-72185800D02*
X7136100Y-73893600D01*
X6690500Y-70010300D02*
X6690500Y-70012400D01*
X6690500Y-70012400D02*
X6684400Y-70018500D01*
X24827500Y-69775000D02*
X23736600Y-68684100D01*
X25674200Y-68928300D02*
X35100800Y-68928300D01*
X8657600Y-68684100D02*
X8189500Y-69152200D01*
X24827500Y-69775000D02*
X25674200Y-68928300D01*
X6684400Y-71921200D02*
X6949000Y-72185800D01*
X23736600Y-68684100D02*
X8657600Y-68684100D01*
X7136100Y-73893600D02*
X8792500Y-75550000D01*
X6684400Y-70018500D02*
X6684400Y-71921200D01*
X7550700Y-69152200D02*
X7054800Y-69648100D01*
X8189500Y-69152200D02*
X7550700Y-69152200D01*
X35100800Y-68928300D02*
X36147500Y-69975000D01*
%TO.N,SD_PG*%
X30544500Y-71653900D02*
X29528200Y-71653900D01*
X19717500Y-69775000D02*
X20112700Y-69379800D01*
X31537500Y-70660900D02*
X30544500Y-71653900D01*
X22864200Y-69379800D02*
X24209400Y-70725000D01*
X29528200Y-71653900D02*
X28323600Y-70449300D01*
X31537500Y-69975000D02*
X31537500Y-70660900D01*
X20112700Y-69379800D02*
X22864200Y-69379800D01*
X26978200Y-70449300D02*
X26702500Y-70725000D01*
X24209400Y-70725000D02*
X26702500Y-70725000D01*
X28323600Y-70449300D02*
X26978200Y-70449300D01*
%TO.N,SD_PWR_EN*%
X59950800Y-57549200D02*
X59950800Y-62238200D01*
X34322500Y-69975000D02*
X34322500Y-71180500D01*
X62860000Y-54640000D02*
X59950800Y-57549200D01*
D46*
%TO.N,SD_VDD*%
X18012500Y-80025000D02*
X18187900Y-79849600D01*
X22622500Y-78967500D02*
X19235000Y-75580000D01*
X18187900Y-79849600D02*
X18187900Y-76627100D01*
X13460000Y-78817100D02*
X16165500Y-78817100D01*
X18187900Y-76627100D02*
X19235000Y-75580000D01*
X17123400Y-87500200D02*
X16625000Y-87500200D01*
X17125000Y-87501700D02*
X17124900Y-87501700D01*
X13228000Y-87501700D02*
X12800000Y-87073700D01*
X16165500Y-78817100D02*
X17373400Y-80025000D01*
X23814800Y-78832700D02*
X22622500Y-80025000D01*
X17124900Y-87501700D02*
X17123400Y-87500200D01*
X12800000Y-84032500D02*
X8792500Y-80025000D01*
X16623500Y-87501700D02*
X13228000Y-87501700D01*
X13460000Y-78817100D02*
X13460000Y-79967500D01*
X17373400Y-80025000D02*
X18012500Y-80025000D01*
X12800000Y-87073700D02*
X12800000Y-84032500D01*
X21749600Y-70882100D02*
X21592500Y-70725000D01*
X13460000Y-75750000D02*
X13460000Y-78817100D01*
X17125000Y-83747500D02*
X17125000Y-86150000D01*
X16625000Y-87500200D02*
X16623500Y-87501700D01*
X19235000Y-75580000D02*
X21749600Y-73065400D01*
X27232500Y-80025000D02*
X26040200Y-78832700D01*
X13460000Y-79967500D02*
X13402500Y-80025000D01*
X21749600Y-73065400D02*
X21749600Y-70882100D01*
X22622500Y-80025000D02*
X22622500Y-78967500D01*
X26040200Y-78832700D02*
X23814800Y-78832700D01*
X13402500Y-80025000D02*
X17125000Y-83747500D01*
X17125000Y-86150000D02*
X17125000Y-87501700D01*
D47*
%TO.N,SENS_RTN*%
X5360200Y-43939800D02*
X3525000Y-45775000D01*
X20000000Y-7700200D02*
X20000000Y-7875000D01*
X20802500Y-44975000D02*
X19767300Y-43939800D01*
X22000000Y-6500000D02*
X22000000Y-7875000D01*
X20000000Y-6500000D02*
X20000000Y-7700200D01*
X19767300Y-43939800D02*
X19287200Y-43939800D01*
X19287200Y-43939800D02*
X5360200Y-43939800D01*
X19007500Y-8692700D02*
X19007500Y-17931300D01*
X20000000Y-7700200D02*
X19007500Y-8692700D01*
X19287200Y-21484300D02*
X19287200Y-43939800D01*
X20296500Y-20475000D02*
X19287200Y-21484300D01*
%TO.N,TERM2_A*%
X79625000Y-36257500D02*
X80451700Y-36257500D01*
X80451700Y-36257500D02*
X80451700Y-40714200D01*
X80451700Y-40714200D02*
X80702500Y-40965000D01*
%TO.N,TERM_A*%
X28825000Y-62250000D02*
X28825000Y-63326700D01*
X15402500Y-67025000D02*
X15402500Y-65583100D01*
X28159600Y-63992100D02*
X28825000Y-63326700D01*
X17932400Y-63053200D02*
X17932400Y-62065500D01*
X21775000Y-62246400D02*
X21775000Y-63219400D01*
X18495500Y-61502400D02*
X21031000Y-61502400D01*
X15402500Y-65583100D02*
X17932400Y-63053200D01*
X22547700Y-63992100D02*
X28159600Y-63992100D01*
X17932400Y-62065500D02*
X18495500Y-61502400D01*
X21775000Y-63219400D02*
X22547700Y-63992100D01*
X21031000Y-61502400D02*
X21775000Y-62246400D01*
%TO.N,VBAT_SNS*%
X48385000Y-67005000D02*
X47665000Y-67725000D01*
X54877500Y-66975000D02*
X53836800Y-65934300D01*
X52799900Y-50639500D02*
X52799900Y-47709100D01*
X54877500Y-66975000D02*
X57662500Y-66975000D01*
X58058400Y-66579100D02*
X58058400Y-53489000D01*
X58058400Y-53489000D02*
X55672100Y-51102700D01*
X49455700Y-65934300D02*
X48385000Y-67005000D01*
X53836800Y-65934300D02*
X49455700Y-65934300D01*
X53263100Y-51102700D02*
X52799900Y-50639500D01*
X55672100Y-51102700D02*
X53263100Y-51102700D01*
X57662500Y-66975000D02*
X58058400Y-66579100D01*
X47665000Y-67725000D02*
X45392500Y-67725000D01*
D46*
%TO.N,VSENS_F*%
X43212500Y-34025000D02*
X47612500Y-29625000D01*
X47612500Y-29625000D02*
X47612500Y-28975000D01*
D47*
%TO.N,XTAL1*%
X65897200Y-20117700D02*
X66869900Y-19145000D01*
X68885700Y-27007700D02*
X69836400Y-26057000D01*
X65897200Y-20736800D02*
X65897200Y-20117700D01*
X66869900Y-19145000D02*
X67250000Y-19145000D01*
X86297200Y-35987500D02*
X86166300Y-35856600D01*
X87175000Y-35987500D02*
X86297200Y-35987500D01*
X69836400Y-26057000D02*
X69836400Y-23729000D01*
X67025000Y-37607500D02*
X67025000Y-38717700D01*
X67488600Y-21381200D02*
X66541600Y-21381200D01*
X69836400Y-23729000D02*
X67488600Y-21381200D01*
X66541600Y-21381200D02*
X65897200Y-20736800D01*
%TO.N,XTAL2*%
X70637500Y-27185800D02*
X70637500Y-27846900D01*
X73574900Y-26316400D02*
X73228900Y-26662400D01*
X71160900Y-26662400D02*
X70637500Y-27185800D01*
X70637500Y-27846900D02*
X69508100Y-28976300D01*
X68138600Y-39631400D02*
X68138600Y-36993900D01*
X68293800Y-17875000D02*
X69446900Y-19028100D01*
X69446900Y-19028100D02*
X69446900Y-22393600D01*
X73228900Y-24124000D02*
X73574900Y-24470000D01*
X69446900Y-22393600D02*
X71177300Y-24124000D01*
X66775000Y-40995000D02*
X68138600Y-39631400D01*
X71177300Y-24124000D02*
X73228900Y-24124000D01*
X69508100Y-35624400D02*
X69225000Y-35907500D01*
X73574900Y-24470000D02*
X73574900Y-26316400D01*
X68138600Y-36993900D02*
X69225000Y-35907500D01*
X69508100Y-28976300D02*
X69508100Y-35624400D01*
X67250000Y-17875000D02*
X68293800Y-17875000D01*
X73228900Y-26662400D02*
X71160900Y-26662400D01*
%TD*%
M02*
