%TF.GenerationSoftware,KiCad,Pcbnew,9.0.5*%
%TF.CreationDate,2026-08-13T00:10:19-04:00*%
%TF.ProjectId,esp32s3-can-sd-logger,65737033-3273-4332-9d63-616e2d73642d,rev?*%
%TF.SameCoordinates,Original*%
%TF.FileFunction,Copper,L4,Bot*%
%TF.FilePolarity,Positive*%
%FSLAX46Y46*%
G04 Gerber Fmt 4.6, Leading zero omitted, Abs format (unit mm)*
G04 Created by KiCad (PCBNEW 9.0.5) date 2026-08-13 00:10:19*
%MOMM*%
%LPD*%
G01*
G04 APERTURE LIST*
G04 Aperture macros list*
%AMRoundRect*
0 Rectangle with rounded corners*
0 $1 Rounding radius*
0 $2 $3 $4 $5 $6 $7 $8 $9 X,Y pos of 4 corners*
0 Add a 4 corners polygon primitive as box body*
4,1,4,$2,$3,$4,$5,$6,$7,$8,$9,$2,$3,0*
0 Add four circle primitives for the rounded corners*
1,1,$1+$1,$2,$3*
1,1,$1+$1,$4,$5*
1,1,$1+$1,$6,$7*
1,1,$1+$1,$8,$9*
0 Add four rect primitives between the rounded corners*
20,1,$1+$1,$2,$3,$4,$5,0*
20,1,$1+$1,$4,$5,$6,$7,0*
20,1,$1+$1,$6,$7,$8,$9,0*
20,1,$1+$1,$8,$9,$2,$3,0*%
G04 Aperture macros list end*
%TA.AperFunction,ComponentPad*%
%ADD10RoundRect,0.250000X-0.350000X-0.625000X0.350000X-0.625000X0.350000X0.625000X-0.350000X0.625000X0*%
%TD*%
%TA.AperFunction,ComponentPad*%
%ADD11O,1.200000X1.750000*%
%TD*%
%TA.AperFunction,ComponentPad*%
%ADD12R,1.700000X1.700000*%
%TD*%
%TA.AperFunction,ComponentPad*%
%ADD13C,1.700000*%
%TD*%
%TA.AperFunction,ComponentPad*%
%ADD14RoundRect,0.250000X-0.550000X-0.550000X0.550000X-0.550000X0.550000X0.550000X-0.550000X0.550000X0*%
%TD*%
%TA.AperFunction,ComponentPad*%
%ADD15C,1.600000*%
%TD*%
%TA.AperFunction,ComponentPad*%
%ADD16RoundRect,0.250000X0.625000X-0.350000X0.625000X0.350000X-0.625000X0.350000X-0.625000X-0.350000X0*%
%TD*%
%TA.AperFunction,ComponentPad*%
%ADD17O,1.750000X1.200000*%
%TD*%
%TA.AperFunction,ViaPad*%
%ADD18C,0.600000*%
%TD*%
%TA.AperFunction,ViaPad*%
%ADD19C,0.500000*%
%TD*%
%TA.AperFunction,ViaPad*%
%ADD20C,0.800000*%
%TD*%
%TA.AperFunction,Conductor*%
%ADD21C,0.550000*%
%TD*%
%TA.AperFunction,Conductor*%
%ADD22C,0.250000*%
%TD*%
G04 APERTURE END LIST*
D10*
%TO.P,J2,1*%
%TO.N,AUX_A*%
X68000000Y-6500000D03*
D11*
%TO.P,J2,2*%
%TO.N,AUX_B*%
X70000000Y-6500000D03*
%TO.P,J2,3*%
%TO.N,GND*%
X72000000Y-6500000D03*
%TO.P,J2,4*%
X74000000Y-6500000D03*
%TD*%
D12*
%TO.P,J10,1*%
%TO.N,AIN_SP1*%
X93000000Y-59000000D03*
D13*
%TO.P,J10,2*%
%TO.N,AIN_SP2*%
X93000000Y-61540000D03*
%TO.P,J10,3*%
%TO.N,AGND_SENSE*%
X93000000Y-64080000D03*
%TO.P,J10,4*%
%TO.N,GND*%
X93000000Y-66620000D03*
%TD*%
D12*
%TO.P,J3,1*%
%TO.N,+3V3*%
X40000000Y-14000000D03*
D13*
%TO.P,J3,2*%
X40000000Y-16540000D03*
%TO.P,J3,3*%
%TO.N,N/C*%
X40000000Y-19080000D03*
%TO.P,J3,4*%
%TO.N,AIN1*%
X40000000Y-21620000D03*
%TO.P,J3,5*%
%TO.N,AIN2*%
X40000000Y-24160000D03*
%TO.P,J3,6*%
%TO.N,AIN3*%
X40000000Y-26700000D03*
%TO.P,J3,7*%
%TO.N,AIN4*%
X40000000Y-29240000D03*
%TO.P,J3,8*%
%TO.N,PWR_FAIL*%
X40000000Y-31780000D03*
%TO.P,J3,9*%
%TO.N,CAN_S*%
X40000000Y-34320000D03*
%TO.P,J3,10*%
%TO.N,CAN_TX*%
X40000000Y-36860000D03*
%TO.P,J3,11*%
%TO.N,CAN_RX*%
X40000000Y-39400000D03*
%TO.P,J3,12*%
%TO.N,VBAT_SNS*%
X40000000Y-41940000D03*
%TO.P,J3,13*%
%TO.N,N/C*%
X40000000Y-44480000D03*
%TO.P,J3,14*%
X40000000Y-47020000D03*
%TO.P,J3,15*%
%TO.N,I2C_SCL*%
X40000000Y-49560000D03*
%TO.P,J3,16*%
%TO.N,I2C_SDA*%
X40000000Y-52100000D03*
%TO.P,J3,17*%
%TO.N,SD_CD*%
X40000000Y-54640000D03*
%TO.P,J3,18*%
%TO.N,SD_D0*%
X40000000Y-57180000D03*
%TO.P,J3,19*%
%TO.N,SD_CMD*%
X40000000Y-59720000D03*
%TO.P,J3,20*%
%TO.N,SD_CLK*%
X40000000Y-62260000D03*
%TO.P,J3,21*%
%TO.N,+5V*%
X40000000Y-64800000D03*
%TO.P,J3,22*%
%TO.N,GND*%
X40000000Y-67340000D03*
%TD*%
D14*
%TO.P,C7,1*%
%TO.N,SCAP_MID*%
X83000000Y-92000000D03*
D15*
%TO.P,C7,2*%
%TO.N,GND*%
X86500000Y-92000000D03*
%TD*%
D12*
%TO.P,J7,1*%
%TO.N,+5V*%
X93000000Y-33000000D03*
D13*
%TO.P,J7,2*%
%TO.N,+3V3*%
X93000000Y-35540000D03*
%TO.P,J7,3*%
%TO.N,GND*%
X93000000Y-38080000D03*
%TO.P,J7,4*%
X93000000Y-40620000D03*
%TD*%
D10*
%TO.P,J9,1*%
%TO.N,+5VS*%
X12000000Y-6500000D03*
D11*
%TO.P,J9,2*%
X14000000Y-6500000D03*
%TO.P,J9,3*%
%TO.N,AIN1_IN*%
X16000000Y-6500000D03*
%TO.P,J9,4*%
%TO.N,AIN2_IN*%
X18000000Y-6500000D03*
%TO.P,J9,5*%
%TO.N,SENS_RTN*%
X20000000Y-6500000D03*
%TO.P,J9,6*%
X22000000Y-6500000D03*
%TO.P,J9,7*%
%TO.N,AIN3_IN*%
X24000000Y-6500000D03*
%TO.P,J9,8*%
%TO.N,AIN4_IN*%
X26000000Y-6500000D03*
%TO.P,J9,9*%
%TO.N,GND*%
X28000000Y-6500000D03*
%TO.P,J9,10*%
X30000000Y-6500000D03*
%TD*%
D12*
%TO.P,J6,1*%
%TO.N,LED_5V*%
X93000000Y-20000000D03*
D13*
%TO.P,J6,2*%
%TO.N,LED_DIN_J*%
X93000000Y-22540000D03*
%TO.P,J6,3*%
%TO.N,GND*%
X93000000Y-25080000D03*
%TD*%
D14*
%TO.P,C6,1*%
%TO.N,SCAP_TOP*%
X72000000Y-92000000D03*
D15*
%TO.P,C6,2*%
%TO.N,SCAP_MID*%
X75500000Y-92000000D03*
%TD*%
D12*
%TO.P,J5,1*%
%TO.N,GND*%
X93000000Y-46000000D03*
D13*
%TO.P,J5,2*%
%TO.N,+3V3*%
X93000000Y-48540000D03*
%TO.P,J5,3*%
%TO.N,I2C_SDA*%
X93000000Y-51080000D03*
%TO.P,J5,4*%
%TO.N,I2C_SCL*%
X93000000Y-53620000D03*
%TD*%
D12*
%TO.P,J4,1*%
%TO.N,GND*%
X62860000Y-14000000D03*
D13*
%TO.P,J4,2*%
%TO.N,N/C*%
X62860000Y-16540000D03*
%TO.P,J4,3*%
X62860000Y-19080000D03*
%TO.P,J4,4*%
%TO.N,K_RX*%
X62860000Y-21620000D03*
%TO.P,J4,5*%
%TO.N,K_TX*%
X62860000Y-24160000D03*
%TO.P,J4,6*%
%TO.N,CAN2_CS*%
X62860000Y-26700000D03*
%TO.P,J4,7*%
%TO.N,CAN2_MISO*%
X62860000Y-29240000D03*
%TO.P,J4,8*%
%TO.N,CAN2_MOSI*%
X62860000Y-31780000D03*
%TO.P,J4,9*%
%TO.N,CAN2_SCK*%
X62860000Y-34320000D03*
%TO.P,J4,10*%
%TO.N,N/C*%
X62860000Y-36860000D03*
%TO.P,J4,11*%
X62860000Y-39400000D03*
%TO.P,J4,12*%
X62860000Y-41940000D03*
%TO.P,J4,13*%
X62860000Y-44480000D03*
%TO.P,J4,14*%
X62860000Y-47020000D03*
%TO.P,J4,15*%
X62860000Y-49560000D03*
%TO.P,J4,16*%
%TO.N,LED_DIN_MCU*%
X62860000Y-52100000D03*
%TO.P,J4,17*%
%TO.N,SD_PWR_EN*%
X62860000Y-54640000D03*
%TO.P,J4,18*%
%TO.N,CAN2_INT*%
X62860000Y-57180000D03*
%TO.P,J4,19*%
%TO.N,N/C*%
X62860000Y-59720000D03*
%TO.P,J4,20*%
X62860000Y-62260000D03*
%TO.P,J4,21*%
%TO.N,GND*%
X62860000Y-64800000D03*
%TO.P,J4,22*%
X62860000Y-67340000D03*
%TD*%
D16*
%TO.P,J1,1*%
%TO.N,OBD_VBAT*%
X4000000Y-66000000D03*
D17*
%TO.P,J1,2*%
%TO.N,GND*%
X4000000Y-64000000D03*
%TO.P,J1,3*%
%TO.N,CAN_H*%
X4000000Y-62000000D03*
%TO.P,J1,4*%
%TO.N,CAN_L*%
X4000000Y-60000000D03*
%TD*%
D18*
%TO.N,+3V3*%
X18375000Y-69725000D03*
X3641000Y-24517500D03*
X73675000Y-12795000D03*
X22055000Y-20625000D03*
X44755000Y-68675000D03*
X35330000Y-19725000D03*
X79341000Y-13617500D03*
X13155000Y-20625000D03*
X58880000Y-48075000D03*
X21255000Y-70675000D03*
D19*
X11100000Y-69725000D03*
D18*
X44425000Y-48275000D03*
X72565000Y-45675000D03*
X43798800Y-20864200D03*
X8630000Y-19725000D03*
X73675000Y-27240000D03*
X49191000Y-44967500D03*
X21675000Y-58630000D03*
X31598700Y-79514200D03*
X79341000Y-24227500D03*
X11705000Y-46675000D03*
X30930000Y-18725000D03*
X51418800Y-52864200D03*
X8105000Y-25575000D03*
X34805000Y-25575000D03*
X27341000Y-55617500D03*
X53041000Y-48717500D03*
X30341000Y-24517500D03*
X33475000Y-84275000D03*
X44425000Y-44525000D03*
X47608800Y-52864200D03*
X29818700Y-70014200D03*
X75491000Y-13617500D03*
D20*
%TO.N,+5V*%
X75220600Y-24996800D03*
X68832000Y-25890000D03*
X51452500Y-16340000D03*
X32223100Y-64800000D03*
X67412500Y-64722800D03*
%TO.N,+5VS*%
X14000000Y-7875000D03*
X5469700Y-25057300D03*
X12000000Y-7875000D03*
X25135000Y-16340000D03*
X50375000Y-26299900D03*
D18*
%TO.N,AGND_SENSE*%
X13223100Y-60672800D03*
X32861100Y-20262500D03*
X8654200Y-22353600D03*
%TO.N,AIN1*%
X8953400Y-23383800D03*
%TO.N,AIN2*%
X17782400Y-25150500D03*
%TO.N,AIN2_IN*%
X13079900Y-10894000D03*
%TO.N,AIN3*%
X27109000Y-25881100D03*
%TO.N,AIN_SP1*%
X19292500Y-46179100D03*
X85385200Y-51564499D03*
X82985200Y-49164500D03*
X42185200Y-37564499D03*
X36785200Y-30164800D03*
X44485200Y-38364500D03*
%TO.N,AIN_SP2*%
X23102500Y-49817000D03*
%TO.N,AUX_B*%
X83532000Y-19127100D03*
%TO.N,CAN2_CS*%
X69055200Y-18689700D03*
%TO.N,CAN2_H_C*%
X83953700Y-27363700D03*
X70965600Y-33133200D03*
%TO.N,CAN2_MISO*%
X70133500Y-16506500D03*
%TO.N,CAN2_MOSI*%
X74136100Y-25116100D03*
%TO.N,CAN2_S*%
X70885500Y-29779000D03*
X66198300Y-32644500D03*
%TO.N,CAN2_SCK*%
X69228800Y-34320000D03*
%TO.N,CANL_T*%
X29287000Y-57316900D03*
X21690200Y-57316900D03*
%TO.N,CAN_H*%
X31400300Y-59329500D03*
X29166500Y-59811800D03*
X29968900Y-66070000D03*
X49357400Y-69922700D03*
%TO.N,CAN_L*%
X25087100Y-62887900D03*
X53471300Y-63619200D03*
X34459400Y-63619200D03*
%TO.N,CAN_RX*%
X16405900Y-59410500D03*
%TO.N,GND*%
X85941000Y-36027500D03*
X81060000Y-48825000D03*
X85900000Y-68975000D03*
X22435000Y-74305000D03*
X12630000Y-74275000D03*
X72565000Y-43775000D03*
X36140000Y-36025000D03*
X14530000Y-30535000D03*
X36125000Y-28755000D03*
X28725000Y-62250000D03*
X5675000Y-23905000D03*
X68725000Y-24700000D03*
X82091000Y-36027500D03*
X81375000Y-13005000D03*
X51325000Y-33525000D03*
X72280700Y-59375000D03*
X77391000Y-24227500D03*
X56125000Y-28775000D03*
X14441000Y-24417500D03*
X81241000Y-24227500D03*
X89925000Y-35415000D03*
X27075000Y-14775000D03*
X9275000Y-14775000D03*
X46464200Y-16125000D03*
X35975000Y-14775000D03*
X80441000Y-60617500D03*
X11705000Y-44775000D03*
X34805000Y-23675000D03*
X51091000Y-48717500D03*
X9425000Y-28755000D03*
X73304400Y-49425000D03*
X29241000Y-55617500D03*
X42325000Y-84275000D03*
X23430000Y-30535000D03*
X18135000Y-74475000D03*
X13775000Y-69725000D03*
X22055000Y-18725000D03*
X56125000Y-39775000D03*
X50351000Y-15617500D03*
X51091000Y-44967500D03*
X9440000Y-36025000D03*
X13250000Y-49925000D03*
X17435000Y-45005000D03*
X30930000Y-19725000D03*
X14675000Y-93725000D03*
X47231000Y-45225000D03*
X16725000Y-56090000D03*
X4230000Y-18725000D03*
X36325000Y-61480000D03*
X23341000Y-24417500D03*
X18175000Y-14775000D03*
X26015000Y-70675000D03*
X73040500Y-31935000D03*
X85325000Y-32085000D03*
X69494400Y-39935000D03*
X60125000Y-44525000D03*
X54941000Y-44967500D03*
X4230000Y-19725000D03*
X13155000Y-18725000D03*
X68725000Y-20415000D03*
X54941000Y-48717500D03*
X8775000Y-69725000D03*
X23575000Y-81550000D03*
X50351000Y-67617500D03*
X25391000Y-55617500D03*
X47231000Y-48975000D03*
X21994300Y-45575000D03*
X80725000Y-31235000D03*
X80725000Y-30385000D03*
X44755000Y-66775000D03*
X9275000Y-45775000D03*
X77391000Y-13617500D03*
X21040500Y-62950000D03*
X25940000Y-44975000D03*
X74294300Y-62075000D03*
X8105000Y-23675000D03*
X58100000Y-66975000D03*
X32375000Y-23905000D03*
X58100000Y-14975000D03*
X68255000Y-45675000D03*
X17494300Y-66625000D03*
X45994300Y-52425000D03*
%TO.N,I2C_SCL*%
X52814400Y-53028400D03*
X34105000Y-17791700D03*
X9612200Y-19875800D03*
%TO.N,I2C_SDA*%
X5641700Y-21054200D03*
X36389400Y-30906800D03*
X48927500Y-53031800D03*
X38751300Y-38571300D03*
X32251100Y-18260900D03*
%TO.N,K_LINE*%
X87147500Y-47228000D03*
X79687500Y-47226400D03*
X67422900Y-38171800D03*
%TO.N,K_RX*%
X71743600Y-44788600D03*
%TO.N,LED_DIN*%
X75712100Y-60630800D03*
X86136500Y-58963100D03*
%TO.N,LED_DIN_MCU*%
X76668500Y-59267000D03*
D20*
%TO.N,OBD_VBAT*%
X42269200Y-69518400D03*
%TO.N,OBD_VBAT_F*%
X65420800Y-26983400D03*
X51098900Y-30469700D03*
D18*
%TO.N,PWR_FAIL*%
X42204500Y-31780000D03*
%TO.N,SD_CD*%
X16622400Y-72095800D03*
X38613600Y-59156500D03*
X10186900Y-79995600D03*
X37960600Y-69528500D03*
X27110900Y-70645000D03*
%TO.N,SD_CLK*%
X36253100Y-62549900D03*
%TO.N,SD_CLK_C*%
X16762500Y-90791500D03*
X27662500Y-85191500D03*
%TO.N,SD_CMD*%
X32878000Y-72875800D03*
X37155800Y-59923200D03*
X28112500Y-72875800D03*
%TO.N,SD_CMD_C*%
X17838700Y-90899500D03*
X29007700Y-85564800D03*
%TO.N,SD_D0_C*%
X33229800Y-75262800D03*
X16916600Y-77826900D03*
X13575000Y-89560300D03*
X13386300Y-73024200D03*
%TO.N,SD_D1_C*%
X21164800Y-78676000D03*
X12475000Y-90899500D03*
%TO.N,SD_D2_C*%
X15995600Y-76136900D03*
X24397500Y-79860400D03*
%TO.N,SD_D3_C*%
X19075000Y-89102000D03*
X28657500Y-76717000D03*
X15318000Y-74186400D03*
%TO.N,SD_EN_G*%
X6037500Y-70873800D03*
X8752300Y-70873800D03*
%TO.N,SD_PWR_EN*%
X33572500Y-70549400D03*
X57592500Y-62573900D03*
D20*
%TO.N,SD_VDD*%
X18069800Y-72195600D03*
X20540400Y-69725000D03*
D18*
%TO.N,SENS_RTN*%
X22000000Y-7875000D03*
X20000000Y-7875000D03*
%TO.N,TERM_A*%
X18602500Y-64382000D03*
X31225000Y-64382000D03*
%TO.N,VBAT_SNS*%
X49870000Y-50678100D03*
%TO.N,XTAL1*%
X66670800Y-22172800D03*
X74831200Y-33803100D03*
%TO.N,XTAL2*%
X83025000Y-33472200D03*
X65758500Y-18050300D03*
%TD*%
D21*
%TO.N,+5V*%
X61081600Y-64953500D02*
X61081600Y-67450600D01*
X63432900Y-68702400D02*
X67412500Y-64722800D01*
X40000000Y-64800000D02*
X32223100Y-64800000D01*
X54173200Y-64800000D02*
X57217300Y-61755900D01*
X69166400Y-16638000D02*
X69166400Y-16371000D01*
X57884000Y-61755900D02*
X61081600Y-64953500D01*
X93000000Y-33000000D02*
X91673300Y-33000000D01*
X75220600Y-20448700D02*
X70439900Y-15668000D01*
X62333400Y-68702400D02*
X63432900Y-68702400D01*
X70583600Y-24138400D02*
X70583600Y-18055200D01*
X69166400Y-16371000D02*
X64717000Y-11921600D01*
X91673300Y-33000000D02*
X83814200Y-25140900D01*
X64717000Y-11921600D02*
X55870900Y-11921600D01*
X70439900Y-15668000D02*
X69869400Y-15668000D01*
X83814200Y-25140900D02*
X75364700Y-25140900D01*
X69869400Y-15668000D02*
X69166400Y-16371000D01*
X75364700Y-25140900D02*
X75220600Y-24996800D01*
X68832000Y-25890000D02*
X70583600Y-24138400D01*
X40000000Y-64800000D02*
X54173200Y-64800000D01*
X61081600Y-67450600D02*
X62333400Y-68702400D01*
X57217300Y-61755900D02*
X57884000Y-61755900D01*
X75220600Y-24996800D02*
X75220600Y-20448700D01*
X55870900Y-11921600D02*
X51452500Y-16340000D01*
X70583600Y-18055200D02*
X69166400Y-16638000D01*
%TO.N,+5VS*%
X4821500Y-20408700D02*
X4821500Y-24409100D01*
X12000000Y-12673300D02*
X25135000Y-12673300D01*
X41088700Y-12673300D02*
X50375000Y-21959600D01*
X25135000Y-12673300D02*
X41088700Y-12673300D01*
X12000000Y-7875000D02*
X12000000Y-12673300D01*
X50375000Y-21959600D02*
X50375000Y-26299900D01*
X12000000Y-7875000D02*
X14000000Y-7875000D01*
X25135000Y-12673300D02*
X25135000Y-16340000D01*
X12000000Y-13230200D02*
X4821500Y-20408700D01*
X12000000Y-12673300D02*
X12000000Y-13230200D01*
X4821500Y-24409100D02*
X5469700Y-25057300D01*
D22*
%TO.N,AGND_SENSE*%
X38278300Y-60672800D02*
X38595500Y-60990000D01*
X63347500Y-65976700D02*
X65405000Y-63919200D01*
X65405000Y-63919200D02*
X92839200Y-63919200D01*
X57995300Y-60990000D02*
X61683300Y-64678000D01*
X61683300Y-65287400D02*
X62372600Y-65976700D01*
X22680200Y-21169800D02*
X21496400Y-22353600D01*
X38595500Y-60990000D02*
X57995300Y-60990000D01*
X31690100Y-21169800D02*
X22680200Y-21169800D01*
X62372600Y-65976700D02*
X63347500Y-65976700D01*
X92839200Y-63919200D02*
X93000000Y-64080000D01*
X61683300Y-64678000D02*
X61683300Y-65287400D01*
X13223100Y-60672800D02*
X38278300Y-60672800D01*
X32597400Y-20262500D02*
X31690100Y-21169800D01*
X32861100Y-20262500D02*
X32597400Y-20262500D01*
X21496400Y-22353600D02*
X8654200Y-22353600D01*
%TO.N,AIN1*%
X8953400Y-23383800D02*
X30114900Y-23383800D01*
X31878700Y-21620000D02*
X40000000Y-21620000D01*
X30114900Y-23383800D02*
X31878700Y-21620000D01*
%TO.N,AIN2*%
X39629800Y-24530200D02*
X34792300Y-24530200D01*
X34792300Y-24530200D02*
X34172000Y-25150500D01*
X34172000Y-25150500D02*
X17782400Y-25150500D01*
X40000000Y-24160000D02*
X39629800Y-24530200D01*
%TO.N,AIN2_IN*%
X17073300Y-7032100D02*
X13211400Y-10894000D01*
X17073300Y-6500000D02*
X17073300Y-7032100D01*
X13211400Y-10894000D02*
X13079900Y-10894000D01*
X18000000Y-6500000D02*
X17073300Y-6500000D01*
%TO.N,AIN3*%
X40000000Y-26700000D02*
X27927900Y-26700000D01*
X27927900Y-26700000D02*
X27109000Y-25881100D01*
%TO.N,AIN_SP1*%
X39185200Y-35664500D02*
X38785200Y-35264500D01*
X50385200Y-44264500D02*
X44485200Y-38364500D01*
X52985200Y-45764500D02*
X51485200Y-44264500D01*
X38785200Y-32164500D02*
X37085200Y-30464500D01*
X38785200Y-35264500D02*
X38785200Y-32164500D01*
X82485200Y-49164500D02*
X81485200Y-48164500D01*
X92185200Y-58164500D02*
X91985200Y-58164500D01*
X63785200Y-45764500D02*
X52985200Y-45764500D01*
X91985200Y-58164500D02*
X85385200Y-51564499D01*
X65885200Y-47864500D02*
X63785200Y-45764500D01*
X74885200Y-48164500D02*
X74585200Y-47864500D01*
X42185200Y-36864500D02*
X40985200Y-35664500D01*
X82985200Y-49164500D02*
X82485200Y-49164500D01*
X81485200Y-48164500D02*
X74885200Y-48164500D01*
X19292500Y-46179100D02*
X35306800Y-30164800D01*
X42185200Y-37564499D02*
X42185200Y-36864500D01*
X51485200Y-44264500D02*
X50385200Y-44264500D01*
X74585200Y-47864500D02*
X65885200Y-47864500D01*
X35306800Y-30164800D02*
X36785200Y-30164800D01*
X40985200Y-35664500D02*
X39185200Y-35664500D01*
%TO.N,AIN_SP2*%
X58691600Y-59755700D02*
X62372600Y-63436700D01*
X47228300Y-53370000D02*
X53614000Y-59755700D01*
X53614000Y-59755700D02*
X58691600Y-59755700D01*
X23102500Y-49817000D02*
X26655500Y-53370000D01*
X26655500Y-53370000D02*
X47228300Y-53370000D01*
X62372600Y-63436700D02*
X91103300Y-63436700D01*
X91103300Y-63436700D02*
X93000000Y-61540000D01*
%TO.N,AUX_B*%
X70926700Y-6500000D02*
X70926700Y-8091100D01*
X70000000Y-6500000D02*
X70926700Y-6500000D01*
X81962700Y-19127100D02*
X83532000Y-19127100D01*
X70926700Y-8091100D02*
X81962700Y-19127100D01*
%TO.N,CAN2_CS*%
X63029900Y-26700000D02*
X67297500Y-22432400D01*
X67297500Y-22432400D02*
X67297500Y-20447400D01*
X67297500Y-20447400D02*
X69055200Y-18689700D01*
X62860000Y-26700000D02*
X63029900Y-26700000D01*
%TO.N,CAN2_H_C*%
X83953700Y-27363700D02*
X78640300Y-27363700D01*
X78640300Y-27363700D02*
X72870800Y-33133200D01*
X72870800Y-33133200D02*
X70965600Y-33133200D01*
%TO.N,CAN2_MISO*%
X62860000Y-29240000D02*
X66510400Y-29240000D01*
X71185300Y-17558300D02*
X70133500Y-16506500D01*
X71185300Y-24565100D02*
X71185300Y-17558300D01*
X66510400Y-29240000D02*
X71185300Y-24565100D01*
%TO.N,CAN2_MOSI*%
X67472200Y-31780000D02*
X74136100Y-25116100D01*
X62860000Y-31780000D02*
X67472200Y-31780000D01*
%TO.N,CAN2_S*%
X66198300Y-32644500D02*
X68020000Y-32644500D01*
X68020000Y-32644500D02*
X70885500Y-29779000D01*
%TO.N,CAN2_SCK*%
X62860000Y-34320000D02*
X69228800Y-34320000D01*
%TO.N,CANL_T*%
X29287000Y-57316900D02*
X21690200Y-57316900D01*
%TO.N,CAN_H*%
X31400300Y-59329500D02*
X30918000Y-59811800D01*
X30918000Y-59811800D02*
X29166500Y-59811800D01*
X49357400Y-69922700D02*
X45504700Y-66070000D01*
X45504700Y-66070000D02*
X29968900Y-66070000D01*
%TO.N,CAN_L*%
X4000000Y-60000000D02*
X4000000Y-60926700D01*
X34459400Y-63619200D02*
X25818400Y-63619200D01*
X6257100Y-62257100D02*
X4926700Y-60926700D01*
X25087100Y-62887900D02*
X24456300Y-62257100D01*
X24456300Y-62257100D02*
X6257100Y-62257100D01*
X25818400Y-63619200D02*
X25087100Y-62887900D01*
X34459400Y-63619200D02*
X53471300Y-63619200D01*
X4926700Y-60926700D02*
X4000000Y-60926700D01*
%TO.N,CAN_RX*%
X32629200Y-39400000D02*
X17365300Y-54663900D01*
X17365300Y-54663900D02*
X17365300Y-58451100D01*
X17365300Y-58451100D02*
X16405900Y-59410500D01*
X40000000Y-39400000D02*
X32629200Y-39400000D01*
%TO.N,I2C_SCL*%
X34105000Y-17791700D02*
X32702800Y-17791700D01*
X51219500Y-51433500D02*
X52814400Y-53028400D01*
X29018600Y-17790200D02*
X27288600Y-17790200D01*
X11696300Y-17791700D02*
X9612200Y-19875800D01*
X32702800Y-17791700D02*
X32702800Y-17604600D01*
X40818300Y-50378300D02*
X48500500Y-50378300D01*
X32438200Y-17340000D02*
X29468800Y-17340000D01*
X29468800Y-17340000D02*
X29018600Y-17790200D01*
X40489700Y-40669200D02*
X42835800Y-38323100D01*
X27288600Y-17790200D02*
X27287100Y-17791700D01*
X49555700Y-51433500D02*
X51219500Y-51433500D01*
X52814400Y-53028400D02*
X56557300Y-53028400D01*
X61236300Y-48349400D02*
X74360400Y-48349400D01*
X93420500Y-49810000D02*
X94187700Y-50577200D01*
X40000000Y-49560000D02*
X40818300Y-50378300D01*
X94187700Y-52432300D02*
X93000000Y-53620000D01*
X40408700Y-20256700D02*
X39512600Y-20256700D01*
X48500500Y-50378300D02*
X49555700Y-51433500D01*
X74360400Y-48349400D02*
X75821000Y-49810000D01*
X40000000Y-49560000D02*
X38823300Y-48383300D01*
X75821000Y-49810000D02*
X93420500Y-49810000D01*
X39502100Y-40669200D02*
X40489700Y-40669200D01*
X56557300Y-53028400D02*
X61236300Y-48349400D01*
X42835800Y-38323100D02*
X42835800Y-22683800D01*
X39512600Y-20256700D02*
X37047600Y-17791700D01*
X38823300Y-48383300D02*
X38823300Y-41348000D01*
X38823300Y-41348000D02*
X39502100Y-40669200D01*
X37047600Y-17791700D02*
X34105000Y-17791700D01*
X42835800Y-22683800D02*
X40408700Y-20256700D01*
X32702800Y-17604600D02*
X32438200Y-17340000D01*
X94187700Y-50577200D02*
X94187700Y-52432300D01*
X27287100Y-17791700D02*
X11696300Y-17791700D01*
%TO.N,I2C_SDA*%
X40000000Y-52100000D02*
X40349100Y-51750900D01*
X32063300Y-18073100D02*
X29599700Y-18073100D01*
X47646600Y-51750900D02*
X48927500Y-53031800D01*
X36389400Y-30906800D02*
X37253900Y-31771300D01*
X40349100Y-51750900D02*
X47646600Y-51750900D01*
X27997800Y-19675000D02*
X13130600Y-19675000D01*
X13130600Y-19675000D02*
X11751400Y-21054200D01*
X11751400Y-21054200D02*
X5641700Y-21054200D01*
X32251100Y-18260900D02*
X32063300Y-18073100D01*
X93000000Y-51080000D02*
X92818700Y-50898700D01*
X37254000Y-37074000D02*
X38751300Y-38571300D01*
X59413000Y-50898700D02*
X56586500Y-53725200D01*
X29599700Y-18073100D02*
X27997800Y-19675000D01*
X56586500Y-53725200D02*
X49620900Y-53725200D01*
X37253900Y-37074000D02*
X37254000Y-37074000D01*
X49620900Y-53725200D02*
X48927500Y-53031800D01*
X92818700Y-50898700D02*
X59413000Y-50898700D01*
X37253900Y-31771300D02*
X37253900Y-37074000D01*
%TO.N,K_LINE*%
X79689100Y-47228000D02*
X79687500Y-47226400D01*
X79687500Y-47226400D02*
X75084100Y-47226400D01*
X67422900Y-39565200D02*
X67422900Y-38171800D01*
X75084100Y-47226400D02*
X67422900Y-39565200D01*
X87147500Y-47228000D02*
X79689100Y-47228000D01*
%TO.N,K_RX*%
X62372600Y-38036700D02*
X64991700Y-38036700D01*
X62860000Y-21620000D02*
X60756100Y-23723900D01*
X60756100Y-23723900D02*
X60756100Y-36420200D01*
X60756100Y-36420200D02*
X62372600Y-38036700D01*
X64991700Y-38036700D02*
X71743600Y-44788600D01*
%TO.N,LED_DIN*%
X81209100Y-58963100D02*
X86136500Y-58963100D01*
X79541400Y-60630800D02*
X81209100Y-58963100D01*
X75712100Y-60630800D02*
X79541400Y-60630800D01*
%TO.N,LED_DIN_MCU*%
X76668500Y-59267000D02*
X76189700Y-59267000D01*
X61683300Y-60207400D02*
X61683300Y-53276700D01*
X76189700Y-59267000D02*
X74513700Y-60943000D01*
X62418900Y-60943000D02*
X61683300Y-60207400D01*
X61683300Y-53276700D02*
X62860000Y-52100000D01*
X74513700Y-60943000D02*
X62418900Y-60943000D01*
D21*
%TO.N,OBD_VBAT*%
X39031300Y-68665200D02*
X39884500Y-69518400D01*
X4000000Y-66000000D02*
X6665200Y-68665200D01*
X6665200Y-68665200D02*
X39031300Y-68665200D01*
X39884500Y-69518400D02*
X42269200Y-69518400D01*
%TO.N,OBD_VBAT_F*%
X69831900Y-18366500D02*
X69170600Y-17705200D01*
X63909000Y-12673300D02*
X61767600Y-12673300D01*
X69170600Y-17705200D02*
X68940900Y-17705200D01*
X61767600Y-12673300D02*
X51301200Y-23139700D01*
X69831900Y-21602200D02*
X69831900Y-18366500D01*
X51301200Y-30267400D02*
X51098900Y-30469700D01*
X65420800Y-26983400D02*
X65420800Y-26013300D01*
X65420800Y-26013300D02*
X69831900Y-21602200D01*
X51301200Y-23139700D02*
X51301200Y-30267400D01*
X68940900Y-17705200D02*
X63909000Y-12673300D01*
D22*
%TO.N,PWR_FAIL*%
X40000000Y-31780000D02*
X42204500Y-31780000D01*
D21*
%TO.N,SCAP_MID*%
X75500000Y-92000000D02*
X83000000Y-92000000D01*
D22*
%TO.N,SD_CD*%
X13347200Y-72095800D02*
X16622400Y-72095800D01*
X10186900Y-75256100D02*
X13347200Y-72095800D01*
X32738100Y-69528500D02*
X31621600Y-70645000D01*
X40000000Y-54640000D02*
X38613600Y-56026400D01*
X31621600Y-70645000D02*
X27110900Y-70645000D01*
X37960600Y-69528500D02*
X32738100Y-69528500D01*
X38613600Y-56026400D02*
X38613600Y-59156500D01*
X10186900Y-79995600D02*
X10186900Y-75256100D01*
%TO.N,SD_CLK*%
X40000000Y-62260000D02*
X36543000Y-62260000D01*
X36543000Y-62260000D02*
X36253100Y-62549900D01*
%TO.N,SD_CLK_C*%
X22662500Y-90191500D02*
X27662500Y-85191500D01*
X17462500Y-90191500D02*
X22662500Y-90191500D01*
X16762500Y-90791500D02*
X16862500Y-90791500D01*
X16862500Y-90791500D02*
X17462500Y-90191500D01*
%TO.N,SD_CMD*%
X39796800Y-59923200D02*
X37155800Y-59923200D01*
X40000000Y-59720000D02*
X39796800Y-59923200D01*
X28112500Y-72875800D02*
X32878000Y-72875800D01*
%TO.N,SD_CMD_C*%
X23673000Y-90899500D02*
X17838700Y-90899500D01*
X29007700Y-85564800D02*
X23673000Y-90899500D01*
%TO.N,SD_D0_C*%
X16746000Y-86389300D02*
X13575000Y-89560300D01*
X33229800Y-75262800D02*
X31495600Y-73528600D01*
X14684100Y-75765000D02*
X16746000Y-77826900D01*
X16746000Y-77826900D02*
X16916600Y-77826900D01*
X14684100Y-73921000D02*
X13787300Y-73024200D01*
X14684100Y-73921000D02*
X14684100Y-75765000D01*
X15076500Y-73528600D02*
X14684100Y-73921000D01*
X16746000Y-77826900D02*
X16746000Y-86389300D01*
X13787300Y-73024200D02*
X13386300Y-73024200D01*
X31495600Y-73528600D02*
X15076500Y-73528600D01*
%TO.N,SD_D1_C*%
X25037800Y-81026300D02*
X15164600Y-90899500D01*
X21164800Y-78676000D02*
X24099600Y-78676000D01*
X15164600Y-90899500D02*
X12475000Y-90899500D01*
X24099600Y-78676000D02*
X25037800Y-79614200D01*
X25037800Y-79614200D02*
X25037800Y-81026300D01*
%TO.N,SD_D2_C*%
X16276200Y-76136900D02*
X19999700Y-79860400D01*
X19999700Y-79860400D02*
X24397500Y-79860400D01*
X15995600Y-76136900D02*
X16276200Y-76136900D01*
%TO.N,SD_D3_C*%
X28657500Y-76717000D02*
X28657500Y-79519500D01*
X28657500Y-79519500D02*
X19075000Y-89102000D01*
X17848600Y-76717000D02*
X15318000Y-74186400D01*
X28657500Y-76717000D02*
X17848600Y-76717000D01*
%TO.N,SD_EN_G*%
X8752300Y-70873800D02*
X6037500Y-70873800D01*
%TO.N,SD_PWR_EN*%
X57592500Y-62573900D02*
X49617000Y-70549400D01*
X49617000Y-70549400D02*
X33572500Y-70549400D01*
D21*
%TO.N,SD_VDD*%
X20540400Y-69725000D02*
X18069800Y-72195600D01*
D22*
%TO.N,SENS_RTN*%
X20000000Y-7875000D02*
X22000000Y-7875000D01*
%TO.N,TERM_A*%
X31225000Y-64382000D02*
X18602500Y-64382000D01*
%TO.N,VBAT_SNS*%
X44653100Y-45461200D02*
X43521200Y-45461200D01*
X43521200Y-45461200D02*
X40000000Y-41940000D01*
X49870000Y-50678100D02*
X44653100Y-45461200D01*
%TO.N,XTAL1*%
X66077700Y-33649400D02*
X69774700Y-33649400D01*
X69774700Y-33649400D02*
X69928400Y-33803100D01*
X62375500Y-33050000D02*
X65478300Y-33050000D01*
X66670800Y-22172800D02*
X63506900Y-25336700D01*
X62540000Y-25336700D02*
X61659500Y-26217200D01*
X65478300Y-33050000D02*
X66077700Y-33649400D01*
X63506900Y-25336700D02*
X62540000Y-25336700D01*
X61659500Y-32334000D02*
X62375500Y-33050000D01*
X69928400Y-33803100D02*
X74831200Y-33803100D01*
X61659500Y-26217200D02*
X61659500Y-32334000D01*
%TO.N,XTAL2*%
X63175600Y-22983300D02*
X62372600Y-22983300D01*
X65758500Y-18050300D02*
X65758500Y-20400400D01*
X62372600Y-35496700D02*
X81000500Y-35496700D01*
X65758500Y-20400400D02*
X63175600Y-22983300D01*
X61207800Y-24148100D02*
X61207800Y-34331900D01*
X81000500Y-35496700D02*
X83025000Y-33472200D01*
X61207800Y-34331900D02*
X62372600Y-35496700D01*
X62372600Y-22983300D02*
X61207800Y-24148100D01*
%TD*%
M02*
