M48
; DRILL file {KiCad 9.0.5} date 2026-08-13T07:18:42-0400
; FORMAT={-:-/ absolute / metric / decimal}
; #@! TF.CreationDate,2026-08-13T07:18:42-04:00
; #@! TF.GenerationSoftware,Kicad,Pcbnew,9.0.5
; #@! TF.FileFunction,Plated,1,4,PTH
FMAT,2
METRIC
; #@! TA.AperFunction,Plated,PTH,ViaDrill
T1C0.250
; #@! TA.AperFunction,Plated,PTH,ViaDrill
T2C0.300
; #@! TA.AperFunction,Plated,PTH,ViaDrill
T3C0.400
; #@! TA.AperFunction,Plated,PTH,ComponentDrill
T4C0.750
; #@! TA.AperFunction,Plated,PTH,ComponentDrill
T5C0.800
; #@! TA.AperFunction,Plated,PTH,ComponentDrill
T6C1.000
%
G90
G05
T1
X16.05Y-69.725
T2
X5.103Y-21.384
X6.327Y-79.095
X7.12Y-77.943
X8.551Y-18.094
X8.671Y-20.826
X8.929Y-22.047
X8.942Y-25.853
X9.554Y-75.862
X10.12Y-72.206
X10.434Y-18.003
X10.45Y-18.833
X12.425Y-10.894
X13.361Y-72.833
X14.846Y-72.325
X14.938Y-67.947
X15.175Y-79.558
X15.542Y-21.322
X16.175Y-91.095
X16.727Y-55.113
X16.896Y-77.943
X17.263Y-56.715
X17.328Y-25.48
X18.155Y-54.487
X18.895Y-22.337
X20.0Y-7.875
X20.353Y-69.682
X21.302Y-78.589
X21.82Y-83.904
X22.0Y-7.875
X22.975Y-59.963
X23.407Y-80.127
X23.852Y-72.096
X27.211Y-28.002
X27.675Y-85.495
X28.657Y-81.77
X28.874Y-70.187
X29.867Y-63.024
X29.938Y-81.77
X31.155Y-75.879
X31.638Y-16.926
X32.452Y-71.376
X32.475Y-70.398
X33.13Y-18.093
X33.84Y-76.78
X33.862Y-54.911
X33.949Y-22.336
X34.497Y-59.806
X34.745Y-17.652
X35.416Y-18.831
X37.214Y-25.436
X38.247Y-71.376
X41.005Y-40.483
X41.169Y-19.962
X42.834Y-83.454
X42.84Y-60.835
X44.485Y-27.175
X46.026Y-50.952
X47.585Y-64.662
X48.788Y-32.429
X48.927Y-53.034
X52.365Y-55.317
X52.682Y-50.071
X53.277Y-64.662
X55.008Y-71.941
X56.109Y-49.395
X60.073Y-67.582
X64.957Y-54.886
X64.957Y-67.106
X65.754Y-43.611
X66.561Y-47.458
X66.673Y-41.589
X66.793Y-37.28
X67.25Y-28.382
X69.033Y-22.601
X69.556Y-25.558
X69.566Y-18.394
X69.581Y-16.283
X70.419Y-27.241
X73.699Y-25.654
X75.453Y-24.622
X75.704Y-47.613
X76.727Y-24.858
X77.709Y-47.004
X81.319Y-25.654
X81.542Y-58.028
T3
X1.473Y-32.78
X1.473Y-84.698
X3.025Y-31.371
X3.641Y-24.517
X4.23Y-18.725
X4.23Y-19.725
X5.675Y-23.905
X8.105Y-23.675
X8.105Y-25.575
X8.63Y-19.725
X8.775Y-69.725
X9.275Y-14.775
X9.275Y-45.775
X9.425Y-28.755
X9.44Y-36.025
X11.705Y-44.775
X11.705Y-46.675
X12.0Y-7.875
X12.63Y-74.275
X13.155Y-18.725
X13.155Y-20.625
X13.25Y-49.925
X13.375Y-69.725
X14.0Y-7.875
X14.441Y-24.418
X14.53Y-30.535
X14.675Y-93.725
X16.725Y-56.09
X17.435Y-45.005
X17.494Y-66.625
X18.135Y-74.475
X18.175Y-14.775
X18.375Y-69.725
X21.04Y-62.95
X21.255Y-70.675
X21.675Y-58.63
X21.994Y-45.575
X22.055Y-18.725
X22.055Y-20.625
X22.435Y-74.305
X23.341Y-24.418
X23.43Y-30.535
X23.575Y-81.55
X25.391Y-55.617
X25.94Y-44.975
X26.015Y-70.675
X27.075Y-14.775
X27.341Y-55.617
X28.725Y-62.25
X29.241Y-55.617
X29.819Y-70.014
X30.341Y-24.517
X30.353Y-30.604
X30.767Y-84.111
X30.93Y-18.725
X30.93Y-19.725
X31.599Y-79.514
X32.375Y-23.905
X33.475Y-84.275
X34.805Y-23.675
X34.805Y-25.575
X35.33Y-19.725
X35.975Y-14.775
X36.125Y-28.755
X36.14Y-36.025
X36.325Y-61.48
X39.637Y-74.438
X41.837Y-5.144
X42.325Y-84.275
X43.799Y-20.864
X44.425Y-44.525
X44.425Y-48.275
X44.755Y-66.775
X44.755Y-68.675
X45.994Y-52.425
X46.464Y-16.125
X47.231Y-45.225
X47.231Y-48.975
X47.609Y-52.864
X48.7Y-35.099
X49.191Y-44.968
X50.351Y-15.617
X50.351Y-67.617
X51.091Y-44.968
X51.091Y-48.718
X51.325Y-33.525
X51.419Y-52.864
X53.041Y-48.718
X54.941Y-44.968
X54.941Y-48.718
X56.125Y-28.775
X56.125Y-39.775
X57.231Y-45.992
X58.1Y-14.975
X58.1Y-66.975
X58.88Y-48.075
X59.0Y-72.667
X59.931Y-59.785
X60.125Y-44.525
X68.255Y-45.675
X68.725Y-20.415
X68.725Y-24.7
X69.494Y-39.935
X72.281Y-59.375
X72.565Y-43.775
X72.565Y-45.675
X73.04Y-31.935
X73.304Y-49.425
X73.675Y-12.795
X73.675Y-27.24
X74.294Y-62.075
X74.459Y-28.382
X75.491Y-13.617
X75.61Y-46.674
X77.391Y-13.617
X77.391Y-24.227
X79.341Y-13.617
X79.341Y-24.227
X80.441Y-60.617
X80.49Y-31.935
X80.886Y-30.935
X81.06Y-48.825
X81.241Y-24.227
X81.375Y-13.005
X82.091Y-36.027
X85.325Y-32.085
X85.9Y-78.425
X85.941Y-36.027
X89.925Y-35.415
X90.749Y-32.865
T4
X4.0Y-60.0
X4.0Y-62.0
X4.0Y-64.0
X4.0Y-66.0
X12.0Y-6.5
X14.0Y-6.5
X16.0Y-6.5
X18.0Y-6.5
X20.0Y-6.5
X22.0Y-6.5
X24.0Y-6.5
X26.0Y-6.5
X28.0Y-6.5
X30.0Y-6.5
X68.0Y-6.5
X70.0Y-6.5
X72.0Y-6.5
X74.0Y-6.5
T5
X68.525Y-72.275
X72.025Y-72.275
X77.475Y-72.275
X80.975Y-72.275
T6
X40.0Y-14.0
X40.0Y-16.54
X40.0Y-19.08
X40.0Y-21.62
X40.0Y-24.16
X40.0Y-26.7
X40.0Y-29.24
X40.0Y-31.78
X40.0Y-34.32
X40.0Y-36.86
X40.0Y-39.4
X40.0Y-41.94
X40.0Y-44.48
X40.0Y-47.02
X40.0Y-49.56
X40.0Y-52.1
X40.0Y-54.64
X40.0Y-57.18
X40.0Y-59.72
X40.0Y-62.26
X40.0Y-64.8
X40.0Y-67.34
X62.86Y-14.0
X62.86Y-16.54
X62.86Y-19.08
X62.86Y-21.62
X62.86Y-24.16
X62.86Y-26.7
X62.86Y-29.24
X62.86Y-31.78
X62.86Y-34.32
X62.86Y-36.86
X62.86Y-39.4
X62.86Y-41.94
X62.86Y-44.48
X62.86Y-47.02
X62.86Y-49.56
X62.86Y-52.1
X62.86Y-54.64
X62.86Y-57.18
X62.86Y-59.72
X62.86Y-62.26
X62.86Y-64.8
X62.86Y-67.34
X93.0Y-20.0
X93.0Y-22.54
X93.0Y-25.08
X93.0Y-33.0
X93.0Y-35.54
X93.0Y-38.08
X93.0Y-40.62
X93.0Y-46.0
X93.0Y-48.54
X93.0Y-51.08
X93.0Y-53.62
X93.0Y-59.0
X93.0Y-61.54
X93.0Y-64.08
X93.0Y-66.62
M30
