M48
; DRILL file {KiCad 9.0.5} date 2026-08-14T09:22:45-0400
; FORMAT={-:-/ absolute / metric / decimal}
; #@! TF.CreationDate,2026-08-14T09:22:45-04:00
; #@! TF.GenerationSoftware,Kicad,Pcbnew,9.0.5
; #@! TF.FileFunction,Plated,1,4,PTH
FMAT,2
METRIC
; #@! TA.AperFunction,Plated,PTH,ViaDrill
T1C0.250
; #@! TA.AperFunction,Plated,PTH,ViaDrill
T2C0.300
; #@! TA.AperFunction,Plated,PTH,ViaDrill
T3C0.400
; #@! TA.AperFunction,Plated,PTH,ComponentDrill
T4C0.750
; #@! TA.AperFunction,Plated,PTH,ComponentDrill
T5C0.800
; #@! TA.AperFunction,Plated,PTH,ComponentDrill
T6C1.000
%
G90
G05
T1
X12.325Y-70.725
T2
X2.003Y-23.263
X3.525Y-10.644
X4.234Y-21.334
X5.696Y-23.889
X6.031Y-20.679
X8.492Y-60.713
X9.257Y-21.261
X9.5Y-69.875
X10.153Y-24.359
X11.606Y-73.786
X11.651Y-72.582
X12.9Y-71.741
X13.008Y-55.12
X13.096Y-69.825
X13.229Y-23.851
X13.281Y-63.398
X13.428Y-57.471
X13.825Y-84.166
X15.106Y-84.325
X16.807Y-78.323
X17.104Y-54.82
X17.369Y-77.711
X18.0Y-85.375
X18.476Y-72.559
X18.99Y-77.084
X19.008Y-17.931
X20.0Y-7.875
X20.296Y-20.475
X20.425Y-87.64
X22.0Y-7.875
X23.902Y-76.882
X24.447Y-81.725
X25.166Y-26.896
X26.365Y-62.821
X26.715Y-86.235
X27.027Y-27.832
X28.117Y-71.129
X29.057Y-83.239
X30.337Y-73.82
X30.45Y-79.408
X30.526Y-48.65
X31.309Y-23.379
X31.402Y-55.91
X32.717Y-59.72
X32.717Y-66.786
X34.105Y-18.863
X34.322Y-71.18
X35.887Y-81.536
X36.027Y-68.654
X36.242Y-28.59
X36.309Y-67.597
X36.607Y-65.07
X38.804Y-19.888
X45.317Y-28.002
X46.818Y-52.1
X49.775Y-73.82
X51.516Y-51.314
X52.8Y-47.709
X53.525Y-79.739
X57.275Y-77.335
X59.951Y-62.238
X61.206Y-58.461
X66.011Y-58.461
X67.025Y-38.718
X67.886Y-63.082
X68.617Y-64.629
X68.82Y-19.372
X68.886Y-27.008
X70.231Y-19.795
X70.894Y-22.828
X70.915Y-46.185
X71.648Y-38.004
X72.502Y-34.81
X74.535Y-62.675
X74.647Y-46.89
X75.014Y-26.909
X76.093Y-38.004
X83.942Y-52.1
X84.073Y-34.81
X86.166Y-35.857
X91.074Y-64.629
T3
X3.641Y-26.117
X3.74Y-33.283
X4.23Y-19.525
X4.23Y-20.525
X5.675Y-25.505
X7.775Y-70.725
X8.63Y-20.525
X8.905Y-25.275
X8.905Y-27.175
X9.275Y-14.775
X9.275Y-45.775
X10.225Y-31.155
X10.24Y-40.025
X10.24Y-50.725
X11.63Y-75.55
X12.0Y-7.875
X12.425Y-96.95
X12.505Y-44.775
X12.505Y-46.675
X12.725Y-56.09
X13.125Y-70.725
X13.155Y-19.525
X13.155Y-21.425
X13.184Y-61.498
X13.63Y-67.025
X14.0Y-7.875
X14.53Y-33.735
X14.575Y-25.405
X17.275Y-62.75
X17.485Y-75.75
X17.675Y-58.63
X17.725Y-70.725
X18.175Y-14.775
X19.035Y-45.005
X19.325Y-87.525
X20.955Y-71.675
X22.055Y-19.525
X22.055Y-21.425
X22.135Y-75.58
X22.325Y-55.005
X23.43Y-33.735
X23.475Y-25.405
X24.941Y-55.617
X25.525Y-62.75
X26.065Y-71.675
X26.975Y-55.005
X27.075Y-14.775
X27.503Y-71.994
X29.63Y-44.975
X30.219Y-71.014
X30.341Y-26.117
X30.93Y-19.525
X30.93Y-20.525
X32.275Y-83.275
X32.349Y-81.064
X32.375Y-25.505
X32.715Y-21.966
X34.24Y-44.975
X34.725Y-61.98
X35.33Y-20.525
X35.605Y-25.275
X35.605Y-27.175
X35.975Y-14.775
X36.925Y-31.155
X36.94Y-40.025
X38.038Y-64.136
X42.43Y-64.662
X43.525Y-83.275
X43.799Y-21.664
X43.799Y-59.474
X44.425Y-45.325
X44.755Y-66.775
X44.755Y-68.675
X45.453Y-74.574
X46.175Y-49.705
X46.175Y-54.255
X46.63Y-15.725
X47.375Y-45.325
X48.409Y-59.474
X48.791Y-54.867
X49.991Y-45.767
X50.137Y-18.135
X50.825Y-54.255
X51.175Y-22.059
X51.285Y-15.005
X51.285Y-67.005
X52.025Y-45.155
X52.025Y-49.875
X52.125Y-34.325
X54.925Y-49.875
X55.43Y-54.225
X56.925Y-28.775
X56.925Y-39.775
X57.702Y-16.34
X57.875Y-49.875
X59.337Y-13.596
X60.04Y-54.225
X60.5Y-14.975
X60.5Y-66.975
X65.426Y-22.794
X65.986Y-36.457
X68.255Y-45.675
X68.725Y-20.415
X68.725Y-24.758
X69.675Y-40.995
X70.425Y-37.608
X72.925Y-59.775
X73.365Y-43.775
X73.365Y-45.675
X73.675Y-12.795
X73.675Y-27.297
X74.325Y-40.995
X75.094Y-62.075
X75.425Y-25.219
X76.093Y-44.566
X76.291Y-13.617
X78.325Y-13.005
X78.325Y-23.672
X78.93Y-40.965
X80.05Y-49.625
X80.925Y-31.35
X80.941Y-13.617
X80.941Y-24.285
X82.175Y-60.005
X82.975Y-13.005
X82.975Y-23.672
X85.194Y-37.873
X88.3Y-79.725
X89.175Y-31.35
X89.27Y-49.625
X90.075Y-35.987
T4
X4.0Y-60.0
X4.0Y-62.0
X4.0Y-64.0
X4.0Y-66.0
X12.0Y-6.5
X14.0Y-6.5
X16.0Y-6.5
X18.0Y-6.5
X20.0Y-6.5
X22.0Y-6.5
X24.0Y-6.5
X26.0Y-6.5
X28.0Y-6.5
X30.0Y-6.5
X68.0Y-6.5
X70.0Y-6.5
X72.0Y-6.5
X74.0Y-6.5
T5
X68.525Y-72.275
X72.025Y-72.275
X78.275Y-72.275
X81.775Y-72.275
T6
X40.0Y-14.0
X40.0Y-16.54
X40.0Y-19.08
X40.0Y-21.62
X40.0Y-24.16
X40.0Y-26.7
X40.0Y-29.24
X40.0Y-31.78
X40.0Y-34.32
X40.0Y-36.86
X40.0Y-39.4
X40.0Y-41.94
X40.0Y-44.48
X40.0Y-47.02
X40.0Y-49.56
X40.0Y-52.1
X40.0Y-54.64
X40.0Y-57.18
X40.0Y-59.72
X40.0Y-62.26
X40.0Y-64.8
X40.0Y-67.34
X62.86Y-14.0
X62.86Y-16.54
X62.86Y-19.08
X62.86Y-21.62
X62.86Y-24.16
X62.86Y-26.7
X62.86Y-29.24
X62.86Y-31.78
X62.86Y-34.32
X62.86Y-36.86
X62.86Y-39.4
X62.86Y-41.94
X62.86Y-44.48
X62.86Y-47.02
X62.86Y-49.56
X62.86Y-52.1
X62.86Y-54.64
X62.86Y-57.18
X62.86Y-59.72
X62.86Y-62.26
X62.86Y-64.8
X62.86Y-67.34
X93.0Y-20.0
X93.0Y-22.54
X93.0Y-25.08
X93.0Y-33.0
X93.0Y-35.54
X93.0Y-38.08
X93.0Y-40.62
X93.0Y-46.0
X93.0Y-48.54
X93.0Y-51.08
X93.0Y-53.62
X93.0Y-59.0
X93.0Y-61.54
X93.0Y-64.08
X93.0Y-66.62
M30
