%TF.GenerationSoftware,KiCad,Pcbnew,9.0.5*%
%TF.CreationDate,2026-08-13T07:18:41-04:00*%
%TF.ProjectId,esp32s3-can-sd-logger,65737033-3273-4332-9d63-616e2d73642d,rev?*%
%TF.SameCoordinates,Original*%
%TF.FileFunction,Copper,L4,Bot*%
%TF.FilePolarity,Positive*%
%FSLAX46Y46*%
G04 Gerber Fmt 4.6, Leading zero omitted, Abs format (unit mm)*
G04 Created by KiCad (PCBNEW 9.0.5) date 2026-08-13 07:18:41*
%MOMM*%
%LPD*%
G01*
G04 APERTURE LIST*
G04 Aperture macros list*
%AMRoundRect*
0 Rectangle with rounded corners*
0 $1 Rounding radius*
0 $2 $3 $4 $5 $6 $7 $8 $9 X,Y pos of 4 corners*
0 Add a 4 corners polygon primitive as box body*
4,1,4,$2,$3,$4,$5,$6,$7,$8,$9,$2,$3,0*
0 Add four circle primitives for the rounded corners*
1,1,$1+$1,$2,$3*
1,1,$1+$1,$4,$5*
1,1,$1+$1,$6,$7*
1,1,$1+$1,$8,$9*
0 Add four rect primitives between the rounded corners*
20,1,$1+$1,$2,$3,$4,$5,0*
20,1,$1+$1,$4,$5,$6,$7,0*
20,1,$1+$1,$6,$7,$8,$9,0*
20,1,$1+$1,$8,$9,$2,$3,0*%
G04 Aperture macros list end*
%TA.AperFunction,ComponentPad*%
%ADD10R,1.700000X1.700000*%
%TD*%
%TA.AperFunction,ComponentPad*%
%ADD11C,1.700000*%
%TD*%
%TA.AperFunction,ComponentPad*%
%ADD12RoundRect,0.250000X-0.550000X-0.550000X0.550000X-0.550000X0.550000X0.550000X-0.550000X0.550000X0*%
%TD*%
%TA.AperFunction,ComponentPad*%
%ADD13C,1.600000*%
%TD*%
%TA.AperFunction,ComponentPad*%
%ADD14RoundRect,0.250000X-0.350000X-0.625000X0.350000X-0.625000X0.350000X0.625000X-0.350000X0.625000X0*%
%TD*%
%TA.AperFunction,ComponentPad*%
%ADD15O,1.200000X1.750000*%
%TD*%
%TA.AperFunction,ComponentPad*%
%ADD16RoundRect,0.250000X0.625000X-0.350000X0.625000X0.350000X-0.625000X0.350000X-0.625000X-0.350000X0*%
%TD*%
%TA.AperFunction,ComponentPad*%
%ADD17O,1.750000X1.200000*%
%TD*%
%TA.AperFunction,ViaPad*%
%ADD18C,0.600000*%
%TD*%
%TA.AperFunction,ViaPad*%
%ADD19C,0.800000*%
%TD*%
%TA.AperFunction,ViaPad*%
%ADD20C,0.500000*%
%TD*%
%TA.AperFunction,Conductor*%
%ADD21C,0.550000*%
%TD*%
%TA.AperFunction,Conductor*%
%ADD22C,0.250000*%
%TD*%
G04 APERTURE END LIST*
D10*
%TO.P,J7,1*%
%TO.N,+5V*%
X93000000Y-33000000D03*
D11*
%TO.P,J7,2*%
%TO.N,+3V3*%
X93000000Y-35540000D03*
%TO.P,J7,3*%
%TO.N,GND*%
X93000000Y-38080000D03*
%TO.P,J7,4*%
X93000000Y-40620000D03*
%TD*%
D12*
%TO.P,C6,1*%
%TO.N,SCAP_TOP*%
X68525000Y-72275000D03*
D13*
%TO.P,C6,2*%
%TO.N,SCAP_MID*%
X72025000Y-72275000D03*
%TD*%
D10*
%TO.P,J10,1*%
%TO.N,AIN_SP1*%
X93000000Y-59000000D03*
D11*
%TO.P,J10,2*%
%TO.N,AIN_SP2*%
X93000000Y-61540000D03*
%TO.P,J10,3*%
%TO.N,AGND_SENSE*%
X93000000Y-64080000D03*
%TO.P,J10,4*%
%TO.N,GND*%
X93000000Y-66620000D03*
%TD*%
D10*
%TO.P,J4,1*%
%TO.N,GND*%
X62860000Y-14000000D03*
D11*
%TO.P,J4,2*%
%TO.N,N/C*%
X62860000Y-16540000D03*
%TO.P,J4,3*%
X62860000Y-19080000D03*
%TO.P,J4,4*%
%TO.N,K_RX*%
X62860000Y-21620000D03*
%TO.P,J4,5*%
%TO.N,K_TX*%
X62860000Y-24160000D03*
%TO.P,J4,6*%
%TO.N,CAN2_CS*%
X62860000Y-26700000D03*
%TO.P,J4,7*%
%TO.N,CAN2_MISO*%
X62860000Y-29240000D03*
%TO.P,J4,8*%
%TO.N,CAN2_MOSI*%
X62860000Y-31780000D03*
%TO.P,J4,9*%
%TO.N,CAN2_SCK*%
X62860000Y-34320000D03*
%TO.P,J4,10*%
%TO.N,N/C*%
X62860000Y-36860000D03*
%TO.P,J4,11*%
X62860000Y-39400000D03*
%TO.P,J4,12*%
X62860000Y-41940000D03*
%TO.P,J4,13*%
X62860000Y-44480000D03*
%TO.P,J4,14*%
X62860000Y-47020000D03*
%TO.P,J4,15*%
X62860000Y-49560000D03*
%TO.P,J4,16*%
%TO.N,LED_DIN_MCU*%
X62860000Y-52100000D03*
%TO.P,J4,17*%
%TO.N,SD_PWR_EN*%
X62860000Y-54640000D03*
%TO.P,J4,18*%
%TO.N,CAN2_INT*%
X62860000Y-57180000D03*
%TO.P,J4,19*%
%TO.N,N/C*%
X62860000Y-59720000D03*
%TO.P,J4,20*%
X62860000Y-62260000D03*
%TO.P,J4,21*%
%TO.N,GND*%
X62860000Y-64800000D03*
%TO.P,J4,22*%
X62860000Y-67340000D03*
%TD*%
D10*
%TO.P,J3,1*%
%TO.N,+3V3*%
X40000000Y-14000000D03*
D11*
%TO.P,J3,2*%
X40000000Y-16540000D03*
%TO.P,J3,3*%
%TO.N,N/C*%
X40000000Y-19080000D03*
%TO.P,J3,4*%
%TO.N,AIN1*%
X40000000Y-21620000D03*
%TO.P,J3,5*%
%TO.N,AIN2*%
X40000000Y-24160000D03*
%TO.P,J3,6*%
%TO.N,AIN3*%
X40000000Y-26700000D03*
%TO.P,J3,7*%
%TO.N,AIN4*%
X40000000Y-29240000D03*
%TO.P,J3,8*%
%TO.N,PWR_FAIL*%
X40000000Y-31780000D03*
%TO.P,J3,9*%
%TO.N,CAN_S*%
X40000000Y-34320000D03*
%TO.P,J3,10*%
%TO.N,CAN_TX*%
X40000000Y-36860000D03*
%TO.P,J3,11*%
%TO.N,CAN_RX*%
X40000000Y-39400000D03*
%TO.P,J3,12*%
%TO.N,VBAT_SNS*%
X40000000Y-41940000D03*
%TO.P,J3,13*%
%TO.N,N/C*%
X40000000Y-44480000D03*
%TO.P,J3,14*%
X40000000Y-47020000D03*
%TO.P,J3,15*%
%TO.N,I2C_SCL*%
X40000000Y-49560000D03*
%TO.P,J3,16*%
%TO.N,I2C_SDA*%
X40000000Y-52100000D03*
%TO.P,J3,17*%
%TO.N,SD_CD*%
X40000000Y-54640000D03*
%TO.P,J3,18*%
%TO.N,SD_D0*%
X40000000Y-57180000D03*
%TO.P,J3,19*%
%TO.N,SD_CMD*%
X40000000Y-59720000D03*
%TO.P,J3,20*%
%TO.N,SD_CLK*%
X40000000Y-62260000D03*
%TO.P,J3,21*%
%TO.N,+5V*%
X40000000Y-64800000D03*
%TO.P,J3,22*%
%TO.N,GND*%
X40000000Y-67340000D03*
%TD*%
D14*
%TO.P,J9,1*%
%TO.N,+5VS*%
X12000000Y-6500000D03*
D15*
%TO.P,J9,2*%
X14000000Y-6500000D03*
%TO.P,J9,3*%
%TO.N,AIN1_IN*%
X16000000Y-6500000D03*
%TO.P,J9,4*%
%TO.N,AIN2_IN*%
X18000000Y-6500000D03*
%TO.P,J9,5*%
%TO.N,SENS_RTN*%
X20000000Y-6500000D03*
%TO.P,J9,6*%
X22000000Y-6500000D03*
%TO.P,J9,7*%
%TO.N,AIN3_IN*%
X24000000Y-6500000D03*
%TO.P,J9,8*%
%TO.N,AIN4_IN*%
X26000000Y-6500000D03*
%TO.P,J9,9*%
%TO.N,GND*%
X28000000Y-6500000D03*
%TO.P,J9,10*%
X30000000Y-6500000D03*
%TD*%
D10*
%TO.P,J6,1*%
%TO.N,LED_5V*%
X93000000Y-20000000D03*
D11*
%TO.P,J6,2*%
%TO.N,LED_DIN_J*%
X93000000Y-22540000D03*
%TO.P,J6,3*%
%TO.N,GND*%
X93000000Y-25080000D03*
%TD*%
D10*
%TO.P,J5,1*%
%TO.N,GND*%
X93000000Y-46000000D03*
D11*
%TO.P,J5,2*%
%TO.N,+3V3*%
X93000000Y-48540000D03*
%TO.P,J5,3*%
%TO.N,I2C_SDA*%
X93000000Y-51080000D03*
%TO.P,J5,4*%
%TO.N,I2C_SCL*%
X93000000Y-53620000D03*
%TD*%
D16*
%TO.P,J1,1*%
%TO.N,OBD_VBAT*%
X4000000Y-66000000D03*
D17*
%TO.P,J1,2*%
%TO.N,GND*%
X4000000Y-64000000D03*
%TO.P,J1,3*%
%TO.N,CAN_H*%
X4000000Y-62000000D03*
%TO.P,J1,4*%
%TO.N,CAN_L*%
X4000000Y-60000000D03*
%TD*%
D12*
%TO.P,C7,1*%
%TO.N,SCAP_MID*%
X77475000Y-72275000D03*
D13*
%TO.P,C7,2*%
%TO.N,GND*%
X80975000Y-72275000D03*
%TD*%
D14*
%TO.P,J2,1*%
%TO.N,AUX_A*%
X68000000Y-6500000D03*
D15*
%TO.P,J2,2*%
%TO.N,AUX_B*%
X70000000Y-6500000D03*
%TO.P,J2,3*%
%TO.N,GND*%
X72000000Y-6500000D03*
%TO.P,J2,4*%
X74000000Y-6500000D03*
%TD*%
D18*
%TO.N,+3V3*%
X22055000Y-20625000D03*
X47608800Y-52864200D03*
X21255000Y-70675000D03*
X34805000Y-25575000D03*
X58880000Y-48075000D03*
X11705000Y-46675000D03*
X29818700Y-70014200D03*
X3641000Y-24517500D03*
X30930000Y-18725000D03*
X53041000Y-48717500D03*
X13375000Y-69725000D03*
X51418800Y-52864200D03*
X30341000Y-24517500D03*
X79341000Y-24227500D03*
X49191000Y-44967500D03*
X72565000Y-45675000D03*
X79341000Y-13617500D03*
X21675000Y-58630000D03*
X31598700Y-79514200D03*
X18375000Y-69725000D03*
X27341000Y-55617500D03*
X8105000Y-25575000D03*
X73675000Y-27240000D03*
X44425000Y-48275000D03*
X33475000Y-84275000D03*
X75491000Y-13617500D03*
X13155000Y-20625000D03*
X8630000Y-19725000D03*
X44425000Y-44525000D03*
X73675000Y-12795000D03*
X35330000Y-19725000D03*
X44755000Y-68675000D03*
X43798800Y-20864200D03*
D19*
%TO.N,+5V*%
X59930800Y-59785500D03*
X74459400Y-28382000D03*
X90749000Y-32865000D03*
%TO.N,+5VS*%
X30353300Y-30603700D03*
X41837000Y-5144200D03*
X30766900Y-84111000D03*
X12000000Y-7875000D03*
X3025000Y-31371500D03*
X14000000Y-7875000D03*
X1473300Y-84698300D03*
X1473300Y-32779700D03*
D18*
%TO.N,AGND_SENSE*%
X33948800Y-22335900D03*
X8671100Y-20826100D03*
X37214000Y-25436000D03*
X18895300Y-22337100D03*
%TO.N,AIN1*%
X8942500Y-25852800D03*
%TO.N,AIN2*%
X17327500Y-25480000D03*
%TO.N,AIN2_IN*%
X15542500Y-21322300D03*
X12425000Y-10894000D03*
X10434200Y-18003000D03*
%TO.N,AIN3*%
X8929100Y-22046600D03*
X27211000Y-28002000D03*
%TO.N,AIN4*%
X34744600Y-17651600D03*
X31637800Y-16926100D03*
%TO.N,AIN_SP1*%
X41169500Y-19961700D03*
%TO.N,AIN_SP2*%
X66673300Y-41589200D03*
X65754500Y-43611500D03*
X41004900Y-40483300D03*
%TO.N,AUX_A*%
X66560600Y-47458000D03*
X60072700Y-67582500D03*
X69033300Y-22601200D03*
%TO.N,AUX_B*%
X75452500Y-24622200D03*
%TO.N,CAN2L_T*%
X81319200Y-25653700D03*
X73698700Y-25653700D03*
%TO.N,CAN2_CS*%
X69555800Y-25558000D03*
%TO.N,CAN2_RXD*%
X67250000Y-28382300D03*
X69581400Y-16282600D03*
%TO.N,CAN2_S*%
X66792500Y-37280500D03*
X70418600Y-27240900D03*
%TO.N,CAN_H*%
X52364900Y-55317100D03*
X33862000Y-54911300D03*
X29867500Y-63024300D03*
%TO.N,CAN_L*%
X22975000Y-59963300D03*
X56108900Y-49394600D03*
%TO.N,CAN_RX*%
X17262900Y-56715200D03*
%TO.N,CAN_S*%
X18154700Y-54486700D03*
%TO.N,CAN_TX*%
X16727400Y-55113400D03*
%TO.N,GND*%
X54941000Y-44967500D03*
X29241000Y-55617500D03*
X81060000Y-48825000D03*
X35975000Y-14775000D03*
X12630000Y-74275000D03*
X28725000Y-62250000D03*
X26015000Y-70675000D03*
X58100000Y-66975000D03*
X85325000Y-32085000D03*
X32375000Y-23905000D03*
X34805000Y-23675000D03*
X13155000Y-18725000D03*
X4230000Y-19725000D03*
X69494400Y-39935000D03*
X89925000Y-35415000D03*
X77391000Y-13617500D03*
X25940000Y-44975000D03*
X54941000Y-48717500D03*
X77391000Y-24227500D03*
X16725000Y-56090000D03*
X81375000Y-13005000D03*
D20*
X16050000Y-69725000D03*
D18*
X56125000Y-39775000D03*
X51091000Y-44967500D03*
X80885800Y-30935000D03*
X17435000Y-45005000D03*
X60125000Y-44525000D03*
X14530000Y-30535000D03*
X25391000Y-55617500D03*
X30930000Y-19725000D03*
X50351000Y-67617500D03*
X47231000Y-48975000D03*
X23430000Y-30535000D03*
X42325000Y-84275000D03*
X8105000Y-23675000D03*
X56125000Y-28775000D03*
X4230000Y-18725000D03*
X80441000Y-60617500D03*
X21994300Y-45575000D03*
X85941000Y-36027500D03*
X9275000Y-14775000D03*
X22435000Y-74305000D03*
X18135000Y-74475000D03*
X36125000Y-28755000D03*
X9275000Y-45775000D03*
X74294300Y-62075000D03*
X47231000Y-45225000D03*
X85900000Y-78425000D03*
X58100000Y-14975000D03*
X5675000Y-23905000D03*
X14441000Y-24417500D03*
X23341000Y-24417500D03*
X18175000Y-14775000D03*
X80490500Y-31935000D03*
X73304400Y-49425000D03*
X68255000Y-45675000D03*
X68725000Y-24700000D03*
X73040500Y-31935000D03*
X68725000Y-20415000D03*
X44755000Y-66775000D03*
X13250000Y-49925000D03*
X81241000Y-24227500D03*
X22055000Y-18725000D03*
X14675000Y-93725000D03*
X36140000Y-36025000D03*
X45994300Y-52425000D03*
X46464200Y-16125000D03*
X50351000Y-15617500D03*
X51091000Y-48717500D03*
X21040500Y-62950000D03*
X27075000Y-14775000D03*
X36325000Y-61480000D03*
X23575000Y-81550000D03*
X9425000Y-28755000D03*
X82091000Y-36027500D03*
X72565000Y-43775000D03*
X11705000Y-44775000D03*
X51325000Y-33525000D03*
X72280700Y-59375000D03*
X17494300Y-66625000D03*
X8775000Y-69725000D03*
X9440000Y-36025000D03*
%TO.N,I2C_SCL*%
X8551500Y-18094400D03*
X35416300Y-18831000D03*
X52682200Y-50070700D03*
X77708800Y-47004000D03*
X75703600Y-47613300D03*
%TO.N,I2C_SDA*%
X10449700Y-18832900D03*
X48927500Y-53034200D03*
X46026400Y-50952100D03*
X48788300Y-32429500D03*
X33129800Y-18092900D03*
%TO.N,K_LINE*%
X64957500Y-67106000D03*
X55008000Y-71940800D03*
%TO.N,LED_DIN_MCU*%
X81542500Y-58027700D03*
X64957500Y-54886000D03*
D19*
%TO.N,OBD_VBAT*%
X39637500Y-74438000D03*
%TO.N,OBD_VBAT_F*%
X48699900Y-35098900D03*
X75609600Y-46673900D03*
X57230700Y-45992200D03*
X59000100Y-72667500D03*
D18*
%TO.N,PWR_FAIL*%
X44485100Y-27175100D03*
%TO.N,SD_CD*%
X32475200Y-70398300D03*
X42840400Y-60835400D03*
X10120000Y-72206300D03*
X14846300Y-72325100D03*
X20353300Y-69682300D03*
%TO.N,SD_CLK*%
X23852500Y-72095800D03*
%TO.N,SD_CLK_C*%
X27675000Y-85495100D03*
X16175000Y-91095100D03*
%TO.N,SD_CMD*%
X28874200Y-70187200D03*
%TO.N,SD_CMD_C*%
X29937500Y-81770000D03*
X23407500Y-80126600D03*
X42834200Y-83454400D03*
%TO.N,SD_D0*%
X32451700Y-71375800D03*
X38246900Y-71375800D03*
%TO.N,SD_D0_C*%
X7120300Y-77943300D03*
X16896500Y-77943300D03*
X33840000Y-76780100D03*
%TO.N,SD_D1_C*%
X15175400Y-79557900D03*
X6327200Y-79094600D03*
%TO.N,SD_D2_C*%
X21301800Y-78589200D03*
X14937500Y-67947400D03*
%TO.N,SD_D3_C*%
X28657500Y-81770000D03*
X13361100Y-72833000D03*
X21820000Y-83903700D03*
%TO.N,SD_EN_G*%
X31155000Y-75878700D03*
X9554400Y-75861900D03*
%TO.N,SD_PWR_EN*%
X34497300Y-59806400D03*
%TO.N,SENS_RTN*%
X5103500Y-21383600D03*
X22000000Y-7875000D03*
X20000000Y-7875000D03*
%TO.N,VBAT_SNS*%
X47585000Y-64662000D03*
X53277500Y-64662000D03*
%TO.N,XTAL1*%
X76726900Y-24857700D03*
X69566500Y-18394300D03*
%TD*%
D21*
%TO.N,+5V*%
X45014500Y-59785500D02*
X59930800Y-59785500D01*
X91673300Y-33000000D02*
X91538300Y-32865000D01*
X74459400Y-28382000D02*
X86266000Y-28382000D01*
X86266000Y-28382000D02*
X90749000Y-32865000D01*
X40000000Y-64800000D02*
X45014500Y-59785500D01*
X93000000Y-33000000D02*
X91673300Y-33000000D01*
X91538300Y-32865000D02*
X90749000Y-32865000D01*
%TO.N,+5VS*%
X1473300Y-32779700D02*
X1616800Y-32779700D01*
X1616800Y-32779700D02*
X3025000Y-31371500D01*
X29585500Y-31371500D02*
X30353300Y-30603700D01*
X2854700Y-31201200D02*
X3025000Y-31371500D01*
X3025000Y-31371500D02*
X29585500Y-31371500D01*
X2854700Y-15645300D02*
X2854700Y-31201200D01*
X30766900Y-84111000D02*
X30179600Y-84698300D01*
X30179600Y-84698300D02*
X1473300Y-84698300D01*
X12000000Y-7875000D02*
X14000000Y-7875000D01*
X15355800Y-5144200D02*
X41837000Y-5144200D01*
X14000000Y-6500000D02*
X15355800Y-5144200D01*
X12000000Y-6500000D02*
X2854700Y-15645300D01*
D22*
%TO.N,AGND_SENSE*%
X43661000Y-25436000D02*
X37214000Y-25436000D01*
X61218200Y-43210000D02*
X57042800Y-39034600D01*
X18895300Y-22337100D02*
X10182100Y-22337100D01*
X77082100Y-47263500D02*
X77082100Y-47036000D01*
X10182100Y-22337100D02*
X8671100Y-20826100D01*
X65495000Y-42984800D02*
X65269800Y-43210000D01*
X65269800Y-43210000D02*
X61218200Y-43210000D01*
X77082100Y-47036000D02*
X73030900Y-42984800D01*
X91635200Y-61816600D02*
X77082100Y-47263500D01*
X91635200Y-62715200D02*
X91635200Y-61816600D01*
X18895300Y-22337100D02*
X33947600Y-22337100D01*
X57042800Y-39034600D02*
X54500200Y-39034600D01*
X45800100Y-27575100D02*
X43661000Y-25436000D01*
X33947600Y-22337100D02*
X33948800Y-22335900D01*
X73030900Y-42984800D02*
X65495000Y-42984800D01*
X54500200Y-39034600D02*
X45800100Y-30334500D01*
X93000000Y-64080000D02*
X91635200Y-62715200D01*
X45800100Y-30334500D02*
X45800100Y-27575100D01*
%TO.N,AIN1*%
X35929100Y-21620000D02*
X33004900Y-24544200D01*
X40000000Y-21620000D02*
X35929100Y-21620000D01*
X33004900Y-24544200D02*
X31898700Y-24544200D01*
X31116200Y-23761700D02*
X11033600Y-23761700D01*
X11033600Y-23761700D02*
X8942500Y-25852800D01*
X31898700Y-24544200D02*
X31116200Y-23761700D01*
%TO.N,AIN2*%
X40000000Y-24160000D02*
X39629800Y-24530200D01*
X34792300Y-24530200D02*
X33842500Y-25480000D01*
X33842500Y-25480000D02*
X17327500Y-25480000D01*
X39629800Y-24530200D02*
X34792300Y-24530200D01*
%TO.N,AIN2_IN*%
X15542500Y-21322300D02*
X12043600Y-21322300D01*
X17073300Y-6500000D02*
X17073300Y-7079200D01*
X10312200Y-18003000D02*
X10434200Y-18003000D01*
X18000000Y-6500000D02*
X17073300Y-6500000D01*
X13258500Y-10894000D02*
X12425000Y-10894000D01*
X9767000Y-19045700D02*
X9767000Y-18548200D01*
X12043600Y-21322300D02*
X9767000Y-19045700D01*
X17073300Y-7079200D02*
X13258500Y-10894000D01*
X9767000Y-18548200D02*
X10312200Y-18003000D01*
%TO.N,AIN3*%
X27211000Y-27606400D02*
X27211000Y-28002000D01*
X7430500Y-25803500D02*
X7430500Y-25262900D01*
X40000000Y-26700000D02*
X28117400Y-26700000D01*
X7430500Y-25262900D02*
X8929100Y-23764300D01*
X8929100Y-23764300D02*
X8929100Y-22046600D01*
X27211000Y-27606400D02*
X9233400Y-27606400D01*
X28117400Y-26700000D02*
X27211000Y-27606400D01*
X9233400Y-27606400D02*
X7430500Y-25803500D01*
%TO.N,AIN4*%
X34019100Y-16926100D02*
X34744600Y-17651600D01*
X31637800Y-16926100D02*
X34019100Y-16926100D01*
%TO.N,AIN_SP1*%
X61336500Y-38175100D02*
X48851200Y-25689800D01*
X92487400Y-49810000D02*
X80852500Y-38175100D01*
X94633200Y-56190100D02*
X94633200Y-51006400D01*
X80852500Y-38175100D02*
X61336500Y-38175100D01*
X93436800Y-49810000D02*
X92487400Y-49810000D01*
X93000000Y-59000000D02*
X93000000Y-57823300D01*
X94633200Y-51006400D02*
X93436800Y-49810000D01*
X48851200Y-25689800D02*
X46897600Y-25689800D01*
X93000000Y-57823300D02*
X94633200Y-56190100D01*
X46897600Y-25689800D02*
X41169500Y-19961700D01*
%TO.N,AIN_SP2*%
X49207000Y-40483300D02*
X55486500Y-46762800D01*
X93399000Y-52350000D02*
X90362000Y-52350000D01*
X41004900Y-40483300D02*
X49207000Y-40483300D01*
X94181500Y-53132500D02*
X93399000Y-52350000D01*
X90362000Y-52350000D02*
X79601200Y-41589200D01*
X63615900Y-45750100D02*
X65754500Y-43611500D01*
X55486500Y-46762800D02*
X59552300Y-46762800D01*
X91823300Y-60363300D02*
X91823300Y-58014600D01*
X91823300Y-58014600D02*
X94181500Y-55656400D01*
X93000000Y-61540000D02*
X91823300Y-60363300D01*
X60565000Y-45750100D02*
X63615900Y-45750100D01*
X59552300Y-46762800D02*
X60565000Y-45750100D01*
X79601200Y-41589200D02*
X66673300Y-41589200D01*
X94181500Y-55656400D02*
X94181500Y-53132500D01*
%TO.N,AUX_A*%
X68000000Y-6500000D02*
X68000000Y-21567900D01*
X64036700Y-49981900D02*
X64036700Y-55127500D01*
X61110000Y-66545200D02*
X60072700Y-67582500D01*
X61110000Y-57260700D02*
X61110000Y-66545200D01*
X68000000Y-21567900D02*
X69033300Y-22601200D01*
X64036700Y-55127500D02*
X63160900Y-56003300D01*
X66560600Y-47458000D02*
X64036700Y-49981900D01*
X63160900Y-56003300D02*
X62367400Y-56003300D01*
X62367400Y-56003300D02*
X61110000Y-57260700D01*
%TO.N,AUX_B*%
X68939700Y-17932300D02*
X68939700Y-18681700D01*
X70000000Y-6500000D02*
X70000000Y-7701700D01*
X68939700Y-18681700D02*
X69632700Y-19374700D01*
X69632700Y-19374700D02*
X70205000Y-19374700D01*
X70205000Y-19374700D02*
X75452500Y-24622200D01*
X70208200Y-7909900D02*
X70208200Y-16663800D01*
X70208200Y-16663800D02*
X68939700Y-17932300D01*
X70000000Y-7701700D02*
X70208200Y-7909900D01*
%TO.N,CAN2L_T*%
X73698700Y-25653700D02*
X81319200Y-25653700D01*
%TO.N,CAN2_CS*%
X69555800Y-25558000D02*
X68413800Y-26700000D01*
X68413800Y-26700000D02*
X62860000Y-26700000D01*
%TO.N,CAN2_RXD*%
X70202900Y-25859400D02*
X67680000Y-28382300D01*
X67680000Y-28382300D02*
X67250000Y-28382300D01*
X68488000Y-18868800D02*
X70202900Y-20583700D01*
X70202900Y-20583700D02*
X70202900Y-25859400D01*
X68488000Y-17376000D02*
X68488000Y-18868800D01*
X69581400Y-16282600D02*
X68488000Y-17376000D01*
%TO.N,CAN2_S*%
X70418600Y-33654400D02*
X66792500Y-37280500D01*
X70418600Y-27240900D02*
X70418600Y-33654400D01*
%TO.N,CAN_H*%
X28561200Y-63024300D02*
X29867500Y-63024300D01*
X48004800Y-55317100D02*
X52364900Y-55317100D01*
X27536900Y-62000000D02*
X28561200Y-63024300D01*
X33862000Y-54911300D02*
X35331000Y-53442300D01*
X4000000Y-62000000D02*
X5201700Y-62000000D01*
X5201700Y-62000000D02*
X27536900Y-62000000D01*
X46130000Y-53442300D02*
X48004800Y-55317100D01*
X35331000Y-53442300D02*
X46130000Y-53442300D01*
%TO.N,CAN_L*%
X5238400Y-59963300D02*
X22975000Y-59963300D01*
X5201700Y-60000000D02*
X5238400Y-59963300D01*
X50150800Y-49394600D02*
X56108900Y-49394600D01*
X22975000Y-59963300D02*
X23894500Y-59963300D01*
X23894500Y-59963300D02*
X38015000Y-45842800D01*
X38015000Y-45842800D02*
X46599000Y-45842800D01*
X46599000Y-45842800D02*
X50150800Y-49394600D01*
X4000000Y-60000000D02*
X5201700Y-60000000D01*
%TO.N,CAN_RX*%
X22684800Y-56715200D02*
X40000000Y-39400000D01*
X17262900Y-56715200D02*
X22684800Y-56715200D01*
%TO.N,CAN_S*%
X35661500Y-34320000D02*
X18154700Y-51826800D01*
X18154700Y-51826800D02*
X18154700Y-54486700D01*
X40000000Y-34320000D02*
X35661500Y-34320000D01*
%TO.N,CAN_TX*%
X21746600Y-55113400D02*
X16727400Y-55113400D01*
X40000000Y-36860000D02*
X21746600Y-55113400D01*
%TO.N,I2C_SCL*%
X33584700Y-17377900D02*
X35037800Y-18831000D01*
X73335500Y-46805000D02*
X74143800Y-47613300D01*
X40000000Y-49560000D02*
X40510700Y-50070700D01*
X40510700Y-50070700D02*
X52682200Y-50070700D01*
X32611800Y-17570700D02*
X32804600Y-17377900D01*
X65782300Y-46805000D02*
X73335500Y-46805000D01*
X62230000Y-48290000D02*
X64297300Y-48290000D01*
X52682200Y-50070700D02*
X60449300Y-50070700D01*
X35037800Y-18831000D02*
X35416300Y-18831000D01*
X74143800Y-47613300D02*
X75703600Y-47613300D01*
X64297300Y-48290000D02*
X65782300Y-46805000D01*
X84324800Y-53620000D02*
X93000000Y-53620000D01*
X8551500Y-18094400D02*
X9269600Y-17376300D01*
X60449300Y-50070700D02*
X62230000Y-48290000D01*
X9269600Y-17376300D02*
X31158400Y-17376300D01*
X32804600Y-17377900D02*
X33584700Y-17377900D01*
X31158400Y-17376300D02*
X31352800Y-17570700D01*
X31352800Y-17570700D02*
X32611800Y-17570700D01*
X77708800Y-47004000D02*
X84324800Y-53620000D01*
%TO.N,I2C_SDA*%
X40501000Y-20397400D02*
X48788300Y-28684700D01*
X46026400Y-50952100D02*
X46026400Y-51771400D01*
X62054500Y-40576700D02*
X82496700Y-40576700D01*
X10449700Y-18832900D02*
X10490600Y-18832900D01*
X11230600Y-18092900D02*
X33129800Y-18092900D01*
X48788300Y-32429500D02*
X53907300Y-32429500D01*
X82496700Y-40576700D02*
X93000000Y-51080000D01*
X46026400Y-51771400D02*
X47664700Y-51771400D01*
X33129800Y-18092900D02*
X33129800Y-18516100D01*
X35011100Y-20397400D02*
X40501000Y-20397400D01*
X40328600Y-51771400D02*
X46026400Y-51771400D01*
X33129800Y-18516100D02*
X35011100Y-20397400D01*
X53907300Y-32429500D02*
X62054500Y-40576700D01*
X40000000Y-52100000D02*
X40328600Y-51771400D01*
X48788300Y-28684700D02*
X48788300Y-32429500D01*
X47664700Y-51771400D02*
X48927500Y-53034200D01*
X10490600Y-18832900D02*
X11230600Y-18092900D01*
%TO.N,K_LINE*%
X64957500Y-67106000D02*
X60122700Y-71940800D01*
X60122700Y-71940800D02*
X55008000Y-71940800D01*
%TO.N,LED_DIN_MCU*%
X64957500Y-54886000D02*
X78400800Y-54886000D01*
X78400800Y-54886000D02*
X81542500Y-58027700D01*
D21*
%TO.N,OBD_VBAT*%
X16102300Y-67671900D02*
X17465600Y-67671900D01*
X19564900Y-69771200D02*
X19564900Y-70146600D01*
X19564900Y-70146600D02*
X23856300Y-74438000D01*
X17465600Y-67671900D02*
X19564900Y-69771200D01*
X4000000Y-66000000D02*
X14430400Y-66000000D01*
X23856300Y-74438000D02*
X39637500Y-74438000D01*
X14430400Y-66000000D02*
X16102300Y-67671900D01*
%TO.N,OBD_VBAT_F*%
X62585400Y-72667500D02*
X59000100Y-72667500D01*
X82358800Y-53423100D02*
X82358800Y-58326100D01*
X75425900Y-59827000D02*
X62585400Y-72667500D01*
X76480400Y-47285200D02*
X76480400Y-47544700D01*
X76031800Y-46836600D02*
X76480400Y-47285200D01*
X48700000Y-35098900D02*
X48699900Y-35098900D01*
X75609600Y-46673900D02*
X75772300Y-46836600D01*
X57230700Y-45992200D02*
X48700000Y-37461500D01*
X82358800Y-58326100D02*
X80857900Y-59827000D01*
X80857900Y-59827000D02*
X75425900Y-59827000D01*
X76480400Y-47544700D02*
X82358800Y-53423100D01*
X75772300Y-46836600D02*
X76031800Y-46836600D01*
X48700000Y-37461500D02*
X48700000Y-35098900D01*
D22*
%TO.N,PWR_FAIL*%
X44485100Y-27294900D02*
X44485100Y-27175100D01*
X40000000Y-31780000D02*
X44485100Y-27294900D01*
D21*
%TO.N,SCAP_MID*%
X77475000Y-72275000D02*
X72025000Y-72275000D01*
D22*
%TO.N,SD_CD*%
X30110600Y-72762900D02*
X23568300Y-72762900D01*
X42840400Y-61096200D02*
X40313300Y-63623300D01*
X22934800Y-72129400D02*
X22934800Y-71453400D01*
X21163700Y-69682300D02*
X20353300Y-69682300D01*
X42840400Y-60835400D02*
X42840400Y-61096200D01*
X23568300Y-72762900D02*
X22934800Y-72129400D01*
X39250200Y-63623300D02*
X32475200Y-70398300D01*
X32475200Y-70398300D02*
X30110600Y-72762900D01*
X22934800Y-71453400D02*
X21163700Y-69682300D01*
X14727500Y-72206300D02*
X10120000Y-72206300D01*
X14846300Y-72325100D02*
X14727500Y-72206300D01*
X40313300Y-63623300D02*
X39250200Y-63623300D01*
%TO.N,SD_CLK*%
X40000000Y-62260000D02*
X39689100Y-62260000D01*
X39689100Y-62260000D02*
X29853300Y-72095800D01*
X29853300Y-72095800D02*
X23852500Y-72095800D01*
%TO.N,SD_CLK_C*%
X16175000Y-91095100D02*
X22075000Y-91095100D01*
X22075000Y-91095100D02*
X27675000Y-85495100D01*
%TO.N,SD_CMD*%
X40000000Y-59720000D02*
X39208100Y-59720000D01*
X28874200Y-70053900D02*
X28874200Y-70187200D01*
X39208100Y-59720000D02*
X28874200Y-70053900D01*
%TO.N,SD_CMD_C*%
X23407500Y-80126600D02*
X28294100Y-80126600D01*
X29937500Y-81770000D02*
X31621900Y-83454400D01*
X28294100Y-80126600D02*
X29937500Y-81770000D01*
X31621900Y-83454400D02*
X42834200Y-83454400D01*
%TO.N,SD_D0*%
X32451700Y-71375800D02*
X38246900Y-71375800D01*
%TO.N,SD_D0_C*%
X16896500Y-77943300D02*
X18676800Y-79723600D01*
X22539800Y-79723600D02*
X25483300Y-76780100D01*
X25483300Y-76780100D02*
X33840000Y-76780100D01*
X16896500Y-77943300D02*
X7120300Y-77943300D01*
X18676800Y-79723600D02*
X22539800Y-79723600D01*
%TO.N,SD_D1_C*%
X6327200Y-79094600D02*
X14712100Y-79094600D01*
X14712100Y-79094600D02*
X15175400Y-79557900D01*
%TO.N,SD_D2_C*%
X21301800Y-78589200D02*
X15473000Y-72760400D01*
X15473000Y-72760400D02*
X15473000Y-68482900D01*
X15473000Y-68482900D02*
X14937500Y-67947400D01*
%TO.N,SD_D3_C*%
X10234500Y-83903700D02*
X5654000Y-79323200D01*
X26523800Y-83903700D02*
X21820000Y-83903700D01*
X5654000Y-78479500D02*
X11300500Y-72833000D01*
X28657500Y-81770000D02*
X26523800Y-83903700D01*
X11300500Y-72833000D02*
X13361100Y-72833000D01*
X21820000Y-83903700D02*
X10234500Y-83903700D01*
X5654000Y-79323200D02*
X5654000Y-78479500D01*
%TO.N,SD_EN_G*%
X20958700Y-79217900D02*
X22311200Y-79217900D01*
X25650400Y-75878700D02*
X31155000Y-75878700D01*
X9554400Y-75861900D02*
X17602700Y-75861900D01*
X17602700Y-75861900D02*
X20958700Y-79217900D01*
X22311200Y-79217900D02*
X25650400Y-75878700D01*
%TO.N,SD_PWR_EN*%
X59050000Y-58450000D02*
X35853700Y-58450000D01*
X62860000Y-54640000D02*
X59050000Y-58450000D01*
X35853700Y-58450000D02*
X34497300Y-59806400D01*
%TO.N,SENS_RTN*%
X20000000Y-7875000D02*
X17799500Y-7875000D01*
X17799500Y-7875000D02*
X5103500Y-20571000D01*
X20000000Y-7875000D02*
X22000000Y-7875000D01*
X5103500Y-20571000D02*
X5103500Y-21383600D01*
%TO.N,VBAT_SNS*%
X53277500Y-64662000D02*
X47585000Y-64662000D01*
%TO.N,XTAL1*%
X76726900Y-24857700D02*
X70263500Y-18394300D01*
X70263500Y-18394300D02*
X69566500Y-18394300D01*
%TD*%
M02*
