%TF.GenerationSoftware,KiCad,Pcbnew,9.0.5*%
%TF.CreationDate,2026-08-13T07:34:45-04:00*%
%TF.ProjectId,esp32s3-can-sd-logger,65737033-3273-4332-9d63-616e2d73642d,rev?*%
%TF.SameCoordinates,Original*%
%TF.FileFunction,Soldermask,Top*%
%TF.FilePolarity,Negative*%
%FSLAX46Y46*%
G04 Gerber Fmt 4.6, Leading zero omitted, Abs format (unit mm)*
G04 Created by KiCad (PCBNEW 9.0.5) date 2026-08-13 07:34:45*
%MOMM*%
%LPD*%
G01*
G04 APERTURE LIST*
G04 Aperture macros list*
%AMRoundRect*
0 Rectangle with rounded corners*
0 $1 Rounding radius*
0 $2 $3 $4 $5 $6 $7 $8 $9 X,Y pos of 4 corners*
0 Add a 4 corners polygon primitive as box body*
4,1,4,$2,$3,$4,$5,$6,$7,$8,$9,$2,$3,0*
0 Add four circle primitives for the rounded corners*
1,1,$1+$1,$2,$3*
1,1,$1+$1,$4,$5*
1,1,$1+$1,$6,$7*
1,1,$1+$1,$8,$9*
0 Add four rect primitives between the rounded corners*
20,1,$1+$1,$2,$3,$4,$5,0*
20,1,$1+$1,$4,$5,$6,$7,0*
20,1,$1+$1,$6,$7,$8,$9,0*
20,1,$1+$1,$8,$9,$2,$3,0*%
G04 Aperture macros list end*
%ADD10RoundRect,0.250000X-1.000000X-0.650000X1.000000X-0.650000X1.000000X0.650000X-1.000000X0.650000X0*%
%ADD11RoundRect,0.250000X-0.312500X-1.450000X0.312500X-1.450000X0.312500X1.450000X-0.312500X1.450000X0*%
%ADD12RoundRect,0.250000X-0.262500X-0.450000X0.262500X-0.450000X0.262500X0.450000X-0.262500X0.450000X0*%
%ADD13RoundRect,0.150000X-0.587500X-0.150000X0.587500X-0.150000X0.587500X0.150000X-0.587500X0.150000X0*%
%ADD14RoundRect,0.150000X-0.512500X-0.150000X0.512500X-0.150000X0.512500X0.150000X-0.512500X0.150000X0*%
%ADD15R,1.000000X1.500000*%
%ADD16R,1.700000X1.700000*%
%ADD17C,1.700000*%
%ADD18RoundRect,0.250000X-0.325000X-0.650000X0.325000X-0.650000X0.325000X0.650000X-0.325000X0.650000X0*%
%ADD19RoundRect,0.250000X-0.250000X-0.475000X0.250000X-0.475000X0.250000X0.475000X-0.250000X0.475000X0*%
%ADD20C,1.500000*%
%ADD21C,3.200000*%
%ADD22R,1.350000X0.900000*%
%ADD23RoundRect,0.218750X-0.218750X-0.381250X0.218750X-0.381250X0.218750X0.381250X-0.218750X0.381250X0*%
%ADD24RoundRect,0.250000X-0.550000X-0.550000X0.550000X-0.550000X0.550000X0.550000X-0.550000X0.550000X0*%
%ADD25C,1.600000*%
%ADD26RoundRect,0.250000X-0.350000X-0.625000X0.350000X-0.625000X0.350000X0.625000X-0.350000X0.625000X0*%
%ADD27O,1.200000X1.750000*%
%ADD28RoundRect,0.243750X-0.243750X-0.456250X0.243750X-0.456250X0.243750X0.456250X-0.243750X0.456250X0*%
%ADD29RoundRect,0.250000X-0.312500X-0.625000X0.312500X-0.625000X0.312500X0.625000X-0.312500X0.625000X0*%
%ADD30R,0.700000X1.750000*%
%ADD31R,1.450000X1.000000*%
%ADD32R,1.000000X1.550000*%
%ADD33R,0.800000X1.500000*%
%ADD34R,1.300000X1.500000*%
%ADD35R,1.500000X1.500000*%
%ADD36R,0.800000X1.400000*%
%ADD37RoundRect,0.250000X0.625000X-0.350000X0.625000X0.350000X-0.625000X0.350000X-0.625000X-0.350000X0*%
%ADD38O,1.750000X1.200000*%
%ADD39RoundRect,0.250000X-0.450000X-0.350000X0.450000X-0.350000X0.450000X0.350000X-0.450000X0.350000X0*%
%ADD40RoundRect,0.150000X-0.825000X-0.150000X0.825000X-0.150000X0.825000X0.150000X-0.825000X0.150000X0*%
%ADD41RoundRect,0.075000X-0.650000X-0.075000X0.650000X-0.075000X0.650000X0.075000X-0.650000X0.075000X0*%
G04 APERTURE END LIST*
%TO.C,JP6*%
G36*
X3525000Y-28275000D02*
G01*
X3825000Y-28275000D01*
X3825000Y-29775000D01*
X3525000Y-29775000D01*
X3525000Y-28275000D01*
G37*
%TO.C,JP4*%
G36*
X67525000Y-34935000D02*
G01*
X69125000Y-34935000D01*
X69125000Y-36435000D01*
X67525000Y-36435000D01*
X67525000Y-34935000D01*
G37*
%TO.C,JP9*%
G36*
X30225000Y-28275000D02*
G01*
X30525000Y-28275000D01*
X30525000Y-29775000D01*
X30225000Y-29775000D01*
X30225000Y-28275000D01*
G37*
%TO.C,JP1*%
G36*
X30425000Y-61000000D02*
G01*
X30725000Y-61000000D01*
X30725000Y-62500000D01*
X30425000Y-62500000D01*
X30425000Y-61000000D01*
G37*
%TO.C,JP8*%
G36*
X25635000Y-18475000D02*
G01*
X25935000Y-18475000D01*
X25935000Y-19975000D01*
X25635000Y-19975000D01*
X25635000Y-18475000D01*
G37*
%TO.C,JP7*%
G36*
X16735000Y-18475000D02*
G01*
X17035000Y-18475000D01*
X17035000Y-19975000D01*
X16735000Y-19975000D01*
X16735000Y-18475000D01*
G37*
%TO.C,JP2*%
G36*
X76145000Y-43525000D02*
G01*
X76445000Y-43525000D01*
X76445000Y-45025000D01*
X76145000Y-45025000D01*
X76145000Y-43525000D01*
G37*
%TO.C,JP3*%
G36*
X72575000Y-34935000D02*
G01*
X72875000Y-34935000D01*
X72875000Y-36435000D01*
X72575000Y-36435000D01*
X72575000Y-34935000D01*
G37*
%TO.C,JP5*%
G36*
X76325000Y-34935000D02*
G01*
X76625000Y-34935000D01*
X76625000Y-36435000D01*
X76325000Y-36435000D01*
X76325000Y-34935000D01*
G37*
%TD*%
D10*
%TO.C,D9*%
X74975000Y-31235000D03*
X78975000Y-31235000D03*
%TD*%
D11*
%TO.C,PF2*%
X43337500Y-28975000D03*
X47612500Y-28975000D03*
%TD*%
D12*
%TO.C,R56*%
X19292500Y-44975000D03*
X21117500Y-44975000D03*
%TD*%
%TO.C,R25*%
X14792500Y-66025000D03*
X16617500Y-66025000D03*
%TD*%
%TO.C,R12*%
X85352500Y-59975000D03*
X87177500Y-59975000D03*
%TD*%
D13*
%TO.C,U1*%
X43517500Y-14775000D03*
X43517500Y-16675000D03*
X45392500Y-15725000D03*
%TD*%
D12*
%TO.C,R13*%
X29312500Y-68975000D03*
X31137500Y-68975000D03*
%TD*%
%TO.C,R27*%
X22412500Y-66025000D03*
X24237500Y-66025000D03*
%TD*%
D14*
%TO.C,U2*%
X73287500Y-59775000D03*
X73287500Y-60725000D03*
X73287500Y-61675000D03*
X75562500Y-61675000D03*
X75562500Y-59775000D03*
%TD*%
D15*
%TO.C,JP6*%
X3025000Y-29025000D03*
X4325000Y-29025000D03*
%TD*%
D16*
%TO.C,J5*%
X93000000Y-46000000D03*
D17*
X93000000Y-48540000D03*
X93000000Y-51080000D03*
X93000000Y-53620000D03*
%TD*%
D13*
%TO.C,D15*%
X20817500Y-18725000D03*
X20817500Y-20625000D03*
X22692500Y-19675000D03*
%TD*%
D18*
%TO.C,C4*%
X43350000Y-48275000D03*
X46300000Y-48275000D03*
%TD*%
D19*
%TO.C,C32*%
X47585000Y-67005000D03*
X49485000Y-67005000D03*
%TD*%
%TO.C,C26*%
X11675000Y-23805000D03*
X13575000Y-23805000D03*
%TD*%
D20*
%TO.C,TP7*%
X46975000Y-84275000D03*
%TD*%
D19*
%TO.C,C31*%
X29475000Y-23905000D03*
X31375000Y-23905000D03*
%TD*%
D12*
%TO.C,R39*%
X2792500Y-36025000D03*
X4617500Y-36025000D03*
%TD*%
%TO.C,R4*%
X51452500Y-14975000D03*
X53277500Y-14975000D03*
%TD*%
%TO.C,R50*%
X33302500Y-32675000D03*
X35127500Y-32675000D03*
%TD*%
D20*
%TO.C,TP2*%
X32225000Y-84275000D03*
%TD*%
D12*
%TO.C,R5*%
X55262500Y-14975000D03*
X57087500Y-14975000D03*
%TD*%
D13*
%TO.C,D19*%
X10467500Y-44775000D03*
X10467500Y-46675000D03*
X12342500Y-45725000D03*
%TD*%
D12*
%TO.C,R11*%
X81542500Y-59975000D03*
X83367500Y-59975000D03*
%TD*%
%TO.C,R55*%
X10412500Y-49925000D03*
X12237500Y-49925000D03*
%TD*%
D19*
%TO.C,C17*%
X33425000Y-61480000D03*
X35325000Y-61480000D03*
%TD*%
D20*
%TO.C,TP3*%
X35175000Y-84275000D03*
%TD*%
D10*
%TO.C,D5*%
X15525000Y-62250000D03*
X19525000Y-62250000D03*
%TD*%
D20*
%TO.C,TP10*%
X55825000Y-84275000D03*
%TD*%
D12*
%TO.C,R59*%
X55262500Y-66975000D03*
X57087500Y-66975000D03*
%TD*%
D13*
%TO.C,D11*%
X6867500Y-23675000D03*
X6867500Y-25575000D03*
X8742500Y-24625000D03*
%TD*%
D18*
%TO.C,C2*%
X56100000Y-44525000D03*
X59050000Y-44525000D03*
%TD*%
D12*
%TO.C,R54*%
X6602500Y-49925000D03*
X8427500Y-49925000D03*
%TD*%
%TO.C,R41*%
X15542500Y-23775000D03*
X17367500Y-23775000D03*
%TD*%
%TO.C,R20*%
X14052500Y-78475000D03*
X15877500Y-78475000D03*
%TD*%
%TO.C,R49*%
X29492500Y-32675000D03*
X31317500Y-32675000D03*
%TD*%
D13*
%TO.C,D20*%
X43517500Y-66775000D03*
X43517500Y-68675000D03*
X45392500Y-67725000D03*
%TD*%
D12*
%TO.C,R35*%
X70602500Y-39335000D03*
X72427500Y-39335000D03*
%TD*%
D10*
%TO.C,D2*%
X67525000Y-79225000D03*
X71525000Y-79225000D03*
%TD*%
D12*
%TO.C,R51*%
X29492500Y-36025000D03*
X31317500Y-36025000D03*
%TD*%
%TO.C,R38*%
X6602500Y-32675000D03*
X8427500Y-32675000D03*
%TD*%
D15*
%TO.C,JP4*%
X67025000Y-35685000D03*
X68325000Y-35685000D03*
X69625000Y-35685000D03*
%TD*%
D19*
%TO.C,C3*%
X48325000Y-48105000D03*
X50225000Y-48105000D03*
%TD*%
%TO.C,C14*%
X19535000Y-74305000D03*
X21435000Y-74305000D03*
%TD*%
D12*
%TO.C,R32*%
X78222500Y-48825000D03*
X80047500Y-48825000D03*
%TD*%
D19*
%TO.C,C5*%
X52175000Y-48105000D03*
X54075000Y-48105000D03*
%TD*%
D20*
%TO.C,TP11*%
X58775000Y-84275000D03*
%TD*%
D19*
%TO.C,C16*%
X26475000Y-55005000D03*
X28375000Y-55005000D03*
%TD*%
D12*
%TO.C,R8*%
X43292500Y-51825000D03*
X45117500Y-51825000D03*
%TD*%
D19*
%TO.C,C25*%
X6525000Y-28755000D03*
X8425000Y-28755000D03*
%TD*%
D21*
%TO.C,H2*%
X4000000Y-96000000D03*
%TD*%
D12*
%TO.C,R10*%
X50912500Y-51825000D03*
X52737500Y-51825000D03*
%TD*%
D19*
%TO.C,C22*%
X74625000Y-23615000D03*
X76525000Y-23615000D03*
%TD*%
D12*
%TO.C,R36*%
X74412500Y-39335000D03*
X76237500Y-39335000D03*
%TD*%
D22*
%TO.C,L1*%
X30500000Y-54725000D03*
X35050000Y-54725000D03*
X30500000Y-57225000D03*
X35050000Y-57225000D03*
%TD*%
D12*
%TO.C,R48*%
X20592500Y-30535000D03*
X22417500Y-30535000D03*
%TD*%
D20*
%TO.C,TP9*%
X52875000Y-84275000D03*
%TD*%
%TO.C,TP8*%
X49925000Y-84275000D03*
%TD*%
D12*
%TO.C,R6*%
X43292500Y-19825000D03*
X45117500Y-19825000D03*
%TD*%
D15*
%TO.C,JP9*%
X29725000Y-29025000D03*
X31025000Y-29025000D03*
%TD*%
D12*
%TO.C,R26*%
X18602500Y-66025000D03*
X20427500Y-66025000D03*
%TD*%
D19*
%TO.C,C21*%
X83175000Y-35415000D03*
X85075000Y-35415000D03*
%TD*%
D23*
%TO.C,FB1*%
X43212500Y-33225000D03*
X45337500Y-33225000D03*
%TD*%
D20*
%TO.C,TP4*%
X38125000Y-84275000D03*
%TD*%
D16*
%TO.C,J7*%
X93000000Y-33000000D03*
D17*
X93000000Y-35540000D03*
X93000000Y-38080000D03*
X93000000Y-40620000D03*
%TD*%
D12*
%TO.C,R24*%
X31092500Y-78475000D03*
X32917500Y-78475000D03*
%TD*%
D10*
%TO.C,D14*%
X21325000Y-14775000D03*
X25325000Y-14775000D03*
%TD*%
D12*
%TO.C,R57*%
X23102500Y-44975000D03*
X24927500Y-44975000D03*
%TD*%
%TO.C,R18*%
X32372500Y-74275000D03*
X34197500Y-74275000D03*
%TD*%
D20*
%TO.C,TP6*%
X44025000Y-84275000D03*
%TD*%
D24*
%TO.C,C6*%
X68525000Y-72275000D03*
D25*
X72025000Y-72275000D03*
%TD*%
D12*
%TO.C,R17*%
X28112500Y-74275000D03*
X29937500Y-74275000D03*
%TD*%
D19*
%TO.C,C19*%
X78475000Y-13005000D03*
X80375000Y-13005000D03*
%TD*%
D13*
%TO.C,Q2*%
X24777500Y-68775000D03*
X24777500Y-70675000D03*
X26652500Y-69725000D03*
%TD*%
D19*
%TO.C,C8*%
X47585000Y-15005000D03*
X49485000Y-15005000D03*
%TD*%
D26*
%TO.C,J9*%
X12000000Y-6500000D03*
D27*
X14000000Y-6500000D03*
X16000000Y-6500000D03*
X18000000Y-6500000D03*
X20000000Y-6500000D03*
X22000000Y-6500000D03*
X24000000Y-6500000D03*
X26000000Y-6500000D03*
X28000000Y-6500000D03*
X30000000Y-6500000D03*
%TD*%
D14*
%TO.C,U3*%
X9937500Y-68775000D03*
X9937500Y-69725000D03*
X9937500Y-70675000D03*
X12212500Y-70675000D03*
X12212500Y-69725000D03*
X12212500Y-68775000D03*
%TD*%
D12*
%TO.C,R1*%
X79252500Y-78425000D03*
X81077500Y-78425000D03*
%TD*%
%TO.C,R52*%
X33302500Y-36025000D03*
X35127500Y-36025000D03*
%TD*%
%TO.C,R40*%
X6602500Y-36025000D03*
X8427500Y-36025000D03*
%TD*%
%TO.C,R58*%
X51452500Y-66975000D03*
X53277500Y-66975000D03*
%TD*%
D19*
%TO.C,C15*%
X22625000Y-55005000D03*
X24525000Y-55005000D03*
%TD*%
%TO.C,C24*%
X87025000Y-35415000D03*
X88925000Y-35415000D03*
%TD*%
D12*
%TO.C,R42*%
X11692500Y-27185000D03*
X13517500Y-27185000D03*
%TD*%
D15*
%TO.C,JP1*%
X29925000Y-61750000D03*
X31225000Y-61750000D03*
%TD*%
D28*
%TO.C,D4*%
X56017500Y-48075000D03*
X57892500Y-48075000D03*
%TD*%
D19*
%TO.C,C11*%
X48325000Y-44355000D03*
X50225000Y-44355000D03*
%TD*%
%TO.C,C20*%
X79325000Y-35415000D03*
X81225000Y-35415000D03*
%TD*%
D13*
%TO.C,D17*%
X33567500Y-23675000D03*
X33567500Y-25575000D03*
X35442500Y-24625000D03*
%TD*%
D10*
%TO.C,D12*%
X12425000Y-14775000D03*
X16425000Y-14775000D03*
%TD*%
D12*
%TO.C,R37*%
X2792500Y-32675000D03*
X4617500Y-32675000D03*
%TD*%
D29*
%TO.C,R3*%
X74292500Y-78605000D03*
X77217500Y-78605000D03*
%TD*%
D19*
%TO.C,C28*%
X33225000Y-28755000D03*
X35125000Y-28755000D03*
%TD*%
D30*
%TO.C,J8*%
X20175000Y-92350000D03*
X19075000Y-92350000D03*
X17975000Y-92350000D03*
X16875000Y-92350000D03*
X15775000Y-92350000D03*
X14675000Y-92350000D03*
X13575000Y-92350000D03*
X12475000Y-92350000D03*
D31*
X11350000Y-83125000D03*
D32*
X22575000Y-81550000D03*
D33*
X11025000Y-84625000D03*
D34*
X11275000Y-92225000D03*
D35*
X22625000Y-92225000D03*
D36*
X22975000Y-83975000D03*
%TD*%
D20*
%TO.C,TP5*%
X41075000Y-84275000D03*
%TD*%
D12*
%TO.C,R31*%
X74412500Y-48825000D03*
X76237500Y-48825000D03*
%TD*%
%TO.C,R28*%
X66792500Y-48825000D03*
X68617500Y-48825000D03*
%TD*%
D26*
%TO.C,J2*%
X68000000Y-6500000D03*
D27*
X70000000Y-6500000D03*
X72000000Y-6500000D03*
X74000000Y-6500000D03*
%TD*%
D19*
%TO.C,C1*%
X52175000Y-44355000D03*
X54075000Y-44355000D03*
%TD*%
D18*
%TO.C,C13*%
X14110000Y-74475000D03*
X17060000Y-74475000D03*
%TD*%
D12*
%TO.C,R21*%
X18312500Y-78475000D03*
X20137500Y-78475000D03*
%TD*%
D10*
%TO.C,D3*%
X50375000Y-28775000D03*
X54375000Y-28775000D03*
%TD*%
D37*
%TO.C,J1*%
X4000000Y-66000000D03*
D38*
X4000000Y-64000000D03*
X4000000Y-62000000D03*
X4000000Y-60000000D03*
%TD*%
D12*
%TO.C,R46*%
X20592500Y-27185000D03*
X22417500Y-27185000D03*
%TD*%
D10*
%TO.C,D8*%
X67525000Y-31235000D03*
X71525000Y-31235000D03*
%TD*%
D12*
%TO.C,R29*%
X70602500Y-48825000D03*
X72427500Y-48825000D03*
%TD*%
%TO.C,R45*%
X24442500Y-23775000D03*
X26267500Y-23775000D03*
%TD*%
%TO.C,R23*%
X26832500Y-78475000D03*
X28657500Y-78475000D03*
%TD*%
D14*
%TO.C,U4*%
X14937500Y-68775000D03*
X14937500Y-69725000D03*
X14937500Y-70675000D03*
X17212500Y-70675000D03*
X17212500Y-69725000D03*
X17212500Y-68775000D03*
%TD*%
D13*
%TO.C,D13*%
X11917500Y-18725000D03*
X11917500Y-20625000D03*
X13792500Y-19675000D03*
%TD*%
D21*
%TO.C,H4*%
X94000000Y-96000000D03*
%TD*%
D39*
%TO.C,Y1*%
X81925000Y-32085000D03*
X84125000Y-32085000D03*
X84125000Y-30385000D03*
X81925000Y-30385000D03*
%TD*%
D13*
%TO.C,D7*%
X71327500Y-43775000D03*
X71327500Y-45675000D03*
X73202500Y-44725000D03*
%TD*%
D12*
%TO.C,R7*%
X47102500Y-19825000D03*
X48927500Y-19825000D03*
%TD*%
D20*
%TO.C,TP1*%
X29275000Y-84275000D03*
%TD*%
D12*
%TO.C,R14*%
X33572500Y-68975000D03*
X35397500Y-68975000D03*
%TD*%
%TO.C,R47*%
X24402500Y-27185000D03*
X26227500Y-27185000D03*
%TD*%
%TO.C,R22*%
X22572500Y-78475000D03*
X24397500Y-78475000D03*
%TD*%
%TO.C,R43*%
X15502500Y-27185000D03*
X17327500Y-27185000D03*
%TD*%
D18*
%TO.C,C9*%
X47300000Y-33525000D03*
X50250000Y-33525000D03*
%TD*%
D19*
%TO.C,C30*%
X2775000Y-23905000D03*
X4675000Y-23905000D03*
%TD*%
D12*
%TO.C,R16*%
X23852500Y-74275000D03*
X25677500Y-74275000D03*
%TD*%
%TO.C,R9*%
X47102500Y-51825000D03*
X48927500Y-51825000D03*
%TD*%
%TO.C,R2*%
X83062500Y-78425000D03*
X84887500Y-78425000D03*
%TD*%
D19*
%TO.C,C23*%
X78475000Y-23615000D03*
X80375000Y-23615000D03*
%TD*%
D10*
%TO.C,D10*%
X3525000Y-14775000D03*
X7525000Y-14775000D03*
%TD*%
D12*
%TO.C,R19*%
X9792500Y-78475000D03*
X11617500Y-78475000D03*
%TD*%
D21*
%TO.C,H1*%
X4000000Y-4000000D03*
%TD*%
D15*
%TO.C,JP8*%
X25135000Y-19225000D03*
X26435000Y-19225000D03*
%TD*%
D19*
%TO.C,C18*%
X74625000Y-13005000D03*
X76525000Y-13005000D03*
%TD*%
D40*
%TO.C,U7*%
X67250000Y-23430000D03*
X67250000Y-24700000D03*
X67250000Y-25970000D03*
X67250000Y-27240000D03*
X72200000Y-27240000D03*
X72200000Y-25970000D03*
X72200000Y-24700000D03*
X72200000Y-23430000D03*
%TD*%
D29*
%TO.C,R30*%
X79212500Y-44155000D03*
X82137500Y-44155000D03*
%TD*%
D21*
%TO.C,H3*%
X94000000Y-4000000D03*
%TD*%
D10*
%TO.C,D6*%
X22975000Y-62250000D03*
X26975000Y-62250000D03*
%TD*%
D16*
%TO.C,J3*%
X40000000Y-14000000D03*
D17*
X40000000Y-16540000D03*
X40000000Y-19080000D03*
X40000000Y-21620000D03*
X40000000Y-24160000D03*
X40000000Y-26700000D03*
X40000000Y-29240000D03*
X40000000Y-31780000D03*
X40000000Y-34320000D03*
X40000000Y-36860000D03*
X40000000Y-39400000D03*
X40000000Y-41940000D03*
X40000000Y-44480000D03*
X40000000Y-47020000D03*
X40000000Y-49560000D03*
X40000000Y-52100000D03*
X40000000Y-54640000D03*
X40000000Y-57180000D03*
X40000000Y-59720000D03*
X40000000Y-62260000D03*
X40000000Y-64800000D03*
X40000000Y-67340000D03*
%TD*%
D41*
%TO.C,U9*%
X29705000Y-18725000D03*
X29705000Y-19225000D03*
X29705000Y-19725000D03*
X29705000Y-20225000D03*
X29705000Y-20725000D03*
X34105000Y-20725000D03*
X34105000Y-20225000D03*
X34105000Y-19725000D03*
X34105000Y-19225000D03*
X34105000Y-18725000D03*
%TD*%
D15*
%TO.C,JP7*%
X16235000Y-19225000D03*
X17535000Y-19225000D03*
%TD*%
D19*
%TO.C,C12*%
X77675000Y-60005000D03*
X79575000Y-60005000D03*
%TD*%
D22*
%TO.C,L2*%
X82500000Y-23335000D03*
X87050000Y-23335000D03*
X82500000Y-25835000D03*
X87050000Y-25835000D03*
%TD*%
D13*
%TO.C,Q1*%
X20017500Y-68775000D03*
X20017500Y-70675000D03*
X21892500Y-69725000D03*
%TD*%
D16*
%TO.C,J10*%
X93000000Y-59000000D03*
D17*
X93000000Y-61540000D03*
X93000000Y-64080000D03*
X93000000Y-66620000D03*
%TD*%
D12*
%TO.C,R53*%
X2792500Y-49925000D03*
X4617500Y-49925000D03*
%TD*%
D19*
%TO.C,C27*%
X20575000Y-23805000D03*
X22475000Y-23805000D03*
%TD*%
D10*
%TO.C,D18*%
X3525000Y-45775000D03*
X7525000Y-45775000D03*
%TD*%
D12*
%TO.C,R34*%
X66792500Y-39335000D03*
X68617500Y-39335000D03*
%TD*%
D19*
%TO.C,C29*%
X14535000Y-45005000D03*
X16435000Y-45005000D03*
%TD*%
D12*
%TO.C,R15*%
X9792500Y-74275000D03*
X11617500Y-74275000D03*
%TD*%
D10*
%TO.C,D16*%
X30225000Y-14775000D03*
X34225000Y-14775000D03*
%TD*%
D18*
%TO.C,C10*%
X43350000Y-44525000D03*
X46300000Y-44525000D03*
%TD*%
D29*
%TO.C,R33*%
X84222500Y-44155000D03*
X87147500Y-44155000D03*
%TD*%
D11*
%TO.C,PF1*%
X43337500Y-39975000D03*
X47612500Y-39975000D03*
%TD*%
D15*
%TO.C,JP2*%
X75645000Y-44275000D03*
X76945000Y-44275000D03*
%TD*%
D12*
%TO.C,R44*%
X11692500Y-30535000D03*
X13517500Y-30535000D03*
%TD*%
D16*
%TO.C,J4*%
X62860000Y-14000000D03*
D17*
X62860000Y-16540000D03*
X62860000Y-19080000D03*
X62860000Y-21620000D03*
X62860000Y-24160000D03*
X62860000Y-26700000D03*
X62860000Y-29240000D03*
X62860000Y-31780000D03*
X62860000Y-34320000D03*
X62860000Y-36860000D03*
X62860000Y-39400000D03*
X62860000Y-41940000D03*
X62860000Y-44480000D03*
X62860000Y-47020000D03*
X62860000Y-49560000D03*
X62860000Y-52100000D03*
X62860000Y-54640000D03*
X62860000Y-57180000D03*
X62860000Y-59720000D03*
X62860000Y-62260000D03*
X62860000Y-64800000D03*
X62860000Y-67340000D03*
%TD*%
D15*
%TO.C,JP3*%
X72075000Y-35685000D03*
X73375000Y-35685000D03*
%TD*%
D11*
%TO.C,PF3*%
X66837500Y-60975000D03*
X71112500Y-60975000D03*
%TD*%
D40*
%TO.C,U5*%
X15250000Y-54820000D03*
X15250000Y-56090000D03*
X15250000Y-57360000D03*
X15250000Y-58630000D03*
X20200000Y-58630000D03*
X20200000Y-57360000D03*
X20200000Y-56090000D03*
X20200000Y-54820000D03*
%TD*%
D15*
%TO.C,JP5*%
X75825000Y-35685000D03*
X77125000Y-35685000D03*
%TD*%
D41*
%TO.C,U8*%
X3005000Y-18725000D03*
X3005000Y-19225000D03*
X3005000Y-19725000D03*
X3005000Y-20225000D03*
X3005000Y-20725000D03*
X7405000Y-20725000D03*
X7405000Y-20225000D03*
X7405000Y-19725000D03*
X7405000Y-19225000D03*
X7405000Y-18725000D03*
%TD*%
D13*
%TO.C,Q3*%
X67017500Y-43775000D03*
X67017500Y-45675000D03*
X68892500Y-44725000D03*
%TD*%
D10*
%TO.C,D1*%
X50375000Y-39775000D03*
X54375000Y-39775000D03*
%TD*%
D24*
%TO.C,C7*%
X77475000Y-72275000D03*
D25*
X80975000Y-72275000D03*
%TD*%
D40*
%TO.C,U6*%
X67250000Y-12795000D03*
X67250000Y-14065000D03*
X67250000Y-15335000D03*
X67250000Y-16605000D03*
X67250000Y-17875000D03*
X67250000Y-19145000D03*
X67250000Y-20415000D03*
X72200000Y-20415000D03*
X72200000Y-19145000D03*
X72200000Y-17875000D03*
X72200000Y-16605000D03*
X72200000Y-15335000D03*
X72200000Y-14065000D03*
X72200000Y-12795000D03*
%TD*%
D16*
%TO.C,J6*%
X93000000Y-20000000D03*
D17*
X93000000Y-22540000D03*
X93000000Y-25080000D03*
%TD*%
M02*
